<svg xmlns="http://www.w3.org/2000/svg" width="47.493" height="48.412" viewBox="0 0 47.493 48.412">
  <g id="All" transform="translate(6798.997 -737.512)">
    <path id="Path_197" data-name="Path 197" d="M-6787.134,751.576a12.46,12.46,0,0,1,1.679.938,2.115,2.115,0,0,1,.71,1.747c0,4.693.013,9.386-.006,14.078a2.336,2.336,0,0,1-2.469,2.436c-1.577.014-3.153.024-4.73,0a7.067,7.067,0,0,1-7.034-7.064c-.021-1.576-.015-3.153,0-4.73a7.084,7.084,0,0,1,6.762-7.167c.091-.006.181-.023.358-.046,0-.7.01-1.4,0-2.094a10.951,10.951,0,0,1,.877-4.719c2.071-4.623,5.633-7.178,10.716-7.365,3.353-.124,6.714-.071,10.07-.013a11.8,11.8,0,0,1,11.549,11.516c.021.87,0,1.741,0,2.655.469.063.9.1,1.333.181a7.059,7.059,0,0,1,5.784,6.75c.041,1.705.036,3.413,0,5.119a7.071,7.071,0,0,1-6.673,6.97c-.125.008-.25.03-.44.053v.617c0,1.706.007,3.413,0,5.119a7.1,7.1,0,0,1-7.325,7.293,1.154,1.154,0,0,0-.984.449,4.7,4.7,0,0,1-5.42,1.243,4.78,4.78,0,0,1-2.87-4.724,4.789,4.789,0,0,1,3.6-4.252,4.647,4.647,0,0,1,5.1,2.075.861.861,0,0,0,.944.457,2.21,2.21,0,0,0,2.132-1.93c.093-2.1.027-4.215.027-6.259a8.829,8.829,0,0,1-1.366-.613,2.231,2.231,0,0,1-.961-1.966c0-4.693-.012-9.386,0-14.078a2.342,2.342,0,0,1,2.127-2.436c.07-.012.137-.038.249-.07a13.847,13.847,0,0,0-.4-4.677,7.14,7.14,0,0,0-6.72-4.773c-3.171-.03-6.344-.037-9.515,0a7.132,7.132,0,0,0-7.115,7.127C-6787.145,750.2-6787.134,750.971-6787.134,751.576Zm-2.4,14.441v-9.452c-.9,0-1.772-.068-2.63.016a2.287,2.287,0,0,0-2.084,2.348q-.046,2.362,0,4.725a2.288,2.288,0,0,0,2.085,2.347C-6791.306,766.084-6790.433,766.016-6789.534,766.016Zm28.56-9.451v9.484c.659,0,1.284,0,1.91,0a5.31,5.31,0,0,0,.721-.035,2.337,2.337,0,0,0,2.083-2.359q.048-2.362,0-4.725a2.284,2.284,0,0,0-2.084-2.348C-6759.2,756.5-6760.074,756.565-6760.974,756.565Z" fill="#fff"/>
  </g>
</svg>
