<svg xmlns="http://www.w3.org/2000/svg" width="47.514" height="48.412" viewBox="0 0 47.514 48.412">
  <g id="Fixed" transform="translate(7247.486 -1617.414)">
    <path id="Path_195" data-name="Path 195" d="M-7235.62,1631.63c1.767.369,2.394,1.14,2.394,2.874q0,6.764,0,13.528a2.4,2.4,0,0,1-1.229,2.326,2.807,2.807,0,0,1-1.22.3c-1.576.034-3.154.033-4.731.009a7.074,7.074,0,0,1-7.071-7.091c-.019-1.54-.01-3.08,0-4.62a7.079,7.079,0,0,1,6.789-7.26c.089-.007.177-.027.337-.052,0-.8-.009-1.6,0-2.388a11.584,11.584,0,0,1,4.181-8.987,11.122,11.122,0,0,1,7.268-2.813c3.451-.049,6.9-.066,10.354,0a11.767,11.767,0,0,1,11.3,10.156c.138,1.061.1,2.146.134,3.22.009.256,0,.513,0,.8.479.064.917.1,1.348.183a7.067,7.067,0,0,1,5.763,6.716c.045,1.725.039,3.452,0,5.177a7.074,7.074,0,0,1-6.7,6.952c-.109.007-.218.023-.389.042-.01.2-.028.4-.028.594,0,1.726.006,3.452,0,5.177a7.1,7.1,0,0,1-7.294,7.272,1.215,1.215,0,0,0-1.033.469,4.7,4.7,0,0,1-5.428,1.218,4.784,4.784,0,0,1-2.849-4.74,4.792,4.792,0,0,1,3.571-4.222,4.673,4.673,0,0,1,5.154,2.085.8.8,0,0,0,.838.447,2.306,2.306,0,0,0,2.272-2.179c.074-2.017.02-4.039.02-6.057a.588.588,0,0,0-.156-.091,2.39,2.39,0,0,1-2.218-2.643q-.006-5.651,0-11.3V1634.5a2.472,2.472,0,0,1,2.314-2.856c.607-4.468-1.126-8.267-5.7-9.327a7.294,7.294,0,0,0-1.6-.146q-4.509-.02-9.018-.005a7.162,7.162,0,0,0-7.377,7.383C-7235.622,1630.236-7235.62,1630.919-7235.62,1631.63Zm-2.4,14.277v-9.456c-.9,0-1.771-.067-2.63.016a2.269,2.269,0,0,0-2.083,2.291q-.061,2.418,0,4.838a2.267,2.267,0,0,0,2.079,2.295C-7239.8,1645.975-7238.923,1645.907-7238.02,1645.907Zm28.565.015c.886,0,1.722.056,2.547-.013a2.3,2.3,0,0,0,2.173-2.328c.04-1.593.034-3.188,0-4.782a2.227,2.227,0,0,0-1.831-2.275,23.916,23.916,0,0,0-2.892-.024Z" transform="translate(0 0)" fill="#fff"/>
    <path id="Path_196" data-name="Path 196" d="M-7126.36,1743.837q-2.052,2.1-4.1,4.193-1.081,1.1-2.167,2.2a2.972,2.972,0,0,1-4.438.017c-1.213-1.215-2.434-2.422-3.638-3.644a2.868,2.868,0,0,1,0-4.07,2.87,2.87,0,0,1,4.035-.017c.593.581,1.171,1.176,1.708,1.717.839-.8,1.665-1.583,2.473-2.377.7-.688,1.374-1.4,2.074-2.092a2.759,2.759,0,0,1,2.908-.726,2.709,2.709,0,0,1,1.957,2.211A2.792,2.792,0,0,1-7126.36,1743.837Z" transform="translate(-90.205 -103.444)" fill="#fff"/>
  </g>
</svg>
