<svg xmlns="http://www.w3.org/2000/svg" width="47.514" height="48.412" viewBox="0 0 47.514 48.412">
  <g id="In_progress" data-name="In progress" transform="translate(7247.486 -1617.414)">
    <path id="Path_192" data-name="Path 192" d="M-7235.621,1631.631c1.768.369,2.394,1.14,2.394,2.873q0,6.764,0,13.528a2.4,2.4,0,0,1-1.228,2.326,2.814,2.814,0,0,1-1.22.3c-1.577.034-3.155.033-4.732.009a7.074,7.074,0,0,1-7.071-7.091c-.019-1.54-.01-3.08,0-4.62a7.079,7.079,0,0,1,6.789-7.26c.089-.007.177-.027.338-.052,0-.8-.009-1.6,0-2.388a11.584,11.584,0,0,1,4.181-8.987,11.121,11.121,0,0,1,7.268-2.813c3.451-.049,6.9-.066,10.354,0a11.768,11.768,0,0,1,11.3,10.156c.137,1.062.1,2.146.134,3.22.008.256,0,.513,0,.8.479.064.917.1,1.348.183a7.066,7.066,0,0,1,5.763,6.716c.045,1.725.04,3.452.005,5.177a7.075,7.075,0,0,1-6.7,6.952c-.109.007-.218.023-.389.042-.009.2-.027.4-.028.594,0,1.726.006,3.452,0,5.177a7.1,7.1,0,0,1-7.294,7.272,1.214,1.214,0,0,0-1.032.468,4.7,4.7,0,0,1-5.428,1.218,4.785,4.785,0,0,1-2.85-4.74,4.792,4.792,0,0,1,3.571-4.223,4.673,4.673,0,0,1,5.154,2.085.8.8,0,0,0,.839.447,2.306,2.306,0,0,0,2.271-2.179c.074-2.017.02-4.039.02-6.057a.58.58,0,0,0-.155-.091,2.391,2.391,0,0,1-2.219-2.643q-.005-5.651,0-11.3,0-1.113,0-2.227a2.471,2.471,0,0,1,2.314-2.855c.607-4.468-1.125-8.268-5.7-9.328a7.3,7.3,0,0,0-1.6-.146q-4.509-.02-9.018-.005a7.163,7.163,0,0,0-7.377,7.383C-7235.623,1630.236-7235.621,1630.919-7235.621,1631.631Zm-2.4,14.277v-9.456c-.9,0-1.772-.067-2.629.016a2.268,2.268,0,0,0-2.083,2.291q-.061,2.418,0,4.838a2.265,2.265,0,0,0,2.078,2.295C-7239.8,1645.975-7238.923,1645.907-7238.02,1645.907Zm28.565.015c.886,0,1.721.056,2.547-.013a2.3,2.3,0,0,0,2.173-2.329c.04-1.593.034-3.188,0-4.782a2.226,2.226,0,0,0-1.83-2.275,23.925,23.925,0,0,0-2.893-.024Z" fill="#fff"/>
    <path id="Path_193" data-name="Path 193" d="M-7121.259,1705.023a7.108,7.108,0,0,1-2.863,5.532c-.289.232-.586.454-.886.672a2.887,2.887,0,0,0-1.257,1.462,2.2,2.2,0,0,1-2.588,1.33,2.33,2.33,0,0,1-1.888-2.238,4.021,4.021,0,0,1,1.506-3.269c.642-.558,1.346-1.046,2.023-1.563a2.721,2.721,0,0,0,1.2-2.266,2.391,2.391,0,0,0-2.259-2.48,2.365,2.365,0,0,0-2.467,2.266,2.39,2.39,0,0,1-2.892,2.419,2.364,2.364,0,0,1-1.872-2.262,7.172,7.172,0,0,1,7.339-7.179A7.257,7.257,0,0,1-7121.259,1705.023Z" transform="translate(-95.353 -68.145)" fill="#fff"/>
    <path id="Path_194" data-name="Path 194" d="M-7103.408,1827.872a2.358,2.358,0,0,1,2.372-2.363,2.359,2.359,0,0,1,2.352,2.385,2.366,2.366,0,0,1-2.372,2.369A2.366,2.366,0,0,1-7103.408,1827.872Z" transform="translate(-122.688 -177.201)" fill="#fff"/>
  </g>
</svg>
