<svg xmlns="http://www.w3.org/2000/svg" width="47.493" height="48.412" viewBox="0 0 47.493 48.412">
  <g id="New" transform="translate(6798.997 -737.512)">
    <path id="Path_189" data-name="Path 189" d="M-6787.134,751.576a12.453,12.453,0,0,1,1.679.938,2.116,2.116,0,0,1,.71,1.747c0,4.693.013,9.386-.005,14.078a2.336,2.336,0,0,1-2.47,2.436c-1.577.014-3.153.024-4.729,0a7.066,7.066,0,0,1-7.034-7.064c-.022-1.576-.015-3.153,0-4.73a7.084,7.084,0,0,1,6.762-7.167c.091-.006.181-.023.358-.046,0-.7.009-1.4,0-2.094a10.95,10.95,0,0,1,.877-4.719c2.071-4.623,5.633-7.178,10.716-7.365,3.353-.124,6.714-.071,10.07-.013a11.8,11.8,0,0,1,11.549,11.516c.02.87,0,1.741,0,2.655.469.063.9.1,1.333.181a7.059,7.059,0,0,1,5.785,6.75c.042,1.705.037,3.413,0,5.119a7.071,7.071,0,0,1-6.672,6.97c-.126.008-.25.03-.44.053v.617c0,1.706.006,3.413,0,5.119a7.1,7.1,0,0,1-7.325,7.293,1.155,1.155,0,0,0-.984.449,4.7,4.7,0,0,1-5.42,1.243,4.779,4.779,0,0,1-2.869-4.724,4.788,4.788,0,0,1,3.6-4.252,4.646,4.646,0,0,1,5.1,2.075.861.861,0,0,0,.944.457,2.21,2.21,0,0,0,2.132-1.93c.094-2.1.028-4.215.028-6.259a8.775,8.775,0,0,1-1.366-.613,2.232,2.232,0,0,1-.962-1.966q-.007-7.039,0-14.078a2.342,2.342,0,0,1,2.126-2.436c.07-.012.138-.038.25-.07a13.859,13.859,0,0,0-.4-4.677,7.141,7.141,0,0,0-6.72-4.773c-3.172-.029-6.344-.037-9.516,0a7.131,7.131,0,0,0-7.115,7.127C-6787.145,750.2-6787.134,750.971-6787.134,751.576Zm-2.4,14.441v-9.452c-.9,0-1.772-.068-2.629.016a2.288,2.288,0,0,0-2.085,2.348q-.045,2.362,0,4.725a2.289,2.289,0,0,0,2.085,2.347C-6791.306,766.084-6790.433,766.016-6789.535,766.016Zm28.561-9.451v9.484c.658,0,1.284,0,1.91,0a5.287,5.287,0,0,0,.721-.035,2.337,2.337,0,0,0,2.083-2.359q.048-2.362,0-4.724a2.284,2.284,0,0,0-2.083-2.348C-6759.2,756.5-6760.074,756.565-6760.974,756.565Z" fill="#fff"/>
    <path id="Path_190" data-name="Path 190" d="M-6650.236,887.819c0,1.131.009,2.262,0,3.393a2.335,2.335,0,0,1-2.363,2.473,2.331,2.331,0,0,1-2.36-2.475q-.018-3.449,0-6.9a2.329,2.329,0,0,1,2.362-2.472,2.341,2.341,0,0,1,2.364,2.474c0,.037,0,.074,0,.111Z" transform="translate(-122.653 -122.911)" fill="#fff"/>
    <path id="Path_191" data-name="Path 191" d="M-6650.187,836.282a2.334,2.334,0,0,1-2.438,2.28,2.335,2.335,0,0,1-2.28-2.44,2.333,2.333,0,0,1,2.439-2.279A2.331,2.331,0,0,1-6650.187,836.282Z" transform="translate(-122.708 -82.035)" fill="#fff"/>
  </g>
</svg>
