<svg id="Layer_1" data-name="Layer 1" xmlns="http://www.w3.org/2000/svg" viewBox="0 0 512 158"><defs><style>.cls-1{fill:none;}.cls-2{fill:#fe0000;}.cls-3{fill:#2e7dba;}.cls-4{fill:#ffab00;}</style></defs><title>logo</title><rect class="cls-1" y="2.6" width="512" height="160.79"/><g id="Group_1" data-name="Group 1"><g id="Group_205" data-name="Group 205"><path id="Path_55" data-name="Path 55" class="cls-2" d="M174.23,94.65v12.18H152.79q-12.87,0-12.87-20.29V70.31Q139.92,50,152.79,50h21.45l0,12.18H152.79q-4.29,0-4.29,8.12V86.54q0,8.12,4.29,8.12Z"/><path id="Path_56" data-name="Path 56" class="cls-2" d="M210.11,84.51H191.88v22.32h-8.58V72.34h26.82q3.22,0,3.22-4.06v-2q0-4.06-3.22-4.06H183.3l0-12.18h26.78q11.8,0,11.8,16.23v2a21.21,21.21,0,0,1-2.75,11.89q3.79,8.6,4.9,26.66h-8.58q-2.15-22.32-5.36-22.32"/><path id="Path_57" data-name="Path 57" class="cls-2" d="M240.27,50q6.43,0,8.58,16.23L252.06,86l3.22-19.72Q257.42,50,263.86,50q10.72,0,10.72,20.29v36.52H266V68.28q0-2-1.07-2t-2.15,8.12l-4.3,24.35q-1.07,8.12-5.36,8.12H251q-4.29,0-5.36-8.12l-4.29-24.35q-1.07-8.12-2.15-8.12t-1.07,2v38.55h-8.58V70.31Q229.54,50,240.27,50"/><path id="Path_58" data-name="Path 58" class="cls-3" d="M295.45,84.51q-11.8,0-11.8-16.23v-2q0-16.23,11.8-16.23h26.81V62.19H295.45q-3.22,0-3.22,4.06v2q0,4.06,3.22,4.06h15q11.8,0,11.8,16.23v2q0,16.23-11.8,16.23H283.69l0-12.17h26.81q3.22,0,3.22-4.06v-2q0-4.06-3.22-4.06Z"/><path id="Path_59" data-name="Path 59" class="cls-3" d="M354.92,62.19v44.64h-8.57V62.19h-15V50h38.61V62.19Z"/><path id="Path_60" data-name="Path 60" class="cls-3" d="M387.58,84.51v2q0,8.12,4.29,8.12h21.45v12.17H391.87Q379,106.83,379,86.54V70.31Q379,50,391.87,50h21.45l0,12.18H391.87q-4.29,0-4.29,8.12v2h25.74V84.51Z"/><path id="Path_61" data-name="Path 61" class="cls-3" d="M449.2,72.33q3.22,0,3.22-4.06v-2q0-4.06-3.22-4.06H422.39l0-12.17H449.2Q461,50,461,66.25v2q0,16.23-11.8,16.23H431v22.32h-8.58V72.34Z"/><path id="Path_62" data-name="Path 62" class="cls-3" d="M481.86,84.51q-11.8,0-11.8-16.23v-2q0-16.23,11.8-16.23h26.81V62.19H481.86q-3.22,0-3.22,4.06v2q0,4.06,3.22,4.06h15q11.8,0,11.8,16.23v2q0,16.23-11.8,16.23H470.1l0-12.17h26.81q3.22,0,3.22-4.06v-2q0-4.06-3.22-4.06Z"/></g><g id="Group_206" data-name="Group 206"><path id="Path_63" data-name="Path 63" class="cls-4" d="M46.26,2.6,63.75,70.77,139.92,39,44.15,131Z"/><path id="Path_64" data-name="Path 64" class="cls-3" d="M57.41,32.53l2.56,10v-.33a16.31,16.31,0,0,1,3.52-10.13c-1.9.06-3.93.2-6.07.47"/><path id="Path_65" data-name="Path 65" class="cls-3" d="M42.14,49.5l.21-13.11c-1.15.46-2.31,1-3.47,1.5A60.47,60.47,0,0,0,14,59.39C11,64.22-.69,82.59,6.86,102.49A44.24,44.24,0,0,0,26.7,124.72a50.43,50.43,0,0,1-6-53.93A48.81,48.81,0,0,1,42.14,49.5"/><path id="Path_66" data-name="Path 66" class="cls-4" d="M89.39,42.19a13,13,0,1,1-13-13h0a13,13,0,0,1,13,13"/><path id="Path_67" data-name="Path 67" class="cls-4" d="M104.07,29.83l1.72,5.42L101.24,32,96.7,35.25l1.72-5.42-4.58-3.4h5.84l1.57-5.3,1.57,5.3h5.84Z"/><path id="Path_68" data-name="Path 68" class="cls-2" d="M111.41,87.78,74,108.64,85,113.2c-4.1,6.61-14.37,21.55-38.54,20.75-39-1.29-43.09-37.4-43.09-37.4.23,7.64,10.72,54.37,53.58,57.46s58.94-27.59,58.94-27.59l9.69,4.33ZM76.66,151.64,70,146.83l-6.66,4.81,2.52-7.94-6.7-5h8.56L70,130.95l2.29,7.77h8.56l-6.72,5Zm19.92-14.18-6-4.32-6,4.32,2.26-7.13-6-4.47h7.68l2.06-7,2.06,7h7.68l-6,4.47Zm13.05-22.36-5.44-3.93-5.44,3.93,2.06-6.49-5.48-4.07h7l1.87-6.35,1.87,6.35h7l-5.49,4.07Z"/></g></g></svg>