<svg xmlns="http://www.w3.org/2000/svg" width="238.851" height="71.672" viewBox="0 0 238.851 71.672">
  <g id="Group_207" data-name="Group 207" transform="translate(-54.683 233.157)">
    <g id="Group_205" data-name="Group 205" transform="translate(119.24 -210.747)">
      <path id="Path_55" data-name="Path 55" d="M153.673,208.582v5.755H143.535q-6.083,0-6.083-9.59v-7.672q0-9.59,6.083-9.59h10.138l.017,5.755H143.535q-2.028,0-2.027,3.836v7.672q0,3.837,2.027,3.836Z" transform="translate(-137.452 -187.484)" fill="#fe0000"/>
      <path id="Path_56" data-name="Path 56" d="M177.72,203.788H169.1v10.548h-4.056v-16.3H177.72q1.52,0,1.52-1.918v-.959q0-1.918-1.52-1.918H165.047l.017-5.755H177.72q5.575,0,5.576,7.673v.959a10.026,10.026,0,0,1-1.3,5.62q1.79,4.066,2.315,12.6h-4.055q-1.014-10.548-2.535-10.548" transform="translate(-144.541 -187.484)" fill="#fe0000"/>
      <path id="Path_57" data-name="Path 57" d="M199.53,187.484q3.041,0,4.055,7.673l1.52,9.321,1.521-9.321q1.013-7.672,4.055-7.673,5.068,0,5.069,9.59v17.262H211.7V196.115q0-.959-.507-.959t-1.014,3.836L208.147,210.5q-.507,3.837-2.535,3.837H204.6q-2.028,0-2.535-3.837l-2.027-11.508q-.507-3.837-1.014-3.836t-.508.959v18.222h-4.055V197.074q0-9.59,5.069-9.59" transform="translate(-152.098 -187.484)" fill="#fe0000"/>
      <path id="Path_58" data-name="Path 58" d="M234.453,203.788q-5.576,0-5.576-7.673v-.959q0-7.672,5.576-7.673h12.673v5.755H234.453q-1.52,0-1.52,1.918v.959q0,1.918,1.52,1.918h7.1q5.575,0,5.576,7.672v.959q0,7.672-5.576,7.672H228.894l-.016-5.754H241.55q1.52,0,1.521-1.918V205.7q0-1.917-1.521-1.917Z" transform="translate(-160.939 -187.484)" fill="#2e7dba"/>
      <path id="Path_59" data-name="Path 59" d="M270.353,193.238v21.1H266.3v-21.1h-7.1v-5.754h18.248v5.754Z" transform="translate(-168.729 -187.484)" fill="#2e7dba"/>
      <path id="Path_60" data-name="Path 60" d="M293.58,203.788v.959q0,3.837,2.027,3.836h10.138v5.754H295.607q-6.083,0-6.082-9.59v-7.672q0-9.59,6.082-9.59h10.138l.017,5.755H295.607q-2.028,0-2.027,3.836v.959h12.165v5.755Z" transform="translate(-176.519 -187.484)" fill="#2e7dba"/>
      <path id="Path_61" data-name="Path 61" d="M329.792,198.033q1.52,0,1.52-1.918v-.959q0-1.918-1.52-1.918H317.119l.017-5.754h12.656q5.575,0,5.576,7.672v.959q0,7.672-5.576,7.673h-8.617v10.548h-4.056v-16.3Z" transform="translate(-183.608 -187.484)" fill="#2e7dba"/>
      <path id="Path_62" data-name="Path 62" d="M353.018,203.788q-5.576,0-5.576-7.673v-.959q0-7.672,5.576-7.673h12.673v5.755H353.018q-1.52,0-1.52,1.918v.959q0,1.918,1.52,1.918h7.1q5.577,0,5.576,7.672v.959q0,7.672-5.576,7.672H347.46l-.017-5.754h12.672q1.522,0,1.521-1.918V205.7q0-1.917-1.521-1.917Z" transform="translate(-191.398 -187.484)" fill="#2e7dba"/>
    </g>
    <g id="Group_206" data-name="Group 206" transform="translate(54.683 -233.157)">
      <path id="Path_63" data-name="Path 63" d="M236.649,25.759l8.269,32.221,36-15.041L235.651,86.423Z" transform="translate(-216.359 -25.759)" fill="#ffab00"/>
      <path id="Path_64" data-name="Path 64" d="M248.1,53.651l1.212,4.721c0-.052,0-.1,0-.155a7.709,7.709,0,0,1,1.663-4.787c-.9.026-1.859.094-2.87.221" transform="translate(-222.541 -39.505)" fill="#2e7dba"/>
      <path id="Path_65" data-name="Path 65" d="M216.139,63.69l.1-6.195c-.544.216-1.091.451-1.642.711a28.58,28.58,0,0,0-11.736,10.161c-1.448,2.28-6.965,10.964-3.395,20.369a20.91,20.91,0,0,0,9.376,10.509,23.837,23.837,0,0,1-2.856-25.489A23.07,23.07,0,0,1,216.139,63.69" transform="translate(-197.797 -41.525)" fill="#2e7dba"/>
      <path id="Path_66" data-name="Path 66" d="M265.973,56.856a6.166,6.166,0,1,1-6.166-6.166,6.166,6.166,0,0,1,6.166,6.166" transform="translate(-225.296 -38.144)" fill="#ffab00"/>
      <path id="Path_67" data-name="Path 67" d="M287.153,47.269l.812,2.563-2.147-1.551-2.148,1.551.812-2.563-2.165-1.606h2.761l.74-2.507.74,2.507h2.761Z" transform="translate(-239.541 -34.401)" fill="#ffab00"/>
      <path id="Path_68" data-name="Path 68" d="M248.4,105.763l-17.675,9.861,5.173,2.155c-1.939,3.126-6.79,10.185-18.214,9.808-18.43-.608-20.369-17.675-20.369-17.675.108,3.611,5.066,25.7,25.327,27.159s27.86-13.041,27.86-13.041l4.58,2.048Zm-16.427,30.185-3.146-2.273-3.148,2.273,1.19-3.755L223.7,129.84h4.046l1.084-3.674,1.084,3.674h4.046l-3.174,2.354Zm9.413-6.7-2.824-2.041-2.825,2.041,1.068-3.371-2.847-2.113h3.631l.973-3.3.974,3.3h3.632l-2.849,2.113Zm6.17-10.569-2.571-1.857-2.571,1.857.972-3.068-2.591-1.923h3.3l.886-3,.886,3h3.3l-2.593,1.923Z" transform="translate(-197.315 -65.503)" fill="#fe0000"/>
    </g>
  </g>
</svg>
