<svg xmlns="http://www.w3.org/2000/svg" xmlns:xlink="http://www.w3.org/1999/xlink" width="369" height="1295" viewBox="0 0 369 1295">
  <defs>
    <clipPath id="clip-path">
      <rect id="Rectangle_197" data-name="Rectangle 197" width="369" height="1295" transform="translate(2287 1565)" fill="#f2f2f2"/>
    </clipPath>
  </defs>
  <g id="Mask_Group_1" data-name="Mask Group 1" transform="translate(-2287 -1565)" opacity="0.05" clip-path="url(#clip-path)">
    <g id="Group_241" data-name="Group 241" transform="translate(2480.731 1769.284) rotate(90)">
      <path id="Path_148" data-name="Path 148" d="M-204-286.158v2.067q15.361,8.68,30.735,17.336c.734.411,1.4.942,2.513,1.7-1.292.736-2.2,1.272-3.112,1.788q-15.071,8.451-30.137,16.909v2.12q15.216-8.929,30.409-17.89c1.01-.595,2.018-1.167,3.411-1.963.1,1.443.221,2.385.2,3.328-.182,16.961-.441,33.922-.531,50.876a4.991,4.991,0,0,1-2.842,4.914Q-188.71-196.056-204-187.005v1.3q15.709-8.8,31.395-17.654a5.017,5.017,0,0,1,5.7-.085c14.867,8.491,29.8,16.853,44.716,25.261.745.42,1.44.936,2.694,1.746-2.585,1.483-4.649,2.693-6.728,3.866-13.5,7.566-27.029,15.094-40.492,22.732-2.021,1.142-3.56,1.342-5.691.112q-15.756-9.01-31.6-17.872v1.517c12.77,7.295,28.9,16.88,33.211,19.938q.257,28.157.522,56.674c-1.681-.332-19.653-10.553-33.733-18.92v1.833q14.919,8.428,29.849,16.833c.92.523,1.8,1.115,3.053,1.9-1.136.758-1.883,1.34-2.7,1.8Q-188.9-77.569-204-69.1v1.7Q-189.035-76.18-174.1-85c1.013-.6,2.034-1.169,3.438-1.979.1,1.409.23,2.349.216,3.283-.178,17.073-.41,34.137-.551,51.208-.016,1.907-.383,3.218-2.205,4.286q-15.425,8.963-30.8,18.031v1.692q15.739-8.8,31.446-17.647a4.509,4.509,0,0,1,5.11-.1c14.95,8.533,29.97,16.95,44.963,25.411.738.411,1.424.906,2.426,1.562-.974.653-1.62,1.18-2.34,1.582q-22.672,12.716-45.346,25.44a4.016,4.016,0,0,1-4.527.092Q-188.106,18.848-204,9.925v1.616q15.381,9.087,30.769,18.148a3.451,3.451,0,0,1,2.027,3.343c.115,17.748.3,35.492.455,53.243.007.429-.077.859-.189,2.042L-204,68.773v2.015q15.158,8.562,30.319,17.125a24.8,24.8,0,0,1,2.009,1.472c-1.091.7-1.861,1.263-2.682,1.721L-204,107.739v1.968q10.858-6.354,21.717-12.7c3.591-2.1,7.221-4.153,11.388-6.547.049,1.508.137,2.56.126,3.617-.191,16.855-.437,33.722-.536,50.586a5.012,5.012,0,0,1-2.837,4.925Q-189.11,158.277-204,167.1v1.268q15.753-8.818,31.5-17.654a3.566,3.566,0,0,1,3.954-.175q23.32,13.227,46.678,26.382a14.727,14.727,0,0,1,1.442,1.133c-1.359.779-2.3,1.324-3.245,1.858-14.633,8.208-29.3,16.364-43.879,24.673a5.245,5.245,0,0,1-6-.036Q-188.734,195.855-204,187.3v1.627q14.976,8.852,29.959,17.69c1.478.873,2.513,1.674,2.522,3.727.063,17.618.277,35.25.43,52.879.011.539-.067,1.079-.126,1.943a12.6,12.6,0,0,1-2.111-.732q-15.344-9.05-30.675-18.107v2.028q14.679,8.3,29.37,16.568c.819.467,1.575,1.048,2.747,1.824-1.314.763-2.232,1.3-3.162,1.815q-14.477,8.108-28.955,16.227V286.5q15.364-9.013,30.717-18.045a18.2,18.2,0,0,1,1.924-.817c.054,1.326.13,2.185.13,3.04q-.3,25.795-.572,51.582c-.016,1.782-.374,3.009-2.093,4.01Q-188.968,335.049-204,343.92v1.544q15.445-8.663,30.877-17.342c1.447-.81,2.651-1.144,4.255-.231q21.97,12.48,44,24.841h2.952c-8.915-4.566-42.994-24.507-47.76-28.016q-.243-28.171-.513-56.694c2.608.651,44.536,25.1,49.765,28.961q.26,27.7.518,55.749h1.136c-.049-.8-.09-1.476-.081-2.129.185-16.862.448-33.726.511-50.588a5.2,5.2,0,0,1,3.065-5.143c14.626-8.477,29.178-17.091,43.76-25.651.812-.476,1.69-.859,2.923-1.488.07,1.409.173,2.457.16,3.5-.185,16.867-.421,33.729-.531,50.591a5.009,5.009,0,0,1-2.772,4.963c-14.624,8.493-29.169,17.122-43.737,25.7-.135.081-.277.164-.416.245h1.5q21.906-12.248,43.78-24.543c1.679-.94,3-1.216,4.827-.175,14.543,8.3,29.145,16.483,43.724,24.718h2.189c-15.976-9.44-31.431-18.576-46.989-27.769-.18-18.958-.349-37.857-.52-56.833,2.588.687,45.524,25.772,49.648,28.947.164,18.262.331,36.639.5,55.655h1.193a8.785,8.785,0,0,1-.135-1.416q.277-26.094.569-52.188c.011-1.523.29-2.659,1.778-3.518q14.477-8.461,28.913-16.986v.011l12.786-7.523,4.208-2.47c.369-.211.792-.413,1.269-.635l.414-.15a18.219,18.219,0,0,1,.259,2.466c-.18,17.284-.41,34.575-.558,51.856-.018,1.817-.423,3.016-2.126,4-5.54,3.211-11.057,6.464-16.582,9.707v.18q-14.2,8.327-28.384,16.667h2.313q13.906-7.8,27.817-15.594,7.983-4.46,15.967-8.93a7.975,7.975,0,0,1,.9-.433,4.522,4.522,0,0,1,.533-.18c.043-.013.088-.02.133-.031a3.478,3.478,0,0,1,1.514-.016,4.865,4.865,0,0,1,1.116.467c14.554,8.289,29.16,16.487,43.757,24.718h2.518Q60.363,339.42,37.8,326.084a3.242,3.242,0,0,1-1.926-3.076q-.165-26.925-.43-53.858a10.091,10.091,0,0,1,.2-1.344c1.006.5,1.823.877,2.549,1.317q22.108,13.039,44.212,26.1c1.492.88,2.5,1.694,2.509,3.738.067,17.625.274,35.257.432,52.882,0,.278-.016.565-.043.891h1.562a8.3,8.3,0,0,1-.119-1.346q.28-26.091.565-52.19a3.535,3.535,0,0,1,1.791-3.514q23.246-13.574,46.433-27.26c.2-.1.457-.211.758-.332l.4-.146c.07,1.12.155,1.948.146,2.755-.191,17.176-.414,34.35-.576,51.531-.016,1.768-.322,3.025-2.057,4.032-15.067,8.766-30.069,17.641-45.1,26.47h1.98c14.493-8.138,29.007-16.234,43.471-24.421a5.382,5.382,0,0,1,4.179-.624,6.65,6.65,0,0,1,.909.4c14.5,8.273,29.072,16.44,43.62,24.644h3.353c-8.128-3.992-39.939-22.532-47.889-27.989q-.25-28.2-.513-56.407c1.53.538,6.762,3.345,13.4,7.09l31.352,18.529c1.8,1.129,3.355,2.132,4.554,2.942.176,18.457.346,37.121.52,55.834h1.517a10.006,10.006,0,0,1-.142-1.5c.191-17.3.414-34.6.576-51.9a4.421,4.421,0,0,1,.972-3.137c.07-.067.131-.137.2-.2a5.05,5.05,0,0,1,.574-.44c.212-.144.412-.289.65-.426Q211.317,284.1,230.2,273c2.176-1.274,4.309-2.618,6.494-3.893.727-.424,1.537-.785,2.529-1.266.056-.02.117-.047.176-.07.052,1.245.124,2.085.124,2.908q-.294,25.795-.569,51.582c-.018,1.782-.376,3.009-2.093,4.01-15.058,8.762-30.065,17.632-45.089,26.457h2.372q21.909-12.308,43.816-24.61a8.565,8.565,0,0,1,.956-.46c.077-.031.155-.056.232-.081a3.963,3.963,0,0,1,.493-.123,3.117,3.117,0,0,1,1.127-.022,4.277,4.277,0,0,1,1.116.456q21.97,12.48,44,24.841h3.285c-3.713-1.9-11.786-6.467-20.29-11.4v0q-6.774-4.005-13.571-7.974c-5.718-3.41-10.517-6.348-12.876-7.925a4.326,4.326,0,0,1-1.037-2.042q-.236-27.09-.5-54.5c.016-.24.027-.455.043-.716,2.156.911,10.931,5.841,20.538,11.405l7.4,4.373v-.058c9.926,5.827,19.172,11.419,21.451,13.1q.256,27.7.515,55.749h1.467c-.049-.8-.09-1.476-.081-2.129.184-16.862.45-33.726.513-50.588a5.2,5.2,0,0,1,3.063-5.143c14.626-8.477,29.18-17.091,43.759-25.651.738-.431,1.544-.8,2.6-1.326.07,1.324.162,2.338.151,3.341-.185,16.867-.421,33.729-.533,50.591a5.006,5.006,0,0,1-2.772,4.963c-14.622,8.493-29.169,17.122-43.735,25.7-.137.081-.277.164-.416.245h1.825q21.906-12.248,43.782-24.543a5.827,5.827,0,0,1,2.261-.808,4.285,4.285,0,0,1,2.232.633c14.543,8.3,29.147,16.483,43.724,24.718h2.52c-15.976-9.44-31.431-18.576-46.989-27.769-.178-18.915-.347-37.774-.518-56.707,4.716,2,45.31,25.738,49.317,28.821.162,18.262.329,36.639.5,55.655h1.523a8.783,8.783,0,0,1-.135-1.416q.277-26.094.572-52.188c.011-1.523.29-2.659,1.775-3.518q23.3-13.618,46.529-27.334a8.021,8.021,0,0,1,1.06-.42l.007.038c.067,1.086.16,1.907.151,2.7-.194,17.181-.425,34.357-.558,51.535a4.258,4.258,0,0,1-2.329,4.212c-15.027,8.749-30,17.591-44.993,26.389h2.644q21.838-12.244,43.683-24.489a5.255,5.255,0,0,1,2.214-.752,4.062,4.062,0,0,1,1.987.577c14.518,8.268,29.1,16.451,43.66,24.664h2.516Q471.4,339.5,448.992,326.27c-1.334-.79-2.14-1.582-2.151-3.287-.1-17.843-.281-35.683-.43-53.53a15.557,15.557,0,0,1,.191-1.663c1.181.626,2.077,1.077,2.914,1.575,14.557,8.594,29.073,17.223,43.661,25.747a4.717,4.717,0,0,1,2.727,4.624c.065,16.976.261,33.935.412,50.907.009.653-.025,1.315-.061,2.087h1.577a9.507,9.507,0,0,1-.106-1.382c.182-17.284.4-34.572.571-51.858.009-1.633.23-2.859,1.845-3.805q23.168-13.517,46.255-27.159a11.347,11.347,0,0,1,1.285-.563c.065,1.1.144,1.824.14,2.529-.2,17.3-.43,34.581-.574,51.865a3.985,3.985,0,0,1-2.133,3.985c-15.015,8.749-29.975,17.587-44.959,26.389h1.969c14.383-8.06,28.784-16.079,43.116-24.226a6.45,6.45,0,0,1,3.215-.992,6.345,6.345,0,0,1,2.747.92c14.268,8.19,28.631,16.216,42.965,24.3h3.287c-8.481-4.257-40.935-23.2-47.747-27.962-.173-18.4-.342-37.031-.52-56.476a78.925,78.925,0,0,1,7.88,4c13.814,8.165,27.25,16.106,40.791,24.107l.639.424q.253,27.9.515,55.9h1.519a3.574,3.574,0,0,1-.146-.947c.178-17.629.421-35.259.549-52.893.018-1.995,1.022-2.895,2.534-3.77Q622.4,284.1,641.283,273c2.176-1.274,4.311-2.618,6.5-3.893.729-.424,1.544-.788,2.543-1.272.079,1.232.178,2.143.167,3.04q-.287,25.626-.567,51.248a5.466,5.466,0,0,1-.54,2.794l-.038.054a3.32,3.32,0,0,1-.569.671,4.955,4.955,0,0,1-.659.5c-.045.029-.079.058-.126.085-15.1,8.78-30.135,17.656-45.182,26.5h2.39q21.949-12.332,43.9-24.652a4.8,4.8,0,0,1,1.967-.675,3.437,3.437,0,0,1,1.661.464q13.44,7.637,26.908,15.217v-.139q8.671,4.884,17.336,9.785h2.952c-3.663-1.876-11.575-6.348-19.957-11.21v-.2q-11.851-7-23.742-13.95c-.612-.384-1.163-.734-1.667-1.057a4.869,4.869,0,0,1-2.252-4.528c-.052-16.873-.261-33.742-.4-50.609-.014-.929.061-1.862.126-3.018,1.321.556,5.126,2.623,10.081,5.416q8.762,5.183,17.527,10.362v-.2l.331.2v-.058c9.923,5.827,19.172,11.419,21.449,13.1q.256,27.7.517,55.749h1.136c-.049-.8-.09-1.476-.081-2.129.185-16.862.448-33.726.511-50.588a5.2,5.2,0,0,1,3.065-5.143c14.626-8.477,29.178-17.091,43.76-25.651.812-.476,1.69-.859,2.923-1.488.07,1.409.171,2.457.16,3.5-.185,16.867-.421,33.729-.531,50.591a5.009,5.009,0,0,1-2.772,4.963c-14.624,8.493-29.169,17.122-43.737,25.7-.135.081-.277.164-.416.245h1.494q21.909-12.248,43.784-24.543c1.676-.94,3-1.216,4.824-.175,14.543,8.3,29.144,16.483,43.721,24.718h2.19c-15.974-9.44-31.429-18.576-46.986-27.769-.18-18.958-.349-37.857-.52-56.833,2.588.687,45.524,25.772,49.648,28.947.164,18.262.329,36.639.5,55.655H805.8a8.78,8.78,0,0,1-.137-1.416q.28-26.094.571-52.188c.011-1.523.29-2.659,1.775-3.518q23.3-13.618,46.532-27.334a13.608,13.608,0,0,1,1.384-.543c.07,1.18.173,2.026.162,2.863-.191,17.181-.425,34.357-.556,51.535a4.262,4.262,0,0,1-2.329,4.212c-15.027,8.749-30,17.591-44.993,26.389h2.313q21.838-12.244,43.681-24.489a4.046,4.046,0,0,1,4.532-.175c14.518,8.268,29.1,16.451,43.661,24.664h2.185q-22.429-13.227-44.84-26.461c-1.334-.79-2.14-1.582-2.151-3.287-.1-17.843-.281-35.683-.43-53.53,0-.424.1-.846.214-1.826,1.348.718,2.311,1.2,3.224,1.739,14.554,8.594,29.07,17.223,43.661,25.747a4.718,4.718,0,0,1,2.725,4.624c.065,16.976.261,33.935.412,50.907.009.653-.025,1.315-.061,2.087h1.247a9.8,9.8,0,0,1-.106-1.382c.182-17.284.4-34.572.574-51.858.009-1.633.227-2.859,1.845-3.805q23.164-13.517,46.253-27.159a17.149,17.149,0,0,1,1.609-.7c.065,1.18.153,1.927.146,2.661-.2,17.3-.428,34.581-.574,51.865a3.987,3.987,0,0,1-2.131,3.985c-15.016,8.749-29.977,17.587-44.959,26.389h1.636c14.383-8.06,28.784-16.079,43.118-24.226a5.533,5.533,0,0,1,6.294-.072c14.268,8.19,28.631,16.216,42.963,24.3h2.959c-8.483-4.257-40.936-23.2-47.747-27.962-.178-18.673-.349-37.572-.529-57.331,16.982,10.036,33.211,19.629,49.648,29.342q.253,27.925.515,55.951h1.188a3.755,3.755,0,0,1-.146-.947c.178-17.629.421-35.259.549-52.893.02-1.995,1.022-2.895,2.536-3.77q18.922-11.019,37.81-22.119c2.176-1.274,4.311-2.618,6.494-3.893.815-.474,1.695-.85,2.865-1.425.081,1.315.189,2.257.178,3.193q-.291,25.626-.569,51.248c-.018,1.712-.153,3.065-1.931,4.1-15.1,8.78-30.137,17.656-45.184,26.5h2.059q21.95-12.332,43.9-24.652a3.6,3.6,0,0,1,3.96-.211q13.437,7.637,26.906,15.217v-1.761q-12.408-7.337-24.863-14.609a4.964,4.964,0,0,1-2.8-4.925c-.049-16.873-.259-33.742-.4-50.609-.016-1.059.086-2.1.153-3.5,1.2.6,2.066.987,2.887,1.474q12.512,7.388,25.022,14.791v-1.9q-12.836-7.25-25.677-14.488c-.383-.206-.711-.5-1.4-.978a17.986,17.986,0,0,1,2.012-1.564q12.529-7.041,25.065-14.062v-1.6q-13.211,7.765-26.426,15.518a11.992,11.992,0,0,1-1.368.5c-.054-1.2-.144-2.044-.13-2.892.187-17.174.414-34.355.565-51.531.013-1.793.385-3.013,2.093-4.007q12.654-7.367,25.268-14.811v-1.853q-12.749,7.145-25.452,14.356a5.241,5.241,0,0,1-6-.027c-14.655-8.4-29.4-16.633-44.1-24.942-.839-.467-1.631-1.021-2.774-1.759.826-.586,1.37-1.05,1.976-1.387q22.962-12.877,45.922-25.754a3.771,3.771,0,0,1,4.242-.013q13.076,7.415,26.183,14.782v-1.743c-9.066-5.354-18.067-10.667-27.11-16.014-.169-18.908-.344-37.817-.527-57.555,9.386,5.544,18.551,10.965,27.637,16.339V104.66q-12.256-6.913-24.523-13.826c-.644-.368-1.224-.837-2.367-1.613,1.362-.783,2.2-1.274,3.04-1.743q11.928-6.688,23.85-13.373V72.287q-11.864,6.977-23.729,13.965c-1.035.61-2.083,1.194-3.686,2.116-.088-1.559-.189-2.509-.171-3.46.18-16.968.425-33.933.526-50.907a5.024,5.024,0,0,1,2.851-4.934q12.124-7.044,24.208-14.172V13.441q-12.8,7.166-25.587,14.345a4.031,4.031,0,0,1-4.527.162c-15.25-8.677-30.556-17.257-45.837-25.882-.549-.307-1.044-.716-1.877-1.288.995-.673,1.728-1.252,2.531-1.714q22.534-12.628,45.072-25.254c1.555-.875,2.8-1.16,4.527-.191q12.83,7.314,25.7,14.549v-1.759q-12.28-7.256-24.577-14.5a3.979,3.979,0,0,1-2.248-3.893c-.094-17.288-.286-34.583-.432-51.881-.007-.835.106-1.663.2-2.89,1.251.644,2.212,1.073,3.117,1.609q11.965,7.071,23.942,14.127v-1.869q-11.777-6.644-23.567-13.279c-.837-.478-1.629-1.037-2.768-1.764.81-.581,1.346-1.059,1.955-1.4q12.185-6.829,24.379-13.665v-1.55q-11.83,6.967-23.652,13.943c-.925.545-1.852,1.061-3.146,1.809a26.6,26.6,0,0,1-.335-2.877c.187-17.3.41-34.6.572-51.91.014-1.766.353-3.027,2.075-4.03q12.269-7.135,24.487-14.331v-1.685q-12.61,7.065-25.211,14.147a4.052,4.052,0,0,1-4.534.114c-15.263-8.688-30.567-17.279-45.868-25.911-.558-.31-1.055-.709-2-1.367,1.166-.749,1.865-1.259,2.61-1.676,14.647-8.221,29.327-16.375,43.915-24.7,2.473-1.414,4.318-1.566,6.885-.083q12.06,6.95,24.206,13.752v-1.8c-8.787-5.194-17.509-10.351-26.3-15.545q-.266-28.292-.529-56.723c1.6.305,14.3,7.4,26.831,14.733v-1.557q-12.006-6.775-24.014-13.557c-.551-.3-1.042-.716-1.843-1.27a19.7,19.7,0,0,1,1.715-1.243q12.07-6.782,24.142-13.526v-1.885q-11.777,6.89-23.557,13.779c-.846.5-1.7.981-2.842,1.636a14.169,14.169,0,0,1-.4-2.367q.216-20.793.444-41.58h-1.881c.133,14.522.263,29.187.4,44.272-16.917-10-33.2-19.629-49.639-29.335q-.068-7.475-.14-14.937h-1.863c-.043,4.086-.092,8.167-.124,12.253a4.251,4.251,0,0,1-2.3,4.227c-14.986,8.74-29.912,17.576-44.862,26.378-.646.384-1.348.68-2.261,1.142a8.6,8.6,0,0,1-.457-1.9q.216-21.056.443-42.1H959.8c.133,14.551.268,29.234.407,44.38-16.993-10.052-33.244-19.649-49.774-29.416q-.071-7.468-.139-14.964h-1.859q-.074,6.257-.14,12.514c-.018,1.521-.284,2.659-1.769,3.529Q883.2-280.6,859.938-266.882a10.778,10.778,0,0,1-1.375.469c-.054-1.331-.142-2.286-.128-3.247q.229-20.292.45-40.59H857c.13,14.567.263,29.142.394,44.034-1.469-.77-2.428-1.218-3.332-1.752-14.561-8.6-29.091-17.237-43.694-25.761a4.746,4.746,0,0,1-2.707-4.636c-.011-3.96-.052-7.923-.076-11.885h-1.825c-.041,4.086-.1,8.172-.135,12.255-.02,1.8-.4,3.011-2.111,4q-22.891,13.335-45.69,26.827c-.466.276-.979.469-1.841.873-.088-1.133-.227-2.053-.218-2.975q.23-20.487.459-40.976H754.33q.145,20.668.356,41.326c0,.734-.1,1.47-.189,2.735-1.35-.716-2.228-1.149-3.063-1.645q-21.96-12.975-43.94-25.922a4.45,4.45,0,0,1-2.639-4.344c-.011-4.052-.052-8.1-.077-12.15h-1.836c-.043,4.052-.095,8.1-.131,12.15a4,4,0,0,1-2.115,4c-14.82,8.623-29.586,17.333-44.365,26.01l-.256.15c-.394.231-.8.462-1.222.707-.36.2-.761.37-1.348.637a10.545,10.545,0,0,1-.34-2.075q.216-20.793.446-41.58H651.4c.133,14.459.263,29.059.4,44.075-16.8-9.929-32.981-19.5-49.308-29.138q-.067-7.475-.14-14.937h-2.192c-.043,4.086-.092,8.167-.124,12.253a4.254,4.254,0,0,1-2.3,4.227c-14.964,8.726-29.869,17.551-44.8,26.34-.576.323-1.2.6-2.048,1a6.819,6.819,0,0,1-.407-1.719q.216-21.056.446-42.1h-2.207c.13,14.486.265,29.106.4,44.182-16.872-9.978-33.022-19.516-49.441-29.219q-.071-7.468-.142-14.964h-2.189q-.071,6.257-.137,12.514a4.488,4.488,0,0,1-.538,2.316,3.268,3.268,0,0,1-.463.61c-.074.074-.18.139-.266.211a5.489,5.489,0,0,1-.662.485Q472.317-280.709,449.4-267.2c-.315.159-.677.339-1.071.523-.14.04-.32.1-.527.162-.054-1.272-.135-2.208-.122-3.141q.23-20.292.448-40.59h-2.221c.131,14.354.261,28.723.389,43.386,0,.157-.009.3-.013.467-1.265-.655-2.156-1.084-2.984-1.571-14.559-8.6-29.091-17.237-43.692-25.761a4.743,4.743,0,0,1-2.707-4.636c-.014-3.96-.052-7.923-.077-11.885h-2.156c-.043,4.086-.1,8.172-.135,12.255-.02,1.8-.4,3.011-2.113,4q-22.891,13.335-45.688,26.827c-.4.233-.873.433-1.523.729-.088-1.064-.214-1.952-.2-2.832q.23-20.487.457-40.976h-2.216q.145,20.668.355,41.326c0,.7-.092,1.411-.176,2.567-1.166-.613-1.982-1.021-2.747-1.476q-21.956-12.975-43.937-25.922A4.45,4.45,0,0,1,294.1-298.1c-.011-4.052-.052-8.1-.077-12.15h-2.169c-.043,4.052-.095,8.1-.13,12.15a4,4,0,0,1-2.115,4c-15.265,8.883-30.474,17.858-45.7,26.8-.394.229-.83.406-1.494.709-.047-.242-.092-.444-.137-.66-.05-.868-.092-1.526-.086-2.176q.23-20.409.443-40.819h-2.216c.133,14.488.266,29.035.4,44.032-16.829-9.949-32.956-19.472-49.313-29.145q-.067-7.431-.137-14.887h-2.194c-.038,4.021-.085,8.037-.113,12.054a4.521,4.521,0,0,1-2.466,4.481c-14.892,8.668-29.721,17.452-44.574,26.194-.621.366-1.3.657-2.225,1.095-.07-.251-.142-.476-.209-.7-.045-.918-.086-1.58-.079-2.246q.24-20.443.448-40.877h-2.221c.133,14.535.268,29.113.4,44.135-16.937-10.012-33.159-19.609-49.437-29.23q-.068-7.462-.137-14.905H86.38c-.043,4.093-.092,8.188-.126,12.282a4,4,0,0,1-2.189,3.956q-22.608,13.177-45.137,26.49c-.549.33-1.184.606-2,.994-.095-1.162-.223-2.062-.209-2.957.146-13.588.32-27.175.441-40.765H35q.155,20,.306,40c0,1.115-.05,2.239-.1,3.857l-.353-.182c-6.656-3.913-13.222-7.777-19.759-11.623v.105q-13.265-7.845-26.561-15.632a4.745,4.745,0,0,1-2.709-4.636c-.011-3.96-.052-7.923-.077-11.885h-1.823c-.045,4.086-.1,8.172-.135,12.255-.02,1.8-.405,3.011-2.113,4q-22.891,13.335-45.69,26.827c-.466.276-.979.469-1.838.873-.088-1.133-.229-2.053-.221-2.975q.229-20.487.459-40.976H-67.5q.145,20.668.358,41.326c0,.734-.1,1.47-.191,2.735-1.35-.716-2.225-1.149-3.063-1.645q-21.96-12.975-43.937-25.922a4.452,4.452,0,0,1-2.642-4.344c-.011-4.052-.052-8.1-.077-12.15h-1.838c-.041,4.052-.092,8.1-.128,12.15a4,4,0,0,1-2.115,4c-15.265,8.883-30.474,17.858-45.7,26.8-.473.276-.988.467-1.917.9-.063-1.333-.139-2.181-.131-3.029q.233-20.409.446-40.819h-1.888c.135,14.551.268,29.16.4,44.229C-181.519-272.877-192.772-279.524-204-286.158Zm35.324,141.98c.011-2.037,1.1-2.868,2.588-3.731q17.926-10.457,35.823-20.955c3.585-2.1,7.2-4.149,11.282-6.487.086,1.281.2,2.134.187,2.973-.189,17.194-.421,34.386-.56,51.582a4.248,4.248,0,0,1-2.3,4.227C-136.636-107.829-151.564-99-166.51-90.2c-.648.388-1.35.689-2.261,1.147a8.2,8.2,0,0,1-.457-1.9C-169.052-108.7-168.807-126.437-168.674-144.178Zm200.854-3.6a3.977,3.977,0,0,1,2.365,3.821c.079,17.407.277,34.817.423,52.213.009.707-.079,1.425-.162,2.569-1.058-.543-1.787-.9-2.459-1.288q-8.627-5.092-17.254-10.2v.1q-13.4-7.93-26.845-15.792a4.954,4.954,0,0,1-2.9-4.869c-.038-16.86-.245-33.717-.387-50.577-.009-1.059.068-2.12.122-3.559,1.089.5,1.872.8,2.581,1.223q13.548,7.993,27.095,16v.081Q23.466-152.918,32.18-147.782ZM960.45,90.405c1.289.671,2.248,1.117,3.157,1.663,14.556,8.594,29.077,17.244,43.692,25.75a4.929,4.929,0,0,1,2.838,4.9c.052,16.871.259,33.749.405,50.622.007,1.055-.079,2.107-.146,3.559-1.292-.671-2.255-1.115-3.159-1.656-14.559-8.6-29.088-17.246-43.694-25.761a4.927,4.927,0,0,1-2.835-4.894c-.045-16.88-.252-33.751-.4-50.615C960.295,92.912,960.385,91.864,960.45,90.405Zm-.007-4.813q.277-26.094.574-52.191a3.52,3.52,0,0,1,1.789-3.512Q986.1,16.28,1009.342,2.561a11.832,11.832,0,0,1,1.375-.532c.067,1.187.164,2.031.151,2.874-.193,17.178-.414,34.359-.572,51.533-.016,1.773-.331,3.018-2.054,4.028-15.265,8.881-30.468,17.87-45.69,26.818-.466.271-.977.48-1.8.891A20.8,20.8,0,0,1,960.443,85.592Zm48.591,30.915c-15.254-8.7-30.573-17.288-45.866-25.916-.56-.316-1.071-.723-1.908-1.279a20.681,20.681,0,0,1,2.147-1.609c15.025-8.437,30.081-16.831,45.085-25.317a4.55,4.55,0,0,1,5.128-.13c15.063,8.589,30.2,17.062,45.29,25.588.653.363,1.251.823,2.468,1.631-1.433.821-2.349,1.369-3.283,1.88q-22.125,12.406-44.239,24.812C1012.234,117.091,1010.9,117.571,1009.034,116.507Zm-.16-177.481c-14.763-8.446-29.617-16.745-44.43-25.1-.837-.473-1.629-1.032-2.747-1.748.907-.653,1.53-1.207,2.241-1.611,15.031-8.443,30.081-16.837,45.08-25.332a4.52,4.52,0,0,1,5.124-.061c14.959,8.542,30,16.959,45.006,25.429.743.415,1.433.929,2.721,1.779-1.474.848-2.405,1.387-3.342,1.923-14.658,8.2-29.34,16.357-43.953,24.637A5.037,5.037,0,0,1,1008.874-60.974Zm1.764-59.851c-.013,1.755-.3,3.025-2.045,4.034-15.274,8.89-30.492,17.879-45.729,26.833-.457.272-.965.46-1.769.841a20.245,20.245,0,0,1-.32-2.632c.182-17.3.437-34.606.54-51.908a4.513,4.513,0,0,1,2.633-4.389c14.988-8.728,29.921-17.558,44.873-26.335.554-.328,1.161-.552,2.228-1.043.072,1.319.162,2.17.155,3.018C1011.016-155.211,1010.8-138.017,1010.638-120.825ZM1010.4-57.4c.167,18.756.338,37.64.515,57.25-16.892-9.974-33.175-19.593-49.646-29.322q-.26-28.369-.522-56.784C963.287-85.707,1005.033-61.4,1010.4-57.4ZM961.888-26.671Q985.211-13.437,1008.57-.293a18.239,18.239,0,0,1,1.478,1.138c-1.343.779-2.275,1.324-3.227,1.856-14.633,8.208-29.3,16.366-43.888,24.675a5.226,5.226,0,0,1-5.992-.009c-14.649-8.4-29.394-16.635-44.1-24.935C912,1.96,911.209,1.4,910.066.681a22.775,22.775,0,0,1,1.946-1.407q22.962-12.867,45.929-25.741A3.563,3.563,0,0,1,961.888-26.671ZM857.731,90.322c16.834,9.823,33.071,19.528,49.513,29.212.173,18.973.347,37.877.52,57.439-1.667-.931-2.633-1.441-3.569-2-14.365-8.49-28.706-17.03-43.123-25.422-2.126-1.239-3.051-2.518-3.058-5.1-.009-16.651-.232-33.3-.376-49.958C857.625,93.327,857.686,92.16,857.731,90.322Zm-.09-5.473c.187-17.08.405-34.146.567-51.21.018-1.75.281-3.025,2.032-4.043,15.351-8.93,30.643-17.982,45.967-26.991.374-.218.781-.37,1.451-.68a11.146,11.146,0,0,1,.41,2.154c-.178,17.609-.407,35.223-.565,52.834a3.563,3.563,0,0,1-2.032,3.4q-22.864,13.358-45.69,26.807a21.438,21.438,0,0,1-1.987.886C857.726,86.746,857.627,85.8,857.641,84.85Zm48.078,31.377c-14.755-8.437-29.592-16.732-44.4-25.083-.835-.473-1.627-1.025-2.77-1.75,1.013-.689,1.748-1.268,2.543-1.723q22.537-12.635,45.071-25.261c1.557-.871,2.8-1.169,4.527-.2,15.247,8.688,30.551,17.266,45.832,25.893.554.307,1.053.7,2.106,1.432-1.337.763-2.176,1.259-3.033,1.73-14.833,8.309-29.691,16.584-44.48,24.967A4.761,4.761,0,0,1,905.719,116.227Zm3.627,5.964a4.527,4.527,0,0,1,2.628-4.4c14.989-8.724,29.921-17.549,44.873-26.331.551-.328,1.163-.552,2.23-1.043.07,1.315.16,2.168.153,3.013-.191,17.192-.416,34.384-.547,51.578a4.245,4.245,0,0,1-2.347,4.194q-22.476,13.1-44.866,26.349c-.65.375-1.343.684-2.415,1.225-.1-1.185-.252-2.1-.245-3.011C909,156.572,909.242,139.378,909.346,122.191Zm49.8-33.87c-1.451-.8-2.417-1.313-3.357-1.874-14.449-8.524-28.874-17.113-43.377-25.566a4.949,4.949,0,0,1-2.88-4.874c-.04-16.869-.25-33.717-.391-50.586-.009-1.048.076-2.1.135-3.543,1.091.509,1.872.812,2.583,1.236q22.388,13.214,44.777,26.434c1.409.828,2.3,1.638,2.309,3.514.083,17.636.281,35.257.437,52.879C959.379,86.562,959.257,87.183,959.143,88.321ZM909.269-3.659c.191-16.974.425-33.944.549-50.923.016-2.176.56-3.563,2.6-4.737,14.91-8.641,29.743-17.418,44.6-26.149.648-.381,1.35-.684,2.3-1.176a13.99,13.99,0,0,1,.392,2.28c-.187,17.515-.41,35.039-.572,52.565a3.762,3.762,0,0,1-2.041,3.709Q934.206-14.7,911.387-1.213c-.461.272-.97.456-1.976.915C909.348-1.747,909.265-2.7,909.269-3.659ZM959.55-89.078c-8.589-4.613-16.6-9.666-24.761-14.432-8.236-4.815-16.429-9.7-24.7-14.607-.178-18.969-.347-37.8-.524-57.084a23.061,23.061,0,0,1,2.572,1.093q22.547,13.294,45.1,26.609a3.446,3.446,0,0,1,2.029,3.343c.106,17.742.295,35.492.455,53.238C959.723-90.493,959.642-90.058,959.55-89.078Zm-48.217-25.875c14.964,8.542,30,16.963,45,25.424.743.42,1.427.933,2.662,1.748-2.777,1.6-5.036,2.915-7.32,4.189-13.213,7.418-26.469,14.762-39.635,22.249-2.241,1.274-3.926,1.452-6.285.1C891.2-69.613,876.547-77.8,861.923-86.053c-.932-.525-1.832-1.106-3.031-1.838a18.577,18.577,0,0,1,1.944-1.521c15.121-8.493,30.276-16.941,45.366-25.483A4.539,4.539,0,0,1,911.333-114.953Zm-3.378-5.488a3.544,3.544,0,0,1-1.809,3.5q-23.306,13.6-46.543,27.311a10.061,10.061,0,0,1-1.355.512c-.065-1.207-.155-2.06-.144-2.9.189-17.178.414-34.35.563-51.531.018-1.8.4-3.009,2.1-4q22.888-13.342,45.683-26.829c.466-.276.976-.476,1.715-.826a13.313,13.313,0,0,1,.362,2.242C908.349-155.453,908.126-137.945,907.955-120.441ZM858.192-86.993c16.7,9.864,33,19.5,49.511,29.254.173,18.953.349,37.88.529,57.183a14.576,14.576,0,0,1-2.239-.808q-22.837-13.473-45.663-26.97A3.223,3.223,0,0,1,858.4-31.4c-.1-17.966-.281-35.936-.432-53.9C857.965-85.615,858.048-85.938,858.192-86.993Zm1.631,60.757c14.966,8.542,30,16.963,45,25.433.74.42,1.427.924,2.729,1.782-1.478.848-2.4,1.389-3.339,1.916-14.662,8.2-29.34,16.359-43.953,24.639a5.018,5.018,0,0,1-5.7.092C839.8,19.181,824.95,10.874,810.132,2.521c-.839-.473-1.636-1.023-2.754-1.734a25.283,25.283,0,0,1,2.239-1.618c15.034-8.441,30.081-16.84,45.076-25.335A4.531,4.531,0,0,1,859.823-26.236ZM756.792,91.269q22.966,13.54,45.915,27.1a3.243,3.243,0,0,1,1.9,3.092q.169,26.922.427,53.858a12.375,12.375,0,0,1-.234,1.472c-1.177-.6-2.048-.992-2.871-1.476-14.734-8.695-29.455-17.439-44.223-26.1a4.177,4.177,0,0,1-2.466-4.09c-.072-17.3-.27-34.592-.423-51.885-.007-.765.061-1.521.106-2.551A8.5,8.5,0,0,1,756.792,91.269Zm-1.838-6.516c.189-16.867.425-33.724.538-50.588a5.013,5.013,0,0,1,2.766-4.981c14.725-8.526,29.365-17.194,44.041-25.806.817-.478,1.69-.862,2.921-1.485.068,1.423.171,2.468.16,3.512-.189,16.867-.425,33.726-.533,50.6a4.994,4.994,0,0,1-2.786,4.952c-14.615,8.5-29.158,17.113-43.726,25.7-.9.527-1.818,1.037-3.2,1.835C755.052,86.853,754.953,85.8,754.953,84.753Zm47.81,31.276C788,107.6,773.169,99.3,758.367,90.937c-.819-.467-1.584-1.048-2.784-1.856,1.3-.747,2.207-1.274,3.123-1.791,14.836-8.3,29.694-16.566,44.484-24.955a4.507,4.507,0,0,1,5.11,0c14.86,8.484,29.783,16.837,44.687,25.238.821.471,1.577,1.046,2.635,1.755-1.1.7-1.877,1.263-2.7,1.73-14.82,8.318-29.676,16.6-44.457,24.989A5.035,5.035,0,0,1,802.763,116.029Zm3.922,5.989a3.774,3.774,0,0,1,2.07-3.7c15.256-8.9,30.454-17.883,45.681-26.829.468-.274.97-.491,1.8-.9a20.436,20.436,0,0,1,.308,2.569c-.18,17.4-.405,34.79-.567,52.191-.016,1.528-.288,2.661-1.766,3.518q-23.445,13.692-46.833,27.468a6.8,6.8,0,0,1-1.109.334c-.063-1-.155-1.737-.146-2.466C806.318,156.815,806.537,139.416,806.685,122.018Zm.268-62.893q-.27-28.336-.529-56.757c2.491.482,43.829,24.525,49.655,28.824.164,18.745.338,37.635.513,57.282C839.615,78.437,823.384,68.834,806.953,59.125Zm-.5-61.938c.182-17.522.423-35.041.551-52.561.016-2.107.981-3.1,2.628-4.057Q829.7-71.1,849.716-82.869c2.16-1.265,4.341-2.5,7.075-4.068.045,1.638.1,2.711.09,3.776-.189,16.97-.419,33.94-.538,50.918A4.276,4.276,0,0,1,854-28.035C839.016-19.311,824.084-10.487,809.131-1.7c-.646.386-1.339.687-2.286,1.16A14.083,14.083,0,0,1,806.451-2.813Zm50.362-86.1c-1.454-.81-2.414-1.317-3.348-1.876-14.458-8.533-28.881-17.113-43.384-25.568a4.951,4.951,0,0,1-2.9-4.869c-.038-16.86-.245-33.717-.387-50.577-.009-1.059.068-2.12.122-3.559,1.087.5,1.872.8,2.581,1.223q22.392,13.214,44.781,26.439c1.4.826,2.306,1.622,2.32,3.512.081,17.625.279,35.248.43,52.879C857.04-90.689,856.925-90.058,856.813-88.911Zm-48.539-26.151q23.026,13.072,46.12,26.039c.461.26.871.606,1.739,1.221-1.076.7-1.771,1.207-2.518,1.62q-22.533,12.628-45.051,25.276a4.291,4.291,0,0,1-4.82.092C788.6-69.44,773.38-77.969,758.194-86.531c-.554-.312-1.069-.707-1.915-1.263a21.834,21.834,0,0,1,2.115-1.571q22.817-12.8,45.632-25.588A3.8,3.8,0,0,1,808.274-115.063Zm-3.108-5.832a4.265,4.265,0,0,1-2.381,4.178q-22.608,13.173-45.13,26.47c-.565.33-1.163.588-2,1a13.808,13.808,0,0,1-.371-2.244q.28-26.266.576-52.518a3.566,3.566,0,0,1,1.82-3.5q23.306-13.591,46.543-27.314a11.949,11.949,0,0,1,1.341-.509c.072,1.214.164,2.06.158,2.908C805.529-155.251,805.294-138.071,805.166-120.894Zm-46.781,35.7c14.745,8.7,29.473,17.443,44.243,26.113a3.94,3.94,0,0,1,2.336,3.826c.086,17.427.277,34.844.434,52.26.009.648-.05,1.306-.072,1.874a3.534,3.534,0,0,1-.378.245c-.09.036-.223.1-.293.07-.6-.274-1.206-.525-1.773-.855Q779.363-15.55,755.775-29.5c-.171-18.971-.349-37.79-.52-57.284C756.693-86.062,757.57-85.68,758.385-85.191Zm-1.123,58.982Q779.562-13.5,801.978-.959c.752.426,1.449.942,2.756,1.784-1.46.832-2.383,1.387-3.315,1.9q-22.132,12.4-44.239,24.805c-1.631.918-2.957,1.378-4.827.314C737.1,19.152,721.788,10.56,706.5,1.935c-.562-.312-1.073-.718-1.892-1.272A22.481,22.481,0,0,1,706.77-.955c15.018-8.43,30.083-16.815,45.067-25.323A4.8,4.8,0,0,1,757.262-26.209ZM654.635,148.822c-.718-.469-1.316-.873-1.782-1.2-.169-18.8-.342-37.595-.524-57.212,9.268,5.477,18.326,10.833,27.306,16.144v-.112c7.381,4.364,14.728,8.706,22.115,13.072q.267,28.336.529,56.727c-1.2-.209-11.393-5.879-22.313-12.2v-.256C671.494,158.783,663.08,153.815,654.635,148.822Zm1.271-62.57c-.5.294-1.008.586-1.575.909-.486.26-1.026.512-1.8.884-.081-1.36-.167-2.257-.149-3.137.18-16.968.425-33.933.527-50.907a5.02,5.02,0,0,1,2.851-4.934q12.121-7.044,24.208-14.172v-.177q10.014-5.89,20.029-11.782c.632-.379,1.346-.633,2.34-1.093.1,1.088.25,1.9.243,2.713-.191,17.306-.412,34.606-.56,51.906a4.024,4.024,0,0,1-2.135,3.989q-10.139,5.9-20.247,11.854v-.018Q667.767,79.264,655.907,86.252Zm44.344,29.975q-10.119-5.792-20.285-11.5v-.063q-12.259-6.913-24.525-13.826c-.621-.357-1.195-.81-2.261-1.542.272-.2.506-.379.738-.559.891-.514,1.546-.9,2.2-1.257q11.928-6.688,23.85-13.373v-.175q10.214-5.732,20.416-11.495a4.516,4.516,0,0,1,5.121-.074c14.959,8.538,30,16.963,45.006,25.433.743.415,1.431.924,2.736,1.777-1.485.853-2.408,1.389-3.341,1.923-14.656,8.2-29.336,16.359-43.955,24.637A5.033,5.033,0,0,1,700.251,116.227Zm3.632,5.926c.02-1.793.405-3.007,2.115-4,15.164-8.838,30.27-17.771,45.393-26.661.563-.337,1.172-.592,2.122-1.061.09,1.142.241,2.064.232,2.986-.189,17.176-.416,34.355-.567,51.535-.016,1.793-.376,3.022-2.084,4.012-15.268,8.885-30.481,17.861-45.7,26.8-.468.271-.977.471-1.937.929-.061-1.313-.142-2.165-.13-3.011C703.509,156.51,703.734,139.331,703.883,122.153Zm49.831-33.98c-1.037-.5-1.82-.817-2.538-1.234q-22.4-13.234-44.819-26.452a3.966,3.966,0,0,1-2.273-3.868C704,39.2,703.8,21.784,703.649,4.361c-.011-.729.095-1.461.171-2.524.938.438,1.627.7,2.246,1.064,15.027,8.879,30.042,17.793,45.1,26.623a3.953,3.953,0,0,1,2.282,3.864c.092,17.421.288,34.833.443,52.253C753.9,86.373,753.792,87.1,753.713,88.173ZM703.8-3.571c.184-17.071.416-34.139.549-51.21.016-1.93.441-3.2,2.25-4.254,14.973-8.713,29.885-17.544,44.826-26.331.722-.424,1.512-.752,2.637-1.315.059,1.364.155,2.414.142,3.467-.182,16.846-.43,33.695-.529,50.55a4.969,4.969,0,0,1-2.824,4.916c-14.6,8.49-29.14,17.1-43.7,25.655-.911.541-1.836,1.061-3.148,1.822C703.9-1.7,703.786-2.633,703.8-3.571Zm.808-114.55c-.175-19.077-.346-37.893-.52-56.586a3.413,3.413,0,0,1,.49-.269.452.452,0,0,1,.3-.049c.594.283,1.2.545,1.766.866q23.5,13.89,47.09,27.841c.173,19,.342,37.889.522,57.533C737.381-98.751,721.1-108.37,704.6-118.121Zm.884,2.935c15.337,8.742,30.742,17.374,46.113,26.05.459.26.869.6,1.6,1.122a25.633,25.633,0,0,1-2.144,1.555Q728.387-73.73,705.724-61c-1.541.864-2.8,1.207-4.541.222q-10.6-6.045-21.217-12.02v-.088Q668.186-79.53,656.4-86.165c-.837-.478-1.627-1.037-2.765-1.764.808-.581,1.346-1.059,1.953-1.4Q667.77-96.16,679.966-103v-.177q10.5-5.873,20.992-11.755C702.488-115.792,703.743-116.173,705.487-115.186Zm-3.009-5.609a4.251,4.251,0,0,1-2.3,4.227q-10.288,6-20.547,12.049v-.027Q667.8-97.579,655.983-90.6c-.346.2-.7.406-1.062.615-.529.285-1.094.552-1.793.9a20.4,20.4,0,0,1-.295-2.585c.184-17.3.407-34.6.569-51.91.014-1.766.356-3.027,2.075-4.03q12.269-7.135,24.489-14.331v-.135q5.8-3.4,11.6-6.787c3.585-2.1,7.2-4.149,11.285-6.487.083,1.281.194,2.134.185,2.973C702.848-155.184,702.618-137.992,702.479-120.8Zm-49.6,34.314c.214.067.405.123.6.184.812.4,1.546.763,2.207,1.153q11.962,7.071,23.942,14.127V-71.1q10.349,6.112,20.7,12.22a3.256,3.256,0,0,1,1.938,3.069c.1,17.959.281,35.91.425,53.864a13.6,13.6,0,0,1-.221,1.494c-1.165-.595-2.045-.972-2.853-1.449q-9.832-5.809-19.66-11.625v-.063q-12.283-7.256-24.579-14.5a3.982,3.982,0,0,1-2.248-3.893c-.094-17.288-.284-34.583-.43-51.881C652.7-84.63,652.8-85.409,652.882-86.481Zm-.018,59.656a4.818,4.818,0,0,1,1.071.444q12.83,7.314,25.7,14.549v-.092q9.859,5.557,19.721,11.113C700.094-.4,700.78.1,701.781.75c-.974.653-1.62,1.18-2.34,1.582q-9.9,5.553-19.806,11.111v0q-12.8,7.166-25.587,14.345a7.889,7.889,0,0,1-.925.435,4.494,4.494,0,0,1-.569.179l-.108.025a3.512,3.512,0,0,1-1.512-.022,4.919,4.919,0,0,1-1.082-.455C634.6,19.271,619.3,10.69,604.015,2.065c-.551-.307-1.044-.716-1.879-1.288,1-.673,1.73-1.252,2.531-1.714Q627.2-13.565,649.739-26.191a5.588,5.588,0,0,1,2.113-.767l.041,0A4.1,4.1,0,0,1,652.864-26.826ZM559.146,95.986c12.144,7.182,24.28,14.378,36.476,21.482l.958.608a4.857,4.857,0,0,1,2.475,4.638c.052,16.871.257,33.749.4,50.622.007,1.012-.072,2.031-.137,3.395-1.116-.572-2.018-1-2.837-1.492-14.559-8.6-29.086-17.246-43.694-25.761a4.928,4.928,0,0,1-2.833-4.894c-.045-16.88-.252-33.751-.4-50.615-.013-.927.056-1.865.117-3.061C550.931,91.437,554.484,93.36,559.146,95.986Zm-9.453-10.393q.277-26.094.572-52.191a3.521,3.521,0,0,1,1.791-3.512Q575.349,16.28,598.59,2.561a7.2,7.2,0,0,1,1.053-.415c.068,1.12.155,1.948.142,2.758-.191,17.178-.414,34.359-.569,51.533a4.123,4.123,0,0,1-1.361,3.536,4.706,4.706,0,0,1-.378.28c-.1.07-.2.144-.317.211-15.265,8.881-30.468,17.87-45.688,26.818-.288.168-.621.328-1,.507-.155.067-.3.13-.493.218A18.215,18.215,0,0,1,549.693,85.592Zm49.331,31.263c-.045-.016-.094-.04-.139-.056a5.434,5.434,0,0,1-.6-.292c-15.254-8.7-30.573-17.288-45.866-25.916-.563-.316-1.073-.723-1.908-1.279a20.662,20.662,0,0,1,2.144-1.609c15.027-8.437,30.083-16.831,45.085-25.317a5.755,5.755,0,0,1,2.482-.823,4.807,4.807,0,0,1,2.318.693c15.061,8.589,30.193,17.062,45.29,25.588.626.348,1.215.794,2.333,1.541-1.015.651-1.748,1.174-2.507,1.611-.218.123-.43.242-.644.359q-22.122,12.406-44.237,24.812a11.126,11.126,0,0,1-1.069.541,3.752,3.752,0,0,1-2.216.289A3.941,3.941,0,0,1,599.024,116.855ZM603.133,2.974q22.709,13.382,45.375,26.8c1.211.711,2.018,1.4,2.025,3,.092,18.08.265,36.147.409,54.226a4.517,4.517,0,0,1-.241.936c-8.333-4.514-16.269-9.487-24.34-14.21-8.229-4.815-16.424-9.716-24.68-14.6-.173-18.96-.347-37.736-.518-56.9A10.848,10.848,0,0,1,603.133,2.974ZM601.2-3.538c.193-17.176.414-34.355.563-51.538a4,4,0,0,1,2.133-3.978c15.159-8.832,30.267-17.769,45.391-26.665.488-.285,1.04-.525,1.739-.864a18.745,18.745,0,0,1,.263,2.5c-.18,17.293-.414,34.579-.558,51.856a4.005,4.005,0,0,1-2.117,4.007Q625.763-14.909,602.982-1.458c-.441.236-.938.447-1.665.774C601.263-1.906,601.189-2.73,601.2-3.538Zm.2,126.26a5.01,5.01,0,0,1,2.84-4.925c14.507-8.423,28.944-16.956,43.4-25.451l2.916-1.672a10.389,10.389,0,0,1,.41,2.152q-.267,26.434-.581,52.882c0,.231-.029.435-.052.648a4.768,4.768,0,0,1-2.271,2.962q-23,13.463-45.94,27a6.663,6.663,0,0,1-1.069.4c-.029-.128-.061-.249-.092-.372-.047-1.174-.106-2.111-.092-3.031C601.051,156.453,601.294,139.594,601.4,122.723ZM641.782-94.557q-18.821-11.11-37.646-22.218l-.554-.359a3.145,3.145,0,0,1-1.616-2.888c-.106-17.966-.284-35.93-.43-53.9a6.411,6.411,0,0,1,.117-.956c1.2.478,4.509,2.235,8.859,4.654C623.688-162.434,636.7-154.744,649.79-147c.434.287.819.55,1.139.774.178,18.823.349,37.617.531,56.716A100.368,100.368,0,0,1,641.782-94.557ZM601.85-115.363a6.181,6.181,0,0,1,1.208.536c14.962,8.542,30,16.959,45.006,25.429.707.393,1.379.886,2.543,1.658-.947.639-1.629,1.147-2.32,1.559-.288.166-.567.325-.842.485-14.428,8.066-28.875,16.1-43.26,24.246l-.707.395a8.441,8.441,0,0,1-1.411.648l-.07.022a4.85,4.85,0,0,1-1.028.2,5.228,5.228,0,0,1-2.846-.785c-14.766-8.446-29.617-16.745-44.432-25.1-.835-.473-1.627-1.032-2.745-1.748.907-.653,1.528-1.207,2.241-1.611,15.029-8.443,30.078-16.837,45.08-25.332a5.706,5.706,0,0,1,2.253-.774A4.637,4.637,0,0,1,601.85-115.363Zm-2.3-5.461a5.217,5.217,0,0,1-.513,2.553,4.568,4.568,0,0,1-1.643,1.546c-15.137,8.811-30.22,17.719-45.319,26.593-.418.224-.887.458-1.431.727-.1.045-.211.094-.326.148a17.536,17.536,0,0,1-.3-2.491c.182-17.3.439-34.606.542-51.908a4.51,4.51,0,0,1,2.633-4.389c14.989-8.728,29.919-17.558,44.873-26.335a20.474,20.474,0,0,1,1.906-.9c.07,1.23.153,2.058.146,2.872C599.935-155.211,599.715-138.017,599.555-120.825ZM570.354-74.9,590.6-62.937c4.235,2.576,7.466,4.611,8.713,5.542.164,18.471.333,37.072.509,56.362a100.291,100.291,0,0,1-9.887-5.152c-12.66-7.474-25.076-14.809-37.567-22.187-.752-.491-1.377-.911-1.854-1.25q-.26-28.235-.52-56.517C552.029-85.326,560.755-80.45,570.354-74.9ZM550.006-27a3.893,3.893,0,0,1,.8.328q23.32,13.234,46.68,26.378a12.991,12.991,0,0,1,1.262.963,15.014,15.014,0,0,1-1.69,1.279l-.223.13q-2.67,1.5-5.335,3-15.125,8.468-30.229,16.983-4.823,2.713-9.649,5.421a6.036,6.036,0,0,1-2.464.788,5.819,5.819,0,0,1-2.968-.9c-14.651-8.4-29.394-16.635-44.1-24.935-.842-.471-1.638-1.028-2.781-1.75A23.123,23.123,0,0,1,501.26-.726q22.965-12.867,45.931-25.741a5.571,5.571,0,0,1,1.487-.592A3.854,3.854,0,0,1,550.006-27ZM446.972,90.6c.322.157.612.3.884.426,16.026,9.363,31.536,18.621,47.207,27.857a3.427,3.427,0,0,1,1.109,1.708c.167,18.166.331,36.293.5,55-.034.334-.07.7-.108,1.135-1.379-.767-2.277-1.248-3.119-1.75-14.365-8.49-28.7-17.03-43.12-25.422-2.126-1.239-3.054-2.518-3.06-5.1-.009-16.651-.232-33.3-.374-49.958C446.875,93.392,446.929,92.27,446.972,90.6Zm-.081-5.753c.185-17.08.4-34.146.565-51.21.018-1.75.284-3.025,2.032-4.043,15.351-8.93,30.645-17.982,45.969-26.991.3-.177.671-.332,1.15-.547a9.582,9.582,0,0,1,.38,2.022c-.18,17.609-.409,35.223-.565,52.834a3.785,3.785,0,0,1-.479,1.95c-.054.092-.133.177-.2.265a4.441,4.441,0,0,1-1.359,1.182Q471.523,73.67,448.7,87.118a14.855,14.855,0,0,1-1.667.752C446.967,86.683,446.877,85.761,446.891,84.85Zm48.078,31.377c-14.757-8.437-29.592-16.732-44.4-25.083-.835-.473-1.625-1.025-2.768-1.75,1.013-.689,1.746-1.268,2.543-1.723q22.537-12.635,45.071-25.261a5.605,5.605,0,0,1,2.111-.767,3.95,3.95,0,0,1,1.006.126,4.826,4.826,0,0,1,1.08.447C514.86,70.9,530.163,79.48,545.445,88.108c.515.287,1,.662,1.917,1.3-.884.615-1.517,1.113-2.2,1.5l-.644.359q-20.2,11.312-40.375,22.653c-1.391.783-2.786,1.559-4.176,2.345a7.452,7.452,0,0,1-1.24.556c-.059.018-.115.034-.171.049a4.286,4.286,0,0,1-.824.135A5.169,5.169,0,0,1,494.968,116.227Zm3.627,5.964a4.523,4.523,0,0,1,2.628-4.4c14.989-8.724,29.919-17.549,44.873-26.331a19.225,19.225,0,0,1,1.832-.866c.036.2.072.368.11.55.059.918.115,1.611.11,2.286-.191,17.192-.419,34.384-.547,51.578a4.249,4.249,0,0,1-2.347,4.194q-22.476,13.1-44.869,26.349c-.551.319-1.152.6-1.976,1.007l-.124.056c-.1-1.1-.236-1.981-.229-2.85C498.247,156.572,498.49,139.378,498.6,122.191Zm49.484-34.04c-1.271-.7-2.178-1.187-3.044-1.7-14.448-8.524-28.874-17.113-43.379-25.566a4.95,4.95,0,0,1-2.878-4.874c-.04-16.869-.25-33.717-.394-50.586-.009-1.01.072-2.035.128-3.4a24.915,24.915,0,0,1,2.261,1.09q22.385,13.214,44.777,26.434c1.409.828,2.3,1.638,2.309,3.514.083,17.636.281,35.257.434,52.879C548.3,86.528,548.19,87.129,548.079,88.15ZM498.519-3.659c.191-16.974.425-33.944.547-50.923.018-2.176.563-3.563,2.6-4.737,14.912-8.641,29.743-17.418,44.6-26.149.569-.337,1.213-.628,2-1.028a11.833,11.833,0,0,1,.358,2.132c-.185,17.515-.41,35.039-.569,52.565a4.768,4.768,0,0,1-.4,2.028c-.056.112-.126.22-.193.328a3.355,3.355,0,0,1-.31.413c-.088.1-.176.2-.279.3a4.876,4.876,0,0,1-.862.637q-9.488,5.55-18.947,11.14-5.384,3.167-10.767,6.332-7.7,4.534-15.4,9.056c-.563.31-1.188.613-1.949.987-.088.038-.2.088-.295.132C498.591-1.808,498.515-2.737,498.519-3.659Zm49.965-85.594c-8.467-4.566-16.384-9.552-24.448-14.257-8.236-4.815-16.429-9.7-24.7-14.607-.176-18.926-.344-37.718-.522-56.954a17.3,17.3,0,0,1,2.241.963q22.547,13.294,45.1,26.609a3.449,3.449,0,0,1,2.03,3.343c.106,17.742.295,35.492.452,53.238C548.64-90.523,548.57-90.1,548.485-89.253ZM499.023-115.5a6.359,6.359,0,0,1,1.226.543c14.964,8.542,30,16.963,45.006,25.424.68.384,1.33.859,2.381,1.559a18.206,18.206,0,0,1-1.447,1.185c-1.107.637-2.14,1.232-3.139,1.8q-4.847,2.723-9.694,5.441-11.719,6.553-23.413,13.14-4.715,2.645-9.431,5.293a6.479,6.479,0,0,1-2.414.772,5.872,5.872,0,0,1-3.092-.909c-14.554-8.369-29.212-16.552-43.834-24.81-.887-.5-1.76-1.057-2.873-1.741l-.137-.114a17.794,17.794,0,0,1,1.924-1.5c15.119-8.493,30.274-16.941,45.366-25.483a6.215,6.215,0,0,1,1.823-.693A4.856,4.856,0,0,1,499.023-115.5Zm-2.149-4.945a3.547,3.547,0,0,1-1.809,3.5q-23.306,13.6-46.543,27.311c-.027.016-.056.027-.083.043-.223.1-.491.18-.95.343-.065-1.138-.146-1.966-.137-2.776.191-17.178.416-34.35.565-51.531.018-1.8.4-3.009,2.1-4Q472.9-160.892,495.7-174.38c.394-.231.846-.426,1.413-.687a11.337,11.337,0,0,1,.335,2.1C497.268-155.453,497.045-137.945,496.874-120.441ZM447.415-86.814c16.591,9.8,32.8,19.38,49.2,29.075.173,18.92.349,37.812.529,57.077a10.236,10.236,0,0,1-1.906-.7q-22.837-13.473-45.665-26.97a3.221,3.221,0,0,1-1.928-3.063c-.1-17.966-.284-35.936-.434-53.9A13.846,13.846,0,0,1,447.415-86.814Zm.07,60.024a6.5,6.5,0,0,1,1.258.554c14.964,8.542,30,16.963,45,25.433.689.39,1.352.868,2.491,1.624-.826.6-1.422,1.1-2.063,1.481-.36.206-.7.4-1.04.592q-18.794,10.511-37.569,21.049-3.261,1.831-6.528,3.657a6.185,6.185,0,0,1-2.432.819,5.246,5.246,0,0,1-2.79-.794C429.049,19.181,414.2,10.874,399.382,2.521c-.839-.473-1.638-1.023-2.754-1.734a25.3,25.3,0,0,1,2.237-1.618c15.036-8.441,30.083-16.84,45.076-25.335a5.564,5.564,0,0,1,2.383-.8A4.6,4.6,0,0,1,447.485-26.79ZM345.711,91.269q22.965,13.54,45.915,27.1a3.241,3.241,0,0,1,1.9,3.092q.169,26.922.43,53.858a9.6,9.6,0,0,1-.209,1.319c-1.01-.5-1.823-.886-2.565-1.324-14.736-8.695-29.455-17.439-44.223-26.1a4.179,4.179,0,0,1-2.469-4.09c-.072-17.3-.27-34.592-.421-51.885-.009-.74.054-1.485.1-2.47A5.919,5.919,0,0,1,345.711,91.269ZM344.2,84.753c.187-16.867.425-33.724.538-50.588a5.009,5.009,0,0,1,2.765-4.981c14.723-8.526,29.365-17.194,44.039-25.806.74-.433,1.544-.8,2.6-1.326.068,1.337.162,2.349.151,3.352-.189,16.867-.428,33.726-.533,50.6a5,5,0,0,1-2.786,4.952c-14.615,8.5-29.16,17.113-43.726,25.7-.828.482-1.683.963-2.885,1.651C344.293,86.782,344.2,85.761,344.2,84.753Zm47.81,31.276c-14.761-8.43-29.594-16.734-44.4-25.092-.821-.467-1.584-1.048-2.783-1.856,1.3-.747,2.207-1.274,3.121-1.791,14.838-8.3,29.694-16.566,44.486-24.955a5.29,5.29,0,0,1,2.385-.767,5.2,5.2,0,0,1,2.392.767C412.08,70.819,427,79.173,441.906,87.574c.821.471,1.575,1.046,2.633,1.755-1.1.7-1.874,1.263-2.7,1.73-14.82,8.318-29.676,16.6-44.457,24.989a5.735,5.735,0,0,1-2.68.848A5.838,5.838,0,0,1,392.013,116.029Zm3.922,5.989a3.771,3.771,0,0,1,2.07-3.7c15.256-8.9,30.452-17.883,45.679-26.829.4-.233.864-.447,1.5-.754a17.6,17.6,0,0,1,.286,2.421c-.18,17.4-.405,34.79-.567,52.191a6.068,6.068,0,0,1-.2,1.5,4,4,0,0,1-1.757,2.123Q419.6,162.615,396.3,176.338a3.747,3.747,0,0,1-.785.245c-.063-.951-.148-1.672-.142-2.376C395.566,156.815,395.786,139.416,395.935,122.018Zm39.21-39.87c-13.161-7.784-26-15.374-38.944-23.024q-.267-28.282-.527-56.647c2.721,1.064,17.408,9.4,30.168,16.923v.09q5.633,3.325,11.276,6.66c3.76,2.3,6.636,4.122,7.88,5.042.16,18.446.331,37.043.5,56.353A104.335,104.335,0,0,1,435.145,82.148ZM395.7-2.813c.184-17.522.425-35.041.551-52.561.016-2.107.983-3.1,2.628-4.057q20.07-11.669,40.085-23.439c2.061-1.207,4.154-2.394,6.717-3.864.014.18.032.325.049.494.041,1.25.081,2.176.068,3.078-.189,16.97-.416,33.94-.536,50.918a4.279,4.279,0,0,1-2.338,4.207C427.933-19.311,413-10.487,398.05-1.7c-.569.341-1.2.63-1.987,1.014A11.818,11.818,0,0,1,395.7-2.813ZM445.75-89.084c-1.271-.7-2.176-1.189-3.036-1.7-14.46-8.533-28.881-17.113-43.384-25.568a4.952,4.952,0,0,1-2.9-4.869c-.038-16.86-.245-33.717-.387-50.577-.009-1.021.063-2.053.115-3.413a23.9,23.9,0,0,1,2.257,1.077q22.4,13.214,44.781,26.439c1.4.826,2.309,1.622,2.322,3.512.079,17.625.277,35.248.43,52.879C445.957-90.722,445.856-90.114,445.75-89.084Zm-48.559-25.979q23.026,13.072,46.12,26.039c.464.26.873.606,1.742,1.221-1.076.7-1.773,1.207-2.518,1.62Q420-73.555,397.481-60.907a5.333,5.333,0,0,1-2.246.761,4.6,4.6,0,0,1-2.243-.669c-15.146-8.625-30.362-17.154-45.548-25.716-.556-.312-1.071-.707-1.917-1.263a22.417,22.417,0,0,1,2.115-1.571q22.82-12.8,45.634-25.588a4.853,4.853,0,0,1,1.98-.68A3.924,3.924,0,0,1,397.191-115.063Zm-3.105-5.832a4.265,4.265,0,0,1-2.381,4.178q-22.608,13.173-45.132,26.47c-.486.285-1.028.532-1.7.853a12.114,12.114,0,0,1-.342-2.1q.284-26.266.578-52.518a3.564,3.564,0,0,1,1.818-3.5q23.31-13.591,46.545-27.314a6.866,6.866,0,0,1,1.017-.393c.07,1.147.158,1.972.149,2.791C394.445-155.251,394.214-138.071,394.085-120.894ZM347.3-85.191c14.746,8.7,29.473,17.443,44.243,26.113a3.938,3.938,0,0,1,2.333,3.826c.085,17.427.279,34.844.437,52.26.009.648-.05,1.306-.072,1.874a3.5,3.5,0,0,1-.38.245l-.056.022a18,18,0,0,1-1.676-.808Q368.613-15.55,345.024-29.5c-.171-18.917-.349-37.684-.52-57.118C345.738-86.008,346.557-85.638,347.3-85.191Zm-1.125,58.982Q368.483-13.5,390.9-.959c.751.426,1.447.942,2.754,1.784-1.458.832-2.383,1.387-3.312,1.9q-22.132,12.4-44.239,24.805a5.81,5.81,0,0,1-2.655.913,4.271,4.271,0,0,1-1.843-.6c-15.252-8.7-30.564-17.288-45.854-25.914-.56-.312-1.073-.718-1.89-1.272a22.489,22.489,0,0,1,2.16-1.618c15.02-8.43,30.085-16.815,45.069-25.323a5.292,5.292,0,0,1,2.543-.779A5.818,5.818,0,0,1,346.179-26.209Zm-97.3,178.179c-3.24-1.992-5.747-3.595-7-4.508-.167-18.68-.34-37.5-.515-57.1,16.834,9.96,32.959,19.494,49.3,29.156q.267,28.285.529,56.624c-2.171-.828-11.951-6.287-22.313-12.289v-.065Q258.851,157.86,248.883,151.97ZM241.4,84.695c.187-16.867.443-33.731.522-50.6a5.224,5.224,0,0,1,2.963-5.154c1.319-.767,2.633-1.546,3.951-2.313,13.5-7.849,26.946-15.792,40.411-23.7a20.068,20.068,0,0,1,2.025-.954,25.682,25.682,0,0,1,.227,2.574c-.191,17.306-.412,34.606-.563,51.906a4.019,4.019,0,0,1-2.133,3.989c-15.09,8.78-30.117,17.661-45.164,26.506-.567.337-1.2.615-2.153,1.07C241.437,86.575,241.385,85.628,241.4,84.695Zm48.1,31.532c-14.764-8.452-29.617-16.748-44.432-25.1-.837-.478-1.636-1.03-2.756-1.746.909-.653,1.526-1.214,2.234-1.618,15.027-8.439,30.081-16.833,45.083-25.328a5.623,5.623,0,0,1,2.4-.808,4.921,4.921,0,0,1,2.394.734c14.962,8.538,30,16.963,45.006,25.433.745.415,1.433.924,2.738,1.777-1.487.853-2.408,1.389-3.341,1.923-14.658,8.2-29.338,16.359-43.955,24.637a6.3,6.3,0,0,1-2.68.906A5.442,5.442,0,0,1,289.5,116.227Zm3.632,5.926c.018-1.793.4-3.007,2.115-4,15.164-8.838,30.267-17.771,45.393-26.661.488-.292,1.053-.545,1.8-.909.092,1.066.225,1.954.216,2.834-.187,17.176-.414,34.355-.565,51.535-.016,1.793-.378,3.022-2.084,4.012-15.268,8.885-30.483,17.861-45.706,26.8-.41.238-.866.431-1.613.779-.061-1.223-.133-2.051-.122-2.861C292.759,156.51,292.984,139.331,293.133,122.153Zm49.513-34.128c-.871-.411-1.586-.716-2.221-1.086Q318.02,73.7,295.6,60.487a3.969,3.969,0,0,1-2.273-3.868c-.088-17.416-.286-34.835-.432-52.258-.011-.691.083-1.4.157-2.381.765.348,1.388.606,1.928.92,15.027,8.879,30.04,17.793,45.094,26.623a3.958,3.958,0,0,1,2.284,3.864c.092,17.421.286,34.833.441,52.253C342.812,86.335,342.72,87.044,342.646,88.025Zm-49.6-91.6c.182-17.071.414-34.139.549-51.21.013-1.93.441-3.2,2.248-4.254,14.975-8.713,29.887-17.544,44.826-26.331.644-.377,1.377-.7,2.316-1.16.058,1.283.146,2.3.135,3.312-.182,16.846-.432,33.695-.529,50.55a4.972,4.972,0,0,1-2.824,4.916c-14.606,8.49-29.142,17.1-43.7,25.655-.833.494-1.692.981-2.833,1.638C293.142-1.772,293.036-2.676,293.045-3.571Zm.808-114.55c-.176-19.077-.349-37.893-.522-56.586a3.5,3.5,0,0,1,.493-.269c.016-.007.034,0,.052-.009.565.267,1.143.521,1.681.826q23.5,13.89,47.09,27.841c.173,18.942.342,37.763.522,57.336C326.418-98.876,310.239-108.435,293.853-118.121Zm.551,2.935c15.337,8.742,30.742,17.374,46.113,26.05.461.26.871.6,1.6,1.122a25.613,25.613,0,0,1-2.144,1.555Q317.3-73.73,294.643-61a5.778,5.778,0,0,1-2.124.785,3.9,3.9,0,0,1-2.086-.563c-15.342-8.751-30.738-17.378-46.113-26.05-.425-.249-.828-.579-1.665-1.178.718-.525,1.235-.96,1.791-1.283l.531-.305,7.873-4.411q18.686-10.45,37.358-20.921a5.929,5.929,0,0,1,2.122-.808A3.806,3.806,0,0,1,294.4-115.186ZM291.4-120.8a4.255,4.255,0,0,1-2.3,4.227C274.114-107.829,259.189-99,244.24-90.2c-.572.343-1.211.63-1.973,1.005a6.843,6.843,0,0,1-.412-1.757c.175-17.746.419-35.483.551-53.225a4.185,4.185,0,0,1,.2-1.319v0a4.6,4.6,0,0,1,2.387-2.41q17.926-10.457,35.825-20.955c3.488-2.044,7.018-4.043,10.965-6.305.081,1.174.18,1.995.171,2.791C291.767-155.184,291.537-137.992,291.4-120.8ZM243.624-85.82q22.827,13.456,45.632,26.937a3.255,3.255,0,0,1,1.937,3.069c.1,17.959.279,35.91.425,53.864a10.615,10.615,0,0,1-.2,1.344c-1-.5-1.818-.868-2.549-1.3-14.737-8.7-29.453-17.445-44.228-26.086a4.206,4.206,0,0,1-2.5-4.084c-.074-17.3-.272-34.592-.423-51.89-.007-.734.045-1.479.09-2.513A8.816,8.816,0,0,1,243.624-85.82Zm-.315,59.6c14.952,8.533,29.973,16.95,44.963,25.411C289.013-.4,289.7.1,290.7.75c-.974.653-1.618,1.18-2.34,1.582q-22.668,12.716-45.344,25.44a4.866,4.866,0,0,1-2.2.709,4.323,4.323,0,0,1-2-.617c-15.151-8.627-30.362-17.156-45.539-25.718-.61-.339-1.184-.774-2.138-1.427.875-.6,1.559-1.111,2.268-1.539.315-.18.619-.355.918-.521q20.792-11.642,41.568-23.3c.9-.5,1.791-1,2.684-1.5a5.659,5.659,0,0,1,2.338-.794A4.812,4.812,0,0,1,243.309-26.222Zm-85.7,127.658q9.63,5.7,19.286,11.351c4.548,2.735,8.236,5.015,10.162,6.31a4.2,4.2,0,0,1,.938,1.622c.173,18.354.342,36.87.515,56.151-.416-.215-.758-.386-1.116-.565-16.064-9.5-31.534-18.644-47.045-27.81a4.266,4.266,0,0,1-1.289-2.219c-.164-18.309-.335-36.509-.5-54.775.011-.2.02-.375.031-.592C140.619,91.763,148.605,96.232,157.613,101.436Zm-18.89-15.877q.277-26.084.569-52.191a3.525,3.525,0,0,1,1.775-3.52q23.3-13.6,46.532-27.323a.75.75,0,0,1,.074-.036c.225-.108.5-.2.995-.381.072,1.108.153,1.93.148,2.737-.191,17.284-.419,34.568-.563,51.858a3.774,3.774,0,0,1-2.061,3.7q-23.019,13.439-45.971,26.982a11.331,11.331,0,0,1-1.217.574A17.387,17.387,0,0,1,138.722,85.559Zm48.66,30.935c-15.358-8.746-30.762-17.389-46.156-26.071-.47-.274-.9-.6-1.685-1.129a19.6,19.6,0,0,1,2.07-1.6Q164.3,74.953,186.989,62.237c.257-.146.5-.249.743-.359a4.109,4.109,0,0,1,2.646-.211,4.5,4.5,0,0,1,.83.343q22.884,13.012,45.863,25.9c.628.352,1.172.864,2.012,1.472-1.091.7-1.863,1.263-2.684,1.721q-22.409,12.571-44.808,25.139a5.612,5.612,0,0,1-2.246.792A3.856,3.856,0,0,1,187.383,116.494Zm3.047,5.219a4.177,4.177,0,0,1,.115-.774,4.6,4.6,0,0,1,1.888-2.623c.182-.121.351-.245.551-.361Q210.9,107.5,228.8,97c3.477-2.031,7-4.03,11-6.327.025.1.047.2.074.307.049,1.225.115,2.165.1,3.09-.191,16.855-.437,33.722-.536,50.586a5.01,5.01,0,0,1-2.835,4.925c-14.624,8.49-29.156,17.113-43.732,25.7-.718.42-1.483.85-2.4,1.373l-.18.063a10.279,10.279,0,0,1-.425-2.116C190.058,156.974,190.3,139.34,190.429,121.713Zm49.412-33.655c-.808-.438-1.6-.9-2.4-1.34l-46.734-27.63c-.171-18.931-.344-37.7-.518-56.932.173.061.331.11.5.164a11.243,11.243,0,0,1,1.735.767c15.038,8.861,30.054,17.773,45.1,26.6a3.453,3.453,0,0,1,2.03,3.343c.113,17.748.3,35.492.452,53.243C240.01,86.667,239.94,87.089,239.841,88.058ZM190.234-4.02c.182-16.849.434-33.7.531-50.55a4.979,4.979,0,0,1,2.813-4.925c14.518-8.43,28.944-16.985,43.411-25.5.486-.287.974-.57,1.505-.873.461-.245.963-.471,1.625-.8.095,1.23.2,2.114.194,2.973-.18,17.073-.412,34.137-.554,51.208-.016,1.907-.383,3.218-2.205,4.286C222.384-19.383,207.27-10.46,192.131-1.574a19.591,19.591,0,0,1-1.823.859C190.27-2.144,190.22-3.082,190.234-4.02ZM222.78-99.231q-11.965-7.068-23.935-14.127c-3.211-1.968-5.781-3.592-7.282-4.627a2.807,2.807,0,0,1-.52-.963c-.171-18.426-.347-37.011-.515-55.637.014-.094.025-.166.043-.289,1.818.722,8.364,4.322,16.172,8.78,9.269,5.477,18.483,10.925,27.72,16.386,2.455,1.526,4.379,2.764,5.5,3.559q.26,28.1.522,56.566C238.626-90.3,231.3-94.348,222.78-99.231Zm-30.326-15.428c14.678,8.374,29.428,16.626,44.147,24.931.92.523,1.8,1.115,3.053,1.9-1.136.758-1.881,1.34-2.7,1.8q-22.412,12.554-44.824,25.124a6.34,6.34,0,0,1-1.832.7,4.544,4.544,0,0,1-1.562-.076,5.39,5.39,0,0,1-1.1-.469c-15.16-8.63-30.378-17.165-45.578-25.745-.587-.332-1.13-.779-2.043-1.44.788-.579,1.382-1.077,2.021-1.449.187-.105.367-.209.547-.307,14.836-8.329,29.707-16.609,44.5-25.011a7.262,7.262,0,0,1,1.409-.624c.095-.029.187-.04.279-.063a4.437,4.437,0,0,1,.839-.126A5.7,5.7,0,0,1,192.455-114.659Zm-3.861-6.224a4.251,4.251,0,0,1-2.34,4.2c-14.989,8.728-29.921,17.555-44.871,26.344-.574.332-1.213.626-2.027,1.034a17.883,17.883,0,0,1-.3-2.5c.184-17.3.412-34.6.56-51.906a4.449,4.449,0,0,1,1.152-3.314c.034-.034.056-.074.092-.108a5.664,5.664,0,0,1,.869-.646c.1-.067.182-.139.293-.206,15.063-8.769,30.067-17.638,45.094-26.468.405-.229.873-.429,1.514-.714l.378-.157c.07,1.212.151,2.042.14,2.861C188.96-155.26,188.726-138.071,188.593-120.883ZM149.753-80.526l36.471,21.552q1.364.878,2.106,1.416.253,28.215.524,56.46c-1.845-.7-9.181-4.748-17.7-9.628q-12.289-7.26-24.478-14.457c-3.315-2.04-5.88-3.678-7.149-4.6-.167-18.462-.338-37.085-.513-56.429C139.971-85.925,144.154-83.677,149.753-80.526Zm-9.395,54.1c15.054,8.583,30.168,17.051,45.256,25.561.653.377,1.262.81,2.2,1.411a18.347,18.347,0,0,1-1.859,1.414Q163,14.858,140.052,27.757a6.2,6.2,0,0,1-.83.377,4.665,4.665,0,0,1-2.6-.105c-.164-.074-.32-.119-.493-.215Q113.109,14.737,90.015,1.771c-.428-.238-.833-.57-1.672-1.173C89.051.07,89.562-.356,90.1-.677c.293-.168.572-.328.844-.482q22.49-12.594,44.977-25.207a5.429,5.429,0,0,1,2.095-.711A4.43,4.43,0,0,1,140.358-26.422ZM38.636,91.983Q60.764,105.031,82.879,118.1a3.954,3.954,0,0,1,2.378,3.812c.074,17.416.277,34.83.421,52.244.009.689-.1,1.393-.2,2.549-16.1-9.511-31.836-18.812-47.659-28.16a4.444,4.444,0,0,1-1.447-2.351c-.162-18.3-.331-36.518-.5-55.175,0-.141.007-.267.011-.415C37.083,91.186,37.9,91.545,38.636,91.983Zm-2.714-7.692c.187-16.739.428-33.475.524-50.22a5.009,5.009,0,0,1,2.779-4.948q15.489-8.99,30.9-18.13,6.72-3.958,13.443-7.914c.308-.175.632-.364.968-.554.32-.17.68-.321,1.213-.565A20.664,20.664,0,0,1,86,4.538c-.185,17.284-.412,34.566-.556,51.863a3.994,3.994,0,0,1-2.174,3.965C68.107,69.2,52.992,78.121,37.86,87c-.491.292-1.042.516-1.877.9C35.954,86.378,35.9,85.337,35.922,84.291Zm49.614,32.616a5.11,5.11,0,0,1-1.017-.44Q61.8,103.546,38.969,90.751c-.6-.343-1.172-.77-2.151-1.427.92-.631,1.625-1.169,2.36-1.6.275-.157.545-.31.812-.46Q62.1,74.892,84.2,62.486a5.874,5.874,0,0,1,2.381-.828,4.767,4.767,0,0,1,2.4.707c14.944,8.538,29.97,16.945,44.961,25.4.734.42,1.424.92,2.432,1.577-.947.653-1.593,1.174-2.309,1.575q-22.675,12.726-45.337,25.438a5.806,5.806,0,0,1-1.663.637A4.288,4.288,0,0,1,85.537,116.907Zm2.095,5.574a4.769,4.769,0,0,1,1.737-4.142c.189-.144.378-.287.6-.424.09-.056.169-.114.266-.171,15-8.7,29.925-17.542,44.88-26.326a9,9,0,0,1,.884-.442c.254-.114.518-.229.851-.379a12.451,12.451,0,0,1,.335,2.116c-.187,17.528-.407,35.046-.563,52.57a3.765,3.765,0,0,1-2.048,3.7q-22.895,13.365-45.724,26.849c-.405.231-.864.426-1.636.781-.061-1.362-.142-2.3-.133-3.211C87.267,156.429,87.5,139.452,87.632,122.48Zm49.493-34.366c-1.26-.7-2.16-1.178-3.022-1.692-14.46-8.538-28.879-17.116-43.388-25.559A4.966,4.966,0,0,1,87.812,56c-.056-16.869-.254-33.713-.4-50.582-.011-1.025.061-2.053.108-3.424a22.993,22.993,0,0,1,2.241,1.055q22.4,13.217,44.792,26.43a3.974,3.974,0,0,1,2.331,3.839c.076,17.405.275,34.817.423,52.224C137.323,86.234,137.224,86.945,137.125,88.114ZM87.539-3.131c.184-17.306.407-34.608.574-51.9a5.768,5.768,0,0,1,.362-2.17,3.722,3.722,0,0,1,.261-.46,3.312,3.312,0,0,1,.194-.283,4.294,4.294,0,0,1,.448-.489,4.542,4.542,0,0,1,.819-.624c15.173-8.827,30.288-17.757,45.422-26.638.349-.184.743-.388,1.168-.6l.707-.3c.02.1.04.188.063.289.043,1.218.1,2.1.088,2.973-.191,16.968-.423,33.937-.563,50.916-.014,2.053-.466,3.388-2.39,4.514-14.9,8.657-29.73,17.454-44.583,26.189-.648.381-1.37.709-2.277,1.158A20.7,20.7,0,0,1,87.539-3.131ZM135-90.592c-15.864-9.363-31.208-18.437-46.635-27.556-.167-18.816-.338-37.545-.513-57.008.754.314,1.352.538,1.883.781,15.875,9.377,31.206,18.437,46.59,27.527a3.035,3.035,0,0,1,.844,1.25c.166,18.682.338,37.24.518,56.5C136.776-89.585,135.9-90.094,135-90.592ZM89.765-114.744c14.669,8.4,29.424,16.651,44.142,24.953.853.48,1.661,1.016,2.774,1.712a14.183,14.183,0,0,1-1.818,1.474Q111.9-73.7,88.912-60.815c-.232.128-.45.22-.671.319a4.8,4.8,0,0,1-2.972-.135Q61.811-73.952,38.3-87.206a9.3,9.3,0,0,1-1.051-.839c.459-.372.848-.693,1.211-.969a8.9,8.9,0,0,1,.851-.559c14.169-7.95,28.366-15.859,42.506-23.883q1.151-.649,2.306-1.3a8.1,8.1,0,0,1,1.449-.655c.065-.02.128-.036.191-.054a4.754,4.754,0,0,1,.882-.144A5.651,5.651,0,0,1,89.765-114.744Zm-3.864-5.71a3.534,3.534,0,0,1-1.834,3.48q-23.3,13.607-46.547,27.32a7.429,7.429,0,0,1-1.017.379c-.063-1.16-.14-1.995-.124-2.814.189-17.178.414-34.357.556-51.535a4.01,4.01,0,0,1,2.135-3.987c15.162-8.834,30.272-17.769,45.4-26.661.482-.28,1.026-.525,1.685-.841a12.679,12.679,0,0,1,.322,2.132C86.29-155.48,86.063-137.965,85.9-120.455Zm-49.464,33.6c16.588,9.8,32.8,19.382,49.2,29.075.176,18.911.353,37.808.531,57.068a10.121,10.121,0,0,1-1.906-.7Q61.43-14.889,38.6-28.376a3.231,3.231,0,0,1-1.933-3.067c-.1-17.968-.275-35.934-.421-53.9A12.445,12.445,0,0,1,36.437-86.854ZM38.085-26.1C52.862-17.662,67.711-9.356,82.521-1c.83.469,1.618,1.023,2.732,1.746a27.812,27.812,0,0,1-2.27,1.627q-22.7,12.722-45.4,25.436a8.228,8.228,0,0,1-.956.462,4.445,4.445,0,0,1-2.552-.072,4.289,4.289,0,0,1-.405-.166Q24.4,22.766,15.092,17.547v.076Q1.7,10.061-11.7,2.521c-.837-.473-1.636-1.023-2.754-1.734A25.288,25.288,0,0,1-12.216-.832Q1.44-8.5,15.092-16.157v.007c5.88-3.3,11.764-6.592,17.628-9.922a5.88,5.88,0,0,1,2.678-.871A5.652,5.652,0,0,1,38.085-26.1ZM-65.042,91.269q22.965,13.54,45.915,27.1a3.247,3.247,0,0,1,1.9,3.092q.169,26.922.428,53.858a12.4,12.4,0,0,1-.234,1.472c-1.177-.6-2.048-.992-2.869-1.476-14.736-8.695-29.455-17.439-44.225-26.1a4.18,4.18,0,0,1-2.466-4.09c-.072-17.3-.27-34.592-.421-51.885-.009-.765.059-1.521.1-2.551A8.5,8.5,0,0,1-65.042,91.269Zm-1.836-6.516c.187-16.867.423-33.724.536-50.588a5.013,5.013,0,0,1,2.765-4.981c14.725-8.526,29.365-17.194,44.041-25.806.817-.478,1.69-.862,2.921-1.485.068,1.423.171,2.468.16,3.512-.189,16.867-.425,33.726-.533,50.6a5,5,0,0,1-2.783,4.952c-14.617,8.5-29.16,17.113-43.726,25.7-.9.527-1.82,1.037-3.206,1.835C-66.781,86.853-66.882,85.8-66.878,84.753Zm47.808,31.276C-33.832,107.6-48.665,99.3-63.464,90.937c-.821-.467-1.586-1.048-2.786-1.856,1.3-.747,2.207-1.274,3.123-1.791,14.836-8.3,29.694-16.566,44.484-24.955a4.507,4.507,0,0,1,5.11,0Q.586,70.4,14.761,78.345V78.4q8.455,4.762,16.91,9.532c.549.31,1.046.709,2.079,1.42-.074.047-.126.083-.2.13-1.226.7-2.041,1.171-2.846,1.622l-15.945,8.946v.157Q.676,108.1-13.373,116.047A5.035,5.035,0,0,1-19.07,116.029Zm3.922,5.989a3.778,3.778,0,0,1,2.07-3.7q14.112-8.232,28.17-16.543v.02L31.26,92.281c.484-.287.972-.57,1.5-.873.416-.229.878-.44,1.58-.785.074,1.333.16,2.23.149,3.119-.182,17.069-.423,34.141-.558,51.208a4.237,4.237,0,0,1-2.313,4.212q-8.445,4.914-16.858,9.884v.159q-14.6,8.566-29.212,17.134a6.8,6.8,0,0,1-1.109.334c-.063-1-.155-1.737-.146-2.466C-15.515,156.815-15.3,139.416-15.148,122.018Zm31.725-44.3c-10.553-6.24-20.99-12.413-31.458-18.6q-.267-28.336-.529-56.757c1.487.289,16.816,8.971,30.171,16.837v.285L32.036,29.7c.828.536,1.494.985,1.978,1.331q.257,28.2.524,56.456C32.682,86.786,25.213,82.673,16.577,77.721ZM-15.382-2.813c.182-17.522.423-35.041.551-52.561.016-2.107.983-3.1,2.628-4.057Q7.863-71.1,27.882-82.869c1.946-1.14,3.933-2.268,6.305-3.628.135-.063.266-.121.414-.191.095,1.106.241,2,.23,2.863-.182,17.192-.4,34.384-.56,51.571-.016,1.764-.347,3.018-2.068,4.028Q23.464-23.14,14.761-18v.162Q1.027-9.778-12.7-1.7c-.648.386-1.341.687-2.288,1.16A14.1,14.1,0,0,1-15.382-2.813Zm1.823-112.25Q.579-107.036,14.761-99.074v.1q8.573,4.836,17.146,9.675c.641.355,1.224.806,2.329,1.533l-.02.016c-1.4.806-2.243,1.295-3.087,1.777q-8.188,4.584-16.368,9.179v.157Q.74-68.781-13.269-60.907a4.291,4.291,0,0,1-4.82.092C-33.238-69.44-48.453-77.969-63.638-86.531c-.556-.312-1.071-.707-1.917-1.263a22.125,22.125,0,0,1,2.115-1.571q22.82-12.8,45.632-25.588A3.8,3.8,0,0,1-13.56-115.063Zm-3.108-5.832a4.265,4.265,0,0,1-2.381,4.178q-22.608,13.173-45.13,26.47c-.563.33-1.163.588-2,1a13.825,13.825,0,0,1-.371-2.244q.28-26.266.578-52.518a3.564,3.564,0,0,1,1.818-3.5q23.306-13.591,46.543-27.314a12.062,12.062,0,0,1,1.343-.509c.07,1.214.164,2.06.155,2.908C-16.3-155.251-16.539-138.071-16.667-120.894Zm-46.782,35.7c14.746,8.7,29.473,17.443,44.243,26.113a3.94,3.94,0,0,1,2.336,3.826c.085,17.427.277,34.844.434,52.26.009.648-.05,1.306-.072,1.874a3.533,3.533,0,0,1-.378.245c-.09.036-.223.1-.293.07-.6-.274-1.206-.525-1.773-.855Q-42.47-15.55-66.059-29.5c-.171-18.971-.349-37.79-.52-57.284C-65.141-86.062-64.263-85.68-63.449-85.191Zm-1.123,58.982Q-42.271-13.5-19.856-.959c.752.426,1.449.942,2.756,1.784-1.458.832-2.383,1.387-3.315,1.9q-22.132,12.4-44.239,24.805c-1.631.918-2.957,1.378-4.829.314-15.25-8.7-30.562-17.288-45.852-25.914-.56-.312-1.073-.718-1.892-1.272a22.785,22.785,0,0,1,2.162-1.618C-100.044-9.385-84.979-17.77-70-26.278A4.8,4.8,0,0,1-64.571-26.209Zm-53.379,148.362c.018-1.793.405-3.007,2.115-4,15.164-8.838,30.27-17.771,45.393-26.661.563-.337,1.172-.592,2.124-1.061.088,1.142.239,2.064.23,2.986-.189,17.176-.414,34.355-.567,51.535-.016,1.793-.376,3.022-2.084,4.012-15.268,8.885-30.481,17.861-45.7,26.8-.47.271-.977.471-1.937.929-.061-1.313-.142-2.165-.13-3.011C-118.324,156.51-118.1,139.331-117.951,122.153Zm-3.63-5.926c-14.766-8.452-29.617-16.748-44.432-25.1-.839-.478-1.636-1.03-2.756-1.746.909-.653,1.526-1.214,2.232-1.618,15.027-8.439,30.083-16.833,45.085-25.328a4.516,4.516,0,0,1,5.121-.074c14.961,8.538,30,16.963,45.006,25.433.745.415,1.431.924,2.736,1.777-1.485.853-2.408,1.389-3.339,1.923-14.658,8.2-29.338,16.359-43.958,24.637A5.03,5.03,0,0,1-121.58,116.227Zm53.462-28.054c-1.04-.5-1.823-.817-2.538-1.234Q-93.061,73.7-115.478,60.487a3.966,3.966,0,0,1-2.273-3.868c-.088-17.416-.288-34.835-.434-52.258-.009-.729.094-1.461.173-2.524.936.438,1.625.7,2.243,1.064,15.027,8.879,30.042,17.793,45.1,26.623a3.961,3.961,0,0,1,2.284,3.864c.09,17.421.286,34.833.441,52.253C-67.938,86.373-68.041,87.1-68.118,88.173ZM-118.038-3.571c.185-17.071.416-34.139.549-51.21.016-1.93.441-3.2,2.25-4.254,14.975-8.713,29.885-17.544,44.826-26.331.722-.424,1.512-.752,2.637-1.315.059,1.364.155,2.414.142,3.467-.182,16.846-.43,33.695-.529,50.55a4.969,4.969,0,0,1-2.824,4.916c-14.6,8.49-29.14,17.1-43.7,25.655-.909.541-1.836,1.061-3.148,1.822C-117.928-1.7-118.047-2.633-118.038-3.571Zm.808-114.55c-.176-19.077-.347-37.893-.52-56.586a3.409,3.409,0,0,1,.491-.269.452.452,0,0,1,.3-.049c.594.283,1.2.545,1.766.866q23.5,13.89,47.09,27.841c.173,19,.342,37.889.522,57.533C-84.452-98.751-100.734-108.37-117.231-118.121Zm.884,2.935c15.337,8.742,30.742,17.374,46.113,26.05.459.26.869.6,1.6,1.122a25.248,25.248,0,0,1-2.144,1.555Q-93.446-73.73-116.11-61c-1.541.864-2.8,1.207-4.541.222-15.342-8.751-30.738-17.378-46.113-26.05-.457-.269-.869-.619-1.854-1.317,1.28-.738,2.117-1.227,2.95-1.7q22.405-12.534,44.792-25.083C-119.346-115.792-118.09-116.173-116.346-115.186ZM-122.208-1.9c-14.737-8.7-29.453-17.445-44.228-26.086a4.2,4.2,0,0,1-2.5-4.084c-.074-17.3-.274-34.592-.425-51.89-.007-.761.05-1.517.095-2.614a12.629,12.629,0,0,1,2.135.758q22.827,13.456,45.632,26.937a3.253,3.253,0,0,1,1.935,3.069c.1,17.959.281,35.91.425,53.864a12.508,12.508,0,0,1-.221,1.494C-120.52-1.049-121.4-1.426-122.208-1.9Zm-46.957,36a5.234,5.234,0,0,1,3-5.181c14.822-8.585,29.556-17.313,44.322-25.983.632-.379,1.348-.633,2.34-1.093.1,1.088.25,1.9.245,2.713-.193,17.306-.414,34.606-.563,51.906a4.02,4.02,0,0,1-2.135,3.989c-15.088,8.78-30.114,17.661-45.161,26.506-.632.377-1.321.662-2.48,1.225-.047-1.548-.106-2.518-.092-3.487C-169.5,67.828-169.244,50.964-169.165,34.1Zm-.04,113.363c-.167-18.742-.34-37.626-.515-57.3,16.953,10.03,33.181,19.624,49.637,29.351q.267,28.336.529,56.727C-122.021,175.813-162.615,152.237-169.205,147.463Zm-.806,114.759c.182-17.062.419-34.133.551-51.2a4.242,4.242,0,0,1,2.282-4.227c14.973-8.728,29.885-17.555,44.831-26.331.716-.431,1.492-.752,2.561-1.265.074,1.25.2,2.19.187,3.135-.187,16.963-.443,33.922-.536,50.882a4.985,4.985,0,0,1-2.855,4.9c-14.512,8.432-28.951,16.974-43.406,25.492-1.013.592-2.027,1.165-3.414,1.957C-169.9,264.113-170.022,263.164-170.011,262.221Zm98.4,5.9q-22.685,12.742-45.38,25.456c-1.451.821-2.644,1.133-4.239.222q-23.181-13.167-46.444-26.239c-.448-.251-.833-.613-1.62-1.191,1.06-.7,1.672-1.153,2.327-1.526,14.842-8.329,29.714-16.6,44.5-25.012a5.522,5.522,0,0,1,6.294-.013c14.57,8.351,29.226,16.539,43.852,24.787.92.527,1.807,1.115,3.06,1.892C-70.251,267.189-70.895,267.718-71.61,268.12Zm-46.417-31.77q-.267-28.369-.52-56.8c2.864.7,41.431,23.118,49.637,28.772.178,18.722.347,37.64.529,57.358Zm48.161-31.211q-22.871-13.008-45.839-25.875c-.549-.31-1.044-.718-1.872-1.292.995-.68,1.735-1.25,2.534-1.712Q-92.5,163.635-69.972,151c1.559-.875,2.817-1.158,4.53-.18,15.243,8.686,30.551,17.264,45.827,25.884.551.307,1.049.7,2.1,1.432-1.244.711-2,1.156-2.756,1.58q-22.54,12.615-45.062,25.261A4.027,4.027,0,0,1-69.866,205.139Zm2.522,57.506c.182-17.3.41-34.606.572-51.9.014-1.775.349-3.038,2.072-4.041,15.274-8.9,30.488-17.892,45.726-26.84a19.362,19.362,0,0,1,1.924-.812c.061,1.306.142,2.167.133,3.027q-.284,25.8-.558,51.578c-.02,1.775-.374,3.011-2.088,4.016q-22.776,13.254-45.452,26.672c-.54.316-1.139.559-2.023.987A22.678,22.678,0,0,1-67.344,262.645Zm97.654,5.971q-7.77,4.352-15.549,8.7v.168Q.507,285.45-13.719,293.468a4.751,4.751,0,0,1-5.412.054c-14.86-8.5-29.806-16.853-44.72-25.258-.758-.424-1.474-.92-2.486-1.564a13.625,13.625,0,0,1,1.757-1.467q22.959-12.9,45.947-25.8a3.573,3.573,0,0,1,3.96-.2q14.7,8.344,29.435,16.644v.067q7.959,4.49,15.918,8.98c.815.462,1.564,1.041,2.8,1.878C32.137,267.57,31.23,268.1,30.31,268.616Zm3.711-3.458c-.405-.13-.765-.242-1.1-.361L15.092,254.265v.119Q.808,245.939-13.479,237.51a3.238,3.238,0,0,1-1.926-3.07q-.155-26.949-.434-53.907a8.378,8.378,0,0,1,.126-.96c1.449.211,16.906,8.921,30.474,16.938v.355q8.34,4.931,16.69,9.85a3.972,3.972,0,0,1,2.286,3.857c.086,17.421.286,34.835.437,52.258C34.174,263.466,34.1,264.131,34.021,265.158Zm.819-59.689c-.074,0-.148,0-.223-.009a5.638,5.638,0,0,1-1-.211,7.8,7.8,0,0,1-1.55-.7c-5.637-3.242-11.309-6.431-16.971-9.635v.09q-13.329-7.536-26.669-15.049c-1.035-.581-2.048-1.174-3.429-1.979a25.473,25.473,0,0,1,2.3-1.7q13.9-7.8,27.8-15.592v.007q8.651-4.86,17.3-9.727c.14-.074.277-.139.412-.2.151-.079.3-.137.443-.2a4.532,4.532,0,0,1,2.984-.2,6.336,6.336,0,0,1,1.076.473c15.058,8.591,30.2,17.064,45.3,25.581.637.366,1.226.828,2.331,1.6-2.747,1.571-5.007,2.9-7.291,4.187-13.211,7.4-26.462,14.746-39.633,22.234A6.556,6.556,0,0,1,34.84,205.469Zm.725,57.708c.187-17.634.425-35.259.551-52.9a4.059,4.059,0,0,1,.113-.74,4.819,4.819,0,0,1,2.034-2.726c.144-.09.27-.184.425-.274Q56.617,196.1,74.5,185.587c3.5-2.046,7.036-4.039,10.972-6.3.1,1.021.212,1.725.209,2.412-.194,17.412-.428,34.826-.56,52.235a4.026,4.026,0,0,1-2.288,3.911c-15.076,8.8-30.1,17.692-45.143,26.546-.484.287-1.035.53-1.724.859A9.6,9.6,0,0,1,35.564,263.177ZM133.644,268Q110.975,280.729,88.3,293.459a5.194,5.194,0,0,1-2.219.749,4.054,4.054,0,0,1-1.987-.579c-15.241-8.684-30.549-17.27-45.823-25.889-.556-.312-1.051-.723-2.108-1.441,1.5-.862,2.538-1.472,3.587-2.055Q60.232,252.792,80.69,241.3c1.01-.568,2.023-1.131,3.033-1.7a7.468,7.468,0,0,1,1.244-.563c.054-.018.106-.034.158-.049a4.405,4.405,0,0,1,.851-.144,5.072,5.072,0,0,1,2.759.767c14.75,8.439,29.588,16.734,44.4,25.079.83.476,1.622,1.023,2.765,1.743C134.982,267.07,134.346,267.608,133.644,268Zm.929-3.909q-22.382-13.23-44.774-26.418a3.962,3.962,0,0,1-2.3-3.846c-.083-17.291-.274-34.588-.423-51.881-.007-.767.092-1.55.185-2.74.486.249.927.471,1.323.671,15.7,9.28,31.073,18.361,46.541,27.5a4.211,4.211,0,0,1,1.235,1.858c.171,18.54.342,37.011.518,56.081C135.8,264.757,135.16,264.447,134.573,264.095Zm3.288-58.39a4.86,4.86,0,0,1-2.394-.729c-14.968-8.542-30-16.959-45.006-25.427-.72-.411-1.409-.909-2.372-1.548.239-.206.452-.4.655-.59a12.443,12.443,0,0,1,1.5-1.05q18.726-10.518,37.454-21.044,3.875-2.178,7.752-4.353a7.6,7.6,0,0,1,1.053-.485c.045-.018.092-.043.137-.061a4.384,4.384,0,0,1,.977-.18,4.784,4.784,0,0,1,2.5.727c14.968,8.544,30,16.959,45.008,25.429.7.4,1.379.9,2.563,1.678l.135.117c-1.366.788-2.2,1.272-3.038,1.743-14.845,8.3-29.712,16.582-44.525,24.962A5.68,5.68,0,0,1,137.86,205.7Zm.394,56.171c.2-16.959.423-33.922.565-50.878a5.256,5.256,0,0,1,.653-2.912c.045-.065.092-.13.144-.2a3.729,3.729,0,0,1,.464-.509,5.518,5.518,0,0,1,.871-.648l.043-.029c15.074-8.766,30.085-17.654,45.116-26.486.115-.067.247-.128.367-.191.484-.245,1-.487,1.622-.783a22.367,22.367,0,0,1,.252,2.522c-.187,17.288-.421,34.575-.563,51.865a3.994,3.994,0,0,1-2.162,3.969c-15.169,8.832-30.279,17.753-45.416,26.636-.486.289-1.04.514-1.85.891C138.313,263.745,138.247,262.8,138.254,261.876Zm100.055,5.2c-1.019.592-1.811,1.052-2.6,1.49-14.739,8.255-29.5,16.469-44.192,24.812a5.3,5.3,0,0,1-2.923.788,6.178,6.178,0,0,1-2.43-.837c-14.761-8.432-29.59-16.732-44.4-25.081-.821-.462-1.577-1.05-2.61-1.75,1.118-.7,1.9-1.259,2.736-1.732q18.594-10.42,37.187-20.852c2.534-1.425,5.074-2.838,7.608-4.265.146-.083.284-.13.425-.2a6.546,6.546,0,0,1,.74-.33c.139-.049.277-.067.416-.1a3.929,3.929,0,0,1,.691-.1,5.283,5.283,0,0,1,2.48.77c14.858,8.482,29.788,16.844,44.684,25.247.806.458,1.555,1.03,2.693,1.786C238.629,266.843,238.475,266.953,238.309,267.074Zm1.235-2.006a8.71,8.71,0,0,1-1.787-.633q-22.827-13.463-45.629-26.939a3.254,3.254,0,0,1-1.942-3.072c-.108-17.946-.284-35.905-.425-53.862a11.276,11.276,0,0,1,.2-1.355c1,.5,1.809.871,2.538,1.3q22.118,13.055,44.219,26.109a6.74,6.74,0,0,1,1.674,1.288c.061.074.128.144.185.22a3.585,3.585,0,0,1,.664,2.219c.063,17.618.275,35.25.428,52.879C239.675,263.738,239.605,264.272,239.544,265.068Zm.72-59.6a6.248,6.248,0,0,1-2.732-.915c-14.653-8.392-29.394-16.64-44.1-24.942-.835-.471-1.631-1.03-2.765-1.757.833-.592,1.373-1.048,1.987-1.4q22.959-12.874,45.926-25.741a6.578,6.578,0,0,1,.779-.37,3.408,3.408,0,0,1,2.115-.105,3.969,3.969,0,0,1,.727.3q23.32,13.227,46.68,26.382a15.079,15.079,0,0,1,1.44,1.133c-1.357.779-2.293,1.324-3.245,1.858-14.633,8.208-29.3,16.364-43.879,24.673A5.8,5.8,0,0,1,240.264,205.465Zm.988,59.846c-.09-1.3-.194-2.208-.182-3.09.182-17.062.419-34.133.551-51.2a4.249,4.249,0,0,1,2.282-4.227c14.973-8.728,29.885-17.555,44.831-26.331.637-.384,1.35-.7,2.241-1.115.076,1.169.185,2.082.178,2.984-.187,16.963-.446,33.922-.536,50.882a4.992,4.992,0,0,1-2.855,4.9c-14.514,8.432-28.953,16.974-43.408,25.492-.839.491-1.694.976-2.747,1.577C241.5,265.221,241.376,265.266,241.252,265.311Zm97.888,2.809q-22.685,12.742-45.377,25.456a5.467,5.467,0,0,1-1.994.743,3.622,3.622,0,0,1-1.917-.521q-23.182-13.167-46.444-26.239a16.626,16.626,0,0,1-1.481-1.088,18.442,18.442,0,0,1,1.764-1.373c.142-.09.281-.177.425-.256,14.84-8.329,29.714-16.6,44.5-25.012a6.539,6.539,0,0,1,2.977-.965,6.292,6.292,0,0,1,2.986.951c14.57,8.351,29.225,16.539,43.852,24.787.92.527,1.809,1.115,3.06,1.892C340.5,267.189,339.858,267.718,339.14,268.12Zm-46.084-31.77q-.267-28.312-.52-56.683c4.669,1.829,41.327,23.16,49.3,28.658.178,18.659.346,37.514.529,57.163C325.526,255.535,309.395,246,293.056,236.35ZM343.3,205.734a4.065,4.065,0,0,1-2.086-.595q-22.871-13.008-45.839-25.875c-.551-.31-1.046-.718-1.874-1.292.995-.68,1.737-1.25,2.534-1.712Q318.581,163.635,341.111,151a5.548,5.548,0,0,1,2.115-.763,3.991,3.991,0,0,1,2.081.583c15.243,8.686,30.551,17.264,45.827,25.884.554.307,1.049.7,2.1,1.432-1.247.711-2,1.156-2.757,1.58q-22.54,12.615-45.062,25.261A5.428,5.428,0,0,1,343.3,205.734Zm.437,56.911c.182-17.3.407-34.606.569-51.9.013-1.775.351-3.038,2.075-4.041,15.272-8.9,30.488-17.892,45.726-26.84a13.236,13.236,0,0,1,1.6-.682c.061,1.227.135,2.069.126,2.9q-.284,25.8-.558,51.578c-.018,1.775-.371,3.011-2.088,4.016q-22.776,13.254-45.449,26.672c-.468.274-1.013.512-1.715.841A19.449,19.449,0,0,1,343.74,262.645Zm97.541,6.027c-14.761,8.255-29.529,16.474-44.25,24.8a5.824,5.824,0,0,1-2.531.846,5.243,5.243,0,0,1-2.547-.792c-14.86-8.5-29.808-16.853-44.723-25.258-.758-.424-1.472-.92-2.484-1.564a13.467,13.467,0,0,1,1.755-1.467q22.959-12.9,45.949-25.8a4.987,4.987,0,0,1,1.859-.68,3.4,3.4,0,0,1,1.769.48q23.479,13.321,47,26.575a12.453,12.453,0,0,1,1.3,1.079C443.11,267.626,442.2,268.158,441.281,268.672Zm3.823-3.514a9.444,9.444,0,0,1-1.841-.684Q420.423,251,397.6,237.51a3.236,3.236,0,0,1-1.924-3.07q-.155-26.949-.437-53.907a6.439,6.439,0,0,1,.115-.866c2.684.987,17.509,9.368,30.486,17.039v.159q6.069,3.588,12.144,7.167c2.387,1.481,4.4,2.767,5.853,3.743a3.449,3.449,0,0,1,.821,1.479c.169,18.309.338,36.545.506,55.119C445.147,264.613,445.126,264.869,445.1,265.158Zm.691-59.678a7.053,7.053,0,0,1-3.024-1.037c-14.365-8.259-28.836-16.337-43.267-24.484-1.033-.581-2.048-1.174-3.429-1.979a25.446,25.446,0,0,1,2.3-1.7c14.937-8.383,29.9-16.718,44.8-25.166a6.028,6.028,0,0,1,2.77-.884,5.579,5.579,0,0,1,2.608.8c14.766,8.446,29.617,16.754,44.43,25.1.842.473,1.631,1.023,3.009,1.9-2.815,1.613-5.067,2.933-7.345,4.214-11.426,6.4-22.871,12.76-34.261,19.22-1.762,1-3.528,1.979-5.288,2.978A6.468,6.468,0,0,1,445.795,205.48Zm.9,59.644c-.074-1.286-.148-2.215-.14-3.108.182-16.871.448-33.731.513-50.6a5.207,5.207,0,0,1,3.058-5.143c14.563-8.441,29.054-17.019,43.573-25.537l.36-.206c.7-.4,1.46-.752,2.5-1.265l.007.061c.038,1.445.095,2.39.083,3.31-.191,16.869-.43,33.722-.538,50.6a5,5,0,0,1-2.77,4.954l-.207.121c-14.552,8.455-29.025,17.037-43.523,25.586-.38.222-.77.444-1.186.682-.47.249-.979.48-1.665.814C446.735,265.3,446.713,265.217,446.69,265.125Zm97.928,2.919q-22.655,12.732-45.332,25.465a8.78,8.78,0,0,1-.853.4,5.279,5.279,0,0,1-.619.209l-.052.011a3.5,3.5,0,0,1-1.548.02,4.774,4.774,0,0,1-1.132-.473c-15.243-8.681-30.544-17.264-45.827-25.887-.558-.314-1.051-.718-2.115-1.445,1.307-.758,2.147-1.243,3-1.73q22.392-12.534,44.783-25.09a6.432,6.432,0,0,1,1.645-.66,4.327,4.327,0,0,1,1.649.085,4.779,4.779,0,0,1,.9.375c15.25,8.683,30.555,17.264,45.834,25.88.553.31,1.055.7,1.9,1.279C545.962,267.113,545.328,267.647,544.619,268.044Zm3.123-2.663q-.5-.266-.893-.467c-16.01-9.46-31.539-18.637-47.326-27.967a3.484,3.484,0,0,1-.986-1.492c-.171-18.511-.342-37.13-.517-56.243,1.251.642,2.149,1.064,2.972,1.559,14.543,8.585,29.057,17.23,43.651,25.725a4.928,4.928,0,0,1,2.777,4.921c.049,16.743.254,33.491.407,50.234C547.834,262.677,547.782,263.727,547.742,265.38Zm1.073-59.665a5.285,5.285,0,0,1-2.55-.785c-14.862-8.5-29.808-16.86-44.718-25.276-.752-.42-1.476-.911-2.487-1.555a13.65,13.65,0,0,1,1.755-1.463q22.969-12.911,45.949-25.8a6.305,6.305,0,0,1,1.2-.521,4.055,4.055,0,0,1,1.829.079,3.724,3.724,0,0,1,.6.242q23.475,13.328,47,26.573a12.944,12.944,0,0,1,1.3,1.093c-1.278.729-2.187,1.259-3.1,1.779-14.759,8.253-29.532,16.474-44.255,24.794a7.884,7.884,0,0,1-1.361.628c-.079.025-.155.025-.234.045A4.275,4.275,0,0,1,548.815,205.716Zm.594,59.424c-.083-1.187-.189-2.1-.182-3.011.2-17.064.425-34.126.556-51.2a4.251,4.251,0,0,1,2.288-4.227c14.977-8.728,29.887-17.555,44.831-26.335.632-.375,1.35-.682,2.234-1.1.079,1.173.191,2.091.18,2.991-.185,16.965-.437,33.917-.526,50.885a5,5,0,0,1-2.828,4.9c-1.177.684-2.349,1.375-3.524,2.062q-20.289,11.81-40.5,23.75c-.729.424-1.528.8-2.5,1.283Zm98.007,3.045q-10.221,5.735-20.45,11.47-1.775,1-3.546,1.99-10.652,5.971-21.3,11.946a4.8,4.8,0,0,1-4.539.04c-15.148-8.627-30.357-17.156-45.544-25.723-.554-.312-1.049-.72-2.09-1.432,1.233-.707,1.987-1.156,2.745-1.571q22.54-12.631,45.071-25.261a5.551,5.551,0,0,1,2.1-.763,4.128,4.128,0,0,1,1.08.159,4.828,4.828,0,0,1,1.01.424c15.252,8.683,30.553,17.264,45.836,25.887.542.3,1.046.714,1.877,1.279C648.767,267.27,648.132,267.788,647.417,268.185Zm3.08-3.056c-.335-.11-.659-.2-.961-.289a14.206,14.206,0,0,1-1.31-.655q-22.388-13.21-44.774-26.436c-1.4-.826-2.3-1.629-2.3-3.527-.074-17.623-.275-35.245-.428-52.868-.007-.588.1-1.194.2-2.2l.124.061c1.217.673,2.093,1.144,2.934,1.64,14.448,8.535,28.877,17.118,43.379,25.575a4.95,4.95,0,0,1,2.876,4.878c.038,16.864.25,33.72.387,50.575C650.634,262.858,650.56,263.855,650.5,265.129Zm1.447-59.694a4.626,4.626,0,0,1-1.913-.139,8.214,8.214,0,0,1-1.517-.7c-14.653-8.4-29.4-16.633-44.1-24.942-.839-.467-1.629-1.021-2.772-1.759.824-.586,1.368-1.05,1.973-1.387q22.962-12.877,45.922-25.754a4.249,4.249,0,0,1,2.016-.624,4.341,4.341,0,0,1,1.9.61q13.073,7.415,26.183,14.782v-.1q10.17,5.738,20.331,11.49a14.783,14.783,0,0,1,1.44,1.133c-1.357.779-2.293,1.324-3.243,1.858q-9.262,5.193-18.528,10.375v-.016q-12.748,7.145-25.454,14.356a8.115,8.115,0,0,1-1.267.57,4.975,4.975,0,0,1-.7.193C652.126,205.413,652.036,205.42,651.944,205.435Zm.095,57.039c.189-17.174.414-34.355.567-51.531.013-1.793.383-3.013,2.093-4.007q12.654-7.367,25.267-14.811v-.177q9.758-5.745,19.52-11.486c.716-.431,1.492-.752,2.561-1.265.074,1.25.2,2.19.187,3.135-.187,16.963-.443,33.922-.533,50.882a4.991,4.991,0,0,1-2.858,4.9q-9.623,5.59-19.208,11.241v-.013q-13.211,7.765-26.426,15.518a7.546,7.546,0,0,1-1.044.39C652.108,264.117,652.027,263.3,652.038,262.475Zm98.185,5.645q-22.685,12.742-45.38,25.456c-1.451.821-2.644,1.133-4.239.222q-10.3-5.849-20.639-11.659v-.1q-12.836-7.25-25.679-14.488c-.38-.206-.709-.5-1.4-.978a17.794,17.794,0,0,1,2.012-1.564q12.529-7.041,25.065-14.062v-.173q9.714-5.449,19.406-10.943a5.522,5.522,0,0,1,6.294-.013c14.568,8.351,29.225,16.539,43.852,24.787.92.527,1.807,1.115,3.06,1.892C751.582,267.189,750.939,267.718,750.223,268.12Zm-46.417-31.77q-.267-28.369-.52-56.8c2.862.7,41.43,23.118,49.637,28.772.178,18.722.346,37.64.529,57.358Zm48.161-31.211q-22.871-13.008-45.839-25.875c-.549-.31-1.046-.718-1.872-1.292.995-.68,1.735-1.25,2.534-1.712Q729.334,163.635,751.861,151c1.559-.875,2.815-1.158,4.53-.18,15.243,8.686,30.551,17.264,45.827,25.884.551.307,1.049.7,2.1,1.432-1.247.711-2,1.156-2.757,1.58q-22.54,12.615-45.062,25.261A4.027,4.027,0,0,1,751.967,205.139Zm2.522,57.506c.182-17.3.409-34.606.572-51.9.013-1.775.349-3.038,2.072-4.041,15.272-8.9,30.488-17.892,45.726-26.84a19.136,19.136,0,0,1,1.924-.812c.061,1.306.142,2.167.133,3.027-.189,17.2-.4,34.386-.56,51.578-.018,1.775-.371,3.011-2.086,4.016q-22.776,13.254-45.452,26.672c-.54.316-1.139.559-2.025.987A22.627,22.627,0,0,1,754.49,262.645Zm97.872,6.027c-14.761,8.255-29.529,16.474-44.248,24.8a4.751,4.751,0,0,1-5.412.054c-14.86-8.5-29.806-16.853-44.72-25.258-.758-.424-1.474-.92-2.486-1.564a13.785,13.785,0,0,1,1.755-1.467q22.959-12.9,45.949-25.8a3.573,3.573,0,0,1,3.96-.2q23.475,13.321,47,26.575a12.277,12.277,0,0,1,1.3,1.079C854.191,267.626,853.284,268.158,852.362,268.672Zm1.652-4.2Q831.173,251,808.355,237.51a3.238,3.238,0,0,1-1.926-3.07q-.155-26.949-.434-53.907a8.4,8.4,0,0,1,.126-.96c2.336.339,41.032,22.75,49.615,28.761.173,18.922.349,37.752.522,56.954A14.358,14.358,0,0,1,854.014,264.474Zm-.491-60.03c-14.365-8.259-28.836-16.337-43.269-24.484-1.033-.581-2.045-1.174-3.427-1.979a25.46,25.46,0,0,1,2.3-1.7c14.937-8.383,29.9-16.718,44.8-25.166a5.06,5.06,0,0,1,5.709-.081c14.768,8.446,29.617,16.754,44.432,25.1.842.473,1.631,1.023,3.006,1.9-2.813,1.613-5.065,2.933-7.345,4.214-13.218,7.4-26.476,14.73-39.626,22.249A5.754,5.754,0,0,1,853.523,204.444Zm3.778,57.573c.182-16.871.448-33.731.515-50.6a5.206,5.206,0,0,1,3.056-5.143c14.628-8.477,29.18-17.093,43.759-25.646.819-.485,1.692-.866,3.006-1.526.038,1.584.1,2.562.09,3.534-.191,16.869-.43,33.722-.54,50.6a5,5,0,0,1-2.777,4.959c-14.617,8.49-29.158,17.113-43.723,25.7-.911.532-1.829,1.048-3.213,1.842C857.393,264.1,857.292,263.049,857.3,262.017Zm98.4,6.027q-22.658,12.732-45.335,25.465a4.044,4.044,0,0,1-4.534.17c-15.243-8.681-30.544-17.264-45.827-25.887-.556-.314-1.051-.718-2.113-1.445,1.307-.758,2.147-1.243,3-1.73q22.395-12.534,44.783-25.09c1.55-.866,2.8-1.183,4.527-.2,15.249,8.683,30.555,17.264,45.834,25.88.551.31,1.053.7,1.9,1.279C957.043,267.113,956.411,267.647,955.7,268.044Zm3.117-2.41L909.3,236.368c-.173-18.866-.349-37.839-.526-57.327,1.44.749,2.406,1.189,3.3,1.73,14.545,8.585,29.057,17.23,43.651,25.725a4.924,4.924,0,0,1,2.777,4.921c.052,16.743.257,33.491.407,50.234C958.917,262.733,958.859,263.819,958.819,265.634Zm-1.8-60.7c-14.86-8.5-29.806-16.86-44.716-25.276-.754-.42-1.478-.911-2.489-1.555a13.967,13.967,0,0,1,1.755-1.463q22.969-12.911,45.951-25.8a3.594,3.594,0,0,1,3.96-.2q23.475,13.328,47,26.573a13.292,13.292,0,0,1,1.3,1.093c-1.276.729-2.187,1.259-3.1,1.779-14.757,8.253-29.531,16.474-44.252,24.794A4.759,4.759,0,0,1,957.016,204.93Zm2.964,57.2c.193-17.064.423-34.126.553-51.2a4.254,4.254,0,0,1,2.288-4.227c14.977-8.728,29.889-17.555,44.831-26.335.716-.422,1.5-.736,2.554-1.254.079,1.254.2,2.2.191,3.141-.184,16.965-.436,33.917-.526,50.885a5.005,5.005,0,0,1-2.849,4.912c-14.707,8.535-29.336,17.185-44.007,25.8-.817.476-1.688.864-2.842,1.452C960.088,264.023,959.971,263.085,959.98,262.129Zm98.518,6.056q-22.662,12.719-45.344,25.436a4.054,4.054,0,0,1-4.532.173c-15.243-8.683-30.546-17.266-45.83-25.884-.551-.312-1.049-.72-2.088-1.432,1.233-.707,1.985-1.156,2.745-1.571q22.537-12.631,45.069-25.261c1.55-.873,2.81-1.165,4.527-.179,15.252,8.683,30.553,17.264,45.834,25.887.544.3,1.046.714,1.876,1.279C1059.848,267.27,1059.213,267.788,1058.5,268.185Zm-43.436-87.333c14.451,8.535,28.879,17.118,43.379,25.575a4.949,4.949,0,0,1,2.878,4.878c.038,16.864.25,33.72.385,50.575.013,1.055-.074,2.118-.14,3.545-1.091-.518-1.872-.821-2.585-1.241q-22.392-13.21-44.775-26.436c-1.4-.826-2.3-1.629-2.3-3.527-.074-17.623-.275-35.245-.43-52.868-.007-.626.113-1.252.221-2.381C1013.163,179.789,1014.122,180.3,1015.062,180.852Zm46.406-35.144a3.285,3.285,0,0,1-1.7,3.24q-23.31,13.648-46.566,27.372a12.508,12.508,0,0,1-1.472.543c-.047-1.434-.128-2.491-.115-3.545.185-16.864.428-33.724.527-50.6a5.014,5.014,0,0,1,2.84-4.925c14.721-8.547,29.37-17.208,44.043-25.826.749-.44,1.5-.866,2.567-1.479a12.555,12.555,0,0,1,.45,2.334Q1061.78,119.26,1061.468,145.708ZM1014.216,2.974q22.709,13.382,45.373,26.8c1.211.711,2.019,1.4,2.027,3,.092,18.08.263,36.147.407,54.226a6.014,6.014,0,0,1-.286,1.095c-8.436-4.555-16.46-9.59-24.626-14.369-8.229-4.815-16.424-9.716-24.68-14.6-.173-19-.347-37.808-.518-57.008A15.281,15.281,0,0,1,1014.216,2.974Zm47.6-35.2a4,4,0,0,1-2.118,4.007q-22.884,13.328-45.7,26.8c-.461.271-.979.462-1.919.906-.054-1.326-.137-2.179-.124-3.027.191-17.176.412-34.355.56-51.538a4,4,0,0,1,2.136-3.978c15.16-8.832,30.267-17.769,45.389-26.665.567-.33,1.17-.572,2.05-1.012a21.62,21.62,0,0,1,.283,2.65C1062.19-66.788,1061.956-49.5,1061.812-32.224Zm.2-114.1c.178,18.965.351,37.893.536,57.138a9.88,9.88,0,0,1-1.974-.624q-22.976-13.544-45.947-27.116a3.254,3.254,0,0,1-1.908-3.092c-.106-17.966-.281-35.93-.43-53.9a16.642,16.642,0,0,1,.223-1.669C1029.211-165.716,1045.528-156.077,1062.01-146.328Zm.83-115.611c-.174,17.721-.4,35.445-.567,53.169a3.319,3.319,0,0,1-1.769,3.2q-23.438,13.7-46.836,27.464a8.026,8.026,0,0,1-1.109.337c-.061-1.108-.151-1.952-.14-2.791.189-17.288.41-34.572.558-51.867a3.762,3.762,0,0,1,2.063-3.689q22.871-13.365,45.675-26.838c.466-.276.974-.48,1.69-.83A8.336,8.336,0,0,1,1062.841-261.939ZM965-267.154c14.838-8.3,29.691-16.577,44.489-24.958a4.5,4.5,0,0,1,5.11.02c14.856,8.475,29.784,16.835,44.682,25.236.824.462,1.577,1.05,2.637,1.746-1.118.714-1.9,1.27-2.725,1.734-14.826,8.327-29.678,16.6-44.459,25a5.034,5.034,0,0,1-5.7-.036c-14.755-8.432-29.59-16.741-44.387-25.086-.824-.462-1.577-1.052-2.779-1.86C963.175-266.1,964.084-266.642,965-267.154Zm-3.8,3.417a8.926,8.926,0,0,1,1.865.565q22.979,13.547,45.917,27.105a3.241,3.241,0,0,1,1.908,3.085q.166,26.935.43,53.86a11.668,11.668,0,0,1-.232,1.479c-1.177-.6-2.048-.992-2.867-1.47q-22.115-13.066-44.227-26.1a4.184,4.184,0,0,1-2.475-4.086c-.07-17.3-.266-34.6-.423-51.89C961.1-261.948,961.168-262.706,961.208-263.736Zm1.456,60.113c15.247,8.688,30.546,17.266,45.832,25.875.549.316,1.053.711,1.89,1.288-.995.682-1.724,1.268-2.529,1.712q-22.52,12.642-45.06,25.276c-1.548.873-2.806,1.165-4.523.191-15.254-8.686-30.553-17.27-45.834-25.882-.554-.312-1.053-.714-2.111-1.445,1.222-.7,1.973-1.149,2.734-1.566q22.54-12.615,45.069-25.254C959.676-204.3,960.938-204.6,962.664-203.623Zm-2.628-57.4c-.2,17.172-.416,34.348-.572,51.533-.011,1.786-.369,3.018-2.079,4.023-15.265,8.868-30.474,17.847-45.708,26.8-.459.272-.974.467-1.717.821a14.276,14.276,0,0,1-.36-2.246c.18-17.506.407-35.012.574-52.514a3.56,3.56,0,0,1,1.825-3.5q23.3-13.607,46.541-27.318a11.444,11.444,0,0,1,1.341-.514C959.948-262.72,960.038-261.867,960.036-261.019Zm-97.928-5.948c14.748-8.275,29.525-16.5,44.21-24.87a5.255,5.255,0,0,1,6.006.047c14.669,8.39,29.421,16.64,44.14,24.944.846.478,1.654,1.023,2.756,1.714a13.8,13.8,0,0,1-1.829,1.492q-22.986,12.894-45.974,25.763a3.575,3.575,0,0,1-3.954.166q-23.343-13.244-46.732-26.4a19.432,19.432,0,0,1-1.555-1.174C860.449-266.02,861.275-266.5,862.107-266.967Zm45.933,32.044c.173,19.03.351,37.9.527,57.544-16.879-9.976-33.157-19.595-49.644-29.329-.178-18.906-.353-37.819-.533-57.567C875.372-254.234,891.67-244.6,908.041-234.924Zm-48.561,30.984q23.465,13.3,46.966,26.542a12.484,12.484,0,0,1,1.2,1.041c-1.24.711-2.169,1.25-3.1,1.773-14.635,8.219-29.3,16.384-43.888,24.677a5.266,5.266,0,0,1-6,.072c-14.734-8.461-29.572-16.743-44.378-25.1-.752-.42-1.458-.922-2.459-1.566a11.364,11.364,0,0,1,1.505-1.268q23.239-13.042,46.5-26.073A3.3,3.3,0,0,1,859.479-203.939Zm-2.122-57.223c-.189,17.3-.407,34.6-.563,51.91a4.022,4.022,0,0,1-2.133,3.994c-15.088,8.791-30.1,17.681-45.146,26.533-.635.372-1.321.646-2.437,1.169-.076-1.29-.169-2.049-.16-2.8.191-17.3.432-34.6.556-51.91a4.281,4.281,0,0,1,2.419-4.169c14.991-8.724,29.927-17.54,44.885-26.328.635-.373,1.323-.653,2.311-1.135A26.476,26.476,0,0,1,857.357-261.163Zm-98.869-5.493c15.124-8.49,30.272-16.934,45.373-25.478a4.512,4.512,0,0,1,5.126-.056c14.966,8.533,30,16.956,45,25.42.74.42,1.427.938,2.664,1.746-2.781,1.593-5.036,2.919-7.32,4.2-13.215,7.4-26.462,14.751-39.628,22.24-2.244,1.277-3.936,1.454-6.28.1-14.462-8.324-29.025-16.449-43.555-24.65-1.031-.583-2.045-1.183-3.371-1.954A17.624,17.624,0,0,1,758.488-266.655Zm-2.734,2.578c1.283.669,2.241,1.106,3.148,1.647,14.561,8.589,29.082,17.243,43.694,25.763a4.927,4.927,0,0,1,2.858,4.882c.045,16.869.252,33.742.4,50.611.009,1.057-.085,2.12-.142,3.581-1.283-.671-2.243-1.115-3.146-1.645-14.559-8.594-29.088-17.246-43.7-25.761a4.951,4.951,0,0,1-2.846-4.891c-.049-16.867-.252-33.733-.4-50.618C755.61-261.555,755.7-262.608,755.754-264.077Zm2.2,60.847c14.655,8.4,29.417,16.647,44.135,24.953.853.478,1.665,1.016,2.745,1.685a9,9,0,0,1-1.422,1.355q-23.262,13.059-46.536,26.1a3.353,3.353,0,0,1-3.668.052Q729.715-162.4,706.2-175.661a11.816,11.816,0,0,1-1.163-.94c1.093-.711,1.868-1.27,2.7-1.734,14.741-8.273,29.513-16.5,44.205-24.861A5.27,5.27,0,0,1,757.953-203.23Zm-3.414-57.789c-.178,17.19-.4,34.386-.558,51.576-.011,1.773-.342,3.011-2.072,4.021-15.18,8.834-30.3,17.773-45.44,26.674-.551.321-1.148.565-2.261,1.106-.038-1.629-.094-2.7-.086-3.765.191-16.759.437-33.509.522-50.268a5.254,5.254,0,0,1,2.946-5.226c14.824-8.565,29.552-17.3,44.317-25.976.648-.379,1.346-.655,2.394-1.151C754.4-262.843,754.548-261.93,754.539-261.019Zm-98.716-5.289q12.067-6.782,24.142-13.526v-.188q10.764-6.028,21.523-12.063c1.562-.877,2.815-1.153,4.534-.175,15.243,8.679,30.553,17.259,45.83,25.88.554.316,1.049.714,1.879,1.286-.911.633-1.557,1.153-2.264,1.557Q728.8-250.828,706.124-238.1a4.045,4.045,0,0,1-4.536.159q-10.794-6.146-21.622-12.238v-.056q-12.009-6.775-24.014-13.557c-.554-.3-1.042-.716-1.845-1.27A19.691,19.691,0,0,1,655.823-266.308Zm11.525,10.552c11.8,6.981,23.492,13.887,35.206,20.807.173,18.991.344,37.889.522,57.551-4.464-2.639-8.137-4.815-11.814-6.987l-11.3-6.684v-.076c-8.4-4.963-16.737-9.893-25.135-14.854a4.083,4.083,0,0,1-1.179-1.838q-.263-27.669-.518-55.471C654.761-262.724,660.364-259.706,667.349-255.755ZM652.4-204.121a6.934,6.934,0,0,1,3.029,1.021q12.057,6.95,24.205,13.752v-.11q10.008,5.637,20.016,11.27c.743.42,1.44.936,2.693,1.746-2.586,1.483-4.649,2.693-6.73,3.866q-13.126,7.357-26.257,14.717-7.324,4.1-14.642,8.215a4.84,4.84,0,0,1-3.918.523,5.147,5.147,0,0,1-.576-.245c-15.263-8.688-30.569-17.279-45.868-25.911-.56-.31-1.057-.709-2-1.367,1.166-.749,1.865-1.259,2.612-1.676,14.644-8.221,29.325-16.375,43.915-24.7A7.049,7.049,0,0,1,652.4-204.121Zm-.644-57.818c-.173,17.721-.394,35.445-.565,53.169a5.755,5.755,0,0,1-.056.579,4.763,4.763,0,0,1-2.3,2.969Q625.693-191.7,602.588-178.1a4,4,0,0,1-.785.245c-.061-1.059-.144-1.887-.133-2.7.187-17.288.407-34.572.556-51.867a3.764,3.764,0,0,1,2.066-3.689q22.871-13.365,45.674-26.838c.394-.233.844-.431,1.4-.693A6.75,6.75,0,0,1,651.757-261.939Zm-100.273-3.63c1.1-.633,1.94-1.124,2.768-1.584,14.838-8.3,29.693-16.577,44.489-24.958a5.118,5.118,0,0,1,2.446-.749,5.341,5.341,0,0,1,2.336.77c14.854,8.475,29.784,16.835,44.68,25.236.824.462,1.58,1.05,2.64,1.746-1.118.714-1.9,1.27-2.727,1.734-14.824,8.327-29.678,16.6-44.457,25a7.459,7.459,0,0,1-1.152.514,5.024,5.024,0,0,1-.74.206c-.043.009-.083.011-.126.02a4.464,4.464,0,0,1-1.9-.117,8.029,8.029,0,0,1-1.447-.66c-14.757-8.432-29.59-16.741-44.389-25.086-.815-.46-1.564-1.043-2.745-1.838C551.277-265.424,551.369-265.489,551.484-265.569Zm-1.031,1.914a6.028,6.028,0,0,1,1.539.485q22.976,13.547,45.917,27.105a3.39,3.39,0,0,1,1.766,2.026l.016.038a4.031,4.031,0,0,1,.124,1.021c.11,17.957.286,35.9.432,53.86a9.479,9.479,0,0,1-.2,1.328c-1.013-.509-1.827-.889-2.565-1.319q-22.112-13.066-44.225-26.1a4.184,4.184,0,0,1-2.475-4.086c-.07-17.3-.268-34.6-.425-51.89C550.352-261.926,550.413-262.673,550.454-263.655Zm-.959,59.456a3.317,3.317,0,0,1,.551.045,3.267,3.267,0,0,1,.382.054,4.732,4.732,0,0,1,1.154.478c15.247,8.688,30.546,17.266,45.832,25.875.538.31,1.04.7,1.847,1.259-.187.15-.344.28-.509.417a21.429,21.429,0,0,1-1.978,1.324q-22.523,12.642-45.06,25.276a6.112,6.112,0,0,1-1.737.68,3.435,3.435,0,0,1-.423.083,3.169,3.169,0,0,1-.432-.036,3,3,0,0,1-.441-.056,4.822,4.822,0,0,1-1.159-.48c-15.254-8.686-30.555-17.27-45.836-25.882-.551-.312-1.053-.714-2.111-1.445,1.222-.7,1.973-1.149,2.736-1.566q22.54-12.615,45.069-25.254A5.548,5.548,0,0,1,549.495-204.2Zm-.542-56.819c-.2,17.172-.416,34.348-.569,51.533a4.556,4.556,0,0,1-.815,2.9,3.47,3.47,0,0,1-.3.384,4.939,4.939,0,0,1-.508.39,6.19,6.19,0,0,1-.569.415C531-196.573,515.87-187.64,500.715-178.739c-.351.189-.743.381-1.188.595-.108.052-.225.1-.347.159a12.113,12.113,0,0,1-.331-2.107c.178-17.506.405-35.012.571-52.514a3.561,3.561,0,0,1,1.827-3.5q23.3-13.607,46.538-27.318a6.582,6.582,0,0,1,1.019-.4C548.872-262.67,548.955-261.838,548.953-261.019Zm-97.6-5.948c14.746-8.275,29.525-16.5,44.207-24.87a5.781,5.781,0,0,1,2.945-.873,6.273,6.273,0,0,1,2.73.92c14.671,8.39,29.421,16.64,44.142,24.944.844.478,1.652,1.023,2.757,1.714a13.812,13.812,0,0,1-1.832,1.492q-22.986,12.894-45.974,25.763c-.2.112-.387.186-.578.274a3.666,3.666,0,0,1-2.376.168,4.1,4.1,0,0,1-.668-.276q-23.34-13.244-46.73-26.4a19.319,19.319,0,0,1-1.557-1.174C449.7-266.02,450.522-266.5,451.357-266.967Zm-1.193,4.382c15.949,9.428,31.35,18.534,46.793,27.661.173,18.967.351,37.779.527,57.347-16.759-9.9-32.934-19.463-49.313-29.131-.176-18.819-.349-37.646-.529-57.3C448.5-263.536,449.321-263.059,450.165-262.585Zm-2.34,58.4a3.942,3.942,0,0,1,.574.242q23.465,13.3,46.964,26.542a8.444,8.444,0,0,1,1,.862,12.72,12.72,0,0,1-1.672,1.252q-4.175,2.353-8.355,4.7-12.759,7.149-25.5,14.331-5.893,3.308-11.784,6.621a6,6,0,0,1-2.264.684,5.8,5.8,0,0,1-2.885-.884c-14.732-8.461-29.572-16.743-44.376-25.1-.754-.42-1.458-.922-2.459-1.566a11.365,11.365,0,0,1,1.5-1.268q23.239-13.042,46.5-26.073a5.765,5.765,0,0,1,.812-.375A3.828,3.828,0,0,1,447.824-204.182Zm-1.548-56.981c-.189,17.3-.41,34.6-.565,51.91a5.926,5.926,0,0,1-.286,1.826,4.525,4.525,0,0,1-1.472,1.885c-.1.07-.171.146-.281.213-.079.054-.164.106-.245.159-15.036,8.76-30,17.62-44.995,26.443-.567.334-1.195.6-2.115,1.021-.074-1.194-.158-1.932-.151-2.657.191-17.3.432-34.6.558-51.91a4.275,4.275,0,0,1,2.419-4.169c14.989-8.724,29.928-17.54,44.882-26.328.558-.325,1.19-.6,2-.99A23.393,23.393,0,0,1,446.276-261.163Zm-98.54-5.493c15.124-8.49,30.274-16.934,45.375-25.478a5.526,5.526,0,0,1,2.394-.8,4.944,4.944,0,0,1,2.4.745c14.966,8.533,30,16.956,45,25.42.671.381,1.319.853,2.349,1.539a11.586,11.586,0,0,1-1.166,1.059l-2.991,1.723q-6.467,3.632-12.932,7.261c-9.863,5.511-19.727,11.017-29.545,16.6a6.879,6.879,0,0,1-3.006,1.025,6.023,6.023,0,0,1-2.945-.922c-14.462-8.324-29.025-16.449-43.555-24.65-1.028-.583-2.045-1.183-3.371-1.954A17.841,17.841,0,0,1,347.736-266.655ZM345-263.913c1.107.57,2,.994,2.824,1.483,14.561,8.589,29.082,17.243,43.692,25.763a4.932,4.932,0,0,1,2.86,4.882c.045,16.869.252,33.742.4,50.611.009,1.016-.077,2.044-.133,3.415-1.109-.57-2.007-1-2.824-1.479-14.557-8.594-29.086-17.246-43.7-25.761a4.949,4.949,0,0,1-2.844-4.891c-.049-16.867-.252-33.733-.4-50.618C344.86-261.513,344.939-262.534,345-263.913Zm-.972,59.788a5.969,5.969,0,0,1,2.846.9c14.656,8.4,29.417,16.647,44.135,24.953.853.478,1.663,1.016,2.743,1.685a8.814,8.814,0,0,1-1.422,1.355q-23.259,13.059-46.536,26.1a4.1,4.1,0,0,1-1.692.548,3.528,3.528,0,0,1-1.643-.5q-23.5-13.315-47.007-26.571a12.019,12.019,0,0,1-1.166-.94c1.1-.711,1.868-1.27,2.7-1.734,14.743-8.273,29.514-16.5,44.207-24.861A6.292,6.292,0,0,1,344.025-204.126Zm-.567-56.894c-.178,17.19-.4,34.386-.56,51.576-.011,1.773-.342,3.011-2.07,4.021-15.18,8.834-30.3,17.773-45.443,26.674-.488.285-1.037.523-1.935.951-.038-1.537-.09-2.58-.081-3.61.191-16.759.439-33.509.522-50.268a5.257,5.257,0,0,1,2.945-5.226c14.827-8.565,29.552-17.3,44.32-25.976.569-.334,1.22-.61,2.077-1.005C343.334-262.774,343.467-261.89,343.458-261.019Zm-98.779-5.246c.349-.2.673-.386.99-.561q3.277-1.834,6.555-3.673,8.327-4.668,16.658-9.334v0q10.933-6.122,21.856-12.249a5.538,5.538,0,0,1,2.113-.763,4.04,4.04,0,0,1,2.09.588c15.243,8.679,30.553,17.259,45.83,25.88.554.316,1.049.714,1.877,1.286-.911.633-1.555,1.153-2.264,1.557q-22.668,12.709-45.344,25.433a5.461,5.461,0,0,1-2.113.754,4.054,4.054,0,0,1-2.09-.595c-15.247-8.679-30.549-17.257-45.827-25.873-.522-.3-1.008-.68-1.908-1.306A19.015,19.015,0,0,1,244.679-266.265Zm-2.372,2.933a86.151,86.151,0,0,1,8.368,4.27c13.731,8.123,27.227,16.1,40.8,24.114.171,18.929.342,37.763.52,57.353-4.311-2.547-7.9-4.674-11.483-6.79-11.717-6.929-23.422-13.891-35.179-20.735a4.689,4.689,0,0,1-2.741-4.62c-.056-16.871-.254-33.738-.4-50.606C242.184-261.212,242.247-262.1,242.308-263.332Zm.439,59.393a6.977,6.977,0,0,1,1.107.491c14.867,8.491,29.8,16.853,44.716,25.261.743.42,1.44.936,2.693,1.746-2.588,1.483-4.649,2.693-6.73,3.866-13.5,7.566-27.029,15.094-40.49,22.732a5.885,5.885,0,0,1-3.065.922,5.713,5.713,0,0,1-2.3-.81c-14.761-8.443-29.615-16.745-44.428-25.095-.844-.48-1.643-1.032-2.772-1.737a22.2,22.2,0,0,1,2.212-1.638c14.9-8.367,29.831-16.687,44.707-25.117.083-.04.167-.083.248-.121.187-.1.362-.168.545-.254A5.336,5.336,0,0,1,242.746-203.939ZM240.6-263.671c.092,1.2.187,2.067.173,2.91-.182,16.961-.439,33.922-.529,50.876a4.993,4.993,0,0,1-2.844,4.914c-14.514,8.421-28.951,16.981-43.417,25.485-.826.485-1.667.96-2.734,1.573-.11.029-.259.072-.419.119-.059-1.407-.14-2.4-.137-3.379.189-16.851.443-33.7.527-50.553a5,5,0,0,1,2.862-4.9c14.509-8.434,28.949-16.994,43.408-25.5.545-.321,1.094-.639,1.7-.985.389-.2.812-.393,1.379-.671C240.582-263.743,240.593-263.709,240.6-263.671Zm-97.917-3.184q9.063-5.079,18.123-10.164,4.371-2.447,8.737-4.9,9.242-5.18,18.483-10.366a6.477,6.477,0,0,1,.7-.319,4,4,0,0,1,2.606-.108,6.054,6.054,0,0,1,.891.4q22.6,12.857,45.26,25.559c.734.411,1.4.942,2.513,1.7-1.292.736-2.2,1.272-3.11,1.788C222.155-255,207.4-246.78,192.707-238.44a5.61,5.61,0,0,1-2.77.835,5.865,5.865,0,0,1-2.59-.839c-14.757-8.441-29.595-16.739-44.392-25.092-.83-.458-1.589-1.039-2.644-1.741C141.292-265.935,141.958-266.453,142.687-266.855Zm-3.126,3.164c.261.07.518.132.752.188a15.286,15.286,0,0,1,1.5.758q22.388,13.2,44.79,26.418a3.955,3.955,0,0,1,2.243,3.888c.095,17.293.288,34.593.439,51.89,0,.794-.11,1.6-.2,2.677-.882-.415-1.6-.716-2.232-1.088q-22.4-13.234-44.792-26.43a3.972,3.972,0,0,1-2.25-3.882c-.088-17.3-.272-34.6-.425-51.892C139.386-261.908,139.48-262.691,139.562-263.691Zm-.981,59.483a4.5,4.5,0,0,1,2.248.673c15.049,8.573,30.164,17.046,45.256,25.566.65.359,1.262.8,2.192,1.4a18.427,18.427,0,0,1-1.838,1.423q-22.962,12.877-45.917,25.759a4.688,4.688,0,0,1-1.973.664,4.054,4.054,0,0,1-1.94-.581q-23.026-13.079-46.122-26.032c-.459-.265-.873-.615-1.874-1.322,1.274-.731,2.111-1.218,2.952-1.692q22.4-12.537,44.779-25.1a7.318,7.318,0,0,1,1.168-.538c.1-.036.2-.045.306-.072A4.054,4.054,0,0,1,138.58-204.209Zm-.61-56.864c-.185,17.178-.419,34.357-.542,51.529a4.3,4.3,0,0,1-2.381,4.191c-15.074,8.766-30.092,17.634-45.132,26.468-.486.283-1.033.527-1.706.855a11.5,11.5,0,0,1-.335-2.107q.28-26.259.569-52.527a3.552,3.552,0,0,1,1.829-3.485q23.293-13.614,46.534-27.323a10.487,10.487,0,0,1,1.022-.388C137.892-262.718,137.986-261.894,137.971-261.073Zm-97.8-5.818C55-275.224,69.871-283.5,84.673-291.9a7.989,7.989,0,0,1,1.179-.543,5.574,5.574,0,0,1,.79-.22l.052-.009a4.636,4.636,0,0,1,2.025.13,7.293,7.293,0,0,1,1.328.59c14.759,8.446,29.615,16.75,44.43,25.108.839.467,1.622,1.028,2.745,1.741-.918.671-1.539,1.232-2.243,1.636q-22.7,12.709-45.4,25.431a4.864,4.864,0,0,1-2.176.7,4.388,4.388,0,0,1-2.034-.626q-22.9-13.008-45.868-25.9c-.551-.305-1.04-.731-2.081-1.467C38.676-266.05,39.417-266.48,40.166-266.891Zm21.1,17.324c8.224,4.817,16.417,9.7,24.721,14.609.167,18.938.342,37.754.52,57.338C69.664-187.578,53.537-197.1,37.2-206.758c-.178-18.828-.353-37.673-.538-57.187C45.29-259.233,53.219-254.283,61.271-249.567ZM35.695-204.323a4.421,4.421,0,0,1,2.318.655c15.052,8.582,30.166,17.055,45.258,25.57.612.343,1.213.761,2.054,1.306l.128.114a15.634,15.634,0,0,1-1.845,1.393c-15.3,8.612-30.616,17.169-45.9,25.795a6.024,6.024,0,0,1-.938.429,4.566,4.566,0,0,1-2.345-.1,4.874,4.874,0,0,1-.632-.276q-9.339-5.3-18.7-10.559v.085Q1.777-167.43-11.555-174.932c-.752-.42-1.458-.922-2.459-1.566a11.368,11.368,0,0,1,1.505-1.268Q10.5-190.68,33.532-203.583A5.473,5.473,0,0,1,35.695-204.323Zm-.547-59.514c.063,1.331.16,2.347.149,3.343-.187,16.876-.423,33.729-.533,50.6a5.013,5.013,0,0,1-2.774,4.961q-8.634,5.018-17.227,10.106v.166Q1.22-186.7-12.318-178.726c-.635.372-1.321.646-2.437,1.169-.077-1.29-.167-2.049-.16-2.8.191-17.3.432-34.6.556-51.91a4.282,4.282,0,0,1,2.419-4.169Q1.6-244.316,15.092-252.27v.007q8.725-5.119,17.452-10.241C33.285-262.94,34.086-263.31,35.148-263.837Zm-98.493-2.818c15.121-8.49,30.272-16.934,45.373-25.478a4.512,4.512,0,0,1,5.126-.056q13.778,7.852,27.608,15.619v.058q8.4,4.732,16.8,9.471c.846.476,1.663,1.021,2.748,1.685a9.681,9.681,0,0,1-1.478,1.333q-9.032,5.075-18.065,10.144v.18Q1.3-246.177-12.126-238.583c-2.243,1.277-3.933,1.454-6.28.1-14.464-8.324-29.025-16.449-43.555-24.65-1.031-.583-2.045-1.183-3.371-1.954A17.628,17.628,0,0,1-63.345-266.655Zm-2.734,2.578c1.283.669,2.241,1.106,3.148,1.647,14.561,8.589,29.084,17.243,43.694,25.763a4.93,4.93,0,0,1,2.858,4.882c.045,16.869.254,33.742.4,50.611.009,1.057-.088,2.12-.139,3.581-1.285-.671-2.246-1.115-3.148-1.645-14.556-8.594-29.088-17.246-43.7-25.761a4.946,4.946,0,0,1-2.844-4.891c-.05-16.867-.252-33.733-.4-50.618C-66.223-261.555-66.138-262.608-66.079-264.077Zm2.2,60.847c14.658,8.4,29.417,16.647,44.138,24.953.851.478,1.663,1.016,2.743,1.685a9.006,9.006,0,0,1-1.422,1.355q-23.259,13.059-46.538,26.1a3.349,3.349,0,0,1-3.666.052q-23.492-13.315-47.007-26.571a11.81,11.81,0,0,1-1.163-.94c1.094-.711,1.868-1.27,2.7-1.734,14.741-8.273,29.514-16.5,44.205-24.861A5.27,5.27,0,0,1-63.881-203.23Zm-3.414-57.789c-.178,17.19-.4,34.386-.558,51.576-.011,1.773-.342,3.011-2.072,4.021-15.18,8.834-30.3,17.773-45.44,26.674-.551.321-1.148.565-2.261,1.106-.038-1.629-.095-2.7-.085-3.765.191-16.759.437-33.509.522-50.268a5.254,5.254,0,0,1,2.946-5.226c14.824-8.565,29.552-17.3,44.318-25.976.648-.379,1.346-.655,2.394-1.151C-67.432-262.843-67.283-261.93-67.294-261.019Zm-98.117-5.807q22.533-12.625,45.067-25.258a4.037,4.037,0,0,1,4.534-.175c15.243,8.679,30.553,17.259,45.83,25.88.556.316,1.049.714,1.879,1.286-.911.633-1.557,1.153-2.264,1.557q-22.668,12.709-45.344,25.433a4.041,4.041,0,0,1-4.534.159c-15.247-8.679-30.549-17.257-45.827-25.873-.558-.319-1.055-.72-2.088-1.431C-166.922-265.964-166.172-266.406-165.412-266.826Zm-3.319,2.643c16.753,9.913,33.04,19.541,49.452,29.234.173,18.991.344,37.889.522,57.551-4.464-2.639-8.137-4.815-11.814-6.987-11.719-6.929-23.422-13.891-35.182-20.735a4.691,4.691,0,0,1-2.738-4.62c-.056-16.871-.254-33.738-.4-50.606C-168.9-261.4-168.807-262.457-168.731-264.183Z" transform="translate(0 0)" fill="#2e7dba" fill-rule="evenodd"/>
    </g>
  </g>
</svg>
