<svg xmlns="http://www.w3.org/2000/svg" width="24.934" height="24.934" viewBox="0 0 24.934 24.934">
  <g id="Group_115" data-name="Group 115" transform="translate(-531.374 -236.545)">
    <rect id="Rectangle_56" data-name="Rectangle 56" width="24.934" height="24.934" rx="12.284" transform="translate(531.374 236.545)" fill="#e8e8e8" opacity="0.85"/>
    <g id="Group_68" data-name="Group 68" transform="translate(-1090.946)">
      <path id="Path_638" data-name="Path 638" d="M1636.4,248.409c-.044,0-.087,0-.133,0v-1.142c.213.025.334-.028.384-.164s0-.253-.172-.376l-1.437-1.033c-.223-.16-.282-.16-.5,0l-.791.569c-.241.173-.485.344-.724.521a.271.271,0,0,0-.092.341.275.275,0,0,0,.308.15l.063-.009v1.147c-.058,0-.1,0-.149,0a.261.261,0,0,0-.244.279c0,.167.117.268.314.268h3.13a.5.5,0,0,0,.055,0,.271.271,0,0,0,.255-.286A.266.266,0,0,0,1636.4,248.409Zm-.692-.007h-1.828a.845.845,0,0,1-.011-.094c0-.453,0-.9,0-1.358a.215.215,0,0,1,.069-.147c.256-.192.517-.379.78-.56a.154.154,0,0,1,.14,0c.263.181.522.369.78.559a.152.152,0,0,1,.065.094C1635.712,247.4,1635.711,247.894,1635.711,248.4Z" fill="#ffab00"/>
      <path id="Path_639" data-name="Path 639" d="M1634.84,243.97a3.57,3.57,0,0,0-.049,7.14,3.57,3.57,0,0,0,.049-7.14Zm-.069,6.59a3.019,3.019,0,0,1,0-6.037,3.019,3.019,0,1,1,0,6.037Z" fill="#2e7dba"/>
      <path id="Path_640" data-name="Path 640" d="M1639.578,246.778a4.848,4.848,0,0,0-5.553-4.02,4.736,4.736,0,0,0-3.59,2.668,4.443,4.443,0,0,0-.423,2.816,6.851,6.851,0,0,0,.836,2.165,20.381,20.381,0,0,0,2.244,3.116l.842.979,0,0c.2.226.4.456.6.684.173.2.33.195.5,0,.212-.24.429-.477.633-.724.01-.012.02-.024.03-.034l.785-.9c.294-.361.584-.714.864-1.076a14.014,14.014,0,0,0,1.791-2.867A4.9,4.9,0,0,0,1639.578,246.778Zm-.849,2.388a10.906,10.906,0,0,1-1.587,2.653c-.746.938-1.532,1.844-2.3,2.765a.717.717,0,0,0-.043.065c-.234-.266-.449-.509-.662-.753a27.565,27.565,0,0,1-2.4-3.07,7.41,7.41,0,0,1-1.117-2.386,4.022,4.022,0,0,1,1.5-4.246,4.283,4.283,0,0,1,6.9,2.541A4.182,4.182,0,0,1,1638.729,249.166Z" fill="#fe0000"/>
    </g>
  </g>
</svg>
