<svg xmlns="http://www.w3.org/2000/svg" width="48.115" height="40.298" viewBox="0 0 48.115 40.298">
  <g id="Group_208" data-name="Group 208" transform="translate(3540.034 -498.761)">
    <path id="Path_69" data-name="Path 69" d="M-3519.131,546.774q7.214,0,14.428,0a6.219,6.219,0,0,1,6.368,6.365q.007,8.065,0,16.131a6.206,6.206,0,0,1-6.363,6.367q-11.9.015-23.8-.007a2.475,2.475,0,0,0-1.608.547c-1.625,1.255-3.276,2.475-4.908,3.721a2.973,2.973,0,0,1-3.326.428,3.005,3.005,0,0,1-1.7-2.942q.014-12.123.006-24.247a6.22,6.22,0,0,1,6.37-6.362Q-3526.4,546.772-3519.131,546.774Zm-17.691,30.449c.214-.152.349-.242.479-.34,1.493-1.125,2.995-2.24,4.474-3.382a5.045,5.045,0,0,1,3.205-1.074q11.924.016,23.848,0a3.025,3.025,0,0,0,3.274-3.278q0-7.941,0-15.882a3.034,3.034,0,0,0-3.313-3.29h-28.608a3.043,3.043,0,0,0-3.358,3.345v23.9Z" transform="translate(0 -41.596)" fill="#ffab00"/>
    <path id="Path_70" data-name="Path 70" d="M-3462.079,498.763h15.735a6.225,6.225,0,0,1,6.415,6.421q0,7.943,0,15.885a1.61,1.61,0,0,1-2.185,1.635,1.616,1.616,0,0,1-1.02-1.577c0-1.6,0-3.207,0-4.811q0-5.537,0-11.075a3.027,3.027,0,0,0-3.282-3.272q-15.861,0-31.721.006a1.71,1.71,0,0,1-1.73-.945,1.6,1.6,0,0,1,1.3-2.26c.166-.016.334-.008.5-.008Z" transform="translate(-51.99 0)" fill="#fe0000"/>
    <path id="Path_71" data-name="Path 71" d="M-3345.517,645.508a1.6,1.6,0,0,1-1.59,1.593,1.609,1.609,0,0,1-1.614-1.573,1.6,1.6,0,0,1,1.618-1.618A1.6,1.6,0,0,1-3345.517,645.508Z" transform="translate(-165.745 -125.75)" fill="#2e7dba"/>
    <path id="Path_72" data-name="Path 72" d="M-3443.251,645.467a1.592,1.592,0,0,1,1.624-1.558,1.612,1.612,0,0,1,1.58,1.609,1.605,1.605,0,0,1-1.653,1.583A1.6,1.6,0,0,1-3443.251,645.467Z" transform="translate(-83.848 -125.75)" fill="#2e7dba"/>
    <path id="Path_73" data-name="Path 73" d="M-3393.713,647.1a1.6,1.6,0,0,1-1.54-1.642,1.593,1.593,0,0,1,1.633-1.549,1.613,1.613,0,0,1,1.569,1.669A1.606,1.606,0,0,1-3393.713,647.1Z" transform="translate(-125.432 -125.749)" fill="#2e7dba"/>
  </g>
</svg>
