<svg xmlns="http://www.w3.org/2000/svg" width="24.934" height="24.934" viewBox="0 0 24.934 24.934">
  <g id="Group_116" data-name="Group 116" transform="translate(-531.374 -333.945)">
    <rect id="Rectangle_58" data-name="Rectangle 58" width="24.934" height="24.934" rx="12.284" transform="translate(531.374 333.945)" fill="#e8e8e8" opacity="0.85"/>
    <g id="Group_69" data-name="Group 69" transform="translate(-1090.946)">
      <path id="Path_641" data-name="Path 641" d="M1638.636,345.837l.094-.71h-1.755v-.152q0-1.317,0-2.635a.737.737,0,0,0-.008-.119c-.031-.218-.158-.308-.419-.309h-3.513c-.259,0-.388.082-.425.284a.832.832,0,0,0-.013.149v2.789h-1.744a3.5,3.5,0,0,0,.094.7h1.643v1.605c-.133,0-.886,0-1.02,0a3.521,3.521,0,0,0,.9.7h4.581a3.545,3.545,0,0,0,.9-.7l-.968,0v-1.6Zm-3.741,1.6h-.215v-.677h.215Zm1.38,0h-.682v-.224c0-.264,0-.528,0-.792a.341.341,0,0,0-.352-.358c-.3-.005-.6-.005-.907,0a.342.342,0,0,0-.352.371c0,.331,0,.661,0,1h-.684v-4.821h2.979Z" fill="#ffab00"/>
      <path id="Path_642" data-name="Path 642" d="M1639.656,341.751a5.72,5.72,0,0,0-5.747-2.53,5.5,5.5,0,0,0-3.607,2.019,5.651,5.651,0,0,0-1.251,4.978,8.55,8.55,0,0,0,1.414,3.077,19.65,19.65,0,0,0,4.025,4.229c.241.192.353.19.6,0a21.223,21.223,0,0,0,2.478-2.3,13.991,13.991,0,0,0,2.371-3.348,6.514,6.514,0,0,0,.725-2.729A5.719,5.719,0,0,0,1639.656,341.751Zm-.308,5.745a12.825,12.825,0,0,1-2.108,3.057,21.293,21.293,0,0,1-2.351,2.243c-.068.056-.113.078-.193.011a19.313,19.313,0,0,1-3.554-3.749,8.382,8.382,0,0,1-1.375-2.828c-.1-.4-.138-.811-.2-1.216l.039-.006a5.184,5.184,0,0,1,10.289-.89A5.5,5.5,0,0,1,1639.348,347.5Z" fill="#fe0000"/>
      <path id="Path_643" data-name="Path 643" d="M1634.79,340.53a4.493,4.493,0,1,0,4.489,4.5A4.5,4.5,0,0,0,1634.79,340.53Zm3.724,5.332a4.747,4.747,0,1,1,.005-.025h0Z" fill="#2e7dba"/>
      <path id="Path_644" data-name="Path 644" d="M1634.208,343.409c0,.086.007.173,0,.259a.343.343,0,0,1-.685-.007c-.008-.167-.008-.335,0-.5a.343.343,0,0,1,.686.006c.006.081,0,.163,0,.244Z" fill="#ffab00"/>
      <path id="Path_645" data-name="Path 645" d="M1635.127,343.676a.338.338,0,0,1-.339.309.345.345,0,0,1-.344-.319c-.007-.085,0-.172,0-.258s-.006-.173,0-.258a.345.345,0,0,1,.348-.315.338.338,0,0,1,.335.311A4.265,4.265,0,0,1,1635.127,343.676Z" fill="#ffab00"/>
      <path id="Path_646" data-name="Path 646" d="M1636.05,343.66a.341.341,0,0,1-.338.325.347.347,0,0,1-.348-.331c-.005-.081,0-.163,0-.244s-.005-.163,0-.244a.346.346,0,0,1,.347-.331.339.339,0,0,1,.339.323A4.717,4.717,0,0,1,1636.05,343.66Z" fill="#ffab00"/>
      <path id="Path_647" data-name="Path 647" d="M1634.2,345.52a.337.337,0,0,1-.338.308.346.346,0,0,1-.345-.319c-.007-.085,0-.172,0-.258s-.006-.173,0-.258a.345.345,0,0,1,.348-.315.337.337,0,0,1,.335.311A4.078,4.078,0,0,1,1634.2,345.52Z" fill="#ffab00"/>
      <path id="Path_648" data-name="Path 648" d="M1635.13,345.259c0,.081.005.163,0,.244a.343.343,0,0,1-.686-.005c-.007-.162-.007-.325,0-.488a.344.344,0,0,1,.687.005c.005.081,0,.162,0,.244Z" fill="#ffab00"/>
      <path id="Path_649" data-name="Path 649" d="M1636.051,345.5a.343.343,0,0,1-.686,0,4.99,4.99,0,0,1,0-.5.34.34,0,0,1,.341-.322.344.344,0,0,1,.344.319c.007.086,0,.172,0,.258S1636.057,345.418,1636.051,345.5Z" fill="#ffab00"/>
      <path id="Path_650" data-name="Path 650" d="M1632.365,346.634c0,.086.006.172,0,.258a.342.342,0,0,1-.344.318h-.028a.341.341,0,0,1-.313-.321c0-.053,0-.106-.005-.159v0c0-.113,0-.227.005-.341a.341.341,0,0,1,.337-.325.344.344,0,0,1,.349.329c.006.081,0,.162,0,.244Z" fill="#ffab00"/>
      <path id="Path_651" data-name="Path 651" d="M1637.9,346.881a.344.344,0,0,1-.343.329h-.006a.342.342,0,0,1-.337-.326,4.954,4.954,0,0,1,0-.5.343.343,0,0,1,.685,0c.007.086,0,.172,0,.259v.043h0C1637.9,346.748,1637.9,346.815,1637.9,346.881Z" fill="#ffab00"/>
    </g>
  </g>
</svg>
