<svg xmlns="http://www.w3.org/2000/svg" width="17.483" height="21.378" viewBox="0 0 17.483 21.378">
  <g id="Group_300" data-name="Group 300" transform="translate(-5673.757 3754.343)">
    <path id="Path_168" data-name="Path 168" d="M5689.677-3651.775q0-2.686,0-5.372a.974.974,0,0,1,.814-1.046.966.966,0,0,1,1.128.883c.006.083,0,.167,0,.25v10.492a1.858,1.858,0,0,0,1.958,1.955h7.738a1.86,1.86,0,0,0,1.959-1.955v-10.583a.974.974,0,0,1,.771-1.035.957.957,0,0,1,1.153.791,1.9,1.9,0,0,1,.021.317q0,5.269,0,10.538a3.8,3.8,0,0,1-3.18,3.816,3.8,3.8,0,0,1-.679.056q-3.916.005-7.83,0a3.809,3.809,0,0,1-3.858-3.851Q5689.673-3649.147,5689.677-3651.775Z" transform="translate(-14.953 -90.299)" fill="#fe0000"/>
    <path id="Path_169" data-name="Path 169" d="M5686.38-3751.427h.692c1.047,0,2.093-.005,3.14,0a.973.973,0,0,1,.985,1.252.971.971,0,0,1-.848.689c-.053,0-.106,0-.159,0h-15.382a.976.976,0,0,1-1.051-.98.978.978,0,0,1,1.048-.964c1.168,0,2.336,0,3.5,0h.308v-.256c0-.546,0-1.092,0-1.638a.961.961,0,0,1,1.013-1.017q2.867-.008,5.733,0a.96.96,0,0,1,1.015,1.015C5686.384-3752.7,5686.38-3752.082,5686.38-3751.427Zm-1.951-.014v-.943h-3.862v.943Z" transform="translate(0)" fill="#fe0000"/>
    <path id="Path_170" data-name="Path 170" d="M5769.739-3621.912c0-1.13,0-2.26,0-3.39a.964.964,0,0,1,.779-.96.954.954,0,0,1,1.066.548,1.293,1.293,0,0,1,.095.485q.01,3.322,0,6.642a.977.977,0,0,1-.987,1.047.976.976,0,0,1-.958-1.051Q5769.738-3620.251,5769.739-3621.912Z" transform="translate(-90.154 -120.286)" fill="#2e7dba"/>
    <path id="Path_171" data-name="Path 171" d="M5835.616-3621.852c0,1.129,0,2.26,0,3.389a.95.95,0,0,1-.729.93.928.928,0,0,1-1.057-.428,1.228,1.228,0,0,1-.151-.56q-.015-3.344-.006-6.688a.974.974,0,0,1,.98-1.031.976.976,0,0,1,.965,1.044Q5835.618-3623.525,5835.616-3621.852Z" transform="translate(-150.203 -120.326)" fill="#ffab00"/>
  </g>
</svg>
