<svg xmlns="http://www.w3.org/2000/svg" width="39.758" height="39.758" viewBox="0 0 39.758 39.758">
  <g id="Group_249" data-name="Group 249" transform="translate(-184.8 -3247.948)">
    <path id="Path_154" data-name="Path 154" d="M205.841,3287.705h-2.329a2.054,2.054,0,0,0-.3-.064,18.34,18.34,0,0,1-6.967-1.821,19.624,19.624,0,0,1-11.132-14.533c-.148-.756-.211-1.529-.313-2.294v-2.329a2.654,2.654,0,0,0,.066-.335,18.4,18.4,0,0,1,2.273-7.83,19.517,19.517,0,0,1,16.706-10.515,18.207,18.207,0,0,1,10.12,2.29,19.482,19.482,0,0,1,10.557,16.716,18.424,18.424,0,0,1-2.3,10.157,19.582,19.582,0,0,1-14.081,10.243C207.382,3287.537,206.608,3287.6,205.841,3287.705Zm-1.162-3.32a16.556,16.556,0,1,0-16.559-16.563A16.558,16.558,0,0,0,204.679,3284.385Z" transform="translate(0 0)" fill="#2e7dba"/>
    <path id="Path_155" data-name="Path 155" d="M297.069,3409.213c.164-.156.268-.25.366-.348q3.321-3.32,6.639-6.642a1.683,1.683,0,0,1,1.931-.5,1.637,1.637,0,0,1,.684,2.544,3.459,3.459,0,0,1-.285.317q-3.977,3.981-7.953,7.962a1.7,1.7,0,0,1-1.89.531,2.1,2.1,0,0,1-.731-.489q-4.045-4.023-8.07-8.065a1.66,1.66,0,0,1,1.185-2.92,1.914,1.914,0,0,1,1.236.654q3.274,3.284,6.556,6.562C296.846,3408.927,296.936,3409.055,297.069,3409.213Z" transform="translate(-92.435 -138.735)" fill="#2e7dba"/>
  </g>
</svg>
