<svg xmlns="http://www.w3.org/2000/svg" width="26.494" height="26.493" viewBox="0 0 26.494 26.493">
  <g id="Group_240" data-name="Group 240" transform="translate(-4292.997 5927.252)">
    <path id="Path_144" data-name="Path 144" d="M4299.18-5914.889h-4.69a1.341,1.341,0,0,1-1.492-1.478q0-4.705,0-9.408a1.34,1.34,0,0,1,1.491-1.478h9.38a1.342,1.342,0,0,1,1.492,1.5v9.353a1.349,1.349,0,0,1-1.519,1.507Zm-5.3-6.185q0,2.345,0,4.69c0,.472.137.61.6.61h9.383c.47,0,.61-.138.61-.6v-9.383c0-.471-.137-.609-.6-.609h-9.382c-.472,0-.609.137-.609.6Q4293.88-5923.419,4293.881-5921.073Z" transform="translate(0 0)" fill="#fe0000"/>
    <path id="Path_145" data-name="Path 145" d="M4497.362-5921.071v4.689a1.342,1.342,0,0,1-1.478,1.493h-9.407a1.343,1.343,0,0,1-1.479-1.491v-9.38a1.342,1.342,0,0,1,1.478-1.492h9.407a1.34,1.34,0,0,1,1.479,1.49Zm-6.18-5.3h-4.692c-.471,0-.608.137-.608.605q0,4.69,0,9.382c0,.471.137.609.6.609h9.382c.47,0,.609-.138.609-.606v-9.381c0-.471-.138-.609-.606-.609Z" transform="translate(-177.871 0)" fill="#2e7dba"/>
    <path id="Path_146" data-name="Path 146" d="M4305.362-5729.072q0,2.358,0,4.718a1.338,1.338,0,0,1-1.476,1.466h-9.407a1.341,1.341,0,0,1-1.48-1.49v-9.379a1.344,1.344,0,0,1,1.5-1.493h9.379a1.338,1.338,0,0,1,1.48,1.488Q4305.362-5731.417,4305.362-5729.072Zm-11.48-.025v4.719c0,.47.138.607.607.607h9.382c.469,0,.607-.139.607-.608q0-4.69,0-9.382c0-.469-.138-.606-.607-.606h-9.382c-.47,0-.607.137-.607.606Z" transform="translate(0 -177.871)" fill="#ffab00"/>
    <path id="Path_147" data-name="Path 147" d="M4491.278-5735.25a.554.554,0,0,1,.389.6c-.006,1.646,0,3.292,0,4.937v.16h.147c1.65,0,3.3,0,4.949,0a.553.553,0,0,1,.6.39v.193a.554.554,0,0,1-.6.39c-1.646-.007-3.292,0-4.938,0h-.158v.148q0,2.5,0,5a.529.529,0,0,1-.152.417.461.461,0,0,1-.5.1.466.466,0,0,1-.309-.41c0-.048,0-.1,0-.146v-5.108h-.147q-2.5,0-5,0a.523.523,0,0,1-.426-.159.461.461,0,0,1-.094-.5.467.467,0,0,1,.41-.309,1.194,1.194,0,0,1,.145,0h5.109v-.146c0-1.65,0-3.3,0-4.95a.555.555,0,0,1,.39-.6Z" transform="translate(-177.872 -177.873)" fill="#ffab00"/>
  </g>
</svg>
