<svg xmlns="http://www.w3.org/2000/svg" xmlns:xlink="http://www.w3.org/1999/xlink" width="136.682" height="149.761" viewBox="0 0 136.682 149.761">
  <defs>
    <filter id="Path_729" x="46.979" y="25.599" width="23.277" height="27.086" filterUnits="userSpaceOnUse">
      <feOffset dx="5" dy="5" input="SourceAlpha"/>
      <feGaussianBlur stdDeviation="3" result="blur"/>
      <feFlood flood-opacity="0.2"/>
      <feComposite operator="in" in2="blur"/>
      <feComposite in="SourceGraphic"/>
    </filter>
    <filter id="Path_731" x="52.109" y="23.065" width="40.672" height="40.671" filterUnits="userSpaceOnUse">
      <feOffset dx="5" dy="5" input="SourceAlpha"/>
      <feGaussianBlur stdDeviation="3" result="blur-2"/>
      <feFlood flood-opacity="0.2"/>
      <feComposite operator="in" in2="blur-2"/>
      <feComposite in="SourceGraphic"/>
    </filter>
    <filter id="Path_728" x="35.466" y="0" width="101.216" height="129.523" filterUnits="userSpaceOnUse">
      <feOffset dx="5" dy="5" input="SourceAlpha"/>
      <feGaussianBlur stdDeviation="3" result="blur-3"/>
      <feFlood flood-opacity="0.2"/>
      <feComposite operator="in" in2="blur-3"/>
      <feComposite in="SourceGraphic"/>
    </filter>
    <filter id="Path_730" x="0.898" y="29.36" width="51.009" height="94.753" filterUnits="userSpaceOnUse">
      <feOffset dx="5" dy="5" input="SourceAlpha"/>
      <feGaussianBlur stdDeviation="3" result="blur-4"/>
      <feFlood flood-opacity="0.2"/>
      <feComposite operator="in" in2="blur-4"/>
      <feComposite in="SourceGraphic"/>
    </filter>
    <filter id="Path_732" x="78.639" y="16.094" width="30.873" height="30.274" filterUnits="userSpaceOnUse">
      <feOffset dx="5" dy="5" input="SourceAlpha"/>
      <feGaussianBlur stdDeviation="3" result="blur-5"/>
      <feFlood flood-opacity="0.2"/>
      <feComposite operator="in" in2="blur-5"/>
      <feComposite in="SourceGraphic"/>
    </filter>
    <filter id="Path_733" x="0" y="74.014" width="124.2" height="75.746" filterUnits="userSpaceOnUse">
      <feOffset dx="5" dy="5" input="SourceAlpha"/>
      <feGaussianBlur stdDeviation="3" result="blur-6"/>
      <feFlood flood-opacity="0.2"/>
      <feComposite operator="in" in2="blur-6"/>
      <feComposite in="SourceGraphic"/>
    </filter>
  </defs>
  <g id="Group_108" data-name="Group 108" transform="translate(-196.421 -204.821)">
    <g id="Group_107" data-name="Group 107">
      <g transform="matrix(1, 0, 0, 1, 196.42, 204.82)" filter="url(#Path_729)">
        <path id="Path_729-2" data-name="Path 729" d="M607.071,176.6l2.227,8.68c0-.1-.007-.189-.007-.285a14.172,14.172,0,0,1,3.057-8.8c-1.651.048-3.418.173-5.277.407" transform="translate(-556.09 -146.59)" fill="#2e7dba"/>
      </g>
      <g transform="matrix(1, 0, 0, 1, 196.42, 204.82)" filter="url(#Path_731)">
        <path id="Path_731-2" data-name="Path 731" d="M654.882,175.106a11.336,11.336,0,1,1-11.336-11.336,11.336,11.336,0,0,1,11.336,11.336" transform="translate(-576.1 -136.71)" fill="#ffab00"/>
      </g>
      <g id="Group_106" data-name="Group 106">
        <g transform="matrix(1, 0, 0, 1, 196.42, 204.82)" filter="url(#Path_728)">
          <path id="Path_728-2" data-name="Path 728" d="M552.491,50.75l15.2,59.234,66.18-27.651-83.216,79.94Z" transform="translate(-511.19 -46.75)" fill="#ffab00"/>
        </g>
        <g transform="matrix(1, 0, 0, 1, 196.42, 204.82)" filter="url(#Path_730)">
          <path id="Path_730-2" data-name="Path 730" d="M414.09,206l.187-11.389c-1,.4-2.006.829-3.019,1.308A52.542,52.542,0,0,0,389.683,214.6c-2.663,4.192-12.8,20.156-6.241,37.447,4.327,11.4,13.6,17.276,17.238,19.318-10.757-13.58-12.814-31.978-5.251-46.859A42.413,42.413,0,0,1,414.09,206" transform="translate(-376.37 -161.26)" fill="#2e7dba"/>
        </g>
        <g transform="matrix(1, 0, 0, 1, 196.42, 204.82)" filter="url(#Path_732)">
          <path id="Path_732-2" data-name="Path 732" d="M771.1,137.175l1.493,4.711-3.947-2.852-3.949,2.852,1.493-4.711-3.98-2.953h5.076l1.36-4.61,1.36,4.61h5.076Z" transform="translate(-679.57 -109.52)" fill="#ffab00"/>
        </g>
      </g>
    </g>
    <g transform="matrix(1, 0, 0, 1, 196.42, 204.82)" filter="url(#Path_733)">
      <path id="Path_733-2" data-name="Path 733" d="M470.783,413.431,438.289,431.56l9.51,3.963c-3.566,5.746-12.482,18.724-33.485,18.03-33.883-1.119-37.447-32.494-37.447-32.494.2,6.637,9.312,47.255,46.561,49.93s51.218-23.974,51.218-23.974l8.421,3.764Zm-30.2,55.493-5.784-4.178-5.786,4.178,2.188-6.9-5.832-4.327h7.437l1.993-6.754,1.994,6.754h7.437L438.4,462.02Zm17.3-12.325-5.192-3.751L447.5,456.6l1.964-6.2-5.235-3.884h6.676l1.789-6.064,1.79,6.064h6.676l-5.238,3.884Zm11.342-19.429-4.725-3.414-4.727,3.414,1.787-5.64L456.8,428h6.076l1.629-5.518L466.135,428h6.076l-4.767,3.535Z" transform="translate(-372.87 -335.42)" fill="#fe0000"/>
    </g>
  </g>
</svg>
