<svg xmlns="http://www.w3.org/2000/svg" width="20.175" height="21.378" viewBox="0 0 20.175 21.378">
  <g id="Group_302" data-name="Group 302" transform="translate(-4618.006 4078.5)">
    <path id="Path_189" data-name="Path 189" d="M4625.132-4078.5c.333.1.663.2,1,.284a.359.359,0,0,1,.313.356,1.807,1.807,0,0,0,.1.755c.118.2.409.29.61.446.225.175.428.376.651.553a.389.389,0,0,0,.249.081c.228-.019.455-.061.681-.1a.331.331,0,0,1,.38.185c.169.3.345.6.521.9a.345.345,0,0,1-.042.439c-.169.2-.41.392-.47.625s.089.494.124.747a5.072,5.072,0,0,1,.054.769.364.364,0,0,0,.189.354c.17.108.326.238.491.354a.33.33,0,0,1,.14.4c-.094.334-.185.669-.27,1.006a.339.339,0,0,1-.336.282,1.906,1.906,0,0,0-.756.1c-.194.109-.284.392-.437.584-.185.234-.392.451-.578.685a.358.358,0,0,0-.076.231c.021.235.063.468.1.7a.321.321,0,0,1-.176.364c-.308.175-.615.353-.921.532a.332.332,0,0,1-.421-.041c-.17-.143-.34-.289-.522-.416a.4.4,0,0,0-.258-.062c-.488.056-.976.122-1.462.193a.345.345,0,0,0-.2.105c-.148.183-.281.38-.42.571a.319.319,0,0,1-.382.132c-.333-.1-.67-.182-1.007-.267a.347.347,0,0,1-.293-.351,6.01,6.01,0,0,0-.078-.663.371.371,0,0,0-.129-.206c-.38-.3-.765-.6-1.155-.885a.445.445,0,0,0-.271-.08c-.221.018-.44.063-.659.1a.332.332,0,0,1-.379-.186c-.168-.3-.344-.6-.521-.9a.339.339,0,0,1,.042-.438c.14-.164.265-.34.41-.5a.317.317,0,0,0,.063-.3c-.074-.465-.125-.934-.2-1.4a.438.438,0,0,0-.128-.251c-.174-.149-.367-.274-.552-.41a.307.307,0,0,1-.127-.364c.1-.348.186-.7.278-1.047a.317.317,0,0,1,.308-.261c.235-.019.471-.042.7-.081a.342.342,0,0,0,.191-.12q.464-.588.911-1.188a.375.375,0,0,0,.065-.238,6.17,6.17,0,0,0-.1-.617.369.369,0,0,1,.206-.449c.288-.154.57-.318.849-.489a.362.362,0,0,1,.475.029c.2.167.379.4.607.461s.495-.083.747-.115c.282-.035.568-.038.851-.071a.4.4,0,0,0,.234-.12c.2-.23.383-.473.573-.71Zm-3.5,1.082c-.191.11-.382.21-.561.329a.231.231,0,0,0-.077.181,5.14,5.14,0,0,0,.088.6.494.494,0,0,1-.161.462,7.067,7.067,0,0,0-.874,1.107.768.768,0,0,1-.752.458.79.79,0,0,0-.083.005c-.392.036-.392.036-.5.421a.92.92,0,0,0-.058.242.285.285,0,0,0,.073.2,5.784,5.784,0,0,0,.5.372.379.379,0,0,1,.183.369,4.537,4.537,0,0,0,.225,1.685.39.39,0,0,1-.08.407c-.137.158-.266.321-.394.486-.031.04-.074.11-.059.139a2.441,2.441,0,0,0,.353.585c.063.065.27,0,.411-.02a2.394,2.394,0,0,0,.289-.044.528.528,0,0,1,.5.168,10.068,10.068,0,0,0,1.181.916.665.665,0,0,1,.365.57c.04.621.049.617.651.771a.183.183,0,0,0,.242-.082c.1-.164.235-.312.339-.476a.469.469,0,0,1,.418-.209,10.306,10.306,0,0,0,1.484-.18.681.681,0,0,1,.716.151c.138.134.3.326.46.333s.348-.176.526-.267a.175.175,0,0,0,.111-.229c-.046-.2-.066-.4-.1-.6a.393.393,0,0,1,.125-.4,4.856,4.856,0,0,0,1.056-1.361.505.505,0,0,1,.3-.205c.208-.05.429-.045.64-.085a.265.265,0,0,0,.176-.146c.193-.59.189-.591-.312-.956a.691.691,0,0,0-.067-.049.525.525,0,0,1-.261-.5,8.577,8.577,0,0,0-.177-1.441.692.692,0,0,1,.145-.7c.413-.478.406-.489.055-1.018a.248.248,0,0,0-.195-.083c-.2.017-.4.054-.6.09a.5.5,0,0,1-.445-.155,8.115,8.115,0,0,0-1.14-.9.772.772,0,0,1-.435-.682c-.038-.532-.055-.525-.573-.679-.155-.045-.256-.037-.344.115s-.2.267-.289.408a.446.446,0,0,1-.452.229,4.276,4.276,0,0,0-1.623.217.4.4,0,0,1-.423-.081C4622.037-4077.1,4621.837-4077.256,4621.636-4077.418Z" fill="#fe0000"/>
    <path id="Path_190" data-name="Path 190" d="M4803.663-3938.07c-.075.225-.133.425-.207.619a.313.313,0,0,0,.033.306c.186.316.343.649.524.969a.47.47,0,0,0,.21.189,3.675,3.675,0,0,0,.479.14.326.326,0,0,1,.264.309c.028.3.073.609.076.914a.372.372,0,0,1-.172.294,1.031,1.031,0,0,0-.773.992.81.81,0,0,1-.124.352.583.583,0,0,0,.049.685c.268.436.256.444-.074.842-.128.156-.258.31-.386.466a.29.29,0,0,1-.386.107.962.962,0,0,0-1.172.125,3.623,3.623,0,0,1-.578.283.422.422,0,0,0-.177.2,3.157,3.157,0,0,0-.141.479.329.329,0,0,1-.32.276c-.3.028-.6.074-.893.073a.39.39,0,0,1-.309-.18,1.032,1.032,0,0,0-.978-.763,1.272,1.272,0,0,1-.467-.169.414.414,0,0,0-.459.031c-.628.351-.491.379-1.067-.1-.118-.1-.233-.2-.354-.292a.3.3,0,0,1-.11-.4.917.917,0,0,0-.118-1.135,1.037,1.037,0,0,1-.21-.427.547.547,0,0,0-.488-.424c-.624-.144-.509-.175-.568-.653-.025-.2-.036-.4-.057-.6a.294.294,0,0,1,.2-.352.961.961,0,0,0,.741-.917,3.411,3.411,0,0,1,.222-.625.342.342,0,0,0-.011-.226,4.725,4.725,0,0,0-.252-.456.327.327,0,0,1,.03-.421q.284-.333.559-.675a.3.3,0,0,1,.389-.1.955.955,0,0,0,1.172-.13,1.443,1.443,0,0,1,.507-.239.356.356,0,0,0,.277-.317c0-.007,0-.013,0-.02.2-.73.114-.608.844-.69.152-.017.3-.027.457-.043a.282.282,0,0,1,.334.187.964.964,0,0,0,.933.751,1.218,1.218,0,0,1,.488.174.436.436,0,0,0,.493-.033c.6-.352.5-.35,1.034.093.129.106.263.207.383.322A1.317,1.317,0,0,1,4803.663-3938.07Zm-7.477.773c.088.156.172.323.271.481a.437.437,0,0,1,.014.45,3.129,3.129,0,0,0-.324.917.919.919,0,0,1-.707.9c-.12.036-.146.112-.129.237.056.409.049.409.445.521.054.015.106.034.161.044a.414.414,0,0,1,.311.3,3.413,3.413,0,0,0,.434.894.912.912,0,0,1,.127,1.117c-.061.117-.021.185.073.263.313.26.31.264.665.065.048-.027.1-.051.145-.082a.441.441,0,0,1,.469-.013,3.349,3.349,0,0,0,.96.328.85.85,0,0,1,.822.651.227.227,0,0,0,.28.172c.378-.034.38-.026.481-.387a1.977,1.977,0,0,0,.057-.2.437.437,0,0,1,.325-.339,3.192,3.192,0,0,0,.857-.414.919.919,0,0,1,1.136-.136c.113.063.184.02.261-.074.258-.316.262-.313.064-.666-.027-.048-.05-.1-.082-.146a.439.439,0,0,1-.013-.468,3.374,3.374,0,0,0,.328-.96.853.853,0,0,1,.651-.822.227.227,0,0,0,.172-.28c-.037-.38-.026-.38-.387-.484a1.422,1.422,0,0,0-.18-.052.437.437,0,0,1-.359-.329,2.834,2.834,0,0,0-.379-.805,1,1,0,0,1-.163-1.23.17.17,0,0,0-.024-.158c-.119-.114-.251-.212-.378-.316-.18.1-.347.188-.506.285a.421.421,0,0,1-.432.013,3,3,0,0,0-.876-.316.982.982,0,0,1-.968-.745.194.194,0,0,0-.147-.1c-.467-.008-.467,0-.59.439a.822.822,0,0,0-.027.1c-.031.218-.167.316-.366.4a7.222,7.222,0,0,0-1.065.558.59.59,0,0,1-.594.088c-.495-.186-.5-.175-.8.271A.159.159,0,0,0,4796.186-3937.3Z" transform="translate(-166.862 -130.987)" fill="#ffab00"/>
    <path id="Path_191" data-name="Path 191" d="M4655.508-3845.651a1.179,1.179,0,0,1,.243.171.627.627,0,0,0,.721.257.709.709,0,0,1,.352-.019.607.607,0,0,0,.688-.327.359.359,0,0,1,.5-.141c.2.087.4.15.608.218a.292.292,0,0,1,.23.329.7.7,0,0,0,.394.8.224.224,0,0,1,.079.067.831.831,0,0,0,.942.374c.085-.019.242.1.3.189.127.2.208.423.315.633a.3.3,0,0,1-.067.414.7.7,0,0,0-.288.829.241.241,0,0,1,.007.1.857.857,0,0,0,.41.949.381.381,0,0,1,.079.329c-.057.242-.159.473-.241.709a.28.28,0,0,1-.315.217.755.755,0,0,0-.823.406.9.9,0,0,1-.271.286.423.423,0,0,0-.171.468c.06.464.053.464-.37.666-.15.072-.3.141-.451.216a.291.291,0,0,1-.4-.068.767.767,0,0,0-.908-.286.621.621,0,0,1-.29.009c-.259-.062-.406.066-.553.256-.239.309-.265.305-.634.175-.171-.059-.34-.12-.512-.178a.3.3,0,0,1-.246-.339.714.714,0,0,0-.4-.8.136.136,0,0,1-.048-.04.9.9,0,0,0-.993-.4c-.076.017-.219-.088-.271-.173-.129-.213-.222-.448-.332-.672a.277.277,0,0,1,.067-.376c.338-.241.318-.556.3-.927-.018-.41-.052-.751-.439-.983-.063-.039-.086-.217-.062-.315.057-.235.154-.46.232-.69a.3.3,0,0,1,.346-.237.684.684,0,0,0,.783-.389.14.14,0,0,1,.04-.048.9.9,0,0,0,.408-1.01.29.29,0,0,1,.125-.237c.254-.142.523-.258.787-.383A.844.844,0,0,1,4655.508-3845.651Zm4.774,2.673a.339.339,0,0,0-.376-.341.645.645,0,0,1-.718-.28,1.586,1.586,0,0,0-.521-.474.67.67,0,0,1-.382-.732c.017-.149-.05-.21-.187-.266a.24.24,0,0,0-.345.109.658.658,0,0,1-.725.309,3.279,3.279,0,0,0-.888.07.41.41,0,0,1-.4-.114,2.322,2.322,0,0,1-.179-.174c-.089-.112-.175-.112-.306-.06a.26.26,0,0,0-.186.35.584.584,0,0,1-.261.681,1.878,1.878,0,0,0-.5.552.639.639,0,0,1-.68.362c-.167-.019-.252.043-.316.211s.025.25.135.337a.786.786,0,0,1,.187.165.682.682,0,0,1,.117.294c.031.392.05.786.056,1.18a.672.672,0,0,1-.088.321.987.987,0,0,1-.225.245c-.092.079-.077.148-.04.253a.282.282,0,0,0,.375.208.526.526,0,0,1,.554.128c.254.271.556.5.824.758a.854.854,0,0,1,.182.322.58.58,0,0,1,.01.269c-.027.189.1.223.233.281s.216,0,.292-.1a.849.849,0,0,1,.193-.218.693.693,0,0,1,.312-.123q.579-.048,1.16-.057a.777.777,0,0,1,.337.1.659.659,0,0,1,.2.182.231.231,0,0,0,.323.059c.148-.07.211-.146.172-.316a.645.645,0,0,1,.27-.72,3.324,3.324,0,0,0,.585-.672.423.423,0,0,1,.392-.221c.083.006.167-.012.25-.005.132.01.194-.048.241-.171.059-.155.064-.271-.1-.366a.655.655,0,0,1-.314-.723,3.36,3.36,0,0,0-.067-.889.41.41,0,0,1,.111-.4c.074-.074.145-.15.214-.228A1.022,1.022,0,0,0,4660.282-3842.978Z" transform="translate(-32.724 -219.786)" fill="#2e7dba"/>
    <path id="Path_192" data-name="Path 192" d="M4669.7-4023.473a3.37,3.37,0,0,1-3.379-3.384,3.381,3.381,0,0,1,3.389-3.38,3.4,3.4,0,0,1,3.375,3.38A3.386,3.386,0,0,1,4669.7-4023.473Zm-2.8-3.379a2.81,2.81,0,0,0,2.8,2.807,2.817,2.817,0,0,0,2.811-2.8,2.819,2.819,0,0,0-2.812-2.817A2.81,2.81,0,0,0,4666.9-4026.852Z" transform="translate(-45.63 -45.576)" fill="#fe0000"/>
    <path id="Path_193" data-name="Path 193" d="M4845.441-3886.593a2.489,2.489,0,0,1-2.492-2.476,2.5,2.5,0,0,1,2.482-2.491,2.488,2.488,0,0,1,2.485,2.481A2.476,2.476,0,0,1,4845.441-3886.593Zm-.029-.577a1.9,1.9,0,0,0,1.927-1.87,1.912,1.912,0,0,0-1.88-1.942,1.92,1.92,0,0,0-1.931,1.874A1.909,1.909,0,0,0,4845.412-3887.17Z" transform="translate(-212.42 -176.533)" fill="#ffab00"/>
    <path id="Path_194" data-name="Path 194" d="M4692.2-3803.683a2.1,2.1,0,0,1-2.113-2.1,2.1,2.1,0,0,1,2.095-2.1,2.091,2.091,0,0,1,2.108,2.08A2.093,2.093,0,0,1,4692.2-3803.683Zm1.513-2.1a1.516,1.516,0,0,0-1.518-1.528,1.53,1.53,0,0,0-1.533,1.519,1.535,1.535,0,0,0,1.523,1.531A1.523,1.523,0,0,0,4693.713-3805.78Z" transform="translate(-68.068 -255.55)" fill="#2e7dba"/>
  </g>
</svg>
