<svg xmlns="http://www.w3.org/2000/svg" width="26.961" height="26.947" viewBox="0 0 26.961 26.947">
  <g id="Group_221" data-name="Group 221" transform="translate(3411.22 -41.086)">
    <path id="Path_106" data-name="Path 106" d="M-3117,193.437q0,3.716,0,7.432c0,.568-.186.753-.757.753h-4.388c-.5,0-.717-.211-.717-.717q0-7.487,0-14.973c0-.5.219-.714.722-.715q2.221,0,4.442,0c.489,0,.7.211.7.706Q-3117,189.68-3117,193.437Zm-4.657-7.039v14.044h3.473V186.4Z" transform="translate(-267.267 -133.59)" fill="#fe0000"/>
    <path id="Path_107" data-name="Path 107" d="M-3404.746,41.086a6.452,6.452,0,0,1,6.447,6.429,6.472,6.472,0,0,1-6.454,6.459,6.458,6.458,0,0,1-6.439-6.465A6.438,6.438,0,0,1-3404.746,41.086Zm5.266,6.445a5.257,5.257,0,0,0-5.249-5.279,5.273,5.273,0,0,0-5.3,5.239,5.263,5.263,0,0,0,5.256,5.3A5.247,5.247,0,0,0-3399.48,47.531Z" transform="translate(-0.026)" fill="#2e7dba"/>
    <path id="Path_108" data-name="Path 108" d="M-3218.956,239.688q0-2.81,0-5.619c0-.608.19-.795.807-.795h4.3c.541,0,.752.207.752.74q0,5.715,0,11.43c0,.51-.208.721-.711.721q-2.22,0-4.44,0c-.5,0-.71-.209-.71-.721Q-3218.957,242.566-3218.956,239.688Zm1.193-5.228v10.527h3.473V234.461Z" transform="translate(-178.204 -178.133)" fill="#fe0000"/>
    <path id="Path_109" data-name="Path 109" d="M-3386.93,138.333c-.676,0-1.353.007-2.029,0a.571.571,0,0,0-.452.193c-1,1.013-2.017,2.015-3.018,3.03a.934.934,0,0,1-.728.3c-.932-.012-1.865,0-2.8-.008a.633.633,0,0,0-.5.2c-1,1.015-2.015,2.017-3.016,3.033a.912.912,0,0,1-.705.291c-.95-.008-1.9-.01-2.851,0a.682.682,0,0,0-.425.173c-.652.628-1.277,1.283-1.934,1.9a.938.938,0,0,1-.574.245c-1.508.02-3.016.013-4.524.01a.577.577,0,0,1-.653-.578.574.574,0,0,1,.646-.585c1.024,0,2.047,0,3.071,0a3.656,3.656,0,0,0,1.3-.05c.368-.15.626-.57.93-.872.382-.38.768-.757,1.142-1.146a.868.868,0,0,1,.68-.284c.95.01,1.9,0,2.851.008a.572.572,0,0,0,.455-.185c.983-.995,1.982-1.974,2.958-2.975a1.116,1.116,0,0,1,.9-.365c.923.02,1.846.013,2.769,0a.6.6,0,0,0,.375-.157q1.553-1.53,3.085-3.08a.849.849,0,0,1,.655-.271c1.49.009,2.979,0,4.469,0a.6.6,0,0,1,.655.426.577.577,0,0,1-.586.735C-3385.5,138.339-3386.217,138.333-3386.93,138.333Z" transform="translate(-0.075 -89.053)" fill="#ffab00"/>
    <path id="Path_110" data-name="Path 110" d="M-3313.906,289.533h3.5v-7h-3.495v.331c0,1.234,0,2.468,0,3.7a.583.583,0,0,1-.591.619.593.593,0,0,1-.571-.614c0-.055,0-.11,0-.165v-4.277c0-.064,0-.128,0-.192a.572.572,0,0,1,.586-.6q2.344-.012,4.688,0a.573.573,0,0,1,.582.575c.011.136,0,.274,0,.411q0,3.8,0,7.6c0,.6-.187.789-.783.789h-4.36c-.514,0-.718-.2-.719-.708,0-.32,0-.64,0-.96a.589.589,0,0,1,.588-.623.588.588,0,0,1,.573.609C-3313.9,289.187-3313.906,289.349-3313.906,289.533Z" transform="translate(-89.117 -222.674)" fill="#fe0000"/>
    <path id="Path_111" data-name="Path 111" d="M-3411.219,316.98c0-.932,0-1.865,0-2.8,0-.514.2-.714.713-.715q2.221,0,4.442,0c.477,0,.7.206.7.678q.007,2.838,0,5.676a.588.588,0,0,1-.675.672q-2.249,0-4.5,0c-.473,0-.679-.208-.681-.69C-3411.221,318.863-3411.219,317.921-3411.219,316.98Zm4.668-2.323h-3.478v4.675h3.478Z" transform="translate(0 -252.462)" fill="#fe0000"/>
    <path id="Path_112" data-name="Path 112" d="M-3360.749,73.843c0-.193-.007-.364,0-.535.019-.4.239-.634.575-.627a.618.618,0,0,1,.595.655c0,.155,0,.309,0,.508.209,0,.406-.006.6,0a1.784,1.784,0,0,1,1.737,1.711.563.563,0,0,1-.538.633.571.571,0,0,1-.63-.514c-.085-.524-.23-.65-.755-.654h-.4v1.172c.187,0,.375,0,.563,0a1.781,1.781,0,0,1,1.761,1.768,1.774,1.774,0,0,1-1.729,1.742c-.19.007-.382,0-.612,0,0,.222,0,.428,0,.634a.56.56,0,0,1-.589.609.553.553,0,0,1-.584-.611c0-.2,0-.4,0-.633-.241,0-.458.008-.673,0a1.749,1.749,0,0,1-1.664-1.765.555.555,0,0,1,.556-.559.56.56,0,0,1,.6.514c.069.51.216.64.729.644h.43V77.355c-.213,0-.413.005-.611,0a1.741,1.741,0,0,1-1.706-1.721,1.767,1.767,0,0,1,1.7-1.789C-3361.185,73.837-3360.985,73.843-3360.749,73.843Zm-.018,1.171c-.372.051-.774-.134-1.044.255a.556.556,0,0,0-.019.668c.274.394.685.215,1.063.259Zm1.208,2.351v1.162c.216,0,.416.016.612,0a.525.525,0,0,0,.532-.543.572.572,0,0,0-.534-.612A6.019,6.019,0,0,0-3359.559,77.364Z" transform="translate(-44.61 -29.284)" fill="#2e7dba"/>
  </g>
</svg>
