<svg id="Layer_1" data-name="Layer 1" xmlns="http://www.w3.org/2000/svg" viewBox="0 0 64 64"><defs><style>.cls-1{fill:#fe0000;}.cls-2{fill:#ffab00;}.cls-3{fill:#2e7dba;}</style></defs><title>-</title><path class="cls-1" d="M0,30c.16-1.19.28-2.39.5-3.57A31.48,31.48,0,0,1,10.86,8,31,31,0,0,1,27.67.31,31,31,0,0,1,50.08,5.66,31,31,0,0,1,63.4,26.07a30.92,30.92,0,0,1-6,25.27A31.25,31.25,0,0,1,38,63.41c-1.12.22-2.26.31-3.4.46-.2,0-.4.07-.6.11H30a2.68,2.68,0,0,0-.42-.1A31.15,31.15,0,0,1,12.14,57,31.49,31.49,0,0,1,.49,37.51C.28,36.35.16,35.17,0,34Q0,32,0,30Zm2.77,2A29.22,29.22,0,1,0,32,2.78,29.3,29.3,0,0,0,2.77,32Z"/><path class="cls-2" d="M32,30.58A18.17,18.17,0,0,1,50,46.69c.06.58.09,1.16.11,1.75a1.44,1.44,0,0,1-1.34,1.64,1.41,1.41,0,0,1-1.44-1.54A15.3,15.3,0,0,0,16.9,46.17c-.13.78-.14,1.57-.2,2.36-.07,1-.64,1.58-1.45,1.55a1.45,1.45,0,0,1-1.35-1.63A18.11,18.11,0,0,1,30,30.73C30.68,30.66,31.36,30.63,32,30.58Z"/><path class="cls-3" d="M32.26,27.82a9.74,9.74,0,1,1,9.47-10.19A9.79,9.79,0,0,1,32.26,27.82ZM32,25a6.95,6.95,0,1,0-6.93-7A7,7,0,0,0,32,25Z"/></svg>