<svg xmlns="http://www.w3.org/2000/svg" width="19.378" height="21.378" viewBox="0 0 19.378 21.378">
  <g id="Group_294" data-name="Group 294" transform="translate(-5214.074 3946.5)">
    <path id="Path_162" data-name="Path 162" d="M5286.178-3946.5c.292.054.587.1.876.163a6.02,6.02,0,0,1,4.638,6.008,6.036,6.036,0,0,1-4.821,5.76,6.042,6.042,0,0,1-7.156-5,6.032,6.032,0,0,1,5.323-6.9,1,1,0,0,0,.139-.035Zm-.512,9.955a3.928,3.928,0,0,0,3.939-3.915,3.939,3.939,0,0,0-3.927-3.953,3.935,3.935,0,0,0-3.939,3.918A3.931,3.931,0,0,0,5285.666-3936.545Z" transform="translate(-61.92)" fill="#2e7dba"/>
    <path id="Path_163" data-name="Path 163" d="M5221.8-3714.408q-2.38,0-4.76,0a2.859,2.859,0,0,1-2.939-2.5,3.026,3.026,0,0,1,.081-1.194,9.692,9.692,0,0,1,3.211-4.988,1.041,1.041,0,0,1,1.493.094,1.036,1.036,0,0,1-.138,1.49,7.855,7.855,0,0,0-2.527,3.825.835.835,0,0,0,.875,1.188h9.624a1.045,1.045,0,0,1,1.09.813,1.037,1.037,0,0,1-1.042,1.273c-1.357,0-2.714,0-4.071,0Z" transform="translate(0 -210.715)" fill="#fe0000"/>
    <path id="Path_164" data-name="Path 164" d="M5475.84-3717.554a2.909,2.909,0,0,1-2.9,2.939,1.031,1.031,0,0,1-1.045-1,1.04,1.04,0,0,1,.966-1.082.826.826,0,0,0,.817-1.184,7.759,7.759,0,0,0-2.49-3.8,1.063,1.063,0,0,1-.431-.964.991.991,0,0,1,.66-.864,1.01,1.01,0,0,1,1.071.191,9.8,9.8,0,0,1,1.746,1.87,9.478,9.478,0,0,1,1.573,3.488,1.027,1.027,0,0,1,.021.144C5475.835-3717.707,5475.838-3717.6,5475.84-3717.554Z" transform="translate(-242.388 -210.508)" fill="#ffab00"/>
  </g>
</svg>
