<svg xmlns="http://www.w3.org/2000/svg" width="24.934" height="24.934" viewBox="0 0 24.934 24.934">
  <g id="Group_108" data-name="Group 108" transform="translate(-776.385 -236.545)">
    <rect id="Rectangle_73" data-name="Rectangle 73" width="24.934" height="24.934" rx="12.467" transform="translate(776.385 236.545)" fill="#e8e8e8" opacity="0.85"/>
    <g id="Group_86" data-name="Group 86">
      <path id="Path_688" data-name="Path 688" d="M789.074,243.85c.153.033.307.062.459.1a1.807,1.807,0,0,1,.256.089.4.4,0,0,1-.29.749,1.787,1.787,0,0,0-.637-.132,1.613,1.613,0,0,0-1,.34q-1.358,1.035-2.715,2.072a1.592,1.592,0,0,0-.649,1.323q0,1.668,0,3.336a1.611,1.611,0,0,0,1.641,1.64q2.712,0,5.422,0a1.614,1.614,0,0,0,1.648-1.644c0-.585,0-1.169,0-1.754a.4.4,0,0,1,.579-.373.467.467,0,0,1,.226.282v2.1a.505.505,0,0,0-.018.066,2.386,2.386,0,0,1-1.711,2.028,4.3,4.3,0,0,1-.469.1h-5.928a.408.408,0,0,0-.066-.019,2.421,2.421,0,0,1-2.029-1.709c-.045-.154-.069-.314-.1-.47v-3.832a.363.363,0,0,0,.017-.056,2.353,2.353,0,0,1,.908-1.626q1.385-1.074,2.788-2.124a2.79,2.79,0,0,1,.635-.34,4.454,4.454,0,0,1,.613-.149Z" fill="#ec2329"/>
      <path id="Path_689" data-name="Path 689" d="M794.014,247.944a2.885,2.885,0,0,1-.1.3,1.116,1.116,0,0,1-1.713.449l-.068-.052a1.28,1.28,0,0,1-.608.273,1.211,1.211,0,0,1-1.26-.66,1.189,1.189,0,0,1,.249-1.406,1.144,1.144,0,0,1,1.3-.242,1.157,1.157,0,0,1,.746,1.109.378.378,0,0,0,.208.38.319.319,0,0,0,.439-.3,1.856,1.856,0,1,0-1.652,1.764,3.241,3.241,0,0,0,.537-.126.413.413,0,0,1,.53.235.4.4,0,0,1-.238.519,2.677,2.677,0,0,1-3.654-2.03,2.66,2.66,0,1,1,5.266-.75.408.408,0,0,0,.018.066Zm-2.258-.218a.4.4,0,1,0-.408.4A.4.4,0,0,0,791.756,247.726Z" fill="#f8981c"/>
      <path id="Path_690" data-name="Path 690" d="M788.925,251.354a2.483,2.483,0,0,1-1.535-.5q-.956-.723-1.908-1.451a.392.392,0,0,1-.168-.422.4.4,0,0,1,.642-.229c.289.214.573.434.859.652.339.258.68.515,1.018.774a1.615,1.615,0,0,0,1.354.326.4.4,0,1,1,.154.789C789.177,251.329,789.01,251.343,788.925,251.354Z" fill="#25aae1"/>
    </g>
  </g>
</svg>
