<svg xmlns="http://www.w3.org/2000/svg" width="24.934" height="24.934" viewBox="0 0 24.934 24.934">
  <g id="Group_107" data-name="Group 107" transform="translate(-531.374 -236.545)">
    <rect id="Rectangle_87" data-name="Rectangle 87" width="24.934" height="24.934" rx="12.284" transform="translate(531.374 236.545)" fill="#e8e8e8" opacity="0.85"/>
    <g id="Group_88" data-name="Group 88">
      <path id="Path_691" data-name="Path 691" d="M549.181,252.685a2.811,2.811,0,0,0-2.777-2.78q-2.566-.015-5.133,0a2.8,2.8,0,0,0-2.663,2.045c-.045.16-.074.323-.111.485v2.476a.5.5,0,0,0,.477.335h.19a.237.237,0,0,0,.237-.239l-.007-.658c0-.045-.006-.089-.006-.134,0-.491,0-.983,0-1.474a1.927,1.927,0,0,1,1.951-1.948q2.5,0,5.008,0a1.925,1.925,0,0,1,1.945,1.94c0,.161,0,.322,0,.484h0v1.816a.211.211,0,0,0,.211.211h.206a.443.443,0,0,0,.47-.473C549.184,254.076,549.189,253.381,549.181,252.685Z" fill="#fe0000"/>
      <path id="Path_692" data-name="Path 692" d="M540.749,255.246h6.2a.448.448,0,0,0,.448-.448h0a.447.447,0,0,0-.448-.448h-6.2a.448.448,0,0,0-.448.448h0A.449.449,0,0,0,540.749,255.246Z" fill="#ffab00"/>
      <path id="Path_693" data-name="Path 693" d="M543.839,248.712a2.967,2.967,0,1,1,2.971-2.958A2.971,2.971,0,0,1,543.839,248.712Zm-.009-.89a2.077,2.077,0,1,0-2.069-2.088A2.079,2.079,0,0,0,543.83,247.822Z" fill="#2e7dba"/>
    </g>
  </g>
</svg>
