<svg xmlns="http://www.w3.org/2000/svg" width="24.934" height="24.934" viewBox="0 0 24.934 24.934">
  <g id="Group_114" data-name="Group 114" transform="translate(-776.385 -382.698)">
    <rect id="Rectangle_80" data-name="Rectangle 80" width="24.934" height="24.934" rx="12.467" transform="translate(776.385 382.698)" fill="#e8e8e8" opacity="0.85"/>
    <g id="Group_84" data-name="Group 84">
      <path id="Path_680" data-name="Path 680" d="M787.131,391.4a1.688,1.688,0,0,1,1.555-1.692,1.716,1.716,0,0,1,1.842,1.3,1.586,1.586,0,0,1,.041.35c0,.357,0,1.98,0,2.338h1.012c0-.344,0-1.953,0-2.3a2.667,2.667,0,0,0-1.8-2.543,6.807,6.807,0,0,0-.683-.169H788.6a6,6,0,0,0-.6.137,2.677,2.677,0,0,0-1.879,2.624V393.7h1.011C787.13,393.353,787.13,391.744,787.131,391.4Z" fill="#2e7dba"/>
      <path id="Path_681" data-name="Path 681" d="M789.563,396.259a.924.924,0,0,1-.127,1.327.19.19,0,0,0-.081.168c0,.337.006.674,0,1.01a.5.5,0,0,1-.961.2.681.681,0,0,1-.047-.232c-.007-.164,0-.329,0-.493,0-.072,0-.143,0-.215a.665.665,0,0,0-.2-.565.9.9,0,0,1,.091-1.305A.928.928,0,0,1,789.563,396.259Z" fill="#ffab00"/>
      <path id="Path_682" data-name="Path 682" d="M794.009,394.9a1.486,1.486,0,0,0-1.28-1.429,9.988,9.988,0,0,0-1.01-.027c-.044,0-.088,0-.136,0h-5.717c-.2,0-.4,0-.6,0a1.518,1.518,0,0,0-1.572,1.57q0,2.529,0,5.059a1.515,1.515,0,0,0,1.562,1.566q3.6,0,7.2,0a1.751,1.751,0,0,0,.376-.038,1.508,1.508,0,0,0,1.186-1.5c0-1.324,0-2.648,0-3.972C794.012,395.719,794.019,395.31,794.009,394.9ZM793,400.041a.52.52,0,0,1-.591.588h-7.121a.519.519,0,0,1-.586-.582v-5.008a.519.519,0,0,1,.586-.582q1.783,0,3.567,0h3.553a.521.521,0,0,1,.592.588Z" fill="#fe0000"/>
      <path id="Path_683" data-name="Path 683" d="M791.719,393.445h-.136C791.631,393.445,791.675,393.444,791.719,393.445Z"/>
    </g>
  </g>
</svg>
