<svg id="Layer_1" data-name="Layer 1" xmlns="http://www.w3.org/2000/svg" viewBox="0 0 64 64"><defs><style>.cls-1{fill:#2e7dba;}.cls-2{fill:#ffab00;}.cls-3{fill:#fe0000;}</style></defs><title>-</title><path class="cls-1" d="M43.17,10.71v2H14.43v-2Z"/><path class="cls-1" d="M14.41,51.21V49.12H43.21c0,.59,0,1.16,0,1.74,0,.12-.19.28-.32.33a1.41,1.41,0,0,1-.49,0h-28Z"/><path class="cls-1" d="M34.63,55.53v2H14.43v-2Z"/><path class="cls-1" d="M31.43,25.58h-17V23.52h17Z"/><path class="cls-1" d="M14.44,29.9h17V32h-17Z"/><path class="cls-1" d="M14.43,36.29h17v2.06h-17Z"/><path class="cls-1" d="M14.42,44.75V42.7h17v2.05Z"/><path class="cls-1" d="M14.42,19.15v-2h17v2Z"/><path class="cls-1" d="M32.49,5.39v2H19.77v-2Z"/><path class="cls-1" d="M12.22,10.71v2H9.11v-2Z"/><path class="cls-1" d="M9.11,17.11h3.12v2.05H9.11Z"/><path class="cls-1" d="M12.21,25.57H9.11V23.52h3.1Z"/><path class="cls-1" d="M9.09,32v-2h3.13v2Z"/><path class="cls-1" d="M12.24,36.29v2H9.11v-2Z"/><path class="cls-1" d="M9.12,42.7h3.09v2.06H9.12Z"/><path class="cls-1" d="M12.23,49.11v2.1c-1,0-1.89,0-2.82,0a.47.47,0,0,1-.32-.32c0-.57,0-1.15,0-1.76Z"/><path class="cls-1" d="M12.23,57.57H9.11V55.52h3.11Z"/><path class="cls-2" d="M49.6,26.66c0-.83,0-1.56,0-2.28a2.13,2.13,0,0,0-2.06-2,2.22,2.22,0,0,0-2.22,2.08H43.24a3.82,3.82,0,0,1,1.23-3A4,4,0,0,1,49,20.58a4.13,4.13,0,0,1,2.71,3.85c0,.66,0,1.33,0,2a.85.85,0,0,0,.36.6,3.18,3.18,0,0,1,1.75,3c0,1.35,0,2.71,0,4.06a3.12,3.12,0,0,1-3.18,3.3q-3.22.07-6.43,0a3.09,3.09,0,0,1-3.18-3.23c0-1.37,0-2.75,0-4.12a3.14,3.14,0,0,1,3.34-3.32c1.48,0,3,0,4.44,0Zm-2.07,2.14c-1,0-2,0-3.06,0s-1.25.34-1.26,1.24q0,2,0,3.93c0,.9.34,1.23,1.26,1.24q3,0,6,0c.93,0,1.27-.37,1.28-1.3q0-1.9,0-3.81c0-.94-.35-1.29-1.28-1.3S48.51,28.79,47.53,28.79Z"/><path class="cls-3" d="M48.52,49.52V48.05H46.37v5.29h-.72c-1.58,0-3.17,0-4.75,0a3,3,0,0,0-3,2.6,6.76,6.76,0,0,0,0,1.12c0,1.58,0,3.15,0,4.79H7.26c-1.08,0-1.39-.32-1.39-1.43q0-28.43,0-56.87c0-1.14.3-1.44,1.44-1.44H44.93c1.16,0,1.45.29,1.45,1.42q0,5.58,0,11.16h2.13q0-5.63,0-11.27A3.14,3.14,0,0,0,45.07,0H7.19A3.15,3.15,0,0,0,3.74,3.45q0,28.56,0,57.12a4.86,4.86,0,0,0,.09,1A3.32,3.32,0,0,0,6.25,64H39.37q4.37-4.38,8.75-8.75a1.24,1.24,0,0,0,.41-1C48.51,52.69,48.52,51.1,48.52,49.52ZM40,60c0-1.08,0-2.3,0-3.52a.92.92,0,0,1,1-1c1.24,0,2.48,0,3.59,0Z"/><path class="cls-2" d="M56.82,16H48.52v-.08H46.36V16H38.06a3.16,3.16,0,0,0-3.4,3.39q0,9.41,0,18.81a3.17,3.17,0,0,0,3.4,3.4c1.56,0,3.13,0,4.69,0a2.21,2.21,0,0,1,1.89.79c.89,1,1.86,1.89,2.84,2.87,1.11-1.12,2.15-2.2,3.23-3.23a1.48,1.48,0,0,1,.9-.38c1.73,0,3.46,0,5.19,0a3.17,3.17,0,0,0,3.46-3.46q0-9.34,0-18.69A3.15,3.15,0,0,0,56.82,16Zm1.31,22.06c0,1.1-.31,1.41-1.41,1.41-1.77,0-3.54,0-5.31,0a2.24,2.24,0,0,0-2,.82c-.57.69-1.24,1.29-1.94,2-.82-.83-1.58-1.58-2.29-2.36A1.38,1.38,0,0,0,44,39.47c-1.94,0-3.87,0-5.81,0-1.1,0-1.42-.32-1.42-1.42q0-9.25,0-18.5c0-1.13.31-1.43,1.46-1.43H56.68c1.15,0,1.44.3,1.44,1.44Q58.13,28.81,58.13,38.06Z"/></svg>