<svg id="Layer_1" data-name="Layer 1" xmlns="http://www.w3.org/2000/svg" viewBox="0 0 64 64"><defs><style>.cls-1{fill:#ffab00;}.cls-2{fill:#fe0000;}.cls-3{fill:#2e7dba;}</style></defs><title>ICONS Third file</title><path class="cls-1" d="M35.31,64a4.88,4.88,0,0,0-.4-.52l-4.33-4.34,4.88-4.88,1.35,1.37-2.23,2.13c9.64.18,23.28-7.06,26.3-22.34a27.8,27.8,0,0,0-23.29-33A26.83,26.83,0,0,0,14.44,9.76C7.93,15.89,5.19,23.58,5.72,32.52l-2,.21C2.21,20.54,9.92,5.09,26.2.95A30,30,0,1,1,34.55,60L37,62.38,35.56,64Z"/><path class="cls-2" d="M.45,34.78H13v1.52c.65-.41,1.21-.75,1.74-1.12a3.83,3.83,0,0,1,2.29-.67H29.68a4.19,4.19,0,0,1,4.22,2.8,4.3,4.3,0,0,1-1.54,4.84l-.31.28c1.61.22,3,.69,4.65.16,3.69-1.2,7.46-2.2,11.19-3.28a4,4,0,0,1,4.67,2,3.74,3.74,0,0,1-.87,4.65,4.51,4.51,0,0,1-1.47.78Q38,50.55,25.81,54.35a3.7,3.7,0,0,1-2.67-.14c-3.16-1.34-6.33-2.64-9.5-3.95L13,50v2.55H.45Zm21.89,8.38a10.86,10.86,0,0,0,.14-1.47c0-.52.14-.67.66-.67,2.17,0,4.33,0,6.5,0A3,3,0,0,0,31,40.66a2,2,0,0,0,.83-2.29,2.06,2.06,0,0,0-2.06-1.5c-3.42,0-6.84.11-10.24,0a9,9,0,0,0-6.08,1.66s0,0-.05,0c-.14.22-.39.45-.39.67,0,2.69,0,5.37,0,8.06a.59.59,0,0,0,.44.64c3.55,1.48,7.09,3,10.64,4.45a1.52,1.52,0,0,0,1,.06q12.16-3.73,24.31-7.5a1.72,1.72,0,0,0,1.33-2.23,1.8,1.8,0,0,0-2.41-1.22c-4.05,1.17-8.1,2.36-12.16,3.5a4.87,4.87,0,0,1-2,.17c-2.63-.38-5.26-.85-7.88-1.29ZM8.81,43.1H6.67V36.89H2.54V50.47h8.33V36.9H8.81Z"/><path class="cls-3" d="M15.16,31.6V12.67H53c0,.22,0,.44,0,.66,0,5.85,0,11.71,0,17.56,0,.58-.16.73-.73.73q-18.24,0-36.49,0Zm35.72-16.8H17.26V29.45H50.88Z"/><path class="cls-2" d="M6.72,48.38V45.31H8.78v3.07Z"/><path class="cls-3" d="M34.05,26.32a4.21,4.21,0,1,1,4.23-4.19A4.23,4.23,0,0,1,34.05,26.32Zm0-2.09A2.11,2.11,0,1,0,32,22.1,2.14,2.14,0,0,0,34.05,24.22Z"/><path class="cls-3" d="M19.35,27.34V23.21h2.07v2H23.5v2.1Z"/><path class="cls-3" d="M44.62,27.34V25.28h2.05V23.21h2.1v4.13Z"/><path class="cls-3" d="M19.36,21V16.9h4.16v2H21.46V21Z"/><path class="cls-3" d="M48.77,16.9V21H46.7V19H44.62V16.9Z"/><path class="cls-3" d="M27.7,23.11H24.62v-2H27.7Z"/><path class="cls-3" d="M43.52,21.1v2H40.43v-2Z"/></svg>