<svg id="Layer_1" data-name="Layer 1" xmlns="http://www.w3.org/2000/svg" viewBox="0 0 64 64"><defs><style>.cls-1{fill:#fe0000;}.cls-2{fill:#ffab00;}.cls-3{fill:#2e7dba;}</style></defs><title>-</title><path class="cls-1" d="M64,18q0,7.09,0,14.19c0,2.63-1.27,3.91-3.88,3.91-6.87,0-13.74,0-20.61,0a3.62,3.62,0,0,1-3.87-3.89c.08-8.3,0-16.61,0-24.91A1.7,1.7,0,0,1,36.22,6c1.89-1.84,3.72-3.73,5.61-5.57a1.63,1.63,0,0,1,1-.43c5.81,0,11.62,0,17.43,0C62.68,0,64,1.31,64,3.72Q64,10.88,64,18ZM37.15,7.64c0,.26,0,.4,0,.53q0,12.18,0,24.35c0,1.45.71,2.13,2.2,2.13H60.22c1.68,0,2.29-.62,2.29-2.3q0-14.26,0-28.52c0-1.75-.63-2.38-2.37-2.38H43.3c0,1.14,0,2.19,0,3.24a2.69,2.69,0,0,1-2.93,2.94Zm4.7-4.85L38.63,6.17c.45,0,1.16,0,1.88,0a1.22,1.22,0,0,0,1.33-1.38C41.86,4.11,41.84,3.43,41.84,2.79Z"/><path class="cls-1" d="M0,46q0-7.06,0-14.12Q0,28,3.86,28c5.76,0,11.53,0,17.29,0a1.64,1.64,0,0,1,1,.45q2.91,2.83,5.74,5.73a1.44,1.44,0,0,1,.4.9q0,12.88,0,25.76A3.22,3.22,0,0,1,25,64.12q-10.87,0-21.74,0a3.23,3.23,0,0,1-3.27-3,8.06,8.06,0,0,1,0-.92Q0,53.1,0,46ZM20.7,29.48H3.75c-1.64,0-2.26.63-2.26,2.26q0,14.33,0,28.65c0,1.64.66,2.29,2.32,2.29H24.49c1.73,0,2.39-.65,2.39-2.38q0-11.93,0-23.85c0-.25,0-.5,0-.82-1.17,0-2.27,0-3.37,0a2.63,2.63,0,0,1-2.77-2.8C20.69,31.75,20.7,30.67,20.7,29.48Zm4.88,4.68-3.36-3.36a14.75,14.75,0,0,0,0,2.46,1.38,1.38,0,0,0,.95.86A14.38,14.38,0,0,0,25.58,34.16Z"/><path class="cls-2" d="M12.48,2.41c0-.58,0-1.09,0-1.6,0-.72.54-1,1.17-.65q4,2.27,7.94,4.58a.74.74,0,0,1,0,1.39q-4,2.32-7.94,4.58c-.62.35-1.11,0-1.16-.68,0-.26,0-.52,0-.78s0-.46,0-.74H6C6,8.75,6,9,6,9.24c0,1.51,0,3,0,4.52,0,.65-.28,1-.93.95-1.39,0-2.78,0-4.16,0a.82.82,0,0,1-1-.94c0-3.48,0-7,0-10.45,0-.71.26-.91,1-.91H12.48ZM14,8.79l5.83-3.37L14,2c0,.21,0,.32,0,.43,0,1.37-.06,1.4-1.46,1.4H1.54v9.35H4.6c0-1.69,0-3.33,0-5C4.6,7.1,4.74,7,5.91,7h6.21C13.42,7,14,6.64,14,8.66,14,8.68,14,8.7,14,8.79Z"/><path class="cls-2" d="M51.52,55.65H58c0-.27,0-.51,0-.76,0-1.51,0-3,0-4.52,0-.65.27-1,.93-1,1.39,0,2.78,0,4.16,0a.82.82,0,0,1,1,.94c0,3.48,0,7,0,10.45,0,.71-.26.92-1,.92H51.52c0,.56,0,1,0,1.53,0,.8-.53,1.09-1.24.69q-3.95-2.26-7.88-4.55a.74.74,0,0,1,0-1.38q3.93-2.3,7.87-4.55c.7-.4,1.19-.1,1.22.71C51.54,54.65,51.52,55.11,51.52,55.65ZM50,62.12c0-.23,0-.35,0-.46,0-1.34.07-1.38,1.41-1.38h11V50.93H59.4c0,1.74,0,3.43,0,5.12,0,.91-.21,1.12-1.12,1.12-2.16,0-4.33,0-6.49,0-1.63,0-1.77-.06-1.73-1.66,0,0,0-.07-.1-.16l-5.81,3.35Z"/><path class="cls-2" d="M41.74,50.88c0,.6,0,1.1,0,1.59,0,.71-.54,1-1.16.67q-4-2.28-8-4.61a.72.72,0,0,1,0-1.34q4-2.31,7.93-4.58c.66-.38,1.16-.06,1.2.69,0,.26,0,.52,0,.78s0,.46,0,.74h6.4c0-1.08,0-2.13,0-3.18,0-.73,0-1.46,0-2.19a.79.79,0,0,1,.88-.87h4.3a.77.77,0,0,1,.86.88q0,5.29,0,10.58c0,.7-.42.85-1,.85H41.74Zm7.92-10.79c0,.26,0,.49,0,.72,0,1.41,0,2.82,0,4.23,0,1.1-.17,1.28-1.25,1.28H41.61c-1.22,0-1.3-.08-1.33-1.33,0-.13,0-.27,0-.52l-5.89,3.4,5.9,3.4c0-.26,0-.38,0-.49,0-1.3.08-1.35,1.37-1.35h11V40.09Z"/><path class="cls-2" d="M15.86,19.33c0,1.69,0,3.3,0,4.92,0,1.15-.16,1.31-1.29,1.31H10.9c-.87,0-1.08-.21-1.08-1.08q0-5.08,0-10.15c0-.91.16-1.07,1.07-1.07H22.26c0-.56,0-1.07,0-1.58,0-.71.54-1,1.15-.7q4,2.28,8,4.61a.72.72,0,0,1,0,1.34q-4,2.33-8,4.61c-.61.35-1.11,0-1.15-.7,0-.26,0-.52,0-.78s0-.47,0-.75ZM11.3,24h3.07c0-.31,0-.57,0-.82,0-1.46,0-2.92,0-4.37,0-.61.21-1,.88-1h7.62c.58,0,.85.32.85.89,0,.29,0,.58,0,1l5.94-3.43-5.89-3.4c0,.25,0,.38,0,.52,0,1.26-.1,1.32-1.33,1.32H11.3Z"/><path class="cls-3" d="M49.86,29.11h8.75c.21,0,.48-.07.62,0s.56.47.59.73-.31.52-.56.66a1.67,1.67,0,0,1-.76.05H41.14c-.57,0-1.26.13-1.36-.73-.06-.53.37-.75,1.33-.75Z"/><path class="cls-3" d="M49.82,11.72h8.81c.21,0,.48-.07.62,0s.55.44.55.67-.29.53-.53.7-.46,0-.69,0h-18c-.5,0-.84-.23-.83-.74s.33-.7.8-.7h9.24Z"/><path class="cls-3" d="M49.79,19H41.11c-.21,0-.48.07-.62,0s-.67-.48-.66-.72.42-.5.69-.7c.11-.08.32,0,.48,0H58.64c.16,0,.38-.06.48,0,.27.2.63.42.7.7s-.21.69-.66.72c-.21,0-.42,0-.63,0Z"/><path class="cls-3" d="M49.79,24.77H41c-.21,0-.47.06-.62,0s-.61-.43-.6-.63.32-.56.56-.76.41,0,.62,0H58.64c.21,0,.49-.07.62,0s.54.48.56.75-.34.48-.59.64-.41,0-.62,0Z"/><path class="cls-3" d="M52.9,6.17h5.78c.21,0,.47-.06.62,0s.61.44.59.64-.33.55-.58.75-.36,0-.55,0H46.49c-.46,0-.78-.25-.78-.73s.31-.72.77-.73c.7,0,1.41,0,2.12,0Z"/><path class="cls-3" d="M14.21,47H5.4a1.5,1.5,0,0,1-.75-.09,1,1,0,0,1-.47-.68,1,1,0,0,1,.49-.66,1.37,1.37,0,0,1,.69-.07H23c.19,0,.43-.06.55,0s.63.45.63.69-.34.55-.6.72-.46,0-.69,0Z"/><path class="cls-3" d="M14.14,39.71c3,0,6,0,9,0a1.59,1.59,0,0,1,.86.21.68.68,0,0,1-.26,1.21,2.77,2.77,0,0,1-.77.07H5.08c-.49,0-.92-.15-.93-.72s.43-.76,1-.76Z"/><path class="cls-3" d="M14.18,52.8H5.29c-.23,0-.52,0-.68-.09a1.09,1.09,0,0,1-.44-.7.87.87,0,0,1,.46-.61,1.91,1.91,0,0,1,.83-.09H22.88c1,0,1.39.23,1.33.76-.1.85-.78.73-1.36.73Z"/><path class="cls-3" d="M14.21,57.14h8.67a1.54,1.54,0,0,1,.69,0c.25.14.61.43.6.63s-.32.56-.56.76-.41,0-.62,0H5.36c-.21,0-.49.07-.62,0s-.54-.48-.56-.75.34-.49.59-.64.46,0,.69,0Z"/><path class="cls-3" d="M11.24,34.18h6.13c.67,0,1.14.47.87.92a1.3,1.3,0,0,1-.94.51c-2.51,0-5,0-7.54,0H5.1c-.52,0-1-.08-1-.7s.47-.77,1-.76Z"/></svg>