<svg xmlns="http://www.w3.org/2000/svg" width="20.856" height="26.493" viewBox="0 0 20.856 26.493">
  <g id="Group_238" data-name="Group 238" transform="translate(-5526.28 5791.5)">
    <path id="Path_128" data-name="Path 128" d="M5547.135-5758.173a1.582,1.582,0,0,0-1.731-1.738c-1.091,0-2.871,0-3.961,0v.829c1.087,0,2.863,0,3.95,0,.646,0,.915.268.915.91q0,10.411,0,20.824c0,.661-.262.917-.929.917h-17.332c-.668,0-.93-.256-.93-.916q0-10.412,0-20.824c0-.645.268-.911.913-.911,1.087,0,2.933,0,4.021,0v-.827c-1.082,0-2.923.019-4-.008a1.661,1.661,0,0,0-1.768,1.771c.019,6.932.009,13.865.01,20.8a1.581,1.581,0,0,0,1.745,1.746h17.356a1.58,1.58,0,0,0,1.746-1.746Q5547.137-5747.763,5547.135-5758.173Z" transform="translate(0 -29.402)" fill="#fff"/>
    <path id="Path_131" data-name="Path 131" d="M5587.779-5529.8a2.378,2.378,0,0,0-.089-.506,2.382,2.382,0,0,0-1.127-1.418,1.433,1.433,0,0,0-.246-1.925,1.394,1.394,0,0,0-1.765,0,1.42,1.42,0,0,0-.245,1.922l-.167.115a2.355,2.355,0,0,0-1.056,1.783c-.042.413.126.6.539.6.4,0,.793,0,1.189,0q1.215,0,2.431,0C5587.658-5529.231,5587.806-5529.384,5587.779-5529.8Zm-2.346-3.337a.575.575,0,0,1,.567.584.56.56,0,0,1-.577.543.55.55,0,0,1-.548-.564A.562.562,0,0,1,5585.433-5533.137Zm-1.426,3.06a1.439,1.439,0,0,1,1.353-1.1,1.5,1.5,0,0,1,1.522,1.1Z" transform="translate(-52.88 -239.768)" fill="#fff"/>
    <path id="Path_132" data-name="Path 132" d="M5587.8-5608.671a2.088,2.088,0,0,0-.03-.282,2.38,2.38,0,0,0-1.183-1.669,1.442,1.442,0,0,0-.289-1.959,1.388,1.388,0,0,0-1.763.059,1.429,1.429,0,0,0-.209,1.9,2.383,2.383,0,0,0-1.226,1.964.435.435,0,0,0,.484.525c.267.006.534,0,.8,0,.965,0,1.93,0,2.9,0C5587.666-5608.136,5587.811-5608.29,5587.8-5608.671Zm-2.353-3.371a.577.577,0,0,1,.57.576.566.566,0,0,1-.561.555.556.556,0,0,1-.564-.545A.566.566,0,0,1,5585.447-5612.042Zm-1.41,3.067a1.4,1.4,0,0,1,1.29-1.1,1.494,1.494,0,0,1,1.567,1.1Z" transform="translate(-52.896 -166.307)" fill="#fff"/>
    <path id="Path_133" data-name="Path 133" d="M5587.112-5689.087a6.535,6.535,0,0,0-.514-.423c.383-.883.277-1.521-.323-1.962a1.392,1.392,0,0,0-1.723.059,1.434,1.434,0,0,0-.229,1.916c-.076.05-.143.09-.205.135a2.336,2.336,0,0,0-1.02,1.828c-.022.328.126.515.433.518q1.925.011,3.851,0a.393.393,0,0,0,.419-.449A2.247,2.247,0,0,0,5587.112-5689.087Zm-1.674-1.827a.57.57,0,0,1,.579.565.575.575,0,0,1-.578.567.564.564,0,0,1-.547-.567A.561.561,0,0,1,5585.438-5690.914Zm-1.411,3.058a1.43,1.43,0,0,1,1.289-1.091,1.5,1.5,0,0,1,1.582,1.091Z" transform="translate(-52.897 -92.874)" fill="#fff"/>
    <path id="Path_134" data-name="Path 134" d="M5663.435-5646.377c.01-.253.2-.4.531-.4h5.741c.328,0,.512.151.512.413s-.186.414-.512.414c-.965,0-1.931,0-2.9,0h-2.844C5663.629-5645.95,5663.425-5646.116,5663.435-5646.377Z" transform="translate(-127.692 -134.738)" fill="#fff"/>
    <path id="Path_135" data-name="Path 135" d="M5663.436-5600.812a.411.411,0,0,1,.454-.394c.982,0,1.965,0,2.948,0,.965,0,1.93,0,2.9,0a.443.443,0,0,1,.451.235.4.4,0,0,1-.25.562,1.106,1.106,0,0,1-.306.031q-2.793,0-5.585,0c-.06,0-.121,0-.181,0A.428.428,0,0,1,5663.436-5600.812Z" transform="translate(-127.693 -177.162)" fill="#fff"/>
    <path id="Path_136" data-name="Path 136" d="M5669.979-5489.036a.374.374,0,0,1,.29.431.374.374,0,0,1-.344.36,1.9,1.9,0,0,1-.258.009h-5.559a1.615,1.615,0,0,1-.284-.013.378.378,0,0,1-.33-.376.37.37,0,0,1,.263-.4.968.968,0,0,1,.305-.038q2.818,0,5.636,0A1.072,1.072,0,0,1,5669.979-5489.036Z" transform="translate(-127.747 -281.57)" fill="#fff"/>
    <path id="Path_137" data-name="Path 137" d="M5663.437-5567.518c-.008-.26.2-.426.533-.426q2.87,0,5.74,0c.347,0,.541.185.507.469-.027.23-.193.356-.485.357q-1.449,0-2.9,0t-2.871,0C5663.634-5567.118,5663.444-5567.264,5663.437-5567.518Z" transform="translate(-127.695 -208.131)" fill="#fff"/>
    <path id="Path_138" data-name="Path 138" d="M5670.679-5521.914c0,.259-.189.411-.518.411q-2.87,0-5.74,0c-.2,0-.4-.037-.469-.241a.527.527,0,0,1,.051-.424.576.576,0,0,1,.4-.157c.965-.013,1.93-.007,2.9-.007q1.422,0,2.844,0C5670.5-5522.329,5670.683-5522.182,5670.679-5521.914Z" transform="translate(-128.153 -250.598)" fill="#fff"/>
    <path id="Path_139" data-name="Path 139" d="M5663.505-5679.743a.374.374,0,0,1,.3-.4,1.293,1.293,0,0,1,.308-.026q2.792,0,5.584,0h.025c.377,0,.565.142.566.415s-.186.412-.565.412q-1.422,0-2.844,0h-2.766a1.568,1.568,0,0,1-.284-.017A.373.373,0,0,1,5663.505-5679.743Z" transform="translate(-127.758 -103.647)" fill="#fff"/>
    <path id="Path_142" data-name="Path 142" d="M5567.232-5736.046q0,9.983,0,19.97c0,.441-.129.565-.574.565h-16.5c-.444,0-.572-.124-.572-.567q0-9.986,0-19.971c0-.435.136-.564.579-.565h3.534v.843h-3.266v19.421h15.953v-19.414h-3.255v-.85h3.526C5567.1-5736.613,5567.232-5736.482,5567.232-5736.046Z" transform="translate(-21.695 -51.099)" fill="#fff"/>
    <g id="Group_237" data-name="Group 237" transform="translate(5531.845 -5791.5)">
      <path id="Path_143" data-name="Path 143" d="M5616.657-5789.442c-.027-.453-.137-.558-.583-.559-.613,0-1.225-.006-1.836,0a.288.288,0,0,1-.314-.19,2.178,2.178,0,0,0-1.057-1.057c-.223-.1-.464-.171-.7-.255h-.724a.239.239,0,0,1-.063.041,2.375,2.375,0,0,0-1.724,1.313.335.335,0,0,1-.254.138c-.655.012-1.311,0-1.966.008a.414.414,0,0,0-.473.4c-.011.084-.011.169-.019.284h-.007v.828h.01v.772h0v.869c0,.08.006.149.012.218a.431.431,0,0,0,.467.445c.077,0,.155,0,.233,0h8.251c.625,0,.688-.046.76-.655V-5788h0v-1.319C5616.667-5789.378,5616.659-5789.41,5616.657-5789.442Zm-.84,2.413h-8.007v-2.129c.076,0,.158-.014.24-.015.577,0,1.155,0,1.732,0,.341,0,.439-.074.547-.393a1.541,1.541,0,0,1,1.488-1.105,1.535,1.535,0,0,1,1.467,1.1c.111.33.208.4.568.4h1.964Z" transform="translate(-5606.94 5791.5)" fill="#fff"/>
    </g>
  </g>
</svg>
