<svg xmlns="http://www.w3.org/2000/svg" width="26.931" height="26.948" viewBox="0 0 26.931 26.948">
  <g id="Group_233" data-name="Group 233" transform="translate(-5286.167 4878)">
    <path id="Path_125" data-name="Path 125" d="M5296.662-4683.4c-2.535,0-5.071.006-7.607,0a2.826,2.826,0,0,1-2.871-3.053,6.427,6.427,0,0,1,.679-2.066,12.211,12.211,0,0,1,9.778-7.086,12.3,12.3,0,0,1,8.237,1.761.963.963,0,0,1,.441,1.237.953.953,0,0,1-1.115.547,1.723,1.723,0,0,1-.432-.2,10.707,10.707,0,0,0-13.508,2.025,10.307,10.307,0,0,0-2.116,3.636.947.947,0,0,0,.892,1.279c.1,0,.2,0,.3,0q7.443,0,14.885,0a1.851,1.851,0,0,1,.475.043.95.95,0,0,1,.7,1,.974.974,0,0,1-.886.875c-.11.009-.221,0-.331,0Z" transform="translate(0 -167.652)" fill="#fe0000"/>
    <path id="Path_126" data-name="Path 126" d="M5359.529-4878a6.732,6.732,0,0,1,6.728,6.823,6.741,6.741,0,0,1-6.722,6.65,6.75,6.75,0,0,1-6.748-6.78A6.747,6.747,0,0,1,5359.529-4878Zm4.8,6.766a4.81,4.81,0,0,0-4.794-4.84,4.823,4.823,0,0,0-4.827,4.782,4.82,4.82,0,0,0,4.768,4.839A4.809,4.809,0,0,0,5364.333-4871.235Z" transform="translate(-61.277 0)" fill="#2e7dba"/>
    <path id="Path_127" data-name="Path 127" d="M5507.786-4656.217c0,.989,0,1.931,0,2.873a.947.947,0,0,1-.674.928.906.906,0,0,1-1.057-.359,1.286,1.286,0,0,1-.184-.616c-.02-.831-.008-1.663-.008-2.494v-.331h-.521c-.772,0-1.543,0-2.315,0a.966.966,0,0,1-1.012-.963.962.962,0,0,1,1.015-.959c.931,0,1.861,0,2.819,0,.005-.111.013-.207.013-.3,0-.8,0-1.6,0-2.4,0-.7.368-1.138.954-1.142s.97.441.97,1.157v2.692h.324c.822,0,1.643,0,2.465,0a.975.975,0,0,1,1.059.947.973.973,0,0,1-1.059.977c-.822,0-1.643,0-2.465,0Z" transform="translate(-198.536 -198.686)" fill="#ffab00"/>
  </g>
</svg>
