<svg xmlns="http://www.w3.org/2000/svg" width="26.381" height="26.948" viewBox="0 0 26.381 26.948">
  <g id="Group_228" data-name="Group 228" transform="translate(-5502.253 5366.311)">
    <path id="Path_119" data-name="Path 119" d="M5505.955-5345.967a11.781,11.781,0,0,1,.495-15.521,11.748,11.748,0,0,1,15.689-1.512c4.805,3.51,5.663,9.875,3.784,14.331a10.175,10.175,0,0,1,.82.626,14.117,14.117,0,0,0,.991-8.071,12.845,12.845,0,0,0-14.136-10.105,12.353,12.353,0,0,0-8.074,4.241,12.33,12.33,0,0,0-3.007,10.947,12.436,12.436,0,0,0,7.768,9.49,13.755,13.755,0,0,0,9.586.1,5.865,5.865,0,0,1-.633-.917A12.21,12.21,0,0,1,5505.955-5345.967Z" transform="translate(0)" fill="#fe0000"/>
    <path id="Path_120" data-name="Path 120" d="M5554.451-5205.981c-5.12,2.189-11.545-.742-12.667-6.263a9.1,9.1,0,0,1-.129-2.772.524.524,0,0,0-.252-.562.509.509,0,0,0-.759.437,9.64,9.64,0,0,0,1.285,6.089,9.768,9.768,0,0,0,7.5,4.906,11.14,11.14,0,0,0,4.819-.634c0-.007.135-.618.136-.625C5554.491-5205.826,5554.381-5205.622,5554.451-5205.981Z" transform="translate(-35.461 -139.389)" fill="#2e7dba"/>
    <path id="Path_121" data-name="Path 121" d="M5609.971-5326.808a9.86,9.86,0,0,0-8.056.939.518.518,0,0,0-.3.584.436.436,0,0,0,.409.385.842.842,0,0,0,.441-.117,8.56,8.56,0,0,1,3.2-1.126,8.74,8.74,0,0,1,8.107,3.025,8.607,8.607,0,0,1,2.147,6.254,10.882,10.882,0,0,1-1.129,3.913c.2-.025.546-.119.749-.123a4.662,4.662,0,0,1,.518.026c.2-.629.533-1.6.681-2.257A9.952,9.952,0,0,0,5609.971-5326.808Z" transform="translate(-91.917 -36.122)" fill="#2e7dba"/>
    <path id="Path_122" data-name="Path 122" d="M5621.357-5269.522c0,.859.011,1.718-.009,2.576a.817.817,0,0,1-.2.512c-1.208,1.232-2.433,2.449-3.656,3.667a.5.5,0,0,1-.747.068.508.508,0,0,1,.028-.784q1.075-1.082,2.155-2.157c.41-.408.814-.822,1.229-1.224a.553.553,0,0,0,.184-.436c-.007-1.568,0-3.137,0-4.705,0-.482.162-.71.5-.713s.518.226.518.725Z" transform="translate(-105.766 -86.589)" fill="#2e7dba"/>
    <path id="Path_123" data-name="Path 123" d="M5558.28-5281.031c-.458,0-.74-.4-.541-.721.338-.539.721-1.052,1.11-1.556a.474.474,0,0,1,.665-.043.487.487,0,0,1,.1.681c-.333.481-.67.961-1.025,1.427A1.02,1.02,0,0,1,5558.28-5281.031Z" transform="translate(-51.274 -76.645)" fill="#2e7dba"/>
    <g id="Group_227" data-name="Group 227" transform="translate(5518.789 -5349.222)">
      <path id="Path_116" data-name="Path 116" d="M5766.33-5095.312a2.223,2.223,0,0,1-.259.183c.406.4.772.744,1.105,1.114a.685.685,0,0,1,.189.48.566.566,0,0,1-.32.389.646.646,0,0,1-.52-.113c-.335-.281-.629-.61-.939-.919-.061-.061-.125-.118-.213-.2-.375.382-.732.754-1.1,1.119a.485.485,0,0,1-.625.091.453.453,0,0,1-.237-.535.773.773,0,0,1,.2-.328c.34-.354.693-.694,1.07-1.069-.371-.366-.724-.708-1.07-1.055a.523.523,0,0,1-.068-.786.525.525,0,0,1,.787.068c.347.347.687.7,1.051,1.075.367-.369.707-.721,1.059-1.061a.808.808,0,0,1,.323-.209.455.455,0,0,1,.544.215.477.477,0,0,1-.069.625C5766.941-5095.915,5766.637-5095.613,5766.33-5095.312Z" transform="translate(-5760.393 5100.143)" fill="#ffab00"/>
      <path id="Path_117" data-name="Path 117" d="M5732.754-5134.739a5,5,0,0,0-1.5-2.036,7.013,7.013,0,0,0-.864-.619l-1.786-.482a2.3,2.3,0,0,0-.45-.045,6.415,6.415,0,0,0-.96.181,4.886,4.886,0,0,0-3.7,3.474c-.023.074-.256,1.387-.241,1.38.13.616.257,1.225.387,1.842-.026.011.627.975.725,1.1a4.792,4.792,0,0,0,2.708,1.745c.221.054.445.092.667.138h1a.816.816,0,0,1,.144-.049A4.892,4.892,0,0,0,5732.754-5134.739Zm-4.562,5.66a3.89,3.89,0,0,1-3.865-3.873,3.891,3.891,0,0,1,3.886-3.877,3.879,3.879,0,0,1,3.86,3.872A3.88,3.88,0,0,1,5728.192-5129.08Z" transform="translate(-5723.25 5137.921)" fill="#ffab00"/>
      <path id="Path_118" data-name="Path 118" d="M5767.176-5094.015a.685.685,0,0,1,.189.48.566.566,0,0,1-.32.389.646.646,0,0,1-.52-.113c-.335-.281-.629-.61-.939-.919-.061-.061-.125-.118-.213-.2-.375.382-.732.754-1.1,1.119a.485.485,0,0,1-.625.091.453.453,0,0,1-.237-.535.773.773,0,0,1,.2-.328c.34-.354.693-.694,1.07-1.069-.371-.366-.724-.708-1.07-1.055a.523.523,0,0,1-.068-.786.525.525,0,0,1,.787.068c.347.347.687.7,1.051,1.075.367-.369.707-.721,1.059-1.061a.808.808,0,0,1,.323-.209.455.455,0,0,1,.544.215.477.477,0,0,1-.069.625c-.3.311-.6.612-.909.914a2.223,2.223,0,0,1-.259.183C5766.477-5094.726,5766.843-5094.385,5767.176-5094.015Z" transform="translate(-5760.393 5100.143)" fill="#ffab00"/>
    </g>
    <path id="Path_124" data-name="Path 124" d="M5767.176-5094.015a.685.685,0,0,1,.189.48.566.566,0,0,1-.32.389.646.646,0,0,1-.52-.113c-.335-.281-.629-.61-.939-.919-.061-.061-.125-.118-.213-.2-.375.382-.732.754-1.1,1.119a.485.485,0,0,1-.625.091.453.453,0,0,1-.237-.535.773.773,0,0,1,.2-.328c.34-.354.693-.694,1.07-1.069-.371-.366-.724-.708-1.07-1.055a.523.523,0,0,1-.068-.786.525.525,0,0,1,.787.068c.347.347.687.7,1.051,1.075.367-.369.707-.721,1.059-1.061a.808.808,0,0,1,.323-.209.455.455,0,0,1,.544.215.477.477,0,0,1-.069.625c-.3.311-.6.612-.909.914a2.223,2.223,0,0,1-.259.183C5766.477-5094.726,5766.843-5094.385,5767.176-5094.015Z" transform="translate(-241.604 -249.079)" fill="#ffab00"/>
  </g>
</svg>
