<svg id="Layer_1" data-name="Layer 1" xmlns="http://www.w3.org/2000/svg" viewBox="0 0 64 64"><defs><style>.cls-1{fill:#2e7dba;}.cls-2{fill:#fe0000;}.cls-3{fill:#ffab00;}</style></defs><title>ICONS Third file</title><path class="cls-1" d="M4.17,4.15h2v2h-2Z"/><path class="cls-1" d="M57.84,6.16v-2h2v2Z"/><path class="cls-1" d="M6.16,24.8v2h-2v-2Z"/><path class="cls-1" d="M59.83,26.83h-2v-2h2Z"/><path class="cls-2" d="M59.18,42.4l-6.06,6.05,6.13,6.12-4.57,4.57-6.06-6.07-6.14,6.16-4.57-4.57,6.06-6-6.19-6.18,4.62-4.57,6,6.06,6.16-6.18ZM42.34,56.34l6.18-6.19,6.09,6.1,1.76-1.68-6.17-6.15,6.06-6.05-1.64-1.64-6.16,6.16-6.05-6.07L40.66,42.4l6.27,6.25-6.13,6.08Z"/><path class="cls-1" d="M33,8.29c0,.56,0,1.1,0,1.63a.75.75,0,0,0,.47.82A3,3,0,0,1,35.1,13.4c-.63,0-1.22,0-1.82,0-.1,0-.23-.14-.29-.24-.34-.63-.76-.88-1.27-.72A1,1,0,0,0,31,13.52c0,.55.42.86,1.13.94A3.06,3.06,0,0,1,35,16.94a3,3,0,0,1-1.57,3.3A.71.71,0,0,0,33,21c0,.54,0,1.08,0,1.7H31c0-.63,0-1.21,0-1.78a1,1,0,0,0-.39-.65A3,3,0,0,1,29,17.54c.57,0,1.15,0,1.73,0,.11,0,.25.16.32.29.31.6.7.84,1.24.69A1,1,0,0,0,33,17.47c0-.56-.43-.9-1.1-1A3.07,3.07,0,0,1,29,14a3,3,0,0,1,1.55-3.25A.75.75,0,0,0,31,9.92c0-.53,0-1.07,0-1.63Z"/><path class="cls-3" d="M24.79,33.05V31.7h0V20.58c0-.52,0-1,0-1.56a3.74,3.74,0,0,0-1.54-2.62,4.13,4.13,0,0,0-2.92-.91,7.12,7.12,0,0,0-.87.2,4.11,4.11,0,0,0-2.87,3.91c0,1.5,0,3,0,4.5,0,.2,0,.4,0,.67v2h2.08c0-.27,0-.52,0-.76,0-2.17,0-4.33,0-6.5a2,2,0,0,1,3.94-.71A3.53,3.53,0,0,1,22.71,20q0,7.16,0,14.31v.81A5.61,5.61,0,0,1,27,36.27a5.22,5.22,0,0,1,1.9,3.95h2C31.25,37.14,28.88,34.37,24.79,33.05Z"/><path class="cls-1" d="M56.66,7.36a3.9,3.9,0,0,1-.91-3.2H8.27a4,4,0,0,1-.91,3.18,3.77,3.77,0,0,1-3.2.9V22.72a3.89,3.89,0,0,1,3.21.92,3.94,3.94,0,0,1,.89,3.17h7.47V24.76c-1.36,0-2.7,0-4,0-1,0-1.57-.1-1.94-1.19a4.4,4.4,0,0,0-3-2.69c-.4-.13-.57-.27-.56-.72q0-4.72,0-9.44c0-.4.13-.56.52-.69a5,5,0,0,0,3.38-3.4c.11-.33.22-.48.59-.48H25a1.65,1.65,0,0,1,.25,0c-3.62,3.72-3.93,4.22-4.63,8.69.69.11,1.48.27,2.06.39a9.28,9.28,0,1,1,8.33,9.4,8.93,8.93,0,0,1-5.84-2.95v2.81a11.41,11.41,0,0,0,7,2.26H55.13l.61,0a4,4,0,0,1,.91-3.21,3.85,3.85,0,0,1,3.17-.89V8.27A4,4,0,0,1,56.66,7.36Zm.69,13.52a5.16,5.16,0,0,0-3.48,3.47.68.68,0,0,1-.48.4c-4.85,0-9.7,0-14.55,0,0,0-.07,0-.16-.08a11.42,11.42,0,0,0,0-18.41,4.21,4.21,0,0,1,.5-.07H53.23a.6.6,0,0,1,.69.51,5,5,0,0,0,3.39,3.38c.36.12.49.26.49.64q0,4.78,0,9.56C57.81,20.64,57.68,20.77,57.35,20.88Z"/><path class="cls-2" d="M63.75,45.79c-.06-.31-.12-.61-.19-.91h0a15.46,15.46,0,0,0-15.81-11.8h-.11a15.46,15.46,0,0,0-3.15.5C38,35.61,34.27,40,33.13,46.72A15.62,15.62,0,0,0,33,48.5c0,.37,0,.74.06,1.1h0a15.89,15.89,0,0,0,1.74,6.11h0a15.5,15.5,0,0,0,1.58,2.41,2,2,0,0,1,.19.19,18.77,18.77,0,0,0,3.66,3.27A15.4,15.4,0,0,0,48.51,64c.51,0,1,0,1.52-.08h.13l.24,0a18.17,18.17,0,0,0,4.37-1.2,15.53,15.53,0,0,0,7.75-7.58,19.1,19.1,0,0,0,1.23-3.85,14.73,14.73,0,0,0,0-5.44ZM48.49,61.93A13.41,13.41,0,1,1,61.93,48.51,13.41,13.41,0,0,1,48.49,61.93Z"/><path class="cls-3" d="M33.73,55.71H20.65V49.6H32.1c0-.37-.06-.73-.06-1.1s0-.7.05-1H22.72c0-.62,0-1.23,0-1.82a2,2,0,0,0-.28-.92c-.81-1.26-1.64-2.51-2.49-3.75a7.58,7.58,0,0,1-1.36-4.46c0-2.29,0-4.58,0-6.87V28.9H16.51V31c0,.29,0,.53,0,.77,0,2,0,4,.1,6.05A8.32,8.32,0,0,0,18.16,42c.63,1,1.21,2,1.92,2.84a3.47,3.47,0,0,1,.52,2.64h-2V57.8h.79q7.76,0,15.51,0A16.47,16.47,0,0,1,33.73,55.71Z"/><path class="cls-1" d="M0,0V31H15.73V28.9H2.11V2.13H61.89V28.85H25.21V31h19v0h19.5L64,31V0Z"/><rect class="cls-3" x="16.51" y="25.65" width="2.08" height="4.49"/></svg>