<svg xmlns="http://www.w3.org/2000/svg" width="24.934" height="24.934" viewBox="0 0 24.934 24.934">
  <g id="Group_113" data-name="Group 113" transform="translate(-531.374 -382.645)">
    <rect id="Rectangle_90" data-name="Rectangle 90" width="24.934" height="24.934" rx="12.284" transform="translate(531.374 382.645)" fill="#e8e8e8" opacity="0.85"/>
    <g id="Group_93" data-name="Group 93">
      <path id="Path_712" data-name="Path 712" d="M537.906,395.1v-5.056a.8.8,0,0,1,.87-.866H548.9a.8.8,0,0,1,.876.873v10.125a.8.8,0,0,1-.877.873H538.775a.8.8,0,0,1-.869-.868Zm11.071,5.152v-7.9H538.7v7.9ZM538.7,391.543h10.272v-1.568H538.7Z" fill="#fe0000"/>
      <path id="Path_713" data-name="Path 713" d="M547.007,395.809c.15-.3.286-.577.425-.851a.4.4,0,0,1,.434-.236.39.39,0,0,1,.326.382q0,1.2,0,2.4a.389.389,0,0,1-.394.379.394.394,0,0,1-.393-.382c-.005-.217,0-.435,0-.689a.438.438,0,0,1-.4.26.462.462,0,0,1-.393-.226c0,.2,0,.4,0,.6a.4.4,0,1,1-.791,0q0-1.143,0-2.287a.4.4,0,0,1,.769-.184C546.725,395.243,546.858,395.512,547.007,395.809Z" fill="#2e7dba"/>
      <path id="Path_714" data-name="Path 714" d="M545.424,396.3c0,.259,0,.519,0,.778a.791.791,0,0,1-.808.8q-.383,0-.766,0a.789.789,0,0,1-.8-.8q0-.785,0-1.569a.787.787,0,0,1,.8-.8c.26,0,.519,0,.779,0a.788.788,0,0,1,.793.792C545.427,395.773,545.424,396.036,545.424,396.3Zm-.8.785v-1.567h-.776v1.567Z" fill="#2e7dba"/>
      <path id="Path_715" data-name="Path 715" d="M541.472,395.508v1.583c.267,0,.529,0,.791,0a.392.392,0,0,1,.362.54.371.371,0,0,1-.352.248c-.284.006-.569.009-.852,0a.778.778,0,0,1-.742-.753q-.014-.828,0-1.655a.779.779,0,0,1,.756-.752c.276-.008.552-.005.828,0a.395.395,0,0,1,0,.789C542,395.511,541.743,395.508,541.472,395.508Z" fill="#2e7dba"/>
      <path id="Path_716" data-name="Path 716" d="M540.28,397.49a.4.4,0,1,1-.389-.4A.4.4,0,0,1,540.28,397.49Z" fill="#2e7dba"/>
      <path id="Path_717" data-name="Path 717" d="M545.414,391.155a.4.4,0,1,1,.4-.382A.4.4,0,0,1,545.414,391.155Z" fill="#ffab00"/>
      <path id="Path_718" data-name="Path 718" d="M546.613,391.155a.4.4,0,1,1,.393-.394A.4.4,0,0,1,546.613,391.155Z" fill="#ffab00"/>
      <path id="Path_719" data-name="Path 719" d="M548.193,390.758a.4.4,0,1,1-.394-.394A.4.4,0,0,1,548.193,390.758Z" fill="#ffab00"/>
    </g>
  </g>
</svg>
