<svg xmlns="http://www.w3.org/2000/svg" viewBox="0 0 13.967 18.224">
  <g id="Group_1876" data-name="Group 1876" transform="translate(-10718.076 -7677.606)">
    <path id="Path_5153" data-name="Path 5153" d="M10727.388,7685.848c-.062,0-.127,0-.192,0V7684.2c.308.036.481-.04.554-.236s0-.365-.247-.542q-1.037-.746-2.072-1.489c-.321-.231-.405-.231-.722,0q-.571.409-1.14.82c-.349.25-.7.5-1.043.751a.388.388,0,0,0-.133.491.4.4,0,0,0,.443.217l.091-.013v1.652c-.084,0-.149,0-.215,0a.377.377,0,0,0-.352.4c0,.241.169.386.454.386q2.254,0,4.511,0a.7.7,0,0,0,.078,0,.394.394,0,0,0,.368-.413A.386.386,0,0,0,10727.388,7685.848Zm-1-.009h-2.635a1.208,1.208,0,0,1-.016-.136c0-.653,0-1.305,0-1.958a.3.3,0,0,1,.1-.212c.368-.276.744-.545,1.124-.806a.219.219,0,0,1,.2,0c.38.262.753.532,1.125.805a.217.217,0,0,1,.093.137C10726.391,7684.389,10726.39,7685.106,10726.39,7685.839Z" fill="#ffab00"/>
    <path id="Path_5154" data-name="Path 5154" d="M10725.135,7679.45a5.146,5.146,0,0,0-.07,10.291,5.146,5.146,0,0,0,.07-10.291Zm-.1,9.5a4.351,4.351,0,0,1,0-8.7,4.351,4.351,0,1,1,0,8.7Z" fill="#2e7dba"/>
    <path id="Path_5155" data-name="Path 5155" d="M10731.964,7683.5a6.99,6.99,0,0,0-8-5.795,6.824,6.824,0,0,0-5.174,3.847,6.392,6.392,0,0,0-.609,4.057,9.854,9.854,0,0,0,1.2,3.12,29.27,29.27,0,0,0,3.236,4.492l1.213,1.411,0,0c.3.325.582.657.872.986.249.282.474.281.726,0,.307-.347.617-.688.912-1.044.015-.018.029-.034.044-.049l1.131-1.3c.424-.52.842-1.029,1.244-1.549a20.078,20.078,0,0,0,2.582-4.134A7.046,7.046,0,0,0,10731.964,7683.5Zm-1.224,3.441a15.7,15.7,0,0,1-2.288,3.824c-1.075,1.352-2.208,2.658-3.315,3.985-.017.02-.028.044-.062.094-.337-.384-.647-.734-.953-1.086a39.588,39.588,0,0,1-3.459-4.424,10.685,10.685,0,0,1-1.61-3.438,5.8,5.8,0,0,1,2.155-6.121,6.176,6.176,0,0,1,9.942,3.663A6.037,6.037,0,0,1,10730.74,7686.939Z" fill="#fe0000"/>
  </g>
</svg>
