<svg xmlns="http://www.w3.org/2000/svg"  viewBox="0 0 15.963 16.151">
  <g id="Group_1872" data-name="Group 1872" transform="translate(-10244.876 -7742.151)">
    <path id="Path_5138" data-name="Path 5138" d="M10246.965,7756.023h0a.57.57,0,0,0,.571-.57v-11.832c0-.283.048-.33.329-.33h9.981c.285,0,.333.047.333.326v11.836a.57.57,0,0,0,.571.57h0a.57.57,0,0,0,.57-.57q0-5.924,0-11.847a1.392,1.392,0,0,0-.528-1.175,1.325,1.325,0,0,0-.835-.278q-5.1,0-10.2,0a1.332,1.332,0,0,0-1.36,1.405c0,1.256,0,2.512,0,3.768v8.126A.571.571,0,0,0,10246.965,7756.023Z" fill="#fe0000"/>
    <path id="Path_5139" data-name="Path 5139" d="M10260.827,7757.623a.56.56,0,0,0-.533-.456h-4.4c0-.868,0-2.446,0-2.943a.589.589,0,0,0-.677-.673h-4.9c-.473,0-.685.212-.685.684v2.932h-4.16l-.048,0a.564.564,0,0,0-.366.971,1.443,1.443,0,0,0,.264.163h15.078l.124-.062A.572.572,0,0,0,10260.827,7757.623Zm-10.044-2.917h3.966v2.46h-3.966Z" fill="#ffab00"/>
    <path id="Path_5140" data-name="Path 5140" d="M10256.846,7745.038a.566.566,0,0,0-.615-.607q-1.09-.008-2.177,0a.578.578,0,0,0-.627.631c0,.357,0,.715,0,1.072s0,.725,0,1.088a.58.58,0,0,0,.626.632q1.09.006,2.176,0a.568.568,0,0,0,.617-.608Q10256.856,7746.142,10256.846,7745.038Zm-1.153,1.666h-1.117v-1.118h1.117Z" fill="#2e7dba"/>
    <path id="Path_5141" data-name="Path 5141" d="M10252.1,7745.07a.583.583,0,0,0-.635-.64q-1.08-.005-2.16,0a.571.571,0,0,0-.625.616q-.01,1.1,0,2.191a.572.572,0,0,0,.625.617q1.081.006,2.16,0a.582.582,0,0,0,.635-.64c0-.357,0-.715,0-1.072S10252.1,7745.427,10252.1,7745.07Zm-1.148,1.628h-1.116v-1.118h1.116Z" fill="#2e7dba"/>
    <path id="Path_5142" data-name="Path 5142" d="M10252.1,7749.6a.567.567,0,0,0-.61-.61c-.731,0-1.461,0-2.192,0a.565.565,0,0,0-.616.6q-.01,1.1,0,2.207a.564.564,0,0,0,.619.6c.362,0,.726,0,1.087,0s.736,0,1.1,0a.567.567,0,0,0,.609-.611C10252.1,7751.066,10252.1,7750.335,10252.1,7749.6Zm-1.148,1.656h-1.121v-1.122h1.121Z" fill="#2e7dba"/>
    <path id="Path_5143" data-name="Path 5143" d="M10256.846,7749.6a.562.562,0,0,0-.618-.6q-1.088,0-2.176,0a.575.575,0,0,0-.625.63q0,1.08,0,2.16a.574.574,0,0,0,.628.625c.358,0,.715,0,1.072,0s.736,0,1.1,0a.562.562,0,0,0,.614-.6Q10256.856,7750.7,10256.846,7749.6Zm-1.151,1.665h-1.12v-1.117h1.12Z" fill="#2e7dba"/>
  </g>
</svg>
