<svg xmlns="http://www.w3.org/2000/svg" viewBox="0 0 17.406 17.408">
  <g id="Group_1879" data-name="Group 1879" transform="translate(-10716.356 -7809.659)">
    <path id="Path_5160" data-name="Path 5160" d="M10733.763,7817.819v1.088c-.009.044-.021.087-.027.131-.06.4-.1.81-.18,1.208a8.7,8.7,0,0,1-6.979,6.687c-.323.052-.648.089-.974.134h-1.088a1.1,1.1,0,0,0-.112-.027c-.4-.058-.8-.1-1.191-.175a8.7,8.7,0,0,1-6.719-6.968c-.053-.329-.091-.66-.136-.99v-1.088c.055-.386.1-.774.168-1.156a8.7,8.7,0,0,1,7.019-6.87c.322-.053.648-.09.972-.134h1.088c.045.01.088.021.132.028.446.07.9.111,1.34.211a8.689,8.689,0,0,1,6.557,6.965C10733.684,7817.18,10733.72,7817.5,10733.763,7817.819Zm-8.7,7.888a7.344,7.344,0,1,0-7.351-7.333A7.357,7.357,0,0,0,10725.066,7825.707Z" fill="#ec2329"/>
    <path id="Path_5161" data-name="Path 5161" d="M10724.448,7822.963c-.07-.146-.145-.291-.211-.438a1.982,1.982,0,0,1-.047-1.6,9.07,9.07,0,0,0,.307-.967c.059-.233.017-.311-.22-.376a3.292,3.292,0,0,0-.767-.12c-.577-.018-1.155.006-1.732-.011a3.649,3.649,0,0,1-.872-.112,1.7,1.7,0,0,1-.9-2.747,3.88,3.88,0,0,1,1.127-.915c.268-.161.534-.321.8-.486a2.023,2.023,0,0,0,.244-.184c.312-.266.313-.451-.012-.711a2.212,2.212,0,0,0-.406-.244.686.686,0,0,1-.363-.853.659.659,0,0,1,.825-.415,2.236,2.236,0,0,1,1.464,1.387,1.523,1.523,0,0,1-.27,1.5,4.041,4.041,0,0,1-1.133.909c-.309.191-.621.374-.919.58a1.209,1.209,0,0,0-.321.343.315.315,0,0,0,.191.508,2.282,2.282,0,0,0,.567.079c.566.01,1.134-.016,1.7.01a4.734,4.734,0,0,1,1.12.159,1.587,1.587,0,0,1,1.2,2.02,4.865,4.865,0,0,1-.3.968.973.973,0,0,0,.05.919,4.739,4.739,0,0,1,.381.9,1.687,1.687,0,0,1,.034.686,1.007,1.007,0,0,1-1.3.913,1.927,1.927,0,0,1-1.076-.569,1.837,1.837,0,0,1-.219-.239,2.066,2.066,0,0,0-1.271-.839,7.722,7.722,0,0,1-.991-.348,1.555,1.555,0,0,1-.988-1.389,2.7,2.7,0,0,1,0-.407.685.685,0,0,1,.69-.639.678.678,0,0,1,.664.664c0,.507,0,.469.486.651.312.118.636.2.952.307a2.756,2.756,0,0,1,1.356.951c.044.058.093.112.14.168Z" fill="#f8981c"/>
    <g id="Group_1878" data-name="Group 1878">
      <path id="Path_5162" data-name="Path 5162" d="M10729.928,7816.882l-1.467-.167a1.847,1.847,0,0,0-.22-.016.689.689,0,0,0-.717.907.347.347,0,0,0,.408.314c.227-.008.454-.039.679-.025a1.678,1.678,0,0,1,1.015.466,2.569,2.569,0,0,1,.834,1.35,1.186,1.186,0,0,0,.285.567.658.658,0,0,1-.035.909.671.671,0,0,1-.911.047,1.912,1.912,0,0,1-.622-1.067,1.535,1.535,0,0,0-.393-.738.568.568,0,0,0-.537-.172,1.734,1.734,0,0,1-2.1-1.708,2.049,2.049,0,0,1,2.406-2.194c.516.069,1.035.109,1.555.15a.692.692,0,0,1,.66.687.683.683,0,0,1-.672.674c-.057,0-.112,0-.17,0Z" fill="#25aae1"/>
      <path id="Path_5163" data-name="Path 5163" d="M10727.072,7813.049c.374-.054.734-.127,1.1-.153a.67.67,0,0,1,.73.66.681.681,0,0,1-.7.693,2.491,2.491,0,0,0-1.036.287,1.061,1.061,0,0,1-1.535-.751,1.9,1.9,0,0,1,.2-1.151.633.633,0,0,1,.728-.3.67.67,0,0,1,.518.619C10727.074,7812.988,10727.072,7813.027,10727.072,7813.049Z" fill="#25aae1"/>
    </g>
  </g>
</svg>
