<svg xmlns="http://www.w3.org/2000/svg"  viewBox="0 0 26.168 26.193">
  <g id="Group_1859" data-name="Group 1859" transform="translate(-10976.323 -7425.296)">
    <path id="Path_5109" data-name="Path 5109" d="M11001.5,7446.377a1,1,0,0,0-1.045,1,2.048,2.048,0,0,1-2.04,2.065q-4.96,0-9.922,0c-.428,0-2.418-.195-2.128-2.087-.566,0-1.046,0-1.613,0-.289,0-.246,0-.535,0,.085,3.827,2.645,4.127,4.25,4.131q4.986.012,9.974,0a4.076,4.076,0,0,0,4.046-4.014A1.031,1.031,0,0,0,11001.5,7446.377Z" fill="#2e7dba"/>
    <path id="Path_5110" data-name="Path 5110" d="M11002.488,7433.626a4.069,4.069,0,0,0-3.236-4.1,4.313,4.313,0,0,0-.887-.086c-.793,0-4.315-.006-5.108,0,0,.2,0,.4,0,.6q0,.724,0,1.447h5.03a2.039,2.039,0,0,1,2.161,2.165q.006,4.231,0,8.464a2.212,2.212,0,0,0,.026.433,1.018,1.018,0,0,0,1.985-.041,1.97,1.97,0,0,0,.026-.356Q11002.491,7437.884,11002.488,7433.626Z" fill="#2e7dba"/>
    <path id="Path_5111" data-name="Path 5111" d="M10997.3,7443.176a1.626,1.626,0,0,0-.478-.06c-.482,0-3.011,0-3.493-.005q0,1.022,0,2.043c.542,0,3.13,0,3.672-.006a.985.985,0,0,0,.977-.871A1,1,0,0,0,10997.3,7443.176Z" fill="#ffab00"/>
    <path id="Path_5112" data-name="Path 5112" d="M10996.88,7436.99a1.021,1.021,0,0,0,1.085-1.222.994.994,0,0,0-1-.815c-.537,0-3.12,0-3.656,0,.01.11.014.22.015.327q0,.858,0,1.717C10993.828,7436.994,10996.377,7436.994,10996.88,7436.99Z" fill="#ffab00"/>
    <path id="Path_5113" data-name="Path 5113" d="M10996.917,7439.035c-.515,0-3.076,0-3.591,0v2.043c.517,0,3.082,0,3.6-.006a1.018,1.018,0,1,0-.008-2.034Z" fill="#ffab00"/>
    <g id="Group_1858" data-name="Group 1858">
      <path id="Path_5114" data-name="Path 5114" d="M10993.788,7428.41a4.069,4.069,0,0,0-3.36-3.067.9.9,0,0,1-.141-.047h-10.332a8.2,8.2,0,0,0-.854.227,4.024,4.024,0,0,0-2.735,3.514c-.009.084-.028.166-.042.249v14.066c.051.31.08.625.154.929a4.05,4.05,0,0,0,3.851,3.062c.549.007,1.1.008,1.647.008h.006l1.8,0h4.768q.606,0,1.211,0a4.013,4.013,0,0,0,3.585-2.022.33.33,0,0,1,.328-.173h.253q0-2.8,0-5.591v-.526h0v-.72q0-1.62,0-3.239c0-.064,0-.126.006-.188v-3.41h.009c0-.658,0-1.314,0-1.972v-.124C10993.892,7429.042,10993.864,7428.72,10993.788,7428.41Zm-1.919,14.789a2.024,2.024,0,0,1-1.688,2.069,6.355,6.355,0,0,1-1.045.036q-4.308,0-8.616,0a2.025,2.025,0,0,1-2.132-2.114q-.009-6.864,0-13.729a2.033,2.033,0,0,1,2.13-2.12q4.614,0,9.229,0a2.038,2.038,0,0,1,2.122,2.127q0,3.426,0,6.852T10991.869,7443.2Z" fill="#fe0000"/>
    </g>
    <path id="Path_5115" data-name="Path 5115" d="M10989.266,7432.7a1.462,1.462,0,0,1-.634.151c-1.167.014-2.333.007-3.5.007-1.192,0-2.385.006-3.578,0a1.022,1.022,0,0,1-1.037-1.282,1.01,1.01,0,0,1,1.025-.757c1.372,0,2.743,0,4.114,0,1.039,0,2.079,0,3.117,0a1.011,1.011,0,0,1,.492,1.881Z" fill="#ffab00"/>
    <path id="Path_5116" data-name="Path 5116" d="M10989.379,7436.7a1.373,1.373,0,0,1-.708.23c-2.368.016-4.736.014-7.1.008a1.022,1.022,0,1,1,.012-2.038c1.183,0,2.367,0,3.551,0,1.21,0,2.419,0,3.629,0a1,1,0,0,1,.953.68A.957.957,0,0,1,10989.379,7436.7Z" fill="#ffab00"/>
    <path id="Path_5117" data-name="Path 5117" d="M10984.938,7440.962a1.6,1.6,0,0,1-.452.057c-.478.007-.954,0-1.431,0v-.012c-.553,0-1.106.02-1.658-.006a.981.981,0,0,1-.911-.913,1.017,1.017,0,0,1,.707-1.06,1.167,1.167,0,0,1,.326-.046c1.03,0,2.06-.009,3.09,0a1.013,1.013,0,0,1,.329,1.977Z" fill="#ffab00"/>
  </g>
</svg>
