<svg xmlns="http://www.w3.org/2000/svg"  viewBox="0 0 26.827 26.824">
  <g id="Group_1816" data-name="Group 1816" transform="translate(-12098.881 -7849.668)">
    <path id="Path_4693" data-name="Path 4693" d="M12124.7,7865.738c0-.023,0-.047,0-.07q0-3.411,0-6.822a1.45,1.45,0,0,0-.021-.384l0-.013h0l0-.008a5.052,5.052,0,0,0-.1-.924,8.2,8.2,0,0,0-1.776-3.834,5.11,5.11,0,0,0-.783-.805q-.283-.256-.584-.492a8.374,8.374,0,0,0-1.947-1.122,7.916,7.916,0,0,0-3.07-.6q-4.071,0-8.142,0a9.275,9.275,0,0,0-1.226.08,8.167,8.167,0,0,0-3.254,1.172,6.835,6.835,0,0,0-1.23.949,8.161,8.161,0,0,0-2.314,3.649,7.107,7.107,0,0,0-.342,1.923,1.811,1.811,0,0,0-.026.476q0,3.333,0,6.666c0,.052,0,.1,0,.155,0,.386,0,.772-.006,1.159a9.067,9.067,0,0,0,.146,1.839,7.182,7.182,0,0,0,.509,1.668.992.992,0,0,0,.037.1,8.207,8.207,0,0,0,2.2,2.971,8.107,8.107,0,0,0,5.383,2.009c2.764.012,5.528,0,8.294,0a7.7,7.7,0,0,0,1.39-.122,8.244,8.244,0,0,0,5.228-3.23,7.22,7.22,0,0,0,.987-1.736,7.412,7.412,0,0,0,.51-1.668A15.387,15.387,0,0,0,12124.7,7865.738Z" fill="none" stroke="#fe0000" stroke-miterlimit="10" stroke-width="2"/>
    <g id="Group_1815" data-name="Group 1815">
      <path id="Path_4694" data-name="Path 4694" d="M12114.435,7865.932a1.164,1.164,0,0,1-.1.522.884.884,0,0,1-.8.473c-.066.005-.132.005-.2.005-1.47,0-2.938.008-4.409,0-.716,0-1.431,0-2.146-.035a2.252,2.252,0,0,1-1.82-.979l-.13-.184a.158.158,0,0,1-.015-.029,3.156,3.156,0,0,1-.276-1.507c0-.744.009-1.489-.014-2.232-.019-.622.015-1.242.016-1.863a.789.789,0,0,1,.8-.859,5.031,5.031,0,0,1,.521-.019c1.88,0,3.759-.01,5.639,0a3.634,3.634,0,0,1,1.562.23,2.164,2.164,0,0,1,1.318,1.742,11.837,11.837,0,0,1,.086,1.366S12114.44,7864.867,12114.435,7865.932Z" fill="none" stroke="#2e7dba" stroke-miterlimit="10" stroke-width="2"/>
      <path id="Path_4695" data-name="Path 4695" d="M12120.069,7864.241c-.039.676-.019,1.348-.025,2.025a.531.531,0,0,1-.58.577.663.663,0,0,1-.357-.154q-.573-.458-1.144-.918c-.04-.032-.537-.422-.721-.606a1.652,1.652,0,0,1-.5-1.218c0-.545.014-1.092,0-1.638a1.72,1.72,0,0,1,.69-1.455c.528-.433,1.049-.874,1.569-1.316a.652.652,0,0,1,.667-.193.5.5,0,0,1,.38.5c.008.386,0,.772,0,1.158q.01,1.533.023,3.064S12120.072,7864.188,12120.069,7864.241Z" fill="none" stroke="#f8981c" stroke-miterlimit="10" stroke-width="2"/>
    </g>
  </g>
</svg>
