<svg xmlns="http://www.w3.org/2000/svg" viewBox="0 0 26.818 26.817">
  <g id="Group_1808" data-name="Group 1808" transform="translate(-11642.779 -7849.673)">
    <path id="Path_4680" data-name="Path 4680" d="M11642.779,7855.493c.079-.4.132-.806.243-1.2a4.764,4.764,0,0,1,2.868-3.311c.911-.373,1.81-.778,2.729-1.127a2.685,2.685,0,0,1,3.3,1.139q1.289,2.153,2.511,4.346a2.748,2.748,0,0,1-.957,3.693,4.761,4.761,0,0,0-.432.294,1.633,1.633,0,0,0-.3,2.368,29.008,29.008,0,0,0,2.065,2.359c.823.826,1.7,1.6,2.6,2.348a1.691,1.691,0,0,0,2.746-.474,2.715,2.715,0,0,1,2.658-1.419,2.81,2.81,0,0,1,1.113.331q2.193,1.218,4.351,2.5a2.666,2.666,0,0,1,1.152,3.249c-.406,1.074-.866,2.13-1.342,3.175a4.62,4.62,0,0,1-3.207,2.5c-.359.1-.732.145-1.1.215h-1.2c-.387-.061-.774-.109-1.157-.186a15.384,15.384,0,0,1-4.76-1.9,33.488,33.488,0,0,1-11.458-11.223,16.333,16.333,0,0,1-2.131-4.891c-.125-.524-.193-1.06-.287-1.591Zm20.539,18.91a7.253,7.253,0,0,0,.863-.117,2.666,2.666,0,0,0,2.017-1.422c.436-.969.841-1.951,1.244-2.934a.627.627,0,0,0-.307-.826c-.3-.186-.618-.359-.928-.538q-1.585-.915-3.171-1.829a.7.7,0,0,0-1.086.263c-.07.111-.14.222-.215.328a3.754,3.754,0,0,1-5.4.9,26.937,26.937,0,0,1-5.328-5.336,3.617,3.617,0,0,1-.606-3.2,3.892,3.892,0,0,1,1.851-2.371.7.7,0,0,0,.281-1.081q-1.166-2.028-2.339-4.054a.662.662,0,0,0-.924-.343c-.9.369-1.8.761-2.7,1.132a2.576,2.576,0,0,0-1.446,1.6,5.234,5.234,0,0,0-.069,3.066,15.349,15.349,0,0,0,2.107,4.757,31.878,31.878,0,0,0,6.631,7.463,22.839,22.839,0,0,0,6.148,3.823A9.36,9.36,0,0,0,11663.318,7874.4Z" fill="#fe0000"/>
    <path id="Path_4681" data-name="Path 4681" d="M11660.632,7858.959c.239.23.483.453.714.69a1.047,1.047,0,1,1-1.475,1.484q-1.264-1.251-2.516-2.515a1.049,1.049,0,0,1,.763-1.827q4.093,0,8.187,0a1.045,1.045,0,0,1,1.116,1.031,1.057,1.057,0,0,1-1.119,1.061c-1.788.005-3.575,0-5.362,0h-.278Z" fill="#2e7dba"/>
    <path id="Path_4682" data-name="Path 4682" d="M11663.8,7852.81c-.244-.236-.494-.465-.73-.707a1.035,1.035,0,0,1-.037-1.5,1.047,1.047,0,0,1,1.518.026c.844.835,1.68,1.676,2.518,2.515a1.05,1.05,0,0,1-.769,1.825q-4.093,0-8.187,0a1.048,1.048,0,1,1,.011-2.092q2.682,0,5.363,0h.281Z" fill="#f8981c"/>
  </g>
</svg>
