<svg xmlns="http://www.w3.org/2000/svg"  viewBox="0 0 26.807 26.802">
  <g id="Group_1803" data-name="Group 1803" transform="translate(-11311.902 -7849.681)">
    <path id="Path_4672" data-name="Path 4672" d="M11325.67,7855.292h-.361q-6.123,0-12.247,0a2.089,2.089,0,0,1-.435-.034.927.927,0,0,1,.135-1.83c.117-.008.234,0,.352,0h12.492a12.628,12.628,0,0,1,.81-1.655,4.66,4.66,0,0,1,8.357,1.3c.09.289.2.371.494.363.809-.023,1.617-.011,2.427-.007a.923.923,0,0,1,1.008.933.939.939,0,0,1-1.016.935c-.848.006-1.694.007-2.543,0-.194,0-.276.047-.337.252a4.676,4.676,0,0,1-7.96,1.967,4.443,4.443,0,0,1-1.067-1.92c-.021-.075-.04-.15-.063-.225A.413.413,0,0,0,11325.67,7855.292Zm7.419-.922a2.8,2.8,0,0,0-5.607-.038,2.8,2.8,0,1,0,5.607.038Z" fill="#fe0000"/>
    <path id="Path_4673" data-name="Path 4673" d="M11325.686,7872.743h-.372q-6.123,0-12.246,0a2.069,2.069,0,0,1-.493-.034.913.913,0,0,1-.672-.917.9.9,0,0,1,.714-.88,2.285,2.285,0,0,1,.463-.037q6.152,0,12.3,0c.25,0,.339-.072.405-.316a4.662,4.662,0,0,1,8.984-.033.394.394,0,0,0,.474.349c.828-.017,1.657-.01,2.485,0a.908.908,0,0,1,.9.582.884.884,0,0,1-.167.979.939.939,0,0,1-.758.309c-.857-.005-1.714,0-2.572,0-.179,0-.265.036-.318.235a4.673,4.673,0,0,1-9.056-.016C11325.741,7872.893,11325.716,7872.83,11325.686,7872.743Zm4.579,1.868a2.8,2.8,0,0,0,.047-5.609,2.8,2.8,0,1,0-.047,5.609Z" fill="#f8981c"/>
    <path id="Path_4674" data-name="Path 4674" d="M11314.47,7864.018c-.516,0-1.03,0-1.547,0a.939.939,0,1,1,.006-1.87c.506,0,1.013,0,1.455,0a12.135,12.135,0,0,1,.818-1.667,4.66,4.66,0,0,1,8.344,1.305c.087.277.181.371.485.371q6.809-.019,13.618-.009a.942.942,0,0,1,1.052.953.93.93,0,0,1-.854.913c-.106.009-.214,0-.321,0q-6.766,0-13.53-.006c-.254,0-.363.056-.436.318a4.667,4.667,0,0,1-9.02-.07C11314.521,7864.184,11314.5,7864.11,11314.47,7864.018Zm7.395-.927a2.8,2.8,0,1,0-2.839,2.8A2.8,2.8,0,0,0,11321.864,7863.091Z" fill="#2e7dba"/>
  </g>
</svg>
