<svg xmlns="http://www.w3.org/2000/svg" viewBox="0 0 64 64"><g id="Layer_2" data-name="Layer 2"><g id="Layer_1-2" data-name="Layer 1"><path d="M32,64A32,32,0,1,1,64,32v.07A32,32,0,0,1,32,64ZM61.57,32A29.58,29.58,0,1,0,32,61.59h.57A29.63,29.63,0,0,0,61.57,32Z" fill="#fe0000"/><path d="M35.11,57.55A28.72,28.72,0,0,1,6.75,33.75a27.46,27.46,0,0,1-.29-7.52A1.89,1.89,0,0,1,7,25.16c1.75-1.76,3.53-3.49,5.3-5.21A1.21,1.21,0,0,1,14,19.8a1.07,1.07,0,0,1,.3.37l7.23,10.69a1.25,1.25,0,0,1-.07,1.77l-.06,0c-1.08,1.2-2.16,2.4-3.26,3.58a.59.59,0,0,0-.13.82l0,0a26.84,26.84,0,0,0,9,8.73.59.59,0,0,0,.82-.09v0q1.62-1.5,3.29-3A1.31,1.31,0,0,1,33,42.57L43.68,49.8a1.2,1.2,0,0,1,.5,1.61,1.31,1.31,0,0,1-.25.32c-1.75,1.83-3.53,3.64-5.32,5.43a1.69,1.69,0,0,1-1,.37C36.76,57.59,35.94,57.55,35.11,57.55Zm6.06-6.46L41,50.94l-8.48-5.75c-.3-.2-.46-.09-.67.1l-3.25,3a1.34,1.34,0,0,1-1.88.26l0,0A28.7,28.7,0,0,1,15.32,37.31a1.31,1.31,0,0,1,.2-1.79c1.07-1.19,2.13-2.38,3.22-3.54a.53.53,0,0,0,.13-.74l-.06-.07Q16,27.08,13.25,23a3.58,3.58,0,0,0-.26-.29l-.37.31c-1.14,1.12-2.29,2.22-3.4,3.37a1.54,1.54,0,0,0-.42.92,24.43,24.43,0,0,0,2.74,13.29c5.3,9.83,13.59,14.74,24.79,14.67a1.8,1.8,0,0,0,1.42-.61c1.1-1.22,2.25-2.36,3.43-3.54Z" fill="#2e7dba"/><path d="M44.19,29.33V27.58c0-1,.32-1.38,1.33-1.49a4.69,4.69,0,0,0,3.86-3.19,4,4,0,0,0-1.68-4.22,3.36,3.36,0,0,0-3.7-.53,4.52,4.52,0,0,0-2.73,3.78,1.2,1.2,0,0,1-1.17,1.23,1.29,1.29,0,0,1-.51-.1,1.16,1.16,0,0,1-.71-1.17,5.52,5.52,0,0,1,.75-2.8c1.3-2.21,3.13-3.67,5.8-3.65a6.41,6.41,0,0,1,6.06,4.21c1.12,2.51.41,4.77-1.39,6.73a6.32,6.32,0,0,1-3,1.88.55.55,0,0,0-.47.61v2.34a1.18,1.18,0,0,1-1,1.32h-.18c-.73,0-1.18-.51-1.19-1.34C44.19,30.57,44.19,30,44.19,29.33Z" fill="#ffab00"/><path d="M27.83,25.36a7,7,0,0,1-.63,3.09,1.25,1.25,0,0,1-1.55.84.85.85,0,0,1-.17-.06A1.24,1.24,0,0,1,25,27.57l0-.07a6,6,0,0,0,.09-4.39,8.72,8.72,0,0,0-4-5.1,7.28,7.28,0,0,0-2.23-.67c-.76-.13-1.25-.55-1.24-1.26a1.18,1.18,0,0,1,1.16-1.18h.14a7.53,7.53,0,0,1,4.32,1.57A11.48,11.48,0,0,1,27.83,25.36Z" fill="#ffab00"/><path d="M45.57,46.78a11.35,11.35,0,0,1-7.68-3.18,9,9,0,0,1-3-5.46,8.18,8.18,0,0,1,0-1.4A1.13,1.13,0,0,1,36,35.61h.07a1.09,1.09,0,0,1,1.17,1v.17c-.4,3.63,4.23,7.68,8.11,7.54A6.51,6.51,0,0,0,46.83,44a1.22,1.22,0,0,1,1.6.64l0,0a1.17,1.17,0,0,1-.63,1.53.7.7,0,0,1-.19.06A20.19,20.19,0,0,1,45.57,46.78Z" fill="#ffab00"/><path d="M24.3,25.14a17.51,17.51,0,0,1-.57,2,1.18,1.18,0,0,1-1.52.66l-.08,0a1.2,1.2,0,0,1-.6-1.56A3.91,3.91,0,0,0,19,21.31l-.45-.11a1.17,1.17,0,0,1-1.07-1.26s0-.05,0-.08a1.2,1.2,0,0,1,1.31-1.08h.09a5.29,5.29,0,0,1,3.35,1.67A7.49,7.49,0,0,1,24.3,25.14Z" fill="#ffab00"/><path d="M44.79,43a6.78,6.78,0,0,1-6.14-4.92,5.07,5.07,0,0,1-.09-1.23,1.18,1.18,0,0,1,1.18-1.18h0A1.16,1.16,0,0,1,41,36.78v0c0,1.91,1.27,2.89,2.86,3.49a3.7,3.7,0,0,0,1.75.06c.78-.12,1.41.12,1.61.76a1.21,1.21,0,0,1-.77,1.53l-.13,0A12.94,12.94,0,0,1,44.79,43Z" fill="#ffab00"/><path d="M45.34,37.3a1.58,1.58,0,0,1-1.6-1.58v-.09a1.64,1.64,0,1,1,3.28.09,1.58,1.58,0,0,1-1.58,1.58Z" fill="#ffab00"/></g></g></svg>