<svg xmlns="http://www.w3.org/2000/svg"  viewBox="0 0 26.816 26.813">
  <g id="Group_1806" data-name="Group 1806" transform="translate(-11516.619 -7849.652)">
    <path id="Path_4675" data-name="Path 4675" d="M11543.436,7859.028a15.941,15.941,0,0,1-.361,1.6,6.871,6.871,0,0,1-6.465,4.73c-1.85.017-3.7.009-5.55,0a6.675,6.675,0,0,1-2.809-.634,1.707,1.707,0,0,0-2.2.334,1.049,1.049,0,0,1-1.782-.768c0-2.653-.024-5.306.007-7.958a6.9,6.9,0,0,1,5.729-6.572,8.561,8.561,0,0,1,1.249-.1c1.736-.011,3.474-.008,5.209,0a6.874,6.874,0,0,1,6.839,5.569c.051.237.087.476.13.714Zm-17.069,3.45a.6.6,0,0,0,.121,0,3.793,3.793,0,0,1,2.592.321,4.856,4.856,0,0,0,2.177.473c1.693,0,3.385,0,5.078,0a7.452,7.452,0,0,0,.86-.052,4.8,4.8,0,0,0,4.087-4.1,24.454,24.454,0,0,0,.058-2.483,4.784,4.784,0,0,0-4.868-4.876q-2.618-.006-5.234,0a5.025,5.025,0,0,0-.91.078,4.812,4.812,0,0,0-3.96,4.807q0,2.787,0,5.575Z" fill="#2e7dba"/>
    <path id="Path_4676" data-name="Path 4676" d="M11522.334,7876.465c-.5-.119-1.008-.2-1.49-.363a6.219,6.219,0,0,1-4.211-5.8q-.025-7.238,0-14.475a6.27,6.27,0,0,1,6.168-6.171c.149,0,.3-.005.445,0a1.044,1.044,0,0,1,1.023,1.046,1.028,1.028,0,0,1-1.024,1.041,4.529,4.529,0,0,0-2.039.372,4.022,4.022,0,0,0-2.474,3.787c-.031,4.772-.019,9.545-.009,14.317a4.17,4.17,0,0,0,4.133,4.146q3.691.021,7.382,0a4.185,4.185,0,0,0,4.138-4.143c0-.567,0-1.134,0-1.7a1.049,1.049,0,0,1,1.033-1.116,1.035,1.035,0,0,1,1.057,1.116,22.3,22.3,0,0,1-.117,2.791,6.243,6.243,0,0,1-5.362,5.1,1.774,1.774,0,0,0-.225.052Z" fill="#fe0000"/>
    <path id="Path_4677" data-name="Path 4677" d="M11526.638,7872.013a1.308,1.308,0,1,1,1.3-1.325A1.311,1.311,0,0,1,11526.638,7872.013Z" fill="#fe0000"/>
    <path id="Path_4678" data-name="Path 4678" d="M11533.825,7856.776c-1.229,0-2.459,0-3.688,0a1.045,1.045,0,0,1-.2-2.071,1.14,1.14,0,0,1,.234-.02q3.688,0,7.377,0a1.045,1.045,0,0,1,.229,2.071,1.664,1.664,0,0,1-.339.022Z" fill="#f8981c"/>
    <path id="Path_4679" data-name="Path 4679" d="M11532.287,7860.442c-.688,0-1.377,0-2.065,0a1.049,1.049,0,1,1-.01-2.093q2.079,0,4.157,0a1.048,1.048,0,1,1,.01,2.093C11533.682,7860.445,11532.985,7860.442,11532.287,7860.442Z" fill="#f8981c"/>
  </g>
</svg>
