<svg xmlns="http://www.w3.org/2000/svg" viewBox="0 0 26.633 26.766">
  <g id="Group_1813" data-name="Group 1813" transform="translate(-11908.858 -7849.699)">
    <path id="Path_4686" data-name="Path 4686" d="M11909.261,7876.465c-.41-.234-.471-.386-.342-.856q.819-2.98,1.639-5.96a.577.577,0,0,0-.047-.468,12.527,12.527,0,0,1-1.441-4.523,12.983,12.983,0,0,1,2.588-9.685,12.724,12.724,0,0,1,7.849-4.979,12.9,12.9,0,0,1,11.693,3.218,12.615,12.615,0,0,1,4.126,7.692,13.256,13.256,0,0,1-18.854,14.016,1.112,1.112,0,0,0-.837-.084c-1.938.523-3.885,1.024-5.827,1.534a2.085,2.085,0,0,0-.233.095Zm.887-1.3c.092-.018.134-.023.176-.034,1.741-.457,3.484-.9,5.22-1.38a1.624,1.624,0,0,1,1.243.128,11.876,11.876,0,0,0,8.682.848,12.159,12.159,0,0,0,8.872-10.344,11.688,11.688,0,0,0-2.57-8.993,11.845,11.845,0,0,0-11.454-4.463,11.506,11.506,0,0,0-7.06,3.791,11.954,11.954,0,0,0-3.134,9.749,11.584,11.584,0,0,0,1.448,4.436.918.918,0,0,1,.092.748c-.242.844-.468,1.693-.7,2.54C11910.693,7873.172,11910.425,7874.151,11910.147,7875.168Z" fill="#fe0000"/>
    <path id="Path_4687" data-name="Path 4687" d="M11921.912,7852.869a10.1,10.1,0,0,1,6.683,2.268,10.1,10.1,0,0,1-11.437,16.573.613.613,0,0,0-.516-.063c-.98.268-1.966.521-2.949.779-.637.167-.952-.146-.781-.775.263-.973.535-1.945.788-2.921a.578.578,0,0,0-.054-.4,10.1,10.1,0,0,1-1.51-5.8,9.917,9.917,0,0,1,1.831-5.358,10.02,10.02,0,0,1,4.209-3.448A9.7,9.7,0,0,1,11921.912,7852.869Zm-7.765,18.322c.091-.02.14-.028.187-.04.732-.192,1.468-.37,2.194-.581a1.2,1.2,0,0,1,1.033.138,9.038,9.038,0,0,0,13.517-9.516,8.7,8.7,0,0,0-3.577-5.546,8.8,8.8,0,0,0-7.089-1.523,8.6,8.6,0,0,0-4.287,2.2,8.883,8.883,0,0,0-2.929,6.843,8.79,8.79,0,0,0,1.493,4.795.88.88,0,0,1,.12.79c-.148.491-.275.988-.409,1.484C11914.317,7870.542,11914.237,7870.85,11914.147,7871.191Z" fill="#2e7dba"/>
    <path id="Path_4688" data-name="Path 4688" d="M11920.454,7861.611a11.242,11.242,0,0,0,2.891,2.983.254.254,0,0,0,.223-.007c.253-.154.482-.348.743-.482a2.571,2.571,0,0,1,.778-.274.657.657,0,0,1,.483.177c.984.961,1.952,1.939,2.926,2.911a.622.622,0,0,1,.146.647,2.1,2.1,0,0,1-1.089,1.272,4.44,4.44,0,0,1-5.5-.516q-2.647-2.539-5.186-5.193A4.46,4.46,0,0,1,11917,7857a2.121,2.121,0,0,1,.91-.4.571.571,0,0,1,.433.177c.982.963,1.95,1.941,2.926,2.912a.6.6,0,0,1,.159.6,1.429,1.429,0,0,1-.482.869C11920.779,7861.295,11920.628,7861.452,11920.454,7861.611Zm-2.692-3.882c-.1.118-.2.224-.289.341a3.47,3.47,0,0,0,.384,4.573c.775.788,1.562,1.566,2.346,2.347.882.879,1.743,1.782,2.657,2.626a3.447,3.447,0,0,0,4.522.036c.138-.119.158-.191.021-.327q-1.137-1.119-2.255-2.253a.214.214,0,0,0-.331-.036c-.327.231-.669.441-1,.671a.614.614,0,0,1-.771-.009,12.442,12.442,0,0,1-3.555-3.6c-.352-.541-.339-.658.123-1.12l.694-.7Z" fill="#f8981c"/>
  </g>
</svg>
