<svg xmlns="http://www.w3.org/2000/svg" viewBox="0 0 29.979 26.766">
  <g id="Group_1811" data-name="Group 1811" transform="translate(-11761.853 -7849.699)">
    <path id="Path_4683" data-name="Path 4683" d="M11774.627,7856.658v2.129h-8.8l-.039.072,8.813,7.053,1.946-1.966,1.547,1.542-1.813,1.809c-.245.244-.487.49-.734.732a1.078,1.078,0,0,1-1.606.092q-2.473-1.969-4.937-3.947-2.364-1.89-4.727-3.781c-.074-.06-.153-.114-.279-.207v12.856c0,.884.4,1.281,1.288,1.281h18.832c.906,0,1.292-.392,1.292-1.31v-6.134h2.141v.686q0,2.76,0,5.519a3.213,3.213,0,0,1-3.381,3.38h-18.933a3.217,3.217,0,0,1-3.381-3.382q0-6.522,0-13.045a3.216,3.216,0,0,1,3.383-3.379h9.391Z" fill="#fe0000"/>
    <path id="Path_4684" data-name="Path 4684" d="M11783.773,7849.7a8.029,8.029,0,1,0,8.058,8.05A8.033,8.033,0,0,0,11783.773,7849.7Zm5.906,8.379-.008.118-.011.12-.013.118c-.016.12-.032.239-.056.358-.007.04-.015.08-.022.12-.017.078-.034.158-.054.237-.01.039-.021.079-.031.119s-.026.094-.04.141c-.021.071-.044.142-.068.212l0,.013-.029.082-.016.042v0l-.048.126c-.018.044-.035.088-.055.132s-.038.088-.058.132l-.039.085-.041.086-.015.029c-.019.037-.038.075-.059.112s-.044.083-.067.125-.047.083-.071.124-.055.093-.085.138-.058.091-.088.137l-.07.1c-.022.033-.048.065-.072.1s-.032.045-.05.067c-.033.045-.067.089-.1.132s-.079.1-.12.145l-.08.093c-.045.05-.089.1-.136.148s-.1.1-.146.149-.095.092-.143.136l-.018.015c-.04.038-.081.075-.123.109a.463.463,0,0,1-.048.041c-.027.024-.056.048-.083.069s-.047.04-.071.058c-.05.041-.1.078-.15.116s-.087.065-.132.1-.075.052-.114.076a.327.327,0,0,1-.038.026l-.031.021c-.052.033-.1.066-.156.1-.018.009-.033.019-.05.028-.047.027-.092.054-.14.08l-.093.05c-.062.032-.122.062-.184.092-.042.02-.084.04-.127.059s-.065.03-.1.044c-.057.025-.114.048-.172.072-.028.01-.057.022-.086.033-.063.024-.127.046-.191.067l-.077.026c-.078.025-.158.049-.238.072-.047.012-.095.025-.142.036-.187.047-.377.083-.565.112h0l-.14.018c-.094.012-.188.021-.282.028-.049,0-.1.006-.147.008s-.094,0-.141,0l-.14,0c-.149,0-.3-.005-.445-.017-.025,0-.051,0-.075-.006-.159-.013-.316-.034-.473-.061l-.107-.019q-.108-.02-.214-.045l-.083-.019-.036-.009-.092-.024c-.083-.023-.165-.048-.247-.074-.066-.02-.132-.043-.2-.067l-.028-.009-.17-.066a5.89,5.89,0,0,1-2.932-2.531l-.006-.009h0l-.01-.016c-.07-.11-.135-.224-.194-.341-.023-.044-.044-.088-.066-.132s-.039-.083-.057-.125c-.012-.025-.023-.05-.033-.075-.061-.141-.115-.287-.162-.434-.013-.038-.024-.077-.037-.116-.025-.085-.05-.173-.069-.261-.009-.03-.016-.058-.021-.087s-.017-.075-.025-.113l-.018-.094c-.008-.038-.015-.078-.021-.117-.011-.06-.02-.12-.027-.18l0-.016c-.007-.054-.013-.108-.019-.162l0-.019c-.006-.059-.011-.119-.014-.177-.006-.075-.009-.149-.011-.224,0-.051,0-.1,0-.154v-.006c0-.061,0-.121,0-.182,0-.014,0-.027,0-.04,0-.128.014-.255.026-.382.008-.068.016-.136.024-.2,0-.017,0-.035.007-.052.011-.078.024-.156.039-.232s.029-.152.045-.228c.026-.116.057-.232.089-.346.011-.038.022-.076.034-.114s.023-.075.035-.113c.024-.075.05-.15.079-.224l.029-.08c.019-.048.037-.095.058-.142l.041-.1c.054-.124.112-.245.175-.365.022-.042.044-.084.067-.125s.031-.058.048-.087.029-.05.044-.075c.051-.087.1-.173.161-.257.019-.029.038-.058.058-.086s.049-.073.075-.107c.067-.094.138-.186.212-.275.025-.032.051-.063.077-.094s.066-.078.1-.115.057-.063.087-.094.078-.084.119-.125c.063-.062.126-.123.191-.182.026-.024.053-.048.08-.071l.029-.026.085-.072a5.692,5.692,0,0,1,.858-.593c.035-.021.07-.041.106-.059l.019-.01.1-.054a5.726,5.726,0,0,1,.787-.333l.09-.031a5.779,5.779,0,0,1,.7-.183c.036-.008.075-.016.112-.022.167-.03.335-.053.5-.069.022,0,.044,0,.066-.006l.129-.01.128-.006c.043,0,.086,0,.129,0s.089,0,.134,0l.147,0c.077,0,.152,0,.229.01.049,0,.1.008.146.012l.06.006c.052,0,.1.01.151.017l.032.005c.047,0,.093.012.139.019s.116.02.174.031a.721.721,0,0,1,.073.015c.034.007.068.014.1.022s.069.015.1.024c.111.027.22.057.329.092l.152.051c.04.013.08.028.12.044.022.007.043.016.064.024.044.017.088.034.131.053.075.031.15.065.223.1l.125.062.031.017c.051.026.1.055.151.083s.107.063.16.1l.006,0,.008.006a5.9,5.9,0,0,1,2.446,2.73c.015.032.027.064.043.1s.03.074.045.112.032.084.048.125c.031.079.058.158.084.239.013.04.024.08.038.121l.007.023c.021.074.042.148.061.223.01.041.021.083.029.124s.015.069.022.1a.353.353,0,0,1,.009.043l.021.107c.023.127.042.256.057.386l.013.13a6.157,6.157,0,0,1,.023.645c0,.04,0,.08,0,.119Z" fill="#2e7dba"/>
    <g id="Group_1810" data-name="Group 1810">
      <path id="Path_4685" data-name="Path 4685" d="M11785.3,7859.069a2.012,2.012,0,1,1-.309-2.958c.009-.034.016-.066.024-.1a.4.4,0,0,1,.775.041.95.95,0,0,1,.01.14c.009.492,0,.986.03,1.477a8.389,8.389,0,0,0,.124.863.519.519,0,0,0,.043.124.386.386,0,0,0,.344.278.447.447,0,0,0,.449-.215,1.533,1.533,0,0,0,.2-.679,3.213,3.213,0,1,0-3.822,2.84,3.146,3.146,0,0,0,1.957-.226.856.856,0,0,1,.266-.081.382.382,0,0,1,.394.287.4.4,0,0,1-.2.462,3.72,3.72,0,0,1-1.065.357,3.9,3.9,0,0,1-2.422-.314,4.016,4.016,0,0,1-.422-7.039,3.675,3.675,0,0,1,2.654-.57,3.9,3.9,0,0,1,3.274,2.721,3.533,3.533,0,0,1,.066,2.23,1.437,1.437,0,0,1-.637.866,1.236,1.236,0,0,1-1.7-.452A.507.507,0,0,0,11785.3,7859.069Zm-2.713-1.338a1.206,1.206,0,1,0,1.21-1.206A1.208,1.208,0,0,0,11782.587,7857.731Z" fill="#f8981c"/>
    </g>
  </g>
</svg>
