<svg xmlns="http://www.w3.org/2000/svg" viewBox="0 0 13.05 18.132">
  <g id="Group_1877" data-name="Group 1877" transform="translate(-10718.534 -7743.475)">
    <path id="Path_5156" data-name="Path 5156" d="M10731.449,7750.884q-.718-.964-1.442-1.924l-.555-.739c.054-.073.1-.135.145-.2q.926-1.233,1.851-2.465a.57.57,0,0,0-.261-.922,1.183,1.183,0,0,0-.317-.025h-7.8a.578.578,0,0,0-.577.577h0a.577.577,0,0,0,.577.577h6.8c-.1.138-.188.256-.275.372q-.624.832-1.25,1.666a.59.59,0,0,0,0,.838l1.42,1.894c.028.037.055.076.095.135h-6.792a.579.579,0,0,0-.579.579h0a.579.579,0,0,0,.579.578h7.814a1.076,1.076,0,0,0,.317-.03A.567.567,0,0,0,10731.449,7750.884Z" fill="#2e7dba"/>
    <path id="Path_5157" data-name="Path 5157" d="M10721.327,7744.024a.563.563,0,0,0-.6-.549.572.572,0,0,0-.539.644v15.037c0,.041,0,.083,0,.125a.564.564,0,0,0,.566.527.573.573,0,0,0,.571-.633v-7.347h.01v-7.216h-.01C10721.328,7744.4,10721.334,7744.212,10721.327,7744.024Z" fill="#fe0000"/>
    <path id="Path_5158" data-name="Path 5158" d="M10719.084,7760.468a.563.563,0,0,0-.549.6.573.573,0,0,0,.645.54h3.159c.041,0,.083,0,.125,0a.566.566,0,0,0,.527-.568.573.573,0,0,0-.633-.57h-2.686C10719.462,7760.467,10719.273,7760.461,10719.084,7760.468Z" fill="#ffab00"/>
  </g>
</svg>
