<svg xmlns="http://www.w3.org/2000/svg" viewBox="0 0 24.905 24.906">
  <g id="Group_1854" data-name="Group 1854" transform="translate(-10623.886 -7425.296)">
    <path id="Path_5098" data-name="Path 5098" d="M10648.182,7437.262h-1.848c-.5,0-.649.147-.658.651a9.123,9.123,0,0,1-.592,3.11,9.34,9.34,0,0,1-12.8,5.137,8.807,8.807,0,0,1-2.11-1.408,4.4,4.4,0,0,0,.4-.354.475.475,0,0,0-.257-.81q-1.833-.375-3.669-.726a.486.486,0,0,0-.6.618c.235,1.2.476,2.4.712,3.6a.5.5,0,0,0,.348.426.482.482,0,0,0,.526-.162c.114-.123.216-.256.324-.385.129.112.2.175.276.237a12.183,12.183,0,0,0,6.013,2.824c.453.077.912.124,1.368.185h1.508c.062-.014.124-.032.187-.041.655-.1,1.32-.162,1.964-.31a12.46,12.46,0,0,0,9.523-11.989C10648.791,7437.436,10648.617,7437.264,10648.182,7437.262Zm-.821,3.7a11.5,11.5,0,0,1-18.772,5.254c-.042-.038-.083-.077-.124-.116-.369-.346-.494-.36-.927-.082-.134-.678-.268-1.348-.409-2.066l2.021.4c-.05.19-.156.376-.12.528a1.036,1.036,0,0,0,.331.456,10.01,10.01,0,0,0,6.154,2.69,10.283,10.283,0,0,0,10.819-7.754c.14-.546.188-1.115.277-1.674.017-.111.023-.224.037-.342h1.154A9.879,9.879,0,0,1,10647.36,7440.959Z" fill="#2e7dba"/>
    <path id="Path_5099" data-name="Path 5099" d="M10646.635,7432.017c-.235-1.2-.476-2.4-.711-3.6a.506.506,0,0,0-.35-.426.485.485,0,0,0-.526.163c-.114.122-.22.252-.328.376-.092-.077-.137-.113-.179-.151a12.248,12.248,0,0,0-6.127-2.909c-.446-.074-.9-.118-1.346-.177h-1.508a1.339,1.339,0,0,1-.187.04,11.428,11.428,0,0,0-3.985.991c-.71.327-1.382.741-2.061,1.133a.516.516,0,0,0-.065.045h0a17.473,17.473,0,0,0-3.347,3.428,12.111,12.111,0,0,0-1.831,4.62c-.082.47-.132.944-.2,1.417v.924a.652.652,0,0,0,.662.346c.615-.018,1.231,0,1.849-.006.431,0,.581-.168.608-.6a14.256,14.256,0,0,1,.14-1.473,9.351,9.351,0,0,1,13.646-6.621,8.755,8.755,0,0,1,1.711,1.206,4.453,4.453,0,0,0-.406.377.477.477,0,0,0,.249.788c.132.036.27.055.4.082q1.62.323,3.239.642C10646.435,7432.718,10646.719,7432.446,10646.635,7432.017Zm-3.16-.877c.283-.411.271-.588-.069-.9a10.084,10.084,0,0,0-9.266-2.559,10.253,10.253,0,0,0-7.928,8.147c-.086.467-.134.941-.2,1.414h-1.186c.1-.678.173-1.338.307-1.986a10.99,10.99,0,0,1,1.6-3.807,22.074,22.074,0,0,1,3.145-3.2.134.134,0,0,0,.023-.014l.06-.04a11.5,11.5,0,0,1,14.237,1.188c.383.357.49.372.941.1.134.677.267,1.348.407,2.064Z" fill="#fe0000"/>
    <path id="Path_5100" data-name="Path 5100" d="M10636.344,7431.036a6.713,6.713,0,1,0,6.708,6.718A6.725,6.725,0,0,0,10636.344,7431.036Zm-.022,12.453a5.74,5.74,0,1,1,5.758-5.723A5.751,5.751,0,0,1,10636.321,7443.489Z" fill="#ffab00"/>
    <path id="Path_5101" data-name="Path 5101" d="M10637.091,7437.24c-.089-.033-.175-.07-.247-.1v-1.913c.158.082.282.157.414.212a.854.854,0,0,0,.343.091.439.439,0,0,0,.418-.349.434.434,0,0,0-.2-.527c-.313-.176-.646-.319-.993-.486,0-.1.006-.228,0-.356a.485.485,0,0,0-.97.01c-.006.135,0,.27,0,.394-.1.032-.175.05-.243.074a1.754,1.754,0,0,0-1.208,1.508,1.548,1.548,0,0,0,.823,1.673c.162.091.331.171.489.268.059.036.131.11.132.168.009.785,0,1.57,0,2.442-.314-.14-.588-.247-.847-.381a.511.511,0,0,0-.727.12.5.5,0,0,0,.225.717,2.688,2.688,0,0,0,1.351.454c0,.159-.009.3,0,.432a.48.48,0,0,0,.683.421.49.49,0,0,0,.283-.543c-.035-.264.056-.382.315-.481a2.168,2.168,0,0,0,1.34-2.048A1.919,1.919,0,0,0,10637.091,7437.24Zm-1.255-.552a.655.655,0,0,1-.478-.682.886.886,0,0,1,.478-.762Zm1,3.45v-1.929a.888.888,0,0,1,.665.859A1.142,1.142,0,0,1,10636.838,7440.138Z" fill="#ffab00"/>
  </g>
</svg>
