<svg xmlns="http://www.w3.org/2000/svg"  viewBox="0 0 17.229 17.226">
  <g id="Group_1873" data-name="Group 1873" transform="translate(-10244.242 -7806.755)">
    <path id="Path_5144" data-name="Path 5144" d="M10261.472,7815.871c-.01.049-.023.1-.028.146a.687.687,0,0,1-.75.651.664.664,0,0,1-.592-.76,6.52,6.52,0,0,0-.367-2.879,7.222,7.222,0,0,0-14.052,1.44,7.381,7.381,0,0,0,.784,4.382,6.709,6.709,0,0,0,4.277,3.436,16.372,16.372,0,0,0,1.8.33.694.694,0,0,1,.649.616.685.685,0,0,1-.528.721.18.18,0,0,0-.04.027h-.236c-.049-.01-.1-.022-.146-.028-.372-.05-.749-.076-1.115-.151a8.6,8.6,0,0,1-6.751-7.037c-.052-.319-.088-.641-.132-.962v-1.043c.024-.21.046-.421.077-.63a8.6,8.6,0,0,1,10.278-7.2,8.552,8.552,0,0,1,6.74,6.934c.052.319.09.641.134.963Z" fill="#fe0000"/>
    <path id="Path_5145" data-name="Path 5145" d="M10255.381,7823.981l-.192-.048a1.146,1.146,0,0,1-.9-1.166,5.383,5.383,0,0,1,.192-1.271,15.633,15.633,0,0,1,1.777-4.153,1.833,1.833,0,0,1,1.335-.948,1.709,1.709,0,0,1,1.663.63,8.674,8.674,0,0,1,1.08,1.911,14.718,14.718,0,0,1,1.091,3.238c.014.075.033.15.049.225v.471c-.012.043-.025.085-.035.127a1.159,1.159,0,0,1-.883.935l-.191.049h-.3c-.074-.018-.149-.037-.225-.053a6.007,6.007,0,0,1-1.842-.8.194.194,0,0,0-.24,0c-.135.089-.28.164-.423.241a5.7,5.7,0,0,1-1.679.61Zm4.73-1.346a.66.66,0,0,0,.007-.1c-.013-.088-.025-.177-.044-.265a14.692,14.692,0,0,0-1.138-3.132,11.372,11.372,0,0,0-.7-1.221.429.429,0,0,0-.735-.006,2.747,2.747,0,0,0-.172.249,15.361,15.361,0,0,0-1.611,3.877c-.049.181-.075.368-.116.579a.972.972,0,0,0,.192-.039c.435-.205.868-.41,1.3-.624a.2.2,0,0,0,.069-.149c.006-.285,0-.571,0-.857a.673.673,0,1,1,1.345,0c0,.269-.006.538.006.806a.253.253,0,0,0,.1.181c.306.174.615.344.932.5A5.923,5.923,0,0,0,10260.111,7822.635Z" fill="#ffab00"/>
    <path id="Path_5146" data-name="Path 5146" d="M10249.263,7814.687c.032-.347.058-.67.094-.992a18.994,18.994,0,0,1,.816-3.667.658.658,0,0,1,.838-.424.67.67,0,0,1,.442.828c-.226.907-.463,1.812-.657,2.725-.1.49-.131,1-.194,1.515h4.492c-.021-.275-.039-.547-.066-.818a17.682,17.682,0,0,0-.713-3.364.669.669,0,0,1,.681-.915.65.65,0,0,1,.585.459,15.967,15.967,0,0,1,.668,2.825c.1.8.155,1.6.2,2.41a.673.673,0,0,1-.751.764h-5.094c.051.451.087.879.147,1.3a18.743,18.743,0,0,0,.673,2.876.671.671,0,0,1-.5.918.642.642,0,0,1-.761-.455c-.237-.9-.479-1.8-.667-2.7-.121-.59-.148-1.2-.218-1.8,0-.038-.011-.076-.021-.137h-.181c-.477,0-.953,0-1.43,0a.671.671,0,0,1-.685-.881.639.639,0,0,1,.633-.461c.487-.007.976,0,1.464,0Z" fill="#2e7dba"/>
  </g>
</svg>
