<svg xmlns="http://www.w3.org/2000/svg" viewBox="0 0 14.621 17.407">
  <g id="Group_1882" data-name="Group 1882" transform="translate(-10717.749 -7875.482)">
    <path id="Path_5165" data-name="Path 5165" d="M10726.18,7889.793v2.515a.514.514,0,1,0,1.021.007c0-.387,0-2.134,0-2.522Z" fill="#ffab00"/>
    <path id="Path_5166" data-name="Path 5166" d="M10724,7889.793c0,.39,0,2.136,0,2.522a.514.514,0,1,0,1.02-.006v-2.516Z" fill="#ffab00"/>
    <g id="Group_1880" data-name="Group 1880">
      <path id="Path_5167" data-name="Path 5167" d="M10732.365,7884a3.6,3.6,0,0,0-2.655-3.446,5.035,5.035,0,0,0-1.056-.137c-.141-.006-2-.009-2.142-.01v1.025c.291,0,2.3.007,2.59.038a2.55,2.55,0,0,1,2.236,2.442c.026,1.716.007,3.432.007,5.149a.248.248,0,0,1-.011.043h-6.311v-.2c0-1.563-.01-3.126,0-4.689a3.712,3.712,0,0,0-1.044-2.713c-.015-.015-.025-.032-.051-.064h2.587v-1.029c-1.232,0-3.824,0-5.057,0a3.816,3.816,0,0,0-.66.047,3.634,3.634,0,0,0-3.054,3.658q0,2.7,0,5.4c0,.421.191.612.611.612h5.075v0h4.867v0q1.752,0,3.5,0a.514.514,0,0,0,.56-.561C10732.368,7887.716,10732.375,7885.858,10732.365,7884Zm-8.361,5.1h-5.235v-.113c0-1.659-.006-3.319,0-4.978a2.614,2.614,0,0,1,5.2-.321,2.357,2.357,0,0,1,.027.321q0,2.49,0,4.979Z" fill="#fe0000"/>
    </g>
    <g id="Group_1881" data-name="Group 1881">
      <path id="Path_5168" data-name="Path 5168" d="M10730.341,7877.5a.19.19,0,0,1,0-.23c.193-.32.38-.643.567-.967a.509.509,0,0,0-.236-.787.223.223,0,0,1-.038-.031h-4.08a.653.653,0,0,0-.379.685c.012,1.348,0,2.7,0,4.045v1.866c0,.237,0,.475,0,.713a.51.51,0,1,0,1.019,0c0-.447,0-.893,0-1.355h.015v-1.027h0v-1.156h3.221a.514.514,0,0,0,.471-.828C10730.718,7878.116,10730.532,7877.805,10730.341,7877.5Zm-1.054.226c.1.159.2.325.3.5h-2.382v-1.713h2.391c-.107.186-.207.368-.317.542A.563.563,0,0,0,10729.287,7877.723Z" fill="#2e7dba"/>
    </g>
  </g>
</svg>
