<svg xmlns="http://www.w3.org/2000/svg" width="24.934" height="24.934" viewBox="0 0 24.934 24.934">
  <g id="Group_107" data-name="Group 107" transform="translate(-531.374 -333.945)">
    <rect id="Rectangle_31" data-name="Rectangle 31" width="24.934" height="24.934" rx="12.284" transform="translate(531.374 333.945)" fill="#e8e8e8" opacity="0.85"/>
    <g id="Group_49" data-name="Group 49" transform="translate(-2163.566)">
      <path id="Path_416" data-name="Path 416" d="M2701.533,346.114a1.636,1.636,0,0,1,.273-.635,1.3,1.3,0,0,1,1.057-.533q3.563-.006,7.124,0a1.334,1.334,0,0,1,1.335,1.339q.014,2.088,0,4.176a1.341,1.341,0,0,1-1.385,1.338q-1.956,0-3.912,0-1.554,0-3.109,0a1.35,1.35,0,0,1-1.32-.946c-.023-.072-.042-.145-.063-.218Zm4.905-.436h-3.487a.62.62,0,0,0-.684.681v4.015a.623.623,0,0,0,.687.691h6.951a.625.625,0,0,0,.686-.683v-4.026a.621.621,0,0,0-.677-.678Z" fill="#fe0000"/>
      <path id="Path_417" data-name="Path 417" d="M2712.541,343.729h-8.312c0,.051,0,.1-.008.141a.363.363,0,0,1-.718.051.66.66,0,0,1-.013-.147q0-.678,0-1.354a1.352,1.352,0,0,1,1.389-1.394q3.512,0,7.021,0a1.347,1.347,0,0,1,1.382,1.387q0,2.049,0,4.1a1.311,1.311,0,0,1-.617,1.15.369.369,0,1,1-.405-.611.583.583,0,0,0,.286-.506c0-.918,0-1.836,0-2.753C2712.547,343.77,2712.543,343.752,2712.541,343.729Zm0-.746c0-.236.017-.462,0-.685a.611.611,0,0,0-.671-.538h-6.96c-.031,0-.062,0-.092,0a.565.565,0,0,0-.551.424,6.554,6.554,0,0,0-.055.8Z" fill="#ffab00"/>
      <path id="Path_418" data-name="Path 418" d="M2706.42,349.6q1.509,0,3.016,0a.38.38,0,0,1,.379.2.362.362,0,0,1-.228.512.557.557,0,0,1-.147.018q-3.01,0-6.02,0a.377.377,0,0,1-.4-.26.361.361,0,0,1,.316-.471c.045,0,.091,0,.137,0Z" fill="#2e7dba"/>
      <path id="Path_419" data-name="Path 419" d="M2702.993,347.638a4.784,4.784,0,0,1,.03-.536.837.837,0,0,1,.816-.688c.244-.005.489,0,.733,0a.839.839,0,0,1,.869.785,5.718,5.718,0,0,1,0,.87.819.819,0,0,1-.773.783,5.711,5.711,0,0,1-.915-.005.834.834,0,0,1-.752-.84c0-.123,0-.245,0-.367Zm1.23-.491c-.11,0-.221,0-.332,0s-.156.046-.155.152c0,.225,0,.45,0,.675a.136.136,0,0,0,.155.154h.675a.134.134,0,0,0,.151-.147c0-.229,0-.458,0-.686a.132.132,0,0,0-.149-.148C2704.452,347.148,2704.338,347.147,2704.223,347.147Z" fill="#2e7dba"/>
    </g>
  </g>
</svg>
