<svg xmlns="http://www.w3.org/2000/svg" width="24.934" height="24.934" viewBox="0 0 24.934 24.934">
  <g id="Group_112" data-name="Group 112" transform="translate(-531.374 -333.945)">
    <rect id="Rectangle_89" data-name="Rectangle 89" width="24.934" height="24.934" rx="12.284" transform="translate(531.374 333.945)" fill="#e8e8e8" opacity="0.85"/>
    <g id="Group_92" data-name="Group 92">
      <path id="Path_700" data-name="Path 700" d="M544.389,348.642a.435.435,0,0,1-.868.035,1.846,1.846,0,0,1,0-.379.435.435,0,0,1,.867.048c0,.047,0,.094,0,.141S544.391,348.59,544.389,348.642Z" fill="#ffab00"/>
      <path id="Path_701" data-name="Path 701" d="M548.754,353.137a.446.446,0,0,0-.5-.344h-2.6v-2.57a.448.448,0,0,0-.5-.5h-2.311a.45.45,0,0,0-.513.508v2.565h-2.959a.423.423,0,0,0-.407.252.391.391,0,0,0,.052.448,1.268,1.268,0,0,0,.232.174h9.19c.007-.007.012-.016.02-.019A.438.438,0,0,0,548.754,353.137Zm-3.977-.344h-1.561v-2.188h1.561Z" fill="#fe0000"/>
      <path id="Path_702" data-name="Path 702" d="M541.119,343.571h5.747v8.273a.444.444,0,0,0,.444.444h0a.444.444,0,0,0,.444-.444v-8.606c0-.4-.153-.553-.553-.553q-1.3,0-2.593,0h-.163v0h-.889v0h-.191q-1.309,0-2.621,0a.446.446,0,0,0-.481.289.864.864,0,0,0-.028.264c0,2.744,0,5.863,0,8.607a.443.443,0,0,0,.443.443h0a.443.443,0,0,0,.442-.443Z" fill="#2e7dba"/>
      <g id="Group_91" data-name="Group 91">
        <path id="Path_703" data-name="Path 703" d="M546.632,341.1c-.094-.19-.2-.374-.288-.564a.2.2,0,0,1,0-.152c.084-.179.18-.351.269-.527a.444.444,0,0,0-.424-.7H544.1c-.391,0-.547.154-.547.544v2.472a.442.442,0,0,0,.444.445.457.457,0,0,0,.1-.012.445.445,0,0,0,.34-.432v-.419h.165c.541,0,1.081,0,1.621,0A.434.434,0,0,0,546.632,341.1Zm-2.19-.222v-.836h1.1a.612.612,0,0,0,0,.836Z" fill="#ffab00"/>
      </g>
      <path id="Path_704" data-name="Path 704" d="M542.818,348.492a1.594,1.594,0,0,1-.021.251.439.439,0,0,1-.456.322.444.444,0,0,1-.4-.407,2.226,2.226,0,0,1,0-.337.436.436,0,0,1,.87.03c0,.047,0,.094,0,.141Z" fill="#ffab00"/>
      <path id="Path_705" data-name="Path 705" d="M542.819,344.745a1.477,1.477,0,0,1-.025.25.432.432,0,0,1-.445.315.438.438,0,0,1-.406-.4,1.873,1.873,0,0,1,0-.351.436.436,0,0,1,.869.03c0,.051,0,.1,0,.154Z" fill="#ffab00"/>
      <path id="Path_706" data-name="Path 706" d="M542.818,346.615a1.479,1.479,0,0,1-.021.251.432.432,0,0,1-.47.318.44.44,0,0,1-.386-.4,2.226,2.226,0,0,1,0-.337.436.436,0,0,1,.87.03c0,.047,0,.094,0,.141Z" fill="#ffab00"/>
      <path id="Path_707" data-name="Path 707" d="M544.4,346.613a1.588,1.588,0,0,1-.022.25.431.431,0,0,1-.468.321.438.438,0,0,1-.387-.4,2.676,2.676,0,0,1,0-.323.436.436,0,0,1,.872.012c0,.046,0,.093,0,.14Z" fill="#ffab00"/>
      <path id="Path_708" data-name="Path 708" d="M545.967,346.621c0,.047,0,.094,0,.141a.436.436,0,0,1-.872.013,2.927,2.927,0,0,1,0-.324.436.436,0,0,1,.871,0c0,.056,0,.113,0,.169Z" fill="#ffab00"/>
      <path id="Path_709" data-name="Path 709" d="M546,348.5a1.808,1.808,0,0,1-.118.378.4.4,0,0,1-.467.168.433.433,0,0,1-.317-.388,2.918,2.918,0,0,1,0-.31.437.437,0,0,1,.873,0c0,.047,0,.094,0,.141Z" fill="#ffab00"/>
      <path id="Path_710" data-name="Path 710" d="M544.389,344.89a.436.436,0,0,1-.87.016,2.491,2.491,0,0,1,0-.323.436.436,0,0,1,.872.012c0,.047,0,.094,0,.141S544.391,344.839,544.389,344.89Z" fill="#ffab00"/>
      <path id="Path_711" data-name="Path 711" d="M545.967,344.735c0,.052,0,.1,0,.155a.436.436,0,0,1-.872,0,2.91,2.91,0,0,1,0-.323.436.436,0,0,1,.871.012C545.969,344.632,545.967,344.684,545.967,344.735Z" fill="#ffab00"/>
    </g>
  </g>
</svg>
