<svg xmlns="http://www.w3.org/2000/svg" width="24.934" height="24.934" viewBox="0 0 24.934 24.934">
  <g id="Group_119" data-name="Group 119" transform="translate(-531.374 -382.645)">
    <rect id="Rectangle_59" data-name="Rectangle 59" width="24.934" height="24.934" rx="12.284" transform="translate(531.374 382.645)" fill="#e8e8e8" opacity="0.85"/>
    <g id="Group_71" data-name="Group 71" transform="translate(-1090.946)">
      <path id="Path_652" data-name="Path 652" d="M1640.723,394.741v.742c-.006.03-.015.06-.019.09-.041.275-.066.552-.122.824a5.937,5.937,0,0,1-4.76,4.559c-.22.036-.442.061-.663.092h-.742a.733.733,0,0,0-.078-.019c-.271-.039-.544-.065-.812-.119a5.937,5.937,0,0,1-4.582-4.752c-.036-.224-.062-.45-.093-.675v-.742c.038-.263.067-.527.115-.788a5.936,5.936,0,0,1,4.786-4.685c.221-.036.443-.061.664-.091h.742c.029.006.059.014.089.019.3.047.614.075.913.144a5.925,5.925,0,0,1,4.472,4.749C1640.669,394.306,1640.693,394.524,1640.723,394.741Zm-5.931,5.379a5.008,5.008,0,1,0-5.012-5A5.017,5.017,0,0,0,1634.792,400.12Z" fill="#ec2329"/>
      <path id="Path_653" data-name="Path 653" d="M1634.371,398.249c-.048-.1-.1-.2-.144-.3a1.348,1.348,0,0,1-.032-1.09,6.017,6.017,0,0,0,.209-.66c.041-.158.012-.211-.15-.256a2.256,2.256,0,0,0-.522-.082c-.394-.012-.788.005-1.182-.007a2.511,2.511,0,0,1-.594-.076,1.162,1.162,0,0,1-.615-1.874,2.67,2.67,0,0,1,.77-.624c.181-.109.363-.219.543-.331a1.469,1.469,0,0,0,.167-.125c.212-.182.212-.308-.009-.485a1.516,1.516,0,0,0-.276-.167.468.468,0,0,1-.248-.582.449.449,0,0,1,.563-.282,1.525,1.525,0,0,1,1,.945,1.039,1.039,0,0,1-.184,1.025,2.743,2.743,0,0,1-.773.62c-.21.13-.423.255-.626.4a.83.83,0,0,0-.22.233.215.215,0,0,0,.131.347,1.524,1.524,0,0,0,.387.054c.386.006.773-.011,1.159.007a3.215,3.215,0,0,1,.764.108,1.081,1.081,0,0,1,.82,1.377,3.29,3.29,0,0,1-.206.661.661.661,0,0,0,.033.627,3.163,3.163,0,0,1,.26.615,1.153,1.153,0,0,1,.023.468.686.686,0,0,1-.887.622,1.308,1.308,0,0,1-.734-.388,1.191,1.191,0,0,1-.148-.162,1.408,1.408,0,0,0-.868-.572,5.25,5.25,0,0,1-.675-.238,1.06,1.06,0,0,1-.674-.947,1.838,1.838,0,0,1,0-.278.467.467,0,0,1,.471-.435.461.461,0,0,1,.453.452c0,.346,0,.32.331.445.213.08.434.138.65.209a1.867,1.867,0,0,1,.924.648c.031.04.064.077.1.115Z" fill="#f8981c"/>
      <g id="Group_70" data-name="Group 70">
        <path id="Path_654" data-name="Path 654" d="M1638.108,394.1l-1-.113a1.263,1.263,0,0,0-.15-.012.47.47,0,0,0-.488.619.236.236,0,0,0,.278.215,4.5,4.5,0,0,1,.463-.018,1.143,1.143,0,0,1,.692.318,1.751,1.751,0,0,1,.569.921.805.805,0,0,0,.194.386.449.449,0,0,1-.024.62.457.457,0,0,1-.621.032,1.3,1.3,0,0,1-.424-.727,1.049,1.049,0,0,0-.268-.5.386.386,0,0,0-.366-.118,1.182,1.182,0,0,1-1.43-1.165,1.4,1.4,0,0,1,1.641-1.5c.351.047.706.075,1.06.1a.469.469,0,0,1,.449.468.464.464,0,0,1-.457.46h-.116Z" fill="#25aae1"/>
        <path id="Path_655" data-name="Path 655" d="M1636.16,391.489c.255-.037.5-.087.749-.105a.456.456,0,0,1,.5.45.465.465,0,0,1-.479.473,1.706,1.706,0,0,0-.707.2.723.723,0,0,1-1.046-.513,1.293,1.293,0,0,1,.136-.784.43.43,0,0,1,.5-.207.453.453,0,0,1,.352.421C1636.161,391.447,1636.16,391.474,1636.16,391.489Z" fill="#25aae1"/>
      </g>
    </g>
  </g>
</svg>
