<svg xmlns="http://www.w3.org/2000/svg" width="24.934" height="24.934" viewBox="0 0 24.934 24.934">
  <g id="Group_106" data-name="Group 106" transform="translate(-776.385 -382.698)">
    <rect id="Rectangle_26" data-name="Rectangle 26" width="24.934" height="24.934" rx="12.467" transform="translate(776.385 382.698)" fill="#e8e8e8" opacity="0.85"/>
    <g id="Group_53" data-name="Group 53" transform="translate(-2163.566)">
      <rect id="Rectangle_40" data-name="Rectangle 40" width="9.981" height="0.503" transform="translate(2947.451 392.69)"/>
      <path id="Path_430" data-name="Path 430" d="M2949.451,395.9a.748.748,0,0,0,.766.744c.152,0,.3,0,.456,0a.246.246,0,1,1-.005.49,4.444,4.444,0,0,1-.8-.05,1.216,1.216,0,0,1-.906-1.293,1.238,1.238,0,0,1,1.185-1.123c.081,0,.162,0,.244,0h0c.1,0,.2,0,.3,0a.24.24,0,0,1,.246.239.242.242,0,0,1-.247.251c-.155,0-.311,0-.467,0A.745.745,0,0,0,2949.451,395.9Z" fill="#2e7dba"/>
      <path id="Path_431" data-name="Path 431" d="M2953.377,395.038c-.077.212-.158.424-.237.636q-.234.625-.469,1.25c-.057.152-.133.217-.254.217s-.2-.065-.253-.218q-.353-.943-.705-1.886a.248.248,0,0,1,.26-.361.269.269,0,0,1,.208.2c.148.4.3.794.447,1.191.01.029.023.058.046.115l.442-1.177c.018-.046.033-.093.051-.139a.254.254,0,0,1,.331-.182A.25.25,0,0,1,2953.377,395.038Z" fill="#2e7dba"/>
      <path id="Path_432" data-name="Path 432" d="M2955.858,395.01c-.1.283-.209.563-.314.844q-.2.545-.409,1.091a.255.255,0,0,1-.247.2c-.116,0-.191-.061-.243-.2q-.359-.952-.716-1.9a.249.249,0,0,1,.26-.362.26.26,0,0,1,.205.192q.222.6.446,1.19l.051.129c.171-.456.335-.888.5-1.322a.254.254,0,0,1,.217-.19A.242.242,0,0,1,2955.858,395.01Z" fill="#2e7dba"/>
      <rect id="Rectangle_41" data-name="Rectangle 41" width="9.981" height="0.503" transform="translate(2947.451 392.69)" fill="#ffab00"/>
      <path id="Path_433" data-name="Path 433" d="M2957.854,392.117a.969.969,0,0,0-.053-.311.885.885,0,0,0-.9-.6h-8.973l-.085,0a.886.886,0,0,0-.806.574c-.023.063-.04.128-.06.192v6.372a.928.928,0,0,0,1.089.767h4.025q2.415,0,4.831,0a.887.887,0,0,0,.93-.906Q2957.858,395.165,2957.854,392.117Zm-.49,1.193q0,2.426,0,4.852a.414.414,0,0,1-.464.465h-8.962a.413.413,0,0,1-.464-.465v-4.969h.017v-.5h0c0-.23-.015-.456,0-.679a.368.368,0,0,1,.359-.306c.039,0,.078,0,.117,0h8.9c.35,0,.5.146.5.5Z" fill="#fe0000"/>
    </g>
  </g>
</svg>
