<svg xmlns="http://www.w3.org/2000/svg" width="28.377" height="26.493" viewBox="0 0 28.377 26.493">
  <g id="Group_212" data-name="Group 212" transform="translate(3904.5 54.751)">
    <path id="Path_99" data-name="Path 99" d="M-3904.5-35.741V-52.59a.785.785,0,0,0,.041-.1,2.491,2.491,0,0,1,2.628-2.061h23.055a2.5,2.5,0,0,1,2.653,2.656q0,7.925,0,15.85a2.5,2.5,0,0,1-2.672,2.665h-7.875l.611,3.658c.354,0,.685,0,1.016,0a.836.836,0,0,1,.883.833.834.834,0,0,1-.887.828q-5.265,0-10.53,0a.834.834,0,0,1-.885-.83.837.837,0,0,1,.885-.83c.331,0,.662,0,1.014,0l.609-3.658h-.366q-3.824,0-7.648,0a2.5,2.5,0,0,1-2.4-1.71C-3904.422-35.439-3904.458-35.591-3904.5-35.741Zm13.357-17.348h-10.726a.856.856,0,0,0-.968.97q0,7.952,0,15.9a.856.856,0,0,0,.966.972h23.107a.862.862,0,0,0,.978-.989q0-7.938,0-15.876a.861.861,0,0,0-.985-.981h-10.709c0,.314,0,.6,0,.882a.839.839,0,0,1-.825.89.836.836,0,0,1-.836-.88C-3891.146-52.481-3891.143-52.766-3891.143-53.089Zm-1.732,23.152h5.126l-.606-3.626h-3.916C-3892.472-32.352-3892.672-31.153-3892.875-29.937Z" fill="#fff"/>
    <path id="Path_100" data-name="Path 100" d="M-3690.1,28.069a4.83,4.83,0,0,1-4.83,4.827,4.832,4.832,0,0,1-4.813-4.817,4.829,4.829,0,0,1,4.83-4.826A4.829,4.829,0,0,1-3690.1,28.069Zm-5.653-3.01a3.1,3.1,0,0,0-1.893,4.561c.608-.608,1.215-1.212,1.817-1.821a.267.267,0,0,0,.073-.168C-3695.756,26.776-3695.757,25.919-3695.757,25.059Zm-.724,5.752a3.123,3.123,0,0,0,4.572-1.9c-.851,0-1.7,0-2.546,0a.3.3,0,0,0-.194.074C-3695.259,29.584-3695.863,30.191-3696.481,30.811Zm2.408-5.782v2.2h2.193A3.2,3.2,0,0,0-3694.074,25.029Z" transform="translate(-189.622 -72.24)" fill="#fff"/>
    <path id="Path_101" data-name="Path 101" d="M-3850.551,26.055h1.885c0-.731,0-1.449,0-2.167,0-.194-.008-.388,0-.582a.834.834,0,0,1,.818-.783.811.811,0,0,1,.832.765q.024,1.842,0,3.685a.8.8,0,0,1-.866.758c-.794,0-1.589,0-2.383,0h-4.544a.851.851,0,0,1-.954-.957q0-4.336,0-8.673a.838.838,0,0,1,.448-.8.771.771,0,0,1,.839.041.885.885,0,0,1,.379.812q-.007,3.768,0,7.537v.354h1.885v-.286c0-1.672,0-3.344,0-5.015a.827.827,0,0,1,1.178-.8.84.84,0,0,1,.484.833q0,2.48,0,4.96Z" transform="translate(-45.136 -66.632)" fill="#fff"/>
  </g>
</svg>
