<svg xmlns="http://www.w3.org/2000/svg" width="29.363" height="27.414" viewBox="0 0 29.363 27.414">
  <g id="Group_213" data-name="Group 213" transform="translate(3904.5 54.751)">
    <path id="Path_99" data-name="Path 99" d="M-3904.5-35.081V-52.515a.838.838,0,0,0,.042-.1,2.577,2.577,0,0,1,2.72-2.132h23.856A2.584,2.584,0,0,1-3875.137-52q0,8.2,0,16.4a2.589,2.589,0,0,1-2.764,2.758h-8.149c.214,1.286.422,2.527.632,3.785.366,0,.708,0,1.051,0a.865.865,0,0,1,.914.862.863.863,0,0,1-.918.857q-5.448,0-10.9,0a.864.864,0,0,1-.916-.859.867.867,0,0,1,.916-.859c.342,0,.684,0,1.049,0,.211-1.265.418-2.511.63-3.785h-.379q-3.957,0-7.914,0a2.584,2.584,0,0,1-2.488-1.77C-3904.419-34.768-3904.457-34.925-3904.5-35.081Zm13.821-17.95h-11.1a.885.885,0,0,0-1,1q0,8.228,0,16.456a.886.886,0,0,0,1,1.006h23.91a.891.891,0,0,0,1.012-1.023q0-8.214,0-16.427a.89.89,0,0,0-1.019-1.015h-11.082c0,.325,0,.619,0,.913a.868.868,0,0,1-.854.921.866.866,0,0,1-.865-.91C-3890.682-52.4-3890.679-52.7-3890.679-53.031Zm-1.792,23.956h5.3c-.211-1.265-.419-2.512-.627-3.752h-4.052C-3892.054-31.573-3892.261-30.333-3892.471-29.075Z" transform="translate(0 0)" fill="#fe0000"/>
    <path id="Path_100" data-name="Path 100" d="M-3689.769,28.236a5,5,0,0,1-5,4.995,5,5,0,0,1-4.98-4.984,5,5,0,0,1,5-4.994A5,5,0,0,1-3689.769,28.236Zm-5.85-3.114a3.207,3.207,0,0,0-1.958,4.719c.629-.629,1.257-1.255,1.88-1.884a.272.272,0,0,0,.075-.174C-3695.617,26.9-3695.619,26.012-3695.619,25.122Zm-.749,5.951a3.231,3.231,0,0,0,4.731-1.971c-.88,0-1.757,0-2.634,0a.314.314,0,0,0-.2.076C-3695.1,29.8-3695.728,30.432-3696.368,31.073Zm2.491-5.983v2.277h2.269A3.315,3.315,0,0,0-3693.876,25.091Z" transform="translate(-189.096 -72.04)" fill="#ffab00"/>
    <path id="Path_101" data-name="Path 101" d="M-3850.371,26.363h1.95c0-.757,0-1.5,0-2.243,0-.2-.009-.4,0-.6a.863.863,0,0,1,.847-.811.839.839,0,0,1,.861.792q.025,1.906,0,3.813a.832.832,0,0,1-.9.784c-.822,0-1.644,0-2.466,0q-2.351,0-4.7,0a.88.88,0,0,1-.987-.99q0-4.487,0-8.974a.866.866,0,0,1,.463-.827.8.8,0,0,1,.868.042.916.916,0,0,1,.392.841q-.007,3.9,0,7.8v.367h1.95v-.3c0-1.73,0-3.46,0-5.19a.856.856,0,0,1,1.219-.83.869.869,0,0,1,.5.861q0,2.566,0,5.132Z" transform="translate(-45.011 -66.447)" fill="#2e7dba"/>
  </g>
</svg>
