<svg xmlns="http://www.w3.org/2000/svg" width="14.356" height="8.476" viewBox="0 0 14.356 8.476">
  <path id="Path_434" data-name="Path 434" d="M3140.692,343.331a2.4,2.4,0,0,1,.791-.937.75.75,0,0,1,.934,0,1.907,1.907,0,0,1,.176.161q2.576,2.574,5.149,5.15c.039.039.071.085.136.166a1.37,1.37,0,0,1,.116-.166q2.589-2.591,5.179-5.18a.741.741,0,0,1,1-.168,3.933,3.933,0,0,1,.754.759.718.718,0,0,1-.076.9,1.619,1.619,0,0,1-.114.123q-3.115,3.123-6.233,6.245a2.114,2.114,0,0,1-.165.151.714.714,0,0,1-.938,0,2.249,2.249,0,0,1-.175-.161q-3.034-3.045-6.071-6.09a1.624,1.624,0,0,1-.46-.636Z" transform="translate(-3140.692 -342.227)" fill="#2e7dba"/>
</svg>
