<svg xmlns="http://www.w3.org/2000/svg" width="19.301" height="19.632" viewBox="0 0 19.301 19.632">
  <path id="Path_165" data-name="Path 165" d="M5430.975-3304.767a3.087,3.087,0,0,1,2.874,1.994,3.188,3.188,0,0,1-.613,3.613c-1.474,1.576-3.009,3.094-4.518,4.637q-3.768,3.85-7.542,7.693a1.869,1.869,0,0,1-.679.426c-1.118.4-2.245.775-3.368,1.158a1.607,1.607,0,0,1-1.776-.4,1.645,1.645,0,0,1-.4-1.77c.384-1.18.763-2.362,1.163-3.536a1.589,1.589,0,0,1,.36-.576q5.969-6.115,11.948-12.218A3.39,3.39,0,0,1,5430.975-3304.767Zm-10.514,16.25,9.19-9.389-2.339-2.272-9.176,9.376Zm10.378-10.723c.39-.364.854-.739,1.245-1.18a1.633,1.633,0,0,0-.085-2.183,1.587,1.587,0,0,0-2.138-.15c-.462.39-.866.849-1.307,1.288Zm-12,11.614-1.541-1.514-.75,2.3Z" transform="translate(-5414.851 3304.767)" fill="#fe0000"/>
</svg>
