<svg xmlns="http://www.w3.org/2000/svg" width="45.933" height="45.933" viewBox="0 0 45.933 45.933">
  <g id="Group_211" data-name="Group 211" transform="translate(3161.999 382.5)">
    <path id="Path_81" data-name="Path 81" d="M-3140.917-382.5h3.678a4.381,4.381,0,0,0,1.162.182c.011.193.03.386.03.579q0,9.343-.008,18.685c0,.433.111.542.542.541q9.342-.022,18.685-.009c.193,0,.386.02.579.031a4.284,4.284,0,0,0,.182,1.162v3.589a4.381,4.381,0,0,0-.183,1.162c-.192.011-.386.031-.579.031q-9.343,0-18.686-.008c-.431,0-.542.108-.542.541q.022,9.343.009,18.686c0,.193-.02.386-.03.579a24.18,24.18,0,0,1-5.913,0c-.01-.193-.03-.386-.03-.579q0-9.343.009-18.686c0-.432-.111-.542-.542-.541q-9.343.022-18.686.008c-.193,0-.386-.02-.579-.031a24.153,24.153,0,0,1,0-5.913c.193-.011.386-.031.579-.031q9.342,0,18.685.009c.431,0,.543-.108.542-.541q-.022-9.343-.009-18.685c0-.193.02-.386.031-.579A3.224,3.224,0,0,0-3140.917-382.5Z" fill="#d70027"/>
    <path id="Path_82" data-name="Path 82" d="M-2930.028-154.793a2.088,2.088,0,0,1-.669.764q-4.215-4.212-8.432-8.422c-.112-.112-.194-.284-.381-.285-.872,0-1.743,0-2.7,0,.169.18.265.289.367.391q4.277,4.277,8.554,8.553c.411.411.809.834,1.213,1.251a10.556,10.556,0,0,1-2.214,2.015q-3.909-3.917-7.82-7.833c-.023-.023-.073-.018-.118-.028v11.8a19.282,19.282,0,0,1-3.056.63c.011-.193.031-.386.031-.579q0-9.343-.009-18.686c0-.432.111-.542.542-.541q9.343.022,18.686.008c.193,0,.386-.02.579-.031a20.5,20.5,0,0,1-.631,3.056q-5.869,0-11.738,0c-.021,0-.041.031-.114.089.493.48.985.952,1.469,1.432Q-2933.247-158-2930.028-154.793Z" transform="translate(-190.791 -190.792)" fill="#edebec"/>
    <path id="Path_83" data-name="Path 83" d="M-3153.893-152.576a10.586,10.586,0,0,1-2.014-2.215q3.917-3.908,7.832-7.819c.023-.023.018-.073.028-.119h-11.8a16.134,16.134,0,0,1-.542-2.491c-.035-.188-.06-.377-.09-.565.193.011.386.031.579.031q9.342,0,18.686-.008c.431,0,.542.108.542.541q-.022,9.343-.009,18.686c0,.193.02.386.031.579a20.3,20.3,0,0,1-3.056-.631q0-5.869,0-11.739c0-.02-.031-.041-.1-.122-.552.57-1.093,1.141-1.647,1.7q-3.094,3.115-6.2,6.222a2.1,2.1,0,0,1-.765-.669q4.212-4.215,8.422-8.432c.112-.112.285-.194.285-.381.005-.871,0-1.743,0-2.7-.192.182-.311.289-.423.4q-4.705,4.7-9.41,9.408C-3153.646-152.789-3153.772-152.685-3153.893-152.576Z" transform="translate(-1.338 -190.793)" fill="#edebec"/>
    <path id="Path_84" data-name="Path 84" d="M-3143.707-380.348a16.312,16.312,0,0,1,2.482-.54c.19-.036.382-.061.573-.091-.01.193-.031.386-.031.579q0,9.343.009,18.685c0,.433-.111.542-.542.541q-9.342-.022-18.685-.009c-.193,0-.386.02-.579.031a20.272,20.272,0,0,1,.632-3.056q5.87,0,11.74,0c.02,0,.041-.031.1-.082-.637-.63-1.271-1.255-1.9-1.883q-3-2.987-6-5.975a2.1,2.1,0,0,1,.669-.762q4.216,4.212,8.434,8.423c.112.112.193.284.381.285.871,0,1.743,0,2.7,0-.158-.171-.243-.269-.334-.36q-4.15-4.152-8.3-8.3c-.506-.506-1-1.023-1.5-1.535a8.751,8.751,0,0,1,1.683-1.619,1.5,1.5,0,0,1,.53-.394q3.909,3.916,7.819,7.831c.023.023.073.018.117.028Z" transform="translate(-1.337 -1.339)" fill="#eeeced"/>
    <path id="Path_85" data-name="Path 85" d="M-2945.284-380.979a19.286,19.286,0,0,1,3.056.63q0,5.871,0,11.742c0,.02.031.041.08.1.6-.6,1.194-1.206,1.79-1.806l6.071-6.1a2.091,2.091,0,0,1,.763.669q-4.212,4.216-8.422,8.433c-.112.112-.285.194-.286.38-.005.871,0,1.743,0,2.706.192-.181.31-.287.423-.4q4.706-4.7,9.411-9.409c.115-.115.242-.219.363-.329a10.319,10.319,0,0,1,2.016,2.214q-3.916,3.908-7.83,7.818c-.023.023-.018.073-.028.118h11.8a16.361,16.361,0,0,1,.54,2.482c.036.19.061.382.091.573-.193-.011-.386-.031-.579-.031q-9.343,0-18.685.009c-.431,0-.543-.108-.542-.541q.022-9.343.009-18.685C-2945.253-380.593-2945.273-380.786-2945.284-380.979Z" transform="translate(-190.792 -1.339)" fill="#eeeced"/>
    <path id="Path_86" data-name="Path 86" d="M-2919.74-92.148v-11.8c.045.01.095,0,.118.028q3.912,3.914,7.82,7.833a22.025,22.025,0,0,1-7.25,3.759C-2919.279-92.26-2919.511-92.208-2919.74-92.148Z" transform="translate(-213.281 -245.231)" fill="#0152b3"/>
    <path id="Path_87" data-name="Path 87" d="M-3151.259-307.123q3,2.988,6,5.975c.631.628,1.266,1.253,1.9,1.883-.062.05-.082.082-.1.082q-5.87,0-11.74,0A21.593,21.593,0,0,1-3151.259-307.123Z" transform="translate(-5.987 -66.361)" fill="#0152b3"/>
    <path id="Path_88" data-name="Path 88" d="M-3155.2-140.238h11.8c-.01.046-.006.1-.028.119q-3.914,3.911-7.832,7.819a21.738,21.738,0,0,1-3.392-6.148A12.61,12.61,0,0,1-3155.2-140.238Z" transform="translate(-5.986 -213.283)" fill="#0152b3"/>
    <path id="Path_89" data-name="Path 89" d="M-3078.669-375.706v11.8c-.044-.009-.094,0-.117-.027q-3.911-3.913-7.819-7.831a21.55,21.55,0,0,1,5.937-3.314A14.452,14.452,0,0,1-3078.669-375.706Z" transform="translate(-66.376 -5.981)" fill="#0152b3"/>
    <path id="Path_90" data-name="Path 90" d="M-2875.965-132.322q-3.221-3.209-6.443-6.417c-.483-.481-.975-.952-1.469-1.432.073-.058.093-.089.114-.089q5.869,0,11.738,0A21.7,21.7,0,0,1-2875.965-132.322Z" transform="translate(-244.854 -213.263)" fill="#0152b3"/>
    <path id="Path_91" data-name="Path 91" d="M-3086.6-96.531q3.1-3.111,6.2-6.222c.554-.558,1.095-1.128,1.647-1.7.065.081.1.1.1.122q0,5.869,0,11.739A21.731,21.731,0,0,1-3086.6-96.531Z" transform="translate(-66.378 -244.789)" fill="#0152b3"/>
    <path id="Path_92" data-name="Path 92" d="M-3115.285-325.942c.5.512,1,1.029,1.5,1.535q4.149,4.154,8.3,8.3c.091.092.176.19.334.36-.96,0-1.832,0-2.7,0-.188,0-.27-.173-.381-.285q-4.219-4.209-8.434-8.423A4.678,4.678,0,0,1-3115.285-325.942Z" transform="translate(-39.909 -49.793)" fill="#d8052b"/>
    <path id="Path_93" data-name="Path 93" d="M-2909.455-130.118c-.4-.417-.8-.84-1.213-1.251q-4.275-4.278-8.554-8.553c-.1-.1-.2-.211-.367-.391.958,0,1.83,0,2.7,0,.188,0,.269.173.381.285q4.218,4.208,8.432,8.422A4.667,4.667,0,0,1-2909.455-130.118Z" transform="translate(-213.413 -213.217)" fill="#d70128"/>
    <path id="Path_94" data-name="Path 94" d="M-3105.424-129.986c.121-.109.247-.213.363-.328q4.706-4.7,9.41-9.408c.113-.113.231-.22.423-.4,0,.962,0,1.834,0,2.7,0,.187-.174.269-.286.381q-4.208,4.218-8.422,8.432A4.706,4.706,0,0,1-3105.424-129.986Z" transform="translate(-49.808 -213.383)" fill="#d70128"/>
    <path id="Path_95" data-name="Path 95" d="M-2911.829-371.769q-3.036,3.048-6.071,6.1c-.6.6-1.191,1.2-1.79,1.806-.049-.06-.08-.081-.08-.1q0-5.871,0-11.742A21.558,21.558,0,0,1-2911.829-371.769Z" transform="translate(-213.254 -5.978)" fill="#0152b3"/>
    <path id="Path_96" data-name="Path 96" d="M-2871.631-299.169h-11.8c.01-.045.005-.095.028-.118q3.913-3.911,7.831-7.818a22.018,22.018,0,0,1,3.758,7.247C-2871.743-299.631-2871.692-299.4-2871.631-299.169Z" transform="translate(-245.247 -66.376)" fill="#0152b3"/>
    <path id="Path_97" data-name="Path 97" d="M-2909.636-335.786c-.121.109-.247.214-.363.329q-4.706,4.7-9.411,9.409c-.112.112-.23.218-.423.4,0-.963,0-1.834,0-2.706,0-.187.175-.268.286-.38q4.208-4.219,8.422-8.433A4.483,4.483,0,0,1-2909.636-335.786Z" transform="translate(-213.199 -39.91)" fill="#d8052b"/>
  </g>
</svg>
