<svg xmlns="http://www.w3.org/2000/svg" width="24.934" height="24.934" viewBox="0 0 24.934 24.934">
  <g id="Group_107" data-name="Group 107" transform="translate(-531.374 -382.645)">
    <rect id="Rectangle_32" data-name="Rectangle 32" width="24.934" height="24.934" rx="12.284" transform="translate(531.374 382.645)" fill="#e8e8e8" opacity="0.85"/>
    <g id="Group_52" data-name="Group 52" transform="translate(-2163.566)">
      <path id="Path_424" data-name="Path 424" d="M2710.1,392.563a3.781,3.781,0,0,0-1.738-1.635,3.853,3.853,0,0,0-5.049,5.274,3.891,3.891,0,0,0,4.449,1.938l-.025-.73a.213.213,0,0,1-.048.02,3.163,3.163,0,1,1,2.166-3.448c.02.145.025.293.031.367a3.714,3.714,0,0,1-.147,1.033c-.015.052-.035.089-.074.1l.774-.006A3.835,3.835,0,0,0,2710.1,392.563Z" fill="#ffab00"/>
      <path id="Path_425" data-name="Path 425" d="M2707.539,389.229c-.164-.026-.329-.044-.493-.066h-.651c-.206.029-.413.053-.618.09a5.125,5.125,0,0,0-2.777,1.466,5.057,5.057,0,0,0-1.472,2.937,5.254,5.254,0,0,0,6.244,5.9l.027,0-.017-.72a4.549,4.549,0,1,1,3.367-3.365l.718-.006A5.265,5.265,0,0,0,2707.539,389.229Z" fill="#2e7dba"/>
      <path id="Path_426" data-name="Path 426" d="M2706.378,394.41v-1.761a.344.344,0,0,1,.344-.344h0a.344.344,0,0,1,.343.344v1.071a.344.344,0,0,0,.344.344h1.077a.343.343,0,0,1,.343.343v0a.343.343,0,0,1-.343.344h-1.764A.344.344,0,0,1,2706.378,394.41Z" fill="#ffab00"/>
      <g id="Group_51" data-name="Group 51">
        <path id="Path_427" data-name="Path 427" d="M2713.339,397.183a.267.267,0,0,0-.07-.169q-.672-.683-1.354-1.356c-.063-.063-.066-.1-.048-.193l-.718.006c0,.005-.714.005-.714.005l-.774.006c-.022.028-.343.041-.449.15q-.454.467-.917.925l-.421.414a.437.437,0,0,0-.087.113c-.023.047-.041.3-.054.326l.028,1.432.04.716a.163.163,0,0,1,.12.059q.684.688,1.373,1.37a.267.267,0,0,0,.168.072q1.092.006,2.184,0a.268.268,0,0,0,.169-.071q.731-.722,1.453-1.454a.263.263,0,0,0,.071-.168Q2713.346,398.274,2713.339,397.183Zm-.7,1.9a.244.244,0,0,1-.063.149q-.525.534-1.06,1.059a.257.257,0,0,1-.159.067c-.267.006-.534,0-.8,0s-.542,0-.813,0a.239.239,0,0,1-.15-.059q-.538-.529-1.068-1.068a.23.23,0,0,1-.063-.149q-.006-.813,0-1.626a.235.235,0,0,1,.063-.148q.53-.539,1.068-1.068a.216.216,0,0,1,.139-.059q.819-.006,1.638,0a.227.227,0,0,1,.139.059q.537.529,1.067,1.068a.237.237,0,0,1,.063.149Q2712.649,398.274,2712.643,399.087Z" fill="#fe0000"/>
        <path id="Path_428" data-name="Path 428" d="M2710.214,396.885h.683v1.379h-.683Z" fill="#fe0000"/>
        <path id="Path_429" data-name="Path 429" d="M2710.208,399.66v-.68h.687v.68Z" fill="#fe0000"/>
      </g>
    </g>
  </g>
</svg>
