<svg xmlns="http://www.w3.org/2000/svg" width="30.021" height="24" viewBox="0 0 30.021 24">
  <g id="Group_247" data-name="Group 247" transform="translate(-4847.241 5802.138)">
    <path id="Path_149" data-name="Path 149" d="M4974.5-5794.057v.424q0,7.084,0,14.168a2.819,2.819,0,0,1-.012.4,1.084,1.084,0,0,1-1.105.92,1.084,1.084,0,0,1-1.023-1.011c-.01-.156,0-.313,0-.468v-14.429a4.156,4.156,0,0,1-2.929-4.917,4.1,4.1,0,0,1,4.08-3.168,4.1,4.1,0,0,1,3.941,3.256A4.159,4.159,0,0,1,4974.5-5794.057Zm-3.027-3.986a1.945,1.945,0,0,0,1.936,1.978,1.947,1.947,0,0,0,1.974-1.939,1.949,1.949,0,0,0-1.936-1.978A1.947,1.947,0,0,0,4971.469-5798.042Z" transform="translate(-111.172)" fill="#fe0000"/>
    <path id="Path_150" data-name="Path 150" d="M5094.64-5782.352c-2.041-.831-3.035-2.154-3.022-3.995a4.131,4.131,0,0,1,3.022-3.934v-.382q0-5.073,0-10.146a1.068,1.068,0,0,1,1.45-1.068,1.1,1.1,0,0,1,.691,1.084c0,1.351,0,2.7,0,4.051q0,3.082,0,6.162c0,.193.017.313.243.393a4.048,4.048,0,0,1,2.78,3.894,4.079,4.079,0,0,1-2.81,3.845c-.063.022-.125.049-.211.084,0,1.03,0,2.067,0,3.1a2.015,2.015,0,0,1-.04.464,1.068,1.068,0,0,1-1.147.818,1.066,1.066,0,0,1-.951-1.041c-.011-.972,0-1.942,0-2.914Zm-.886-4.021a1.948,1.948,0,0,0,1.943,2,1.952,1.952,0,0,0,1.967-1.915,1.952,1.952,0,0,0-1.911-2A1.948,1.948,0,0,0,5093.754-5786.373Z" transform="translate(-222.542 -0.17)" fill="#ffab00"/>
    <path id="Path_151" data-name="Path 151" d="M4852.406-5797.491c0,1.105.005,2.211,0,3.316a.325.325,0,0,0,.269.374,4.051,4.051,0,0,1,2.758,3.846,4.037,4.037,0,0,1-2.734,3.86.367.367,0,0,0-.292.427c.007,2.2,0,4.4,0,6.6a1.039,1.039,0,0,1-.635,1.015,1,1,0,0,1-1.151-.185,1.149,1.149,0,0,1-.361-.935c0-2.155,0-4.311.008-6.465a.412.412,0,0,0-.327-.472,4.045,4.045,0,0,1-2.7-3.818,4.037,4.037,0,0,1,2.677-3.833.452.452,0,0,0,.35-.523q-.018-3.25,0-6.5a1.07,1.07,0,0,1,1.422-1.082,1.068,1.068,0,0,1,.719,1.06C4852.409-5799.7,4852.406-5798.6,4852.406-5797.491Zm-1.063,9.5a1.952,1.952,0,0,0,1.966-1.95,1.951,1.951,0,0,0-1.957-1.959,1.95,1.95,0,0,0-1.965,1.949A1.95,1.95,0,0,0,4851.343-5787.987Z" transform="translate(0 -0.189)" fill="#2e7dba"/>
  </g>
</svg>
