<svg id="Layer_1" data-name="Layer 1" xmlns="http://www.w3.org/2000/svg" viewBox="0 0 64 64"><defs><style>.cls-1{fill:#fe0000;}.cls-2{fill:#2e7dba;}.cls-3{fill:#ffab00;}</style></defs><title>ICONS Third file</title><path class="cls-1" d="M64,33.89c-.21,1.39-.36,2.8-.63,4.18a30,30,0,0,1-24,23.45A29,29,0,0,1,16,56a27.12,27.12,0,0,1-5.46-5.63A2,2,0,1,1,13.71,48,24,24,0,0,0,29,57.58,26,26,0,1,0,8.54,26.72c-.06.3-.11.61-.16.92l.19.17c.31-.38.58-.78.92-1.12a2,2,0,1,1,2.84,2.79q-2.41,2.45-4.86,4.86A2,2,0,0,1,4.28,34q-2-2.9-3.88-5.82A2,2,0,1,1,3.72,26c.2.29.39.58.66,1,.09-.33.15-.55.2-.78C7.44,13.88,14.95,5.91,27.15,2.85c16.6-4.16,33.43,7,36.36,23.84.2,1.14.33,2.3.49,3.44Z"/><path class="cls-2" d="M33,34.57a2,2,0,0,1-2-2V14.92a2,2,0,1,1,4,0V32.57A2,2,0,0,1,33,34.57Z"/><path class="cls-3" d="M44.5,44a2,2,0,0,1-1.24-.43l-11.5-9.15a2,2,0,0,1,2.49-3.13l11.5,9.15A2,2,0,0,1,44.5,44Z"/></svg>