<svg xmlns="http://www.w3.org/2000/svg" width="39.247" height="31.422" viewBox="0 0 39.247 31.422">
  <g id="Group_210" data-name="Group 210" transform="translate(1918.5 542.298)">
    <path id="Path_79" data-name="Path 79" d="M-1718.566-515.556a12.443,12.443,0,0,1-.782,2.133,5.2,5.2,0,0,1-7.885,1.234c-.057-.051-.117-.1-.171-.154-3.557-3.557-7.145-7.083-10.657-10.684a5.088,5.088,0,0,1-.006-7.133c1.149-1.231,2.371-2.4,3.562-3.588q3.438-3.441,6.88-6.879a5.2,5.2,0,0,1,6.148-1.109,5.089,5.089,0,0,1,2.839,3.852,2.464,2.464,0,0,0,.072.255v1.15a.608.608,0,0,0-.056.141,5.479,5.479,0,0,1-1.728,3.239c-2.078,2.054-4.135,4.128-6.2,6.194-.1.1-.19.2-.3.315.108.114.2.216.3.313q3.153,3.153,6.308,6.3a5.423,5.423,0,0,1,1.56,2.752c.037.173.079.345.119.517Zm-12.1-11.051a4.06,4.06,0,0,0,.423-.311q4.04-4.033,8.074-8.072a5.191,5.191,0,0,0,.481-.545,2.6,2.6,0,0,0-.443-3.514,2.682,2.682,0,0,0-3.7.319q-5.055,5.05-10.1,10.107a3.625,3.625,0,0,0-.575.711,2.609,2.609,0,0,0,.553,3.338q5.063,5.068,10.133,10.132a5.127,5.127,0,0,0,.43.38,2.613,2.613,0,0,0,3.825-.725,2.63,2.63,0,0,0-.542-3.343q-4.061-4.066-8.129-8.125C-1730.33-526.355-1730.449-526.434-1730.662-526.607Z" transform="translate(-160.687)" fill="#2e7dba"/>
    <path id="Path_80" data-name="Path 80" d="M-1905.857-526.449c2.237,2.237,4.436,4.444,6.644,6.643a5.1,5.1,0,0,1,1.634,3.945,4.982,4.982,0,0,1-3.1,4.63,5.034,5.034,0,0,1-5.461-.746,5.062,5.062,0,0,1-.453-.413q-5.135-5.132-10.266-10.268a5.2,5.2,0,0,1-.818-6.585,5.954,5.954,0,0,1,.818-1.008q5.124-5.143,10.265-10.269a5.227,5.227,0,0,1,8.344,1.017,5.13,5.13,0,0,1-.653,6.047c-2.181,2.26-4.427,4.458-6.645,6.683C-1905.646-526.674-1905.739-526.572-1905.857-526.449Zm-3.777,0c.182-.15.3-.231.4-.329q4.039-4.034,8.073-8.073a5.3,5.3,0,0,0,.482-.544,2.605,2.605,0,0,0-.412-3.492,2.675,2.675,0,0,0-3.7.269q-5.084,5.075-10.157,10.161a3.475,3.475,0,0,0-.549.683,2.612,2.612,0,0,0,.554,3.338q5.063,5.068,10.133,10.131a4.942,4.942,0,0,0,.46.4,2.611,2.611,0,0,0,3.5-.349,2.612,2.612,0,0,0-.22-3.715q-4.073-4.082-8.155-8.153C-1909.33-526.22-1909.448-526.3-1909.634-526.452Z" transform="translate(0 -0.135)" fill="#2e7dba"/>
  </g>
</svg>
