<svg xmlns="http://www.w3.org/2000/svg" width="44.583" height="44.615" viewBox="0 0 44.583 44.615">
  <g id="Group_209" data-name="Group 209" transform="translate(2771.25 680.238)">
    <path id="Path_74" data-name="Path 74" d="M-2700.755-635.622a6.444,6.444,0,0,1-2.406-.946,5.549,5.549,0,0,1-2.329-4.282h-8.3a2.038,2.038,0,0,1-2.247-2.238,26.661,26.661,0,0,1,.2-3.423,7.057,7.057,0,0,1,1.8-3.66,6.061,6.061,0,0,0,1.565-4.218c-.014-2.846-.052-5.693.019-8.537a12.229,12.229,0,0,1,7.985-11.169.514.514,0,0,0,.407-.583,14.816,14.816,0,0,1,.079-2.344,3.87,3.87,0,0,1,4.091-3.208,3.927,3.927,0,0,1,3.651,3.719c.026.623.026,1.249,0,1.872a.46.46,0,0,0,.363.524,12.1,12.1,0,0,1,7.681,8.652,14.075,14.075,0,0,1,.353,3.188c.049,2.6.035,5.2.009,7.8a6.224,6.224,0,0,0,1.592,4.341,7.793,7.793,0,0,1,1.962,4.871c.038.768.039,1.539.023,2.308a2.032,2.032,0,0,1-2.164,2.108q-3.941,0-7.884,0h-.5c-.054.356-.084.7-.161,1.032a5.291,5.291,0,0,1-4.376,4.124,1.207,1.207,0,0,0-.2.073Zm12.284-13.092c-.056-.084-.082-.131-.115-.172a8.544,8.544,0,0,1-1.853-5.625q.042-3.964,0-7.929a9.712,9.712,0,0,0-11.816-9.6,9.726,9.726,0,0,0-7.6,9.626q-.021,4.051,0,8.1a8.391,8.391,0,0,1-1.807,5.379,2.572,2.572,0,0,0-.14.222Zm-24.882,5.218h26.53c-.043-.88-.085-1.722-.126-2.556h-26.4Zm10.527,2.661a2.692,2.692,0,0,0,2.923,2.591,2.608,2.608,0,0,0,2.4-2.591Zm3.983-34.028c0-.538.023-1.045-.006-1.55a1.3,1.3,0,0,0-1.257-1.21,1.277,1.277,0,0,0-1.317,1.09,15.883,15.883,0,0,0-.012,1.67Z" transform="translate(-48.797)" fill="#fe0000"/>
    <path id="Path_75" data-name="Path 75" d="M-2771.25-667.268c.106-.356.219-.709.318-1.067a22.813,22.813,0,0,1,7.066-11.255,1.327,1.327,0,0,1,2-.02,1.343,1.343,0,0,1-.255,1.957,20.17,20.17,0,0,0-5.779,8.4c-.292.8-.5,1.633-.727,2.457a1.371,1.371,0,0,1-1.229,1.164,1.341,1.341,0,0,1-1.339-.967c-.011-.024-.038-.042-.058-.062Z" transform="translate(0 -0.161)" fill="#ffab00"/>
    <path id="Path_76" data-name="Path 76" d="M-2470.833-678.571a1.367,1.367,0,0,1,.78-1.385,1.285,1.285,0,0,1,1.45.259,22.811,22.811,0,0,1,4.183,4.756,22.664,22.664,0,0,1,3.212,7.513,1.326,1.326,0,0,1-.967,1.75,1.314,1.314,0,0,1-1.567-1.136,20.266,20.266,0,0,0-5.28-9.69c-.424-.437-.913-.812-1.32-1.263A4.139,4.139,0,0,1-2470.833-678.571Z" transform="translate(-265.512 -0.141)" fill="#ffab00"/>
    <path id="Path_77" data-name="Path 77" d="M-2726.558-632.392a1.287,1.287,0,0,1-1.256-1.642,23.312,23.312,0,0,1,.724-2.593,17.314,17.314,0,0,1,4.819-7.139,1.306,1.306,0,0,1,2.234.655,1.37,1.37,0,0,1-.544,1.34,14.252,14.252,0,0,0-3.733,5.237,25.427,25.427,0,0,0-.915,2.94C-2725.437-632.825-2725.87-632.392-2726.558-632.392Z" transform="translate(-38.354 -31.882)" fill="#2e7dba"/>
    <path id="Path_78" data-name="Path 78" d="M-2490.3-633.857a1.306,1.306,0,0,1-1.06,1.339,1.251,1.251,0,0,1-1.487-.961,17.435,17.435,0,0,0-1.281-3.824,15.123,15.123,0,0,0-3.493-4.625,1.307,1.307,0,0,1-.478-1.358,1.24,1.24,0,0,1,.921-.949,1.234,1.234,0,0,1,1.216.289,17.59,17.59,0,0,1,5.642,9.869A1.683,1.683,0,0,1-2490.3-633.857Z" transform="translate(-241.373 -31.771)" fill="#2e7dba"/>
  </g>
</svg>
