<svg xmlns="http://www.w3.org/2000/svg" width="24.934" height="24.934" viewBox="0 0 24.934 24.934">
  <g id="Group_111" data-name="Group 111" transform="translate(-776.385 -285.298)">
    <rect id="Rectangle_78" data-name="Rectangle 78" width="24.934" height="24.934" rx="12.467" transform="translate(776.385 285.298)" fill="#e8e8e8" opacity="0.85"/>
    <g id="Group_83" data-name="Group 83">
      <path id="Path_677" data-name="Path 677" d="M792.41,297.765q0,2.542,0,5.084a1.37,1.37,0,0,1-.958,1.367,1.613,1.613,0,0,1-.462.071q-2.134.008-4.268,0a1.384,1.384,0,0,1-1.427-1.422q0-5.1,0-10.205a1.384,1.384,0,0,1,1.428-1.422q2.121,0,4.242,0a1.384,1.384,0,0,1,1.445,1.442Q792.413,295.223,792.41,297.765Zm-.591,0V292.73a.809.809,0,0,0-.9-.9h-4.141a.811.811,0,0,0-.9.89v10.091a.811.811,0,0,0,.887.887h4.154a.808.808,0,0,0,.893-.89Z" fill="#fe0000"/>
      <path id="Path_678" data-name="Path 678" d="M788.852,292.427c.281,0,.561,0,.841,0,.214,0,.342.113.344.292s-.131.3-.349.3h-1.694a.305.305,0,0,1-.294-.166.277.277,0,0,1,.022-.3.313.313,0,0,1,.289-.127C788.292,292.428,788.572,292.427,788.852,292.427Z" fill="#ffab00"/>
      <path id="Path_679" data-name="Path 679" d="M788.857,301.919a.591.591,0,1,1-.6.584A.592.592,0,0,1,788.857,301.919Z" fill="#2e7dba"/>
    </g>
  </g>
</svg>
