<svg xmlns="http://www.w3.org/2000/svg" width="26.028" height="26.037" viewBox="0 0 26.028 26.037">
  <g id="Group_248" data-name="Group 248" transform="translate(459.2 -2876.8)">
    <path id="Path_152" data-name="Path 152" d="M-459.2,2890.582v-1.526c.021-.183.042-.366.062-.549a12.861,12.861,0,0,1,3.27-7.368,12.77,12.77,0,0,1,7.444-4.136c.49-.086.986-.136,1.48-.2h1.526c.436.055.874.094,1.306.167a12.672,12.672,0,0,1,7.038,3.573,12.717,12.717,0,0,1,3.838,10.589,12.424,12.424,0,0,1-3.178,7.275,12.743,12.743,0,0,1-9.221,4.417,12.376,12.376,0,0,1-7.181-1.814,12.826,12.826,0,0,1-6.182-8.947C-459.088,2891.571-459.134,2891.074-459.2,2890.582Zm13.019-11.76a11,11,0,0,0-11,10.991,11,11,0,0,0,10.984,11,11.006,11.006,0,0,0,11.009-11A11,11,0,0,0-446.181,2878.822Z" transform="translate(0 0)" fill="#fff"/>
    <path id="Path_153" data-name="Path 153" d="M-344.518,2992.093h-3.162c-.305,0-.61.008-.915,0a1,1,0,0,1-.959-.968,1,1,0,0,1,.868-1.024,2.526,2.526,0,0,1,.354-.022q1.741,0,3.482,0h.331v-.293c0-1.212,0-2.423,0-3.635a1.03,1.03,0,0,1,.732-1.066,1.011,1.011,0,0,1,1.289,1.034c.008,1.2,0,2.406,0,3.609v.351h.325c1.195,0,2.389,0,3.584,0a1.037,1.037,0,0,1,1.065.665,1,1,0,0,1-.967,1.351c-1.2.009-2.406,0-3.609,0h-.4v.274c0,1.229,0,2.457,0,3.686a1.009,1.009,0,0,1-.957,1.076,1.011,1.011,0,0,1-1.065-1.094c0-1.211,0-2.423,0-3.635Z" transform="translate(-102.675 -101.357)" fill="#fff"/>
  </g>
</svg>
