<svg xmlns="http://www.w3.org/2000/svg" width="24.934" height="24.934" viewBox="0 0 24.934 24.934">
  <g id="Group_118" data-name="Group 118" transform="translate(-776.385 -382.698)">
    <rect id="Rectangle_51" data-name="Rectangle 51" width="24.934" height="24.934" rx="12.467" transform="translate(776.385 382.698)" fill="#e8e8e8" opacity="0.85"/>
    <g id="Group_75" data-name="Group 75" transform="translate(-1090.946)">
      <path id="Path_659" data-name="Path 659" d="M1880.633,399.338c0,.286,0,1.585,0,1.871a.382.382,0,1,0,.758.006c0-.289,0-1.589,0-1.877Z" fill="#ffab00"/>
      <path id="Path_660" data-name="Path 660" d="M1879.013,399.338c0,.29,0,1.589,0,1.876a.382.382,0,1,0,.758,0v-1.872Z" fill="#ffab00"/>
      <g id="Group_73" data-name="Group 73">
        <path id="Path_661" data-name="Path 661" d="M1885.235,395.027a2.683,2.683,0,0,0-1.976-2.564,3.761,3.761,0,0,0-.786-.1c-.1-.005-1.489-.007-1.593-.008v.763c.216,0,1.714.005,1.928.028a1.9,1.9,0,0,1,1.663,1.818c.02,1.277.006,2.554.006,3.831a.2.2,0,0,1-.008.032h-4.7v-.147c0-1.163-.006-2.326,0-3.489a2.769,2.769,0,0,0-.777-2.019.493.493,0,0,1-.037-.048h1.925v-.765c-.918,0-2.847,0-3.764,0a2.873,2.873,0,0,0-.491.034,2.7,2.7,0,0,0-2.272,2.722q0,2.012,0,4.022a.4.4,0,0,0,.455.456h3.777v0h3.622v0h2.608a.382.382,0,0,0,.417-.417C1885.237,397.792,1885.242,396.41,1885.235,395.027Zm-6.222,3.8h-3.9v-.084c0-1.235,0-2.47,0-3.7a1.945,1.945,0,0,1,3.873-.238,1.721,1.721,0,0,1,.02.239q0,1.853,0,3.7Z" fill="#fe0000"/>
      </g>
      <g id="Group_74" data-name="Group 74">
        <path id="Path_662" data-name="Path 662" d="M1883.729,390.188a.141.141,0,0,1,0-.172c.143-.237.283-.478.422-.719a.379.379,0,0,0-.176-.585.157.157,0,0,1-.028-.023h-3.036a.483.483,0,0,0-.282.509c.008,1,0,2.007,0,3.01v1.034c0,.118,0,.237,0,.355,0,.176,0,.353,0,.53a.38.38,0,1,0,.758,0c0-.332,0-.665,0-1.008h.011v-.764h0v-.86h.145c.751,0,1.5,0,2.252,0a.381.381,0,0,0,.349-.615C1884.009,390.648,1883.871,390.417,1883.729,390.188Zm-.784.168c.077.118.146.242.226.376H1881.4v-1.275h1.779c-.08.139-.154.274-.236.4A.419.419,0,0,0,1882.945,390.356Z" fill="#2e7dba"/>
      </g>
    </g>
  </g>
</svg>
