<svg xmlns="http://www.w3.org/2000/svg" width="30.957" height="26.038" viewBox="0 0 30.957 26.038">
  <g id="Group_292" data-name="Group 292" transform="translate(1635.048 -3243.794)">
    <path id="Path_158" data-name="Path 158" d="M-1632.4,3357.605c-.206.261-.359.469-.527.666a1.187,1.187,0,0,1-1.664.184,1.157,1.157,0,0,1-.212-1.628c.8-1.06,1.61-2.107,2.424-3.153a1.02,1.02,0,0,1,1.228-.357,2.155,2.155,0,0,1,.6.291q1.5,1.128,2.98,2.283a1.115,1.115,0,0,1,.391,1.236,1.025,1.025,0,0,1-.938.833,1.989,1.989,0,0,1-.966-.256,6.734,6.734,0,0,1-.915-.677l-.112.056c.233.763.412,1.549.707,2.287A10.548,10.548,0,0,0-1619,3366.02a10.389,10.389,0,0,0,8.07-4.4c.081-.109.155-.225.236-.333a1.182,1.182,0,0,1,1.642-.321,1.184,1.184,0,0,1,.312,1.673,12.716,12.716,0,0,1-3.026,3.2,13.029,13.029,0,0,1-20.535-7.8C-1632.328,3357.911-1632.358,3357.794-1632.4,3357.605Z" transform="translate(0 -98.591)" fill="#fff"/>
    <path id="Path_159" data-name="Path 159" d="M-1568.82,3255.182a10.2,10.2,0,0,0-4.665-7.3,10.606,10.606,0,0,0-14.5,2.848,2.007,2.007,0,0,1-.569.567,1.124,1.124,0,0,1-1.421-.239,1.193,1.193,0,0,1-.079-1.508,12.621,12.621,0,0,1,5.667-4.705,13.013,13.013,0,0,1,17.756,8.782c.077.3.137.6.219.967l.478-.592a1.2,1.2,0,0,1,1.708-.255,1.172,1.172,0,0,1,.183,1.689q-1.165,1.542-2.358,3.064a1.051,1.051,0,0,1-1.353.366,2.452,2.452,0,0,1-.583-.321c-.958-.725-1.909-1.46-2.861-2.195a1.14,1.14,0,0,1-.441-1.222,1.128,1.128,0,0,1,.9-.889,1.171,1.171,0,0,1,1.012.244C-1569.424,3254.717-1569.122,3254.95-1568.82,3255.182Z" transform="translate(-40.321)" fill="#fff"/>
  </g>
</svg>
