<svg id="Layer_1" data-name="Layer 1" xmlns="http://www.w3.org/2000/svg" viewBox="0 0 64 64"><defs><style>.cls-1{fill:#2e7dba;}.cls-2{fill:#fe0000;}.cls-3{fill:#ffab00;}</style></defs><title>ICONS Third file</title><path class="cls-1" d="M0,24.38a1.63,1.63,0,0,1,1.74-1.11H12.8c1.23,0,1.83.61,1.71,1.69a1.27,1.27,0,0,1-1.11,1.17,4.41,4.41,0,0,1-.68.05c-3.62,0-7.24,0-10.87,0A1.74,1.74,0,0,1,0,25.13Z"/><path class="cls-2" d="M36.61,50.9H13.5c-1.17,0-1.66-.33-1.82-1.19a1.35,1.35,0,0,1,1.07-1.64,4.54,4.54,0,0,1,.93-.07H59a5.08,5.08,0,0,0,1-.08,1.15,1.15,0,0,0,1-1,5.2,5.2,0,0,0,.09-.87q0-14.06,0-28.12c0-1.48-.46-1.93-1.94-1.93H13.66a4.71,4.71,0,0,1-.87-.05,1.43,1.43,0,0,1,.15-2.82,6.2,6.2,0,0,1,.62,0H59.24a4.51,4.51,0,0,1,3.85,1.68,4.34,4.34,0,0,1,.9,2.74q0,14.5,0,29c0,2.67-1.86,4.39-4.63,4.39-5.17,0-10.33,0-15.5,0Z"/><path class="cls-3" d="M38.11,34.75a7.63,7.63,0,0,1-4.86-1.59L18,21.59a1.46,1.46,0,0,1-.32-2.14,1.37,1.37,0,0,1,2-.25c.73.48,1.4,1,2.1,1.57l13,9.9a4.63,4.63,0,0,0,6.22,0q7.27-5.55,14.55-11.1A3,3,0,0,1,56.62,19a1.2,1.2,0,0,1,1.35.69,1.41,1.41,0,0,1-.21,1.63,3.41,3.41,0,0,1-.55.5q-7.49,5.73-15,11.46A7.15,7.15,0,0,1,38.11,34.75Z"/><path class="cls-3" d="M48.26,33.48a4.17,4.17,0,0,1,.9.57q4.24,4.2,8.44,8.43a1.45,1.45,0,0,1,.1,2.2,1.47,1.47,0,0,1-2.16-.2l-8.35-8.34a1.48,1.48,0,0,1,1.08-2.66Z"/><path class="cls-1" d="M11.6,33.46c-1.83,0-3.67,0-5.5,0-1.3,0-2-.85-1.65-1.94a1.19,1.19,0,0,1,1-.9,6,6,0,0,1,.87-.08H16.95a4.64,4.64,0,0,1,.74.06A1.31,1.31,0,0,1,18.89,32a1.24,1.24,0,0,1-1.17,1.37c-1,.08-2,.07-3,.08Z"/><path class="cls-1" d="M16,37.82c1.81,0,3.62,0,5.43,0a2.79,2.79,0,0,1,1.19.25,1.27,1.27,0,0,1,.6,1.45,1.22,1.22,0,0,1-1,1.11,4.34,4.34,0,0,1-.8.09c-3.6,0-7.2,0-10.8,0a2.68,2.68,0,0,1-1.48-.48,1.27,1.27,0,0,1-.28-1.5A1.21,1.21,0,0,1,10,37.86c1.19,0,2.37,0,3.56,0Z"/></svg>