<svg xmlns="http://www.w3.org/2000/svg" width="15.993" height="24" viewBox="0 0 15.993 24">
  <g id="Group_250" data-name="Group 250" transform="translate(778.913 -3253.6)">
    <path id="Path_156" data-name="Path 156" d="M-671.241,3253.6a7.809,7.809,0,0,1,.764.593c1.218,1.2,2.421,2.417,3.633,3.624a1.011,1.011,0,0,1,.308,1.1.991.991,0,0,1-1.673.355c-.626-.61-1.239-1.234-1.857-1.854-.12-.121-.234-.248-.352-.371l-.061.021v.264q0,5.553,0,11.106a1.016,1.016,0,0,1-.686,1.1.987.987,0,0,1-1.3-.865c-.008-.109-.008-.219-.008-.328q0-5.506,0-11.012v-.317c-.1.093-.156.147-.212.2-.68.679-1.356,1.361-2.039,2.036a.994.994,0,0,1-1.508-.015.986.986,0,0,1-.015-1.271,2.976,2.976,0,0,1,.208-.222c1.187-1.188,2.369-2.38,3.565-3.559a7.879,7.879,0,0,1,.764-.593Z" transform="translate(-96.44)" fill="#fff"/>
    <path id="Path_157" data-name="Path 157" d="M-774.911,3402.782v-.25q0-5.528,0-11.057a2.035,2.035,0,0,1,.028-.442.987.987,0,0,1,1.089-.753.98.98,0,0,1,.868.924c.007.1.007.2.007.3q0,5.494,0,10.987v.34c.091-.083.151-.133.207-.188.685-.684,1.365-1.373,2.056-2.052a.99.99,0,0,1,1.535.073.989.989,0,0,1,0,1.2,2.412,2.412,0,0,1-.206.224l-3.776,3.778a1.017,1.017,0,0,1-1.612.01q-1.922-1.921-3.842-3.844a1,1,0,0,1-.1-1.427.988.988,0,0,1,1.475-.02c.5.49,1,.992,1.493,1.489.242.242.482.486.723.729Z" transform="translate(0 -128.668)" fill="#fff"/>
  </g>
</svg>
