<svg xmlns="http://www.w3.org/2000/svg" width="24.934" height="24.934" viewBox="0 0 24.934 24.934">
  <g id="Group_117" data-name="Group 117" transform="translate(-776.385 -333.998)">
    <rect id="Rectangle_50" data-name="Rectangle 50" width="24.934" height="24.934" rx="12.467" transform="translate(776.385 333.998)" fill="#e8e8e8" opacity="0.85"/>
    <g id="Group_72" data-name="Group 72" transform="translate(-1090.946)">
      <path id="Path_656" data-name="Path 656" d="M1884.4,345.273c-.344-.463-.692-.923-1.039-1.385q-.2-.266-.4-.532l.1-.141q.666-.888,1.331-1.774a.41.41,0,0,0-.187-.664.868.868,0,0,0-.229-.018h-5.617a.415.415,0,0,0-.416.415h0a.415.415,0,0,0,.416.415h4.894l-.2.268q-.45.6-.9,1.2a.423.423,0,0,0,0,.6q.51.683,1.022,1.364c.02.026.038.054.068.1h-4.889a.417.417,0,0,0-.417.416h0a.417.417,0,0,0,.417.416h5.625a.789.789,0,0,0,.228-.021A.408.408,0,0,0,1884.4,345.273Z" fill="#2e7dba"/>
      <path id="Path_657" data-name="Path 657" d="M1877.112,340.335a.4.4,0,0,0-.431-.395.412.412,0,0,0-.389.464v10.822c0,.031,0,.06,0,.09a.407.407,0,0,0,.408.38.412.412,0,0,0,.411-.456v-5.288h.007v-5.193h-.008C1877.112,340.607,1877.117,340.471,1877.112,340.335Z" fill="#fe0000"/>
      <path id="Path_658" data-name="Path 658" d="M1875.5,352.171a.406.406,0,0,0-.4.431.413.413,0,0,0,.465.389h2.273c.03,0,.06,0,.09,0a.407.407,0,0,0,.38-.408.412.412,0,0,0-.456-.411h-1.933C1875.77,352.171,1875.634,352.166,1875.5,352.171Z" fill="#ffab00"/>
    </g>
  </g>
</svg>
