<svg xmlns="http://www.w3.org/2000/svg" width="17.048" height="21.378" viewBox="0 0 17.048 21.378">
  <g id="Group_301" data-name="Group 301" transform="translate(-6204.802 3679.775)">
    <path id="Path_172" data-name="Path 172" d="M6212.073-3679.775a10.558,10.558,0,0,1,1.066.266,4.411,4.411,0,0,1,2.936,4.176c0,.257,0,.515,0,.772a.856.856,0,0,1-.837.908.854.854,0,0,1-.855-.888,11.339,11.339,0,0,0-.057-1.311,2.7,2.7,0,0,0-2.764-2.231,2.7,2.7,0,0,0-2.62,2.58c-.029,1.063-.01,2.128-.011,3.192a.963.963,0,0,0,.018.125h.249q3.444,0,6.887,0a2.3,2.3,0,0,1,2.3,1.595,2.533,2.533,0,0,1,.12.756q.012,4.488,0,8.975a2.418,2.418,0,0,1-2.462,2.458q-4.383.009-8.766,0a2.414,2.414,0,0,1-2.468-2.451q-.012-4.5,0-9a2.307,2.307,0,0,1,2.244-2.334c.054,0,.108-.01.184-.018v-.254c.008-1.078-.031-2.159.033-3.233a4.362,4.362,0,0,1,3.812-4.046,1.453,1.453,0,0,0,.158-.042Zm-.416,9.271h-4.4a.673.673,0,0,0-.766.77q0,4.393,0,8.786a.773.773,0,0,0,.866.863q4.3,0,8.6,0a.778.778,0,0,0,.872-.879q0-4.383,0-8.766c0-.53-.248-.774-.784-.775Z" transform="translate(0 0)" fill="#fe0000"/>
    <path id="Path_173" data-name="Path 173" d="M6323.619-3666.694a.836.836,0,0,1,.844,1.077c-.193.57-.422,1.131-.67,1.679a.817.817,0,0,1-1.1.419.835.835,0,0,1-.428-1.1c.2-.512.4-1.018.611-1.524A.829.829,0,0,1,6323.619-3666.694Z" transform="translate(-105.013 -11.701)" fill="#ffab00"/>
    <path id="Path_174" data-name="Path 174" d="M6335.78-3642.554a.75.75,0,0,1,.441-.681c.554-.255,1.113-.5,1.681-.72a.816.816,0,0,1,1.038.456.809.809,0,0,1-.374,1.067c-.557.265-1.122.515-1.7.728A.836.836,0,0,1,6335.78-3642.554Z" transform="translate(-117.164 -31.994)" fill="#ffab00"/>
    <path id="Path_175" data-name="Path 175" d="M6335.383-3617.256a.82.82,0,0,1,1.076-.8c.576.2,1.143.432,1.7.679a.81.81,0,0,1,.413,1.04.821.821,0,0,1-1.035.5c-.568-.205-1.127-.435-1.683-.672A.79.79,0,0,1,6335.383-3617.256Z" transform="translate(-116.809 -55.171)" fill="#ffab00"/>
    <path id="Path_176" data-name="Path 176" d="M6254.142-3567.734c0-.334.008-.668-.007-1a.361.361,0,0,0-.125-.248,1.739,1.739,0,0,1-.388-2.532,1.737,1.737,0,0,1,2.569-.174,1.735,1.735,0,0,1-.205,2.674.338.338,0,0,0-.167.32c.008.661.009,1.322,0,1.983a.822.822,0,0,1-.7.794.83.83,0,0,1-.9-.491,1.138,1.138,0,0,1-.072-.385C6254.135-3567.108,6254.142-3567.421,6254.142-3567.734Z" transform="translate(-43.327 -96.25)" fill="#2e7dba"/>
  </g>
</svg>
