<svg id="Layer_1" data-name="Layer 1" xmlns="http://www.w3.org/2000/svg" viewBox="0 0 64 64"><defs><style>.cls-1{fill:#fe0000;}.cls-2{fill:#ffab00;}.cls-3{fill:#2e7dba;}</style></defs><title>-</title><path class="cls-1" d="M64,33.87c-.16,1.23-.27,2.48-.5,3.69A31.52,31.52,0,0,1,47,60.24a29.67,29.67,0,0,1-16.35,3.71c-12-.74-21-6.44-26.89-16.93A29.3,29.3,0,0,1,.06,30.66c.74-12,6.46-21,17-26.92A29.62,29.62,0,0,1,29.65.1a3.4,3.4,0,0,0,.48-.1h3.75a4.11,4.11,0,0,0,.54.11,27.65,27.65,0,0,1,7.74,1.57C53.9,6,61.06,14.31,63.51,26.61c.23,1.16.33,2.34.49,3.51ZM32,61.24A29.24,29.24,0,1,0,2.76,32,29.32,29.32,0,0,0,32,61.24Z"/><path class="cls-2" d="M30.63,39.62c0-.25,0-.5,0-.75a1.46,1.46,0,0,0-.39-1.17,2.11,2.11,0,0,1,.22-3,2.23,2.23,0,0,1,3.05,0,2.17,2.17,0,0,1,.23,3,1.43,1.43,0,0,0-.36,1.06c0,.64,0,1.29,0,1.93a1.38,1.38,0,1,1-2.75,0C30.62,40.32,30.63,40,30.63,39.62Z"/><path class="cls-2" d="M25.37,26.78c0-1.11,0-2.17,0-3.23a6.66,6.66,0,0,1,7.83-6.12,6.79,6.79,0,0,1,4.57,3.19,1.41,1.41,0,0,0,2,.57,1.43,1.43,0,0,0,.33-2A9.38,9.38,0,0,0,22.73,23c-.11,1.32-.06,2.66-.11,4a1,1,0,0,1-.07.31C23.54,27,25,26.83,25.37,26.78Z"/><path class="cls-3" d="M44.3,32.44a6.88,6.88,0,0,0-.14-1.61,4.87,4.87,0,0,0-5-3.86c-4.33,0-8.66,0-13,0h-.79a24.23,24.23,0,0,0-3,.6,5.15,5.15,0,0,0-2.69,4.87c0,3.83,0,7.66,0,11.5a6.64,6.64,0,0,0,.18,1.67,4.92,4.92,0,0,0,5.07,3.79c4.64,0,9.29,0,13.93,0a5.06,5.06,0,0,0,5.45-5.45Q44.32,38.19,44.3,32.44ZM41.55,44c0,1.84-.83,2.67-2.67,2.67H25.07A2.33,2.33,0,0,1,22.41,44q0-5.81,0-11.62c0-1.81.87-2.66,2.69-2.66H38.92c1.81,0,2.63.82,2.63,2.63Q41.55,38.19,41.55,44Z"/></svg>