<svg xmlns="http://www.w3.org/2000/svg" width="58.673" height="58.673" viewBox="0 0 58.673 58.673">
  <g id="Group_225" data-name="Group 225" transform="translate(-223.938 -122.524)">
    <path id="Path_35" data-name="Path 35" d="M253.4,123.114a28.87,28.87,0,1,0,28.87,28.87A28.869,28.869,0,0,0,253.4,123.114Zm0,55.261a26.391,26.391,0,1,1,26.391-26.391A26.391,26.391,0,0,1,253.4,178.375Z" transform="translate(-0.123 -0.123)" fill="#c7c7c7"/>
    <g id="Group_108" data-name="Group 108" transform="translate(223.938 122.525)">
      <g id="Group_107" data-name="Group 107" transform="translate(0 0)">
        <circle id="Ellipse_8" data-name="Ellipse 8" cx="23.548" cy="23.548" r="23.548" transform="translate(1.514 47.638) rotate(-78.337)" fill="#dfddde"/>
        <circle id="Ellipse_9" data-name="Ellipse 9" cx="24.433" cy="24.433" r="24.433" transform="translate(0 47.593) rotate(-76.894)" fill="#ccc"/>
        <circle id="Ellipse_10" data-name="Ellipse 10" cx="23.548" cy="23.548" r="23.548" transform="translate(1.514 47.638) rotate(-78.337)" fill="#dfddde"/>
      </g>
      <path id="Path_36" data-name="Path 36" d="M250.144,162.3a1.876,1.876,0,0,0-.2.759c-.2,1.073-1.229,1.758-2.172,2.308-3.092,1.806-6.185,3.579-9.206,5.49a23.532,23.532,0,0,0,36.136-.759l-7.837-4.061a19.19,19.19,0,0,0-1.874-.887,4.947,4.947,0,0,1-1.46-.708c-.647-.547-.491-1.429-.663-2.179a1.413,1.413,0,0,0-.226-.584c-.306-.386-.931-.366-1.27-.722a1.227,1.227,0,0,1-.273-.832,1.093,1.093,0,0,1,.1-.552c.108-.2.353-.3.523-.435s.367-.28.561-.412a2.427,2.427,0,0,0,.983-1.057,8.718,8.718,0,0,0,.549-2.232,8.069,8.069,0,0,1,.247-2.449c.323-.712.994-1.03,1.144-1.859a4.288,4.288,0,0,0-.286-2.274,4.467,4.467,0,0,0-.526-.759c-.192-.278-.067-.611-.028-.933a8.654,8.654,0,0,0-.291-2.888,6.665,6.665,0,0,0-.271-1,3.373,3.373,0,0,0-1.367-1.63c-.31-.192-.664-.279-.973-.46a9,9,0,0,0-1.06-.521,17.27,17.27,0,0,0-2.5-.866,7.559,7.559,0,0,0-5.087.256,2.716,2.716,0,0,0-1.7,2,2.857,2.857,0,0,0-3.144,1.256,4.859,4.859,0,0,0-.549,2.746,25.417,25.417,0,0,0,.477,2.518,1,1,0,0,1-.068.7c-.112.169-.318.258-.423.431a.935.935,0,0,0-.1.432,5.2,5.2,0,0,0,.474,3.138,1.351,1.351,0,0,0,.3.343,3.323,3.323,0,0,0,.3.191,2.544,2.544,0,0,1,1,1.384c.169.513.141,1.048.273,1.559.107.417.243.873.393,1.281a2.1,2.1,0,0,0,.609.794c.262.253.42.543.8.649a2.013,2.013,0,0,0,.093.218,1.746,1.746,0,0,1,.1.615,2.075,2.075,0,0,1-.21,1.286C251.119,161.977,250.45,161.855,250.144,162.3Z" transform="translate(-226.982 -126.052)" fill="#546f7a"/>
    </g>
  </g>
</svg>
