<svg id="Layer_1" data-name="Layer 1" xmlns="http://www.w3.org/2000/svg" viewBox="0 0 64 64"><defs><style>.cls-1{fill:#fe0000;}.cls-2{fill:#ffab00;}.cls-3{fill:#2e7dba;}</style></defs><title>ICONS Third file</title><path class="cls-1" d="M0,6.5A16.32,16.32,0,0,1,1,3.77,7.22,7.22,0,0,1,7.66,0H34.6c3,0,6.08,0,9.13,0a7.39,7.39,0,0,1,7.35,6.23,8.84,8.84,0,0,1,.09,1.49q0,4.44,0,8.88a3.9,3.9,0,0,1,0,.56.9.9,0,0,1-.91.85.88.88,0,0,1-1-.76,5.22,5.22,0,0,1-.07-1c0-1.2,0-2.39,0-3.64-.65.46-1.2.9-1.8,1.26a7.78,7.78,0,0,1-4.08,1H12.72c0,.3,0,.56,0,.82q0,11.22,0,22.44a5.64,5.64,0,0,1,0,.81.9.9,0,0,1-.9.81.89.89,0,0,1-1-.69,3.8,3.8,0,0,1-.08-.93q0-11.19,0-22.38c0-.27,0-.53,0-.88H7.76a7.66,7.66,0,0,1-4.33-1.19A7.38,7.38,0,0,1,.13,8.77,3.74,3.74,0,0,0,0,8.37ZM38.6,2H12.77C11,2,9.27,2,7.52,2A5.4,5.4,0,0,0,2.37,9.33a5.53,5.53,0,0,0,5.52,3.5H37.94l.63,0C35.6,9.19,35.59,5.62,38.6,2ZM49.16,7.4a5.39,5.39,0,1,0-5.39,5.42A5.43,5.43,0,0,0,49.16,7.4Z"/><path class="cls-1" d="M17.13,64c-.42-.11-.83-.22-1.25-.34a7.4,7.4,0,0,1-5.21-7.23c0-4.58,0-9.17,0-13.75a2.19,2.19,0,0,1,.08-.62.9.9,0,0,1,1-.69.9.9,0,0,1,.9.79,4.34,4.34,0,0,1,0,.75q0,6.59,0,13.19a5.84,5.84,0,0,0,1.13,3.75A5.58,5.58,0,0,0,18.49,62h33a3,3,0,0,0-.25-.38,7.51,7.51,0,0,1-2-5.35q0-17.28,0-34.56a2.9,2.9,0,0,1,.06-.62,1,1,0,0,1,1.91.09,6.43,6.43,0,0,1,0,.81q0,14.34,0,28.69v.77c.19-.15.31-.23.4-.32A7.41,7.41,0,1,1,57.8,63.9a1.47,1.47,0,0,0-.28.11ZM62,56.62A5.41,5.41,0,1,0,56.57,62,5.46,5.46,0,0,0,62,56.62Z"/><path class="cls-2" d="M31.93,27.72a8.47,8.47,0,1,1-8.51-8.48A8.5,8.5,0,0,1,31.93,27.72Zm-2,0a6.47,6.47,0,1,0-6.49,6.48A6.51,6.51,0,0,0,29.92,27.73Z"/><path class="cls-2" d="M29.94,49.11A8.48,8.48,0,1,1,38.4,57.6,8.5,8.5,0,0,1,29.94,49.11Zm15,.06a6.47,6.47,0,1,0-6.48,6.43A6.52,6.52,0,0,0,44.9,49.17Z"/><path class="cls-3" d="M39.48,33h-4c-.8,0-1.24-.37-1.24-1s.44-1,1.24-1h8.06c.77,0,1.24.41,1.22,1s-.47,1-1.22,1Z"/><path class="cls-3" d="M39.47,26.73h4.06c.76,0,1.2.36,1.23,1s-.45,1-1.21,1q-4.06,0-8.12,0c-.75,0-1.18-.39-1.19-1s.42-1,1.17-1Z"/><path class="cls-3" d="M22.38,46.9h-4c-.81,0-1.25-.36-1.26-1s.44-1,1.23-1h8.06c.79,0,1.24.39,1.22,1s-.45,1-1.26,1Z"/><path class="cls-3" d="M22.35,51.17h-4c-.78,0-1.2-.35-1.22-1s.42-1,1.21-1q4.06,0,8.12,0c.76,0,1.18.39,1.19,1s-.43,1-1.23,1Z"/><path class="cls-3" d="M22.38,53.46c1.37,0,2.75,0,4.12,0,.8,0,1.28.55,1.11,1.22a1,1,0,0,1-1.13.78c-.83,0-1.67,0-2.5,0H18.61a3.51,3.51,0,0,1-.68-.06.9.9,0,0,1-.79-1A.87.87,0,0,1,18,53.5c.87,0,1.75,0,2.62,0h1.75Z"/><path class="cls-3" d="M39.51,24.46H35.7a2.79,2.79,0,0,1-.8-.09.89.89,0,0,1-.66-.95.91.91,0,0,1,.71-.91,2,2,0,0,1,.56-.06h8a2.32,2.32,0,0,1,.43,0,.92.92,0,0,1,.81,1,.89.89,0,0,1-.75.94,3.16,3.16,0,0,1-.68.07Z"/><path class="cls-3" d="M43.76,3.22A4.22,4.22,0,0,1,48,7.41a4.21,4.21,0,0,1-8.41,0A4.21,4.21,0,0,1,43.76,3.22Zm0,2a2.17,2.17,0,0,0-2.2,2.16,2.2,2.2,0,1,0,2.2-2.16Z"/><path class="cls-3" d="M60.79,56.58a4.2,4.2,0,1,1-8.4,0,4.2,4.2,0,0,1,8.4,0Zm-2,0a2.2,2.2,0,0,0-2.16-2.21,2.23,2.23,0,0,0-2.23,2.23,2.2,2.2,0,0,0,2.21,2.16A2.16,2.16,0,0,0,58.79,56.6Z"/><path class="cls-2" d="M22.34,28.5l3.26-3.26a3.12,3.12,0,0,1,.57-.49.91.91,0,0,1,1.2.14.92.92,0,0,1,.14,1.2,1.93,1.93,0,0,1-.31.39q-1.94,1.95-3.89,3.89a1.09,1.09,0,0,1-1.82,0c-.61-.6-1.22-1.2-1.81-1.81a1,1,0,1,1,1.4-1.42C21.49,27.56,21.89,28,22.34,28.5Z"/><path class="cls-2" d="M39.75,49.14l2,1.9c.17.16.33.32.48.49a1,1,0,0,1,.07,1.5,1,1,0,0,1-1.5-.11c-.6-.58-1.19-1.17-1.77-1.76-.19-.19-.35-.41-.58-.7l-1.9,1.94c-.18.18-.35.36-.53.53a1,1,0,0,1-1.5.11,1,1,0,0,1,.11-1.54c.62-.64,1.26-1.27,1.89-1.9l.47-.5-2.36-2.34a1,1,0,0,1-.29-1.29A1,1,0,0,1,36,45.31c.79.77,1.55,1.57,2.38,2.42l2.05-2.07a4.92,4.92,0,0,1,.55-.51,1,1,0,0,1,1.35.1.91.91,0,0,1,0,1.3c-.47.53-1,1-1.48,1.52C40.55,48.4,40.2,48.72,39.75,49.14Z"/></svg>