<svg id="Layer_1" data-name="Layer 1" xmlns="http://www.w3.org/2000/svg" viewBox="0 0 64 64"><defs><style>.cls-1,.cls-2,.cls-3{fill:none;stroke-linecap:round;stroke-linejoin:round;stroke-width:2px;}.cls-1{stroke:#2e7dba;}.cls-2{stroke:#ffab00;}.cls-3{stroke:#fe0000;}</style></defs><title>ICONS Third file</title><path class="cls-1" d="M25.12,50.69A24.69,24.69,0,0,1,25.7,1.31h0A24.7,24.7,0,0,1,48.68,17"/><path class="cls-2" d="M26.05,10c4.12-.09,8.46,3.55,8.47,7.79a9.32,9.32,0,0,1-5,8.21c-2.33,1.37-2.4,2-2.3,4.63,0,.81,0,.11,0,.92a2.35,2.35,0,0,1-4.69.09c0-.29,0-.66,0-.83-.17-4.62.43-6.38,4.61-8.84a4.36,4.36,0,0,0,2.54-4,3.72,3.72,0,0,0-3.56-3.27c-2.74,0-4.28,2.72-4.9,3.73a2.35,2.35,0,0,1-4.08-2.33c1.67-3.45,4.51-6,8.87-6.09ZM25,42a2.71,2.71,0,1,0-2.72-2.71A2.71,2.71,0,0,0,25,42Z"/><path class="cls-3" d="M46.15,22.92a7.42,7.42,0,0,1,7.42,7.42c0,4.1-3.66,9.84-7.42,9.84s-7.42-5.75-7.42-9.84a7.42,7.42,0,0,1,7.42-7.42Z"/><path class="cls-3" d="M29.3,62.69V56.41c0-7.28,6.82-13.24,15.16-13.24h3.37c8.34,0,15.16,6,15.16,13.24v6.28"/><path class="cls-3" d="M35.24,62.69v-6m21.81,6v-6"/></svg>