<svg id="Layer_1" data-name="Layer 1" xmlns="http://www.w3.org/2000/svg" viewBox="0 0 64 64"><defs><style>.cls-1,.cls-2{fill:none;stroke:#fff;stroke-linecap:round;stroke-linejoin:round;}.cls-1{stroke-width:3px;}.cls-2{stroke-width:2px;}</style></defs><title>ICONS Third file</title><path class="cls-1" d="M22.68,25.18v-5s-.24-5.65,5.11-5.65h6.83s6.6.18,6.06,7.73"/><circle class="cls-1" cx="31.7" cy="6.71" r="5.23"/><circle class="cls-2" cx="13.49" cy="53.33" r="4.72"/><path class="cls-2" d="M14.76,48.62A4.88,4.88,0,0,1,18.63,43,4.72,4.72,0,0,1,24,46.93"/><path class="cls-2" d="M27.1,48.62A4.88,4.88,0,0,1,31,43a4.72,4.72,0,0,1,5.4,3.92"/><path class="cls-2" d="M39.52,48.62A4.88,4.88,0,0,1,43.39,43a4.72,4.72,0,0,1,5.4,3.92"/><circle class="cls-2" cx="25.85" cy="53.33" r="4.72"/><circle class="cls-2" cx="38.22" cy="53.33" r="4.72"/><circle class="cls-2" cx="50.63" cy="53.33" r="4.72"/><path class="cls-2" d="M6.4,63s-.8-3.21,1.78-4.46"/><path class="cls-2" d="M20.26,63s.8-3.21-1.78-4.46"/><path class="cls-2" d="M32.67,63s.8-3.21-1.78-4.46"/><path class="cls-2" d="M45.15,63s.8-3.21-1.78-4.46"/><path class="cls-2" d="M57.6,63s.8-3.21-1.78-4.46"/><line class="cls-1" x1="18.88" y1="30.24" x2="18.88" y2="39.04"/><line class="cls-1" x1="44.73" y1="30.24" x2="44.73" y2="39.04"/><polyline class="cls-1" points="18.88 34.64 13.49 30.24 13.49 25.18 50.35 25.18 50.35 29.72 44.98 35.09"/></svg>