<svg id="Layer_1" data-name="Layer 1" xmlns="http://www.w3.org/2000/svg" viewBox="0 0 64 64"><defs><style>.cls-1{fill:#ffab00;}.cls-2{fill:#fe0000;}.cls-3{fill:#2e7dba;}</style></defs><title>ICONS Third file</title><path class="cls-1" d="M11.87,0c.07.07.17.14.2.22a2.85,2.85,0,0,1,.24,1.08c-.06.43-.48.58-.92.58H6.14A3.94,3.94,0,0,0,1.88,6.17q0,7.12,0,14.25a3.92,3.92,0,0,0,4.2,4.22c1,0,2,0,3.06,0a1.45,1.45,0,0,1,1.32.66c1.06,1.44,2.14,2.87,3.21,4.3.13.18.28.35.46.58.92-1.22,1.79-2.41,2.69-3.57,1.84-2.38.92-1.94,3.91-1.95,12.33,0,24.66,0,37,0a4.19,4.19,0,0,0,4.42-4.44c-.08-4.68,0-9.37,0-14.06a4,4,0,0,0-4.28-4.28H16.66c-.49,0-1,0-1.22-.52A1.12,1.12,0,0,1,15.87,0H59c.33.1.67.19,1,.3a5.7,5.7,0,0,1,4,5.3c0,5.1.06,10.21,0,15.31a5.72,5.72,0,0,1-6,5.59H31.35c-3.85,0-7.71,0-11.56,0a1,1,0,0,0-.93.47c-1.26,1.71-2.54,3.41-3.81,5.1-.61.81-1.25.82-1.86,0-1.29-1.71-2.56-3.44-3.87-5.14a1.21,1.21,0,0,0-.81-.41c-1.12-.05-2.26,0-3.37-.06A5.76,5.76,0,0,1,.13,22c0-.16-.09-.32-.13-.48Q0,13.25,0,5c0-.14.09-.27.13-.41A5.77,5.77,0,0,1,4,.29C4.32.17,4.66.1,5,0Z"/><path class="cls-2" d="M0,48.62c.24-1,.4-2.09.73-3.09a14,14,0,1,1-.61,6.13A3,3,0,0,0,0,51.24Zm10.46,2.93c-2.6-3.13-2.76-6.11-.5-8.44a5.66,5.66,0,0,1,7.56-.55,5.49,5.49,0,0,1,2.09,3.37,5.75,5.75,0,0,1-2,5.6,9.78,9.78,0,0,1,5.67,6.3A12.15,12.15,0,0,0,5,41.81a12,12,0,0,0-.14,16A9.68,9.68,0,0,1,10.46,51.55ZM14.1,62.12a12.29,12.29,0,0,0,7.15-2.36A.7.7,0,0,0,21.6,59a7.7,7.7,0,0,0-15.09-.15.81.81,0,0,0,.37.94A12.4,12.4,0,0,0,14.1,62.12ZM10.24,47.05A3.81,3.81,0,1,0,14,43.24,3.81,3.81,0,0,0,10.24,47.05Z"/><path class="cls-3" d="M47.84,43.67c-4.23,0-8.46,0-12.69,0a3.23,3.23,0,0,1-3.05-4.6,2.83,2.83,0,0,1,2.45-1.86,9.31,9.31,0,0,1,1,0H60.18a6,6,0,0,1,1.49.14,3.12,3.12,0,0,1,2.19,3.43,3,3,0,0,1-2.76,2.88c-1.41.07-2.83,0-4.25,0Zm0-1.87H60.16a6.46,6.46,0,0,0,.75,0A1.21,1.21,0,0,0,62,40.69c.16-1-.44-1.64-1.65-1.64h-25a4.57,4.57,0,0,0-.56,0,1.17,1.17,0,0,0-1,.93c-.29,1,.33,1.77,1.52,1.78Z"/><path class="cls-3" d="M48,56.17c4.23,0,8.46,0,12.68,0a3.24,3.24,0,0,1,3,4.61,2.84,2.84,0,0,1-2.51,1.86c-.23,0-.46,0-.69,0H43.22c-.91,0-1.29-.31-1.25-1a.82.82,0,0,1,.76-.85,4.92,4.92,0,0,1,.69,0H60.22a6.7,6.7,0,0,0,.81,0,1.25,1.25,0,0,0,1.13-1.33A1.27,1.27,0,0,0,61,58.08a2.94,2.94,0,0,0-.44,0H35.37c-.93,0-1.37.32-1.54,1A1.29,1.29,0,0,0,35,60.77c1,0,2,0,3.06,0,.69,0,1,.32,1,.9a.82.82,0,0,1-.85.94c-1.25,0-2.5.06-3.74,0A3,3,0,0,1,32,59.53a3.06,3.06,0,0,1,2.46-3.28,7.27,7.27,0,0,1,1.12-.07Z"/><path class="cls-3" d="M47.87,53.17c-4.21,0-8.41,0-12.62,0a3.25,3.25,0,0,1-3-4.75,2.81,2.81,0,0,1,2.36-1.71,8.57,8.57,0,0,1,.93,0H54a4.93,4.93,0,0,1,.56,0,.86.86,0,0,1,.85,1,.84.84,0,0,1-.85.89c-.23,0-.46,0-.69,0H35.65a5.06,5.06,0,0,0-.93.06,1.37,1.37,0,0,0,0,2.64,4.34,4.34,0,0,0,.75,0H60.36c.7,0,1.35-.06,1.64-.83a1.34,1.34,0,0,0-1.16-1.9c-.52,0-1,0-1.56,0s-.95-.34-.95-.92a.85.85,0,0,1,.93-.94,15.36,15.36,0,0,1,2,0A3,3,0,0,1,63.92,50a3,3,0,0,1-2.74,3.16c-1.31.08-2.62,0-3.93,0Z"/><path class="cls-1" d="M44.86,18.89c.16-.95.32-2,.53-3.08a.83.83,0,0,0-.3-.87c-.7-.65-1.37-1.33-2.07-2a1.33,1.33,0,0,1-.47-1.45,1.31,1.31,0,0,1,1.22-.91c1-.13,2-.27,3-.45a1,1,0,0,0,.63-.46c.48-.88.91-1.78,1.34-2.68a1.3,1.3,0,0,1,2.45,0c.43.9.86,1.8,1.34,2.67a1,1,0,0,0,.63.45c1,.19,2.05.33,3.08.48a1.25,1.25,0,0,1,1.09.89,1.21,1.21,0,0,1-.35,1.31c-.72.72-1.45,1.44-2.19,2.13a.81.81,0,0,0-.3.86c.21,1,.35,2,.52,2.95a1.29,1.29,0,0,1-.5,1.38A1.26,1.26,0,0,1,53,20.2c-.88-.46-1.77-.91-2.64-1.4a.88.88,0,0,0-1,0c-.89.5-1.79,1-2.7,1.42A1.27,1.27,0,0,1,44.86,18.89ZM46.91,18c.78-.41,1.47-.74,2.13-1.12a1.62,1.62,0,0,1,1.76,0c.65.37,1.33.7,2.11,1.1-.13-.8-.2-1.46-.36-2.1a1.87,1.87,0,0,1,.68-2.1c.52-.43,1-.93,1.58-1.49-.95-.14-1.72-.27-2.49-.36A1.56,1.56,0,0,1,51,11c-.32-.71-.69-1.4-1.08-2.19-.37.74-.72,1.35-1,2A1.83,1.83,0,0,1,47.22,12c-.69.06-1.37.19-2.08.3.59.61,1.1,1.18,1.66,1.71a1.62,1.62,0,0,1,.52,1.63C47.17,16.38,47.06,17.14,46.91,18Z"/><path class="cls-1" d="M9,18.93c.17-1,.37-2.09.52-3.18A1,1,0,0,0,9.27,15c-.69-.72-1.42-1.41-2.14-2.1a1.29,1.29,0,0,1-.44-1.4,1.31,1.31,0,0,1,1.21-.92c1-.13,2-.27,3-.46a1.11,1.11,0,0,0,.66-.51c.46-.84.87-1.7,1.28-2.56a1.32,1.32,0,0,1,2.51,0c.42.88.84,1.76,1.31,2.62a1,1,0,0,0,.62.46c1,.19,2.05.33,3.08.48a1.26,1.26,0,0,1,1.1.88A1.24,1.24,0,0,1,21,12.85c-.74.73-1.51,1.44-2.23,2.19a.94.94,0,0,0-.22.69c.13,1,.31,1.93.48,2.89a1.33,1.33,0,0,1-2,1.5c-.84-.46-1.7-.88-2.53-1.35a.84.84,0,0,0-.92,0c-.89.49-1.79,1-2.7,1.42A1.27,1.27,0,0,1,9,18.93ZM17.06,18c-.14-.84-.24-1.56-.39-2.26a1.7,1.7,0,0,1,.56-1.79c.57-.5,1.08-1.05,1.68-1.65-.89-.13-1.65-.26-2.41-.35a1.6,1.6,0,0,1-1.37-1c-.32-.7-.68-1.38-1.06-2.16-.42.85-.79,1.57-1.14,2.3a1.4,1.4,0,0,1-1.14.85c-.82.11-1.63.24-2.58.39.61.59,1.12,1.13,1.68,1.62a1.73,1.73,0,0,1,.57,1.85c-.16.7-.24,1.42-.38,2.25.76-.4,1.42-.7,2-1.08a1.71,1.71,0,0,1,1.93,0C15.65,17.31,16.3,17.61,17.06,18Z"/><path class="cls-1" d="M39.4,12.12a3.62,3.62,0,0,1-.47.76c-.66.69-1.34,1.37-2.05,2a1,1,0,0,0-.33,1.1c.18.94.32,1.89.49,2.83a1.24,1.24,0,0,1-.5,1.32,1.26,1.26,0,0,1-1.41.06c-.85-.44-1.71-.87-2.53-1.35a1,1,0,0,0-1.14,0c-.81.47-1.66.87-2.48,1.31a1.31,1.31,0,0,1-2-1.46c.19-.94.31-1.89.5-2.83a.89.89,0,0,0-.31-.93c-.7-.65-1.37-1.34-2.06-2a1.32,1.32,0,0,1-.45-1.46,1.28,1.28,0,0,1,1.17-.88c1-.13,2-.28,3-.46a1,1,0,0,0,.58-.43c.47-.88.91-1.78,1.34-2.68a1.31,1.31,0,0,1,2.48,0c.43.9.86,1.8,1.33,2.68a1,1,0,0,0,.59.42c1,.19,2.1.32,3.14.5A1.3,1.3,0,0,1,39.4,12.12ZM29,18c.77-.4,1.48-.75,2.16-1.14a1.55,1.55,0,0,1,1.65,0c.7.39,1.41.74,2.19,1.14-.14-.85-.23-1.62-.4-2.37A1.6,1.6,0,0,1,35.14,14c.56-.51,1.07-1.07,1.68-1.67-.76-.11-1.41-.24-2.07-.29a1.89,1.89,0,0,1-1.8-1.28c-.25-.64-.61-1.23-1-1.94-.41.84-.77,1.54-1.11,2.25a1.45,1.45,0,0,1-1.19.89c-.81.11-1.62.24-2.48.37.6.61,1.13,1.19,1.69,1.73a1.52,1.52,0,0,1,.5,1.51C29.24,16.33,29.13,17.13,29,18Z"/></svg>