<svg id="Layer_1" data-name="Layer 1" xmlns="http://www.w3.org/2000/svg" viewBox="0 0 64 64"><defs><style>.cls-1{fill:#fe0000;}.cls-2{fill:#ffab00;}.cls-3{fill:#2e7dba;}</style></defs><title>ICONS Third file</title><path class="cls-1" d="M10,12.29c0-.92,0-1.73,0-2.54s.36-1.23,1.26-1.24c1.87,0,3.73,0,5.6,0,.26,0,.72-.09.73-.16a1.75,1.75,0,0,0-.16-1,4.67,4.67,0,0,1-.81-2.73,4.73,4.73,0,0,1,8.31-3,4.6,4.6,0,0,1,.54,5.23,2.21,2.21,0,0,0-.28,1c0,.44.21.7.77.69,1.84,0,3.69,0,5.53,0,.95,0,1.26.32,1.27,1.28,0,.77,0,1.54,0,2.32,0,0,0,.07.1.18h1.81c1.22,0,2.45,0,3.67,0,.85,0,1.21.37,1.21,1.23,0,2.32,0,4.63,0,6.95,0,.23,0,.47,0,.8h17.7c2.24,0,3.37,1.13,3.37,3.36q0,17.12,0,34.23a4.8,4.8,0,0,1-3.87,5,6.37,6.37,0,0,1-1.28.09H25.66a4.66,4.66,0,0,1-4.91-3.69c-.13-.48-.43-.4-.73-.4H5.49c-2,0-2.1-.05-2.1-2.08q0-22,0-43.95c0-1.36.24-1.6,1.62-1.6ZM5.33,58H20.48c0-.81,0-1.57,0-2.34,0-1,.32-1.32,1.3-1.32h6.29c0-.34,0-.61,0-.88,0-9.56,0-19.13,0-28.69a3.13,3.13,0,0,1,3.43-3.39c1.86.1,3.73,0,5.6,0h.63v-7H33c0,.84,0,1.63,0,2.42,0,1-.33,1.31-1.32,1.31H11.37c-1,0-1.29-.34-1.29-1.33,0-.83,0-1.66,0-2.52H5.33Zm23.75,4.17.33,0q13.16,0,26.32,0a2.82,2.82,0,0,0,2.87-2.92c0-1.37,0-2.75,0-4.12q0-15.31,0-30.63c0-1-.21-1.24-1.23-1.24H31.76c-1.52,0-1.71.19-1.71,1.68q0,16.6,0,33.2A6,6,0,0,1,29.08,62.15Zm-2.73-46c-.69-1.88-1.34-3.67-2-5.44,0-.13-.34-.23-.52-.23-1.46,0-2.92,0-4.37,0a.59.59,0,0,0-.65.46c-.6,1.6-1.23,3.19-1.84,4.79a2.71,2.71,0,0,0-.09.44ZM22.45,56c0,1,0,2,0,3a4.18,4.18,0,0,0,.06.7A2.74,2.74,0,0,0,25.15,62,2.68,2.68,0,0,0,28,59.95a30.54,30.54,0,0,0,0-3.91ZM19.68,8.55h3.83A3.53,3.53,0,0,1,24,6a2.8,2.8,0,0,0-.78-3.41,2.7,2.7,0,0,0-3.33,0A2.73,2.73,0,0,0,19,5.88,4.05,4.05,0,0,1,19.68,8.55Zm-7.55,7.54c.77,0,1.5,0,2.22,0a.81.81,0,0,0,.58-.41c.65-1.58,1.26-3.17,1.88-4.77a2.15,2.15,0,0,0,.07-.37H12.13Zm18.77,0V10.45H26.28l2.07,5.63Z"/><path class="cls-2" d="M16.76,48.42h6.11a3.4,3.4,0,0,1,.58,0,1,1,0,0,1,0,2,2.93,2.93,0,0,1-.51,0H10.51a3.19,3.19,0,0,1-.51,0,1,1,0,0,1,0-2,3.69,3.69,0,0,1,.58,0Z"/><path class="cls-2" d="M16.76,30.77c-2.12,0-4.25,0-6.37,0a1.64,1.64,0,0,1-1.08-.51.87.87,0,0,1,.55-1.43,3,3,0,0,1,.7-.05H22.91a3.21,3.21,0,0,1,.58,0,1,1,0,0,1,0,2,11.94,11.94,0,0,1-1.22,0Z"/><path class="cls-2" d="M16.7,43.93H10.46a1.62,1.62,0,0,1-.75-.11,1,1,0,0,1-.58-1.11.92.92,0,0,1,1-.75H23.24c.68,0,1.11.4,1.12,1a1,1,0,0,1-1.1,1H16.7Z"/><path class="cls-2" d="M16.7,37.35c-2.12,0-4.24,0-6.37,0a1.1,1.1,0,0,1-1.07-.56.9.9,0,0,1,.61-1.39,3.58,3.58,0,0,1,.7,0h12.6c.74,0,1.17.38,1.18,1s-.44,1-1.16,1H16.7Z"/><path class="cls-2" d="M10.1,24.13V22.32h1.84v1.81Z"/><path class="cls-2" d="M15.8,24.13V22.32h1.82v1.82Z"/><path class="cls-2" d="M23.31,24.15h-1.8V22.32h1.8Z"/><path class="cls-3" d="M34,45.57q0-5.5,0-11c0-1.11.3-1.41,1.42-1.41H53.15c1.13,0,1.46.32,1.46,1.45q0,11,0,21.94c0,1.05-.32,1.37-1.39,1.37H35.39c-1,0-1.36-.34-1.36-1.35Q34,51.07,34,45.57ZM48.35,35.08V40.7h4.22V35.08Zm4.22,13.21V42.67H48.35v5.62Zm0,2H48.37v5.59h4.22ZM40.18,40.7V35.08H36V40.7Zm6.2-5.6H42.16v5.58h4.22Zm-6.2,7.57H36v5.62h4.21Zm6.2,0H42.16v5.59h4.22Zm-6.19,7.57H36v5.61h4.21Zm6.19,0H42.16v5.58h4.22Z"/><path class="cls-3" d="M44.3,29.36c-3,0-6,0-8.93,0a1.47,1.47,0,0,1-.9-.22,1.08,1.08,0,0,1-.37-.87,1.72,1.72,0,0,1,.73-.81,1.47,1.47,0,0,1,.75-.08h18a1,1,0,1,1,0,2c-1.14,0-2.27,0-3.41,0Z"/></svg>