<svg id="Layer_1" data-name="Layer 1" xmlns="http://www.w3.org/2000/svg" viewBox="0 0 64 64"><defs><style>.cls-1{fill:#ffab00;}.cls-2{fill:#2e7dba;}.cls-3{fill:#fe0000;}</style></defs><title>ICONS Third file</title><path class="cls-1" d="M40,15.72l6.21-7.06c-.31,0-.57,0-.73-.11s-.55-.45-.52-.65a.91.91,0,0,1,.59-.63,16.79,16.79,0,0,1,2.24,0c.5,0,.67.36.68.8s0,1.17,0,1.75-.06,1-.68,1-.7-.42-.71-1l-.51.55-5.78,6.57c-.66.75-.94.75-1.59,0l-4.65-5.31-.46-.5-.92,1.12L28.1,18.47c-.58.72-.88.73-1.5.07l-3.82-4c-.14-.15-.26-.33-.24-.19-1.18,1-2.38,2.08-3.53,3.16-.74.7-1.42,1.46-2.12,2.2-.34.36-.72.57-1.13.18s-.19-.78.14-1.13l5.76-6c.51-.53.83-.52,1.36,0l4.28,4.52L30.73,13l2.59-3.21c.55-.68.91-.68,1.5,0Z"/><path class="cls-1" d="M20.54,4.35c1.37,0,2.75,0,4.12,0,.47,0,.87.12.89.64s-.39.73-.88.73H16.43c-.49,0-.9-.16-.89-.72s.4-.65.88-.65C17.8,4.36,19.17,4.35,20.54,4.35Z"/><path class="cls-1" d="M19.17,9C20.1,9,21,9,22,9c.49,0,.85.18.85.69s-.38.69-.86.69H16.42c-.58,0-.93-.29-.88-.73S16,9,16.43,9C17.34,9,18.26,9,19.17,9Z"/><path class="cls-1" d="M53,4.87a.85.85,0,0,1-.84.89.89.89,0,0,1-.92-.88A.91.91,0,0,1,52.14,4,.87.87,0,0,1,53,4.87Z"/><path class="cls-2" d="M54.34,26.21c-.22,0-.48.23-.69.4s-.13.26-.19.39c-1.13,2.34-2.25,4.69-3.4,7-.1.2-.35.48-.53.48-1.37,0-2.75,0-4.16,0l.24,1.37c1.4,0,2.75,0,4.1,0A1.31,1.31,0,0,0,51.13,35c.84-1.86,1.75-3.68,2.64-5.52.1-.2.21-.39.38-.7.55,1.85,1,3.58,1.6,5.29a2.12,2.12,0,0,1-.18,1.81c-1.06,2-2.08,4-3.09,6.06a.8.8,0,0,1-.84.54c-1.6,0-3.21,0-4.88,0L47,43.84h.61c1.56,0,3.12,0,4.69,0a1,1,0,0,0,1.06-.6c1.29-2.57,2.6-5.12,3.88-7.69a1.18,1.18,0,0,0,.11-.77q-1.16-4-2.4-8.07A.87.87,0,0,0,54.34,26.21Z"/><path class="cls-2" d="M60,49.57c-.4-1.25-.75-2.51-1.13-3.76s-.69-2.4-1.09-3.58a1.24,1.24,0,0,0-.65-.71c-.43-.15-.65.25-.81.6l-.19.4c-1.1,2.29-2.2,4.57-3.32,6.85-.1.2-.35.46-.53.47-1.33,0-2.67,0-4,0a.41.41,0,0,1-.21-.1l.26,1.48c1.48,0,2.87,0,4.26,0a1.19,1.19,0,0,0,1.25-.79c.87-1.89,1.79-3.75,2.7-5.62.1-.2.21-.39.36-.69.1.26.18.42.23.58.51,1.69,1,3.38,1.5,5.08a1.42,1.42,0,0,1-.07.92c-1.08,2.2-2.21,4.38-3.31,6.57a.72.72,0,0,1-.76.47c-1.52,0-3,0-4.56,0a.72.72,0,0,1-.47-.11l.26,1.52h3.65v1.46c0,.79,0,1.59,0,2.37a3.48,3.48,0,0,0,.39,1h.5a3.23,3.23,0,0,0,.43-1c.05-1.26,0-2.52,0-3.87,1,.26,1.32-.35,1.65-1q1.7-3.44,3.48-6.84A2,2,0,0,0,60,49.57Z"/><path class="cls-2" d="M14.33,59.18l.26-1.49a.45.45,0,0,1-.3.08c-1.64,0-3.29,0-4.93,0a.7.7,0,0,1-.5-.33Q7.09,54,5.38,50.59a.79.79,0,0,1-.06-.52c.56-1.92,1.13-3.83,1.7-5.74,0,0,.06,0,.13-.1.11.2.22.39.31.58.88,1.83,1.8,3.66,2.63,5.51a1.37,1.37,0,0,0,1.49.92c1.34-.05,2.69,0,4.12,0L16,49.78a.56.56,0,0,1-.36.09c-1.23,0-2.46,0-3.69,0a.7.7,0,0,1-.74-.48C10,47,8.87,44.58,7.72,42.18c-.17-.36-.37-.82-.84-.66a1.29,1.29,0,0,0-.67.76c-.78,2.5-1.53,5-2.24,7.53a1.89,1.89,0,0,0,.12,1.23c1.1,2.26,2.26,4.5,3.4,6.74.37.73.58,1.65,1.78,1.32,0,1.37,0,2.62,0,3.86a3.22,3.22,0,0,0,.43,1h.5a3.17,3.17,0,0,0,.39-1c0-1.26,0-2.53,0-3.84Z"/><path class="cls-2" d="M10.55,43.13a1.14,1.14,0,0,0,1.17.72c1.56,0,3.12,0,4.69,0l.58,0,.24-1.41c-1.49,0-3-.05-4.41,0a1.39,1.39,0,0,1-1.55-.94c-1-2.07-2.06-4.08-3.08-6.13a1.15,1.15,0,0,1-.12-.75c.54-1.92,1.12-3.83,1.73-5.9.18.32.29.51.39.71.92,1.91,1.85,3.82,2.75,5.74A1,1,0,0,0,14,35.9c1.44,0,2.89,0,4.38,0l.24-1.37c-1.34,0-2.64,0-3.93,0a.74.74,0,0,1-.8-.5c-1.13-2.39-2.28-4.76-3.43-7.15-.17-.36-.34-.75-.83-.71s-.6.44-.72.83c-.74,2.51-1.5,5-2.22,7.54a1.71,1.71,0,0,0,.1,1.12C8,38.16,9.31,40.63,10.55,43.13Z"/><path class="cls-3" d="M54.43,0H9.57c-.46,0-.8.18-.81.66s.34.71.83.71h1.54v.8q0,10.59,0,21.18c0,.84.19,1,1,1h8.34L18.72,34.52h0l-.24,1.37h0l-1.15,6.58h0l-.25,1.41h0c-.33,1.9-.67,3.72-1,5.55a.89.89,0,0,1,0,.11L15.67,52c-.15.89-.3,1.76-.45,2.62s-.33,1.8-.47,2.7a1.08,1.08,0,0,1,0,.2l-.39,2.23h0c-.12.75-.24,1.49-.37,2.23-.28,1.56-.22,1.65,1.36,1.65h34c.71,0,.95-.27.84-1-.14-.93-.31-1.85-.47-2.77v-.1h0l-.46-2.62h0l0-.19-4-22.68h0l-1.72-9.91h8.21c1,0,1.15-.15,1.15-1.16q0-7,0-14c0-.23.05-.52-.07-.67a1.08,1.08,0,0,0-.71-.44c-.2,0-.43.31-.57.53s0,.37,0,.55q0,6.53,0,13.06V23H12.53V1.37H54.41c.46,0,.8-.19.81-.67S54.9,0,54.43,0ZM42.1,24.42l6.58,37.8H15.28l6.58-37.8Z"/></svg>