<svg xmlns="http://www.w3.org/2000/svg" viewBox="0 0 22.575 24.906">
  <g id="Group_1861" data-name="Group 1861" transform="translate(-10222.764 -7425.296)">
    <path id="Path_5118" data-name="Path 5118" d="M10234.627,7425.3c.34.063.684.112,1.021.191a7.02,7.02,0,1,1-2.35-.149,1.152,1.152,0,0,0,.161-.042Zm-.6,11.6a4.583,4.583,0,1,0-4.575-4.6A4.577,4.577,0,0,0,10234.031,7436.894Z" fill="#fe0000"/>
    <path id="Path_5119" data-name="Path 5119" d="M10231.764,7450.2h-5.545a3.33,3.33,0,0,1-3.424-2.916,3.523,3.523,0,0,1,.094-1.391,11.283,11.283,0,0,1,3.741-5.81,1.215,1.215,0,1,1,1.579,1.845,9.16,9.16,0,0,0-2.944,4.456.973.973,0,0,0,1.021,1.384h11.212a1.217,1.217,0,1,1,.055,2.43c-1.581,0-3.161,0-4.742,0Z" fill="#2e7dba"/>
    <path id="Path_5120" data-name="Path 5120" d="M10245.339,7446.776a3.391,3.391,0,0,1-3.379,3.424,1.215,1.215,0,0,1-.092-2.426.963.963,0,0,0,.952-1.379,9.04,9.04,0,0,0-2.9-4.422,1.239,1.239,0,0,1-.5-1.123,1.153,1.153,0,0,1,.768-1.006,1.176,1.176,0,0,1,1.249.222,11.342,11.342,0,0,1,2.033,2.179,11.046,11.046,0,0,1,1.833,4.063,1.1,1.1,0,0,1,.024.168C10245.333,7446.6,10245.336,7446.719,10245.339,7446.776Z" fill="#ffab00"/>
  </g>
</svg>
