<svg id="Layer_1" data-name="Layer 1" xmlns="http://www.w3.org/2000/svg" viewBox="0 0 64 64"><defs><style>.cls-1{fill:#2e7dba;}.cls-2{fill:#ffab00;}.cls-3{fill:#fe0000;}</style></defs><title>ICONS Third file</title><path class="cls-1" d="M53.51,7.07a26.4,26.4,0,0,1-2.19-2.28,5.19,5.19,0,0,0-4.06-2c-4-.23-8-.69-12.07-1L22.94.6C20.82.41,18.7.2,16.58,0a2.86,2.86,0,0,0-3.22,2.56c-.06.38-.07.77-.11,1.15L11.6,22.23c-.1,1.13-.21,2.26-.33,3.47h0l-.19,2.06h0c-.17,1.81-.38,4.11-.55,5.91h2.08c.14-1.52.33-3.58.46-5.08q.55-6.13,1.1-12.26Q14.78,9.69,15.38,3c.07-.74.41-1,1.16-1L28.61,3.19,42.28,4.4l3.9.36c-.1,1.18-.2,2.3-.29,3.43A2,2,0,0,0,48,10.59c1.3.1,2.61.23,4,.36L50.63,26.36h2.07s1-11.62,1.54-17.07A2.54,2.54,0,0,0,53.51,7.07ZM47.94,8.5c.1-1.19.21-2.35.31-3.51.5.08,3,2.53,4,3.91Z"/><path class="cls-2" d="M47.51,43.56a6.7,6.7,0,1,0,6.68,6.74A6.72,6.72,0,0,0,47.51,43.56Zm0,11.33a4.63,4.63,0,0,1,0-9.27,4.63,4.63,0,1,1,0,9.27Z"/><path class="cls-2" d="M61.21,48.51a2,2,0,0,0-1.93-1.95A.62.62,0,0,1,58.6,46a2.22,2.22,0,0,0-.24-.59.69.69,0,0,1,.12-1,2,2,0,0,0,0-2.7,6.57,6.57,0,0,0-.73-.73,1.17,1.17,0,0,1-.43-.77h0l-2.1-1.48h0a2.33,2.33,0,0,0-2.17.62c-.08.08-.3.07-.44,0s-.39-.2-.59-.24a.92.92,0,0,1-.81-1,1.94,1.94,0,0,0-2-1.71q-1.71,0-3.42,0a2,2,0,0,0-2,1.88c0,.44-.18.66-.59.76-.24.06-.47.24-.71.28a.81.81,0,0,1-.6-.09,2.08,2.08,0,0,0-3,.14c-.72.71-1.44,1.42-2.14,2.14a2,2,0,0,0-.13,2.93.58.58,0,0,1,.09.79,2.65,2.65,0,0,0-.27.65c-.09.4-.31.53-.72.55a1.94,1.94,0,0,0-1.88,2c0,1.16,0,2.32,0,3.48a1.92,1.92,0,0,0,1.81,1.91c.46,0,.7.16.81.61.06.27.24.5.32.77a.66.66,0,0,1,0,.46c-.27.52-.57,1-.9,1.61l.81,2.16a3.32,3.32,0,0,1,2.16,1.38,1.79,1.79,0,0,0,1.87.76,10.79,10.79,0,0,0,1.7-.7,6.92,6.92,0,0,0,.83.34.77.77,0,0,1,.63.8A2,2,0,0,0,45.88,64c1,0,2.06,0,3.09,0a2.07,2.07,0,0,0,2.24-2.06.61.61,0,0,1,.24-.44c.46-.22.94-.39,1.39-.57,1.15,1,2.2,1.12,3.13.26s1.67-1.62,2.46-2.47a1.92,1.92,0,0,0,.11-2.59.85.85,0,0,1-.13-1.17,1.71,1.71,0,0,0,.19-.48c.09-.37.29-.49.68-.52a2,2,0,0,0,1.93-2C61.26,50.83,61.26,49.67,61.21,48.51ZM59.12,51.9h-.93a1.17,1.17,0,0,0-1.22.92A18.08,18.08,0,0,1,56.1,55c-.42.87-.4,1.16.28,1.81l.52.48-2.42,2.3L54,59.14c-.69-.69-1-.71-1.81-.3a18.6,18.6,0,0,1-2,.84c-.87.3-1.07.53-1.06,1.43v.76H45.82c0-.36,0-.7,0-1a1.06,1.06,0,0,0-.76-1.07c-.85-.34-1.71-.68-2.55-1.06a1.08,1.08,0,0,0-1.35.22l-.63.68L38.2,57.21c1.13-1.22,1.11-1.23.41-2.76A12.84,12.84,0,0,1,38.06,53c-.3-.94-.54-1.12-1.53-1.09h-.65V48.68s.07-.06.1-.05a1.81,1.81,0,0,0,2.28-1.71,5.57,5.57,0,0,1,.62-1.41c.43-.84.41-1.12-.26-1.76a5.65,5.65,0,0,0-.64-.47l2.56-2.45c.18.22.4.51.65.77a1.07,1.07,0,0,0,1.3.19c.84-.37,1.69-.72,2.55-1.06a1.05,1.05,0,0,0,.77-1.06c0-.34,0-.68,0-1.06h3.33c0,.31,0,.62,0,.93a1.16,1.16,0,0,0,.91,1.23,19.6,19.6,0,0,1,2.14.87c.89.43,1.15.42,1.86-.32.15-.15.26-.34.38-.48l2.34,2.44a1.85,1.85,0,0,0-.37,2.87,5.16,5.16,0,0,1,.53,1.37c.29.89.55,1.09,1.49,1.07h.7Z"/><path class="cls-2" d="M38.19,57.2h0l0,0h0Z"/><path class="cls-2" d="M47.51,43.56a6.7,6.7,0,1,0,6.68,6.74A6.72,6.72,0,0,0,47.51,43.56Zm0,11.33a4.63,4.63,0,0,1,0-9.27,4.63,4.63,0,1,1,0,9.27Z"/><path class="cls-2" d="M56.84,43.22l0,.09,0,0,.07-.05Z"/><path class="cls-3" d="M9.78,57.38V35.73h.77c7.07,0,14.14,0,21.21,0a1.68,1.68,0,0,0,1.7-1c1-2,2.16-3.86,3.22-5.8a1,1,0,0,1,1-.57c5.52,0,11,0,16.57,0,.91,0,1,.09,1,1v8.77c0,.07,0,.65,0,.65l2.1,1.48c0-3.49,0-7.57,0-11.06a2.63,2.63,0,0,0-2.87-2.89H49.81c-4.06,0-8.13,0-12.19,0a2.79,2.79,0,0,0-2.74,1.63c-.94,1.76-1.95,3.49-2.91,5.23a.79.79,0,0,1-.79.49q-9,0-18,0H9.8a2.15,2.15,0,0,0-2.1,1.9,6.39,6.39,0,0,0,0,.9V57.2c-1.86.06-2.85-.87-2.85-2.64q0-13,0-26c0-.6.18-.78.77-.77,1.62,0,3.8,0,5.48,0l.17-2.06H5.44a2.33,2.33,0,0,0-2.66,2.64q0,3.77,0,7.54,0,9.35,0,18.7a4.14,4.14,0,0,0,3.61,4.53,13.53,13.53,0,0,0,2.87.33c8.66,0,17.32.05,26,0,.33,0,1.08.07,1.39.11l-.81-2.16Z"/><path class="cls-1" d="M22,12.21l14.38,1.3c2.37.21,4.75.42,7.12.64.82.08,1.22.51,1.14,1.16s-.6.95-1.4.87L29.44,15l-7.89-.72a1,1,0,0,1-1-.81C20.35,12.7,20.91,12.14,22,12.21Z"/><path class="cls-1" d="M42.7,22.06l-10.59-.95c-3.64-.33-7.27-.65-10.91-1a1.66,1.66,0,0,1-1-.49,1.05,1.05,0,0,1-.06-1,1.35,1.35,0,0,1,1-.54c1.2,0,2.4.17,3.6.28l14,1.25,4.17.38c.86.07,1.32.46,1.27,1.13S43.6,22.11,42.7,22.06Z"/><path class="cls-2" d="M47.51,43.56a6.7,6.7,0,1,0,6.68,6.74A6.72,6.72,0,0,0,47.51,43.56Zm0,11.33a4.63,4.63,0,0,1,0-9.27,4.63,4.63,0,1,1,0,9.27Z"/></svg>