<svg id="Layer_1" data-name="Layer 1" xmlns="http://www.w3.org/2000/svg" viewBox="0 0 64 64"><defs><style>.cls-1{fill:#fe0000;}.cls-2{fill:#2e7dba;}.cls-3{fill:#ffab00;}</style></defs><title>ICONS Third file</title><path class="cls-1" d="M0,30.8Q0,20.92,0,11A10.66,10.66,0,0,1,11,0H50.65a10.66,10.66,0,0,1,11,11q0,13.18,0,26.37c0,.12,0,.25,0,.37,0,.85-.5,1.39-1.22,1.37a1.21,1.21,0,0,1-1.15-1.36q0-6.41,0-12.81,0-6.93,0-13.85a8.31,8.31,0,0,0-8.7-8.7H11.08a8.31,8.31,0,0,0-8.7,8.7q0,19.74,0,39.48a8.31,8.31,0,0,0,8.7,8.7H37.74c.83,0,1.34.46,1.36,1.15a1.21,1.21,0,0,1-1.37,1.22H11a10.66,10.66,0,0,1-11-11Q0,40.73,0,30.8Z"/><path class="cls-2" d="M40.3,52.11A11.85,11.85,0,1,1,52.15,64,11.86,11.86,0,0,1,40.3,52.11Zm21.33,0a9.48,9.48,0,1,0-9.46,9.48A9.49,9.49,0,0,0,61.63,52.15Z"/><path class="cls-3" d="M37.93,13H50.44a3.69,3.69,0,0,1,.67,0,1.18,1.18,0,0,1,0,2.33,3.63,3.63,0,0,1-.67,0h-25a3.62,3.62,0,0,1-.67,0,1.18,1.18,0,0,1,0-2.33,3.71,3.71,0,0,1,.67,0Z"/><path class="cls-3" d="M38,29.63H50.43a3.93,3.93,0,0,1,.67,0,1.18,1.18,0,0,1,0,2.33,3.42,3.42,0,0,1-.66,0h-25c-.17,0-.35,0-.52,0a1.18,1.18,0,0,1,0-2.36c.2,0,.39,0,.59,0Z"/><path class="cls-3" d="M19,14.25a4.74,4.74,0,1,1-4.73-4.77A4.75,4.75,0,0,1,19,14.25Zm-2.37,0a2.37,2.37,0,1,0-2.39,2.32A2.38,2.38,0,0,0,16.59,14.27Z"/><path class="cls-3" d="M19,30.8a4.74,4.74,0,1,1-4.78-4.72A4.75,4.75,0,0,1,19,30.8Zm-2.37.13a2.37,2.37,0,1,0-2.46,2.25A2.38,2.38,0,0,0,16.59,30.93Z"/><path class="cls-3" d="M19,47.44a4.74,4.74,0,1,1-4.73-4.77A4.75,4.75,0,0,1,19,47.44Zm-2.37,0a2.37,2.37,0,1,0-2.34,2.38A2.38,2.38,0,0,0,16.59,47.4Z"/><path class="cls-3" d="M30.19,48.6h-5c-.92,0-1.47-.47-1.45-1.21s.54-1.15,1.43-1.15H35.29c.92,0,1.47.47,1.45,1.21s-.55,1.15-1.43,1.15Z"/><path class="cls-2" d="M51,51c0-1.2,0-2.29,0-3.37,0-.83.45-1.34,1.15-1.36s1.21.51,1.22,1.36c0,1.08,0,2.17,0,3.37h3.24c.94,0,1.48.43,1.49,1.17s-.55,1.2-1.53,1.2h-3.2c0,1.16,0,2.29,0,3.41,0,.91-.71,1.52-1.47,1.28A1.2,1.2,0,0,1,51,56.74c0-1.11,0-2.21,0-3.41-1.2,0-2.35,0-3.5,0A1.18,1.18,0,0,1,47.14,51a3.45,3.45,0,0,1,.74,0Z"/></svg>